M48
; DRILL file {KiCad (6.0.0)} date Sat Apr 29 04:56:37 2023
; FORMAT={-:-/ absolute / inch / decimal}
; #@! TF.CreationDate,2023-04-29T04:56:37-07:00
; #@! TF.GenerationSoftware,Kicad,Pcbnew,(6.0.0)
; #@! TF.FileFunction,Plated,1,2,PTH
FMAT,2
INCH
; #@! TA.AperFunction,Plated,PTH,ViaDrill
T1C0.0157
; #@! TA.AperFunction,Plated,PTH,ComponentDrill
T2C0.0236
; #@! TA.AperFunction,Plated,PTH,ComponentDrill
T3C0.0579
%
G90
G05
T1
X5.565Y-3.655
X5.565Y-4.045
X5.7612Y-4.1437
X5.83Y-3.465
X6.195Y-3.765
X6.195Y-3.995
X6.195Y-4.23
X6.915Y-3.735
X6.915Y-4.155
T3
X7.302Y-3.402
X7.302Y-4.152
X7.3535Y-3.3445
X7.3535Y-4.0945
X7.5504Y-3.3248
X7.5504Y-4.0748
X7.552Y-3.302
X7.552Y-4.052
X8.052Y-3.402
X8.052Y-4.152
X8.1035Y-3.3445
X8.1035Y-4.0945
X8.3004Y-3.3248
X8.3004Y-4.0748
X8.302Y-3.302
X8.302Y-4.052
T2
G00X5.2599Y-3.1532
M15
G01X5.2599Y-3.1768
M16
G05
G00X5.2599Y-3.3079
M15
G01X5.2599Y-3.3512
M16
G05
G00X5.6001Y-3.1532
M15
G01X5.6001Y-3.1768
M16
G05
G00X5.6001Y-3.3079
M15
G01X5.6001Y-3.3512
M16
G05
T0
M30
