%TF.GenerationSoftware,KiCad,Pcbnew,(6.0.0)*%
%TF.CreationDate,2023-04-29T04:55:56-07:00*%
%TF.ProjectId,coolpcbproject,636f6f6c-7063-4627-9072-6f6a6563742e,rev?*%
%TF.SameCoordinates,Original*%
%TF.FileFunction,Copper,L2,Bot*%
%TF.FilePolarity,Positive*%
%FSLAX46Y46*%
G04 Gerber Fmt 4.6, Leading zero omitted, Abs format (unit mm)*
G04 Created by KiCad (PCBNEW (6.0.0)) date 2023-04-29 04:55:56*
%MOMM*%
%LPD*%
G01*
G04 APERTURE LIST*
G04 Aperture macros list*
%AMRoundRect*
0 Rectangle with rounded corners*
0 $1 Rounding radius*
0 $2 $3 $4 $5 $6 $7 $8 $9 X,Y pos of 4 corners*
0 Add a 4 corners polygon primitive as box body*
4,1,4,$2,$3,$4,$5,$6,$7,$8,$9,$2,$3,0*
0 Add four circle primitives for the rounded corners*
1,1,$1+$1,$2,$3*
1,1,$1+$1,$4,$5*
1,1,$1+$1,$6,$7*
1,1,$1+$1,$8,$9*
0 Add four rect primitives between the rounded corners*
20,1,$1+$1,$2,$3,$4,$5,0*
20,1,$1+$1,$4,$5,$6,$7,0*
20,1,$1+$1,$6,$7,$8,$9,0*
20,1,$1+$1,$8,$9,$2,$3,0*%
%AMHorizOval*
0 Thick line with rounded ends*
0 $1 width*
0 $2 $3 position (X,Y) of the first rounded end (center of the circle)*
0 $4 $5 position (X,Y) of the second rounded end (center of the circle)*
0 Add line between two ends*
20,1,$1,$2,$3,$4,$5,0*
0 Add two circle primitives to create the rounded ends*
1,1,$1,$2,$3*
1,1,$1,$4,$5*%
G04 Aperture macros list end*
%TA.AperFunction,ComponentPad*%
%ADD10HorizOval,2.250000X0.655008X0.729993X-0.655008X-0.729993X0*%
%TD*%
%TA.AperFunction,ComponentPad*%
%ADD11C,2.250000*%
%TD*%
%TA.AperFunction,ComponentPad*%
%ADD12HorizOval,2.250000X0.020000X0.290000X-0.020000X-0.290000X0*%
%TD*%
%TA.AperFunction,ComponentPad*%
%ADD13HorizOval,2.250000X0.655001X0.730000X-0.655001X-0.730000X0*%
%TD*%
%TA.AperFunction,SMDPad,CuDef*%
%ADD14R,1.200000X0.900000*%
%TD*%
%TA.AperFunction,SMDPad,CuDef*%
%ADD15R,0.600000X1.450000*%
%TD*%
%TA.AperFunction,SMDPad,CuDef*%
%ADD16R,0.300000X1.450000*%
%TD*%
%TA.AperFunction,ComponentPad*%
%ADD17O,1.000000X1.600000*%
%TD*%
%TA.AperFunction,ComponentPad*%
%ADD18O,1.000000X2.100000*%
%TD*%
%TA.AperFunction,SMDPad,CuDef*%
%ADD19RoundRect,0.250000X0.375000X0.625000X-0.375000X0.625000X-0.375000X-0.625000X0.375000X-0.625000X0*%
%TD*%
%TA.AperFunction,SMDPad,CuDef*%
%ADD20RoundRect,0.250000X-0.475000X0.250000X-0.475000X-0.250000X0.475000X-0.250000X0.475000X0.250000X0*%
%TD*%
%TA.AperFunction,SMDPad,CuDef*%
%ADD21RoundRect,0.250000X0.475000X-0.250000X0.475000X0.250000X-0.475000X0.250000X-0.475000X-0.250000X0*%
%TD*%
%TA.AperFunction,SMDPad,CuDef*%
%ADD22R,1.400000X1.200000*%
%TD*%
%TA.AperFunction,SMDPad,CuDef*%
%ADD23RoundRect,0.250000X-0.450000X0.262500X-0.450000X-0.262500X0.450000X-0.262500X0.450000X0.262500X0*%
%TD*%
%TA.AperFunction,SMDPad,CuDef*%
%ADD24R,1.500000X0.550000*%
%TD*%
%TA.AperFunction,SMDPad,CuDef*%
%ADD25R,0.550000X1.500000*%
%TD*%
%TA.AperFunction,SMDPad,CuDef*%
%ADD26RoundRect,0.250000X-0.250000X-0.475000X0.250000X-0.475000X0.250000X0.475000X-0.250000X0.475000X0*%
%TD*%
%TA.AperFunction,SMDPad,CuDef*%
%ADD27R,1.800000X1.100000*%
%TD*%
%TA.AperFunction,SMDPad,CuDef*%
%ADD28RoundRect,0.250000X0.450000X-0.262500X0.450000X0.262500X-0.450000X0.262500X-0.450000X-0.262500X0*%
%TD*%
%TA.AperFunction,SMDPad,CuDef*%
%ADD29RoundRect,0.250000X-0.262500X-0.450000X0.262500X-0.450000X0.262500X0.450000X-0.262500X0.450000X0*%
%TD*%
%TA.AperFunction,SMDPad,CuDef*%
%ADD30RoundRect,0.250000X0.262500X0.450000X-0.262500X0.450000X-0.262500X-0.450000X0.262500X-0.450000X0*%
%TD*%
%TA.AperFunction,SMDPad,CuDef*%
%ADD31RoundRect,0.150000X0.150000X-0.512500X0.150000X0.512500X-0.150000X0.512500X-0.150000X-0.512500X0*%
%TD*%
%TA.AperFunction,ViaPad*%
%ADD32C,0.800000*%
%TD*%
%TA.AperFunction,Conductor*%
%ADD33C,0.381000*%
%TD*%
%TA.AperFunction,Conductor*%
%ADD34C,0.384000*%
%TD*%
%TA.AperFunction,Conductor*%
%ADD35C,0.254000*%
%TD*%
%TA.AperFunction,Conductor*%
%ADD36C,0.200000*%
%TD*%
G04 APERTURE END LIST*
D10*
%TO.P,MX4,1,COL*%
%TO.N,col1*%
X205174809Y-104729808D03*
D11*
X205829801Y-103999801D03*
%TO.P,MX4,2,ROW*%
%TO.N,Net-(D4-Pad2)*%
X210869801Y-102919801D03*
D12*
X210849801Y-103209801D03*
%TD*%
D11*
%TO.P,MX2,1,COL*%
%TO.N,col1*%
X205829801Y-84949801D03*
D10*
X205174809Y-85679808D03*
D11*
%TO.P,MX2,2,ROW*%
%TO.N,Net-(D2-Pad2)*%
X210869801Y-83869801D03*
D12*
X210849801Y-84159801D03*
%TD*%
D11*
%TO.P,MX1,1,COL*%
%TO.N,col0*%
X186779801Y-84949801D03*
D13*
X186124802Y-85679801D03*
D12*
%TO.P,MX1,2,ROW*%
%TO.N,Net-(D1-Pad2)*%
X191799801Y-84159801D03*
D11*
X191819801Y-83869801D03*
%TD*%
D13*
%TO.P,MX3,1,COL*%
%TO.N,col0*%
X186124802Y-104729801D03*
D11*
X186779801Y-103999801D03*
%TO.P,MX3,2,ROW*%
%TO.N,Net-(D3-Pad2)*%
X191819801Y-102919801D03*
D12*
X191799801Y-103209801D03*
%TD*%
D14*
%TO.P,D1,1,K*%
%TO.N,row0*%
X197534801Y-91107801D03*
%TO.P,D1,2,A*%
%TO.N,Net-(D1-Pad2)*%
X197534801Y-87807801D03*
%TD*%
D15*
%TO.P,USB1,1,GND*%
%TO.N,GND*%
X134697000Y-85486000D03*
%TO.P,USB1,2,VBUS*%
%TO.N,Vcc*%
X135472000Y-85486000D03*
D16*
%TO.P,USB1,3,SBU2*%
%TO.N,unconnected-(USB1-Pad3)*%
X136172000Y-85486000D03*
%TO.P,USB1,4,CC1*%
%TO.N,Net-(R5-Pad2)*%
X136672000Y-85486000D03*
%TO.P,USB1,5,DN2*%
%TO.N,D- IN*%
X137172000Y-85486000D03*
%TO.P,USB1,6,DP1*%
%TO.N,D+ IN*%
X137672000Y-85486000D03*
%TO.P,USB1,7,DN1*%
%TO.N,D- IN*%
X138172000Y-85486000D03*
%TO.P,USB1,8,DP2*%
%TO.N,D+ IN*%
X138672000Y-85486000D03*
%TO.P,USB1,9,SBU1*%
%TO.N,unconnected-(USB1-Pad9)*%
X139172000Y-85486000D03*
%TO.P,USB1,10,CC2*%
%TO.N,Net-(R6-Pad2)*%
X139672000Y-85486000D03*
D15*
%TO.P,USB1,11,VBUS*%
%TO.N,Vcc*%
X140372000Y-85486000D03*
%TO.P,USB1,12,GND*%
%TO.N,GND*%
X141147000Y-85486000D03*
D17*
%TO.P,USB1,13,SHIELD*%
X142242000Y-80391000D03*
D18*
X142242000Y-84571000D03*
X133602000Y-84571000D03*
D17*
X133602000Y-80391000D03*
%TD*%
D14*
%TO.P,D2,1,K*%
%TO.N,row0*%
X216584801Y-91107801D03*
%TO.P,D2,2,A*%
%TO.N,Net-(D2-Pad2)*%
X216584801Y-87807801D03*
%TD*%
%TO.P,D4,1,K*%
%TO.N,row1*%
X216584801Y-110157801D03*
%TO.P,D4,2,A*%
%TO.N,Net-(D4-Pad2)*%
X216584801Y-106857801D03*
%TD*%
D19*
%TO.P,F1,1*%
%TO.N,+5V*%
X139322000Y-91821000D03*
%TO.P,F1,2*%
%TO.N,Vcc*%
X136522000Y-91821000D03*
%TD*%
D20*
%TO.P,C1,1*%
%TO.N,GND*%
X169703750Y-84902000D03*
%TO.P,C1,2*%
%TO.N,Net-(C1-Pad2)*%
X169703750Y-86802000D03*
%TD*%
D21*
%TO.P,C7,1*%
%TO.N,GND*%
X155956000Y-102296000D03*
%TO.P,C7,2*%
%TO.N,+5V*%
X155956000Y-100396000D03*
%TD*%
D20*
%TO.P,C3,1*%
%TO.N,Net-(C3-Pad1)*%
X155956000Y-95443000D03*
%TO.P,C3,2*%
%TO.N,GND*%
X155956000Y-97343000D03*
%TD*%
%TO.P,C5,1*%
%TO.N,GND*%
X173609000Y-92903000D03*
%TO.P,C5,2*%
%TO.N,+5V*%
X173609000Y-94803000D03*
%TD*%
%TO.P,C4,1*%
%TO.N,GND*%
X155702000Y-86172000D03*
%TO.P,C4,2*%
%TO.N,+5V*%
X155702000Y-88072000D03*
%TD*%
D22*
%TO.P,Y1,1,1*%
%TO.N,Net-(C2-Pad2)*%
X164328750Y-85058250D03*
%TO.P,Y1,2,2*%
%TO.N,GND*%
X166528750Y-85058250D03*
%TO.P,Y1,3,3*%
%TO.N,Net-(C1-Pad2)*%
X166528750Y-86758250D03*
%TO.P,Y1,4,4*%
%TO.N,GND*%
X164328750Y-86758250D03*
%TD*%
D23*
%TO.P,R3,1*%
%TO.N,D-*%
X151130000Y-100941500D03*
%TO.P,R3,2*%
%TO.N,D- OUT*%
X151130000Y-102766500D03*
%TD*%
D24*
%TO.P,U1,1,PE6*%
%TO.N,unconnected-(U1-Pad1)*%
X158941801Y-100964500D03*
%TO.P,U1,2,UVCC*%
%TO.N,+5V*%
X158941801Y-100164500D03*
%TO.P,U1,3,D-*%
%TO.N,D-*%
X158941801Y-99364500D03*
%TO.P,U1,4,D+*%
%TO.N,D+*%
X158941801Y-98564500D03*
%TO.P,U1,5,UGND*%
%TO.N,GND*%
X158941801Y-97764500D03*
%TO.P,U1,6,UCAP*%
%TO.N,Net-(C3-Pad1)*%
X158941801Y-96964500D03*
%TO.P,U1,7,VBUS*%
%TO.N,+5V*%
X158941801Y-96164500D03*
%TO.P,U1,8,PB0*%
%TO.N,unconnected-(U1-Pad8)*%
X158941801Y-95364500D03*
%TO.P,U1,9,PB1*%
%TO.N,unconnected-(U1-Pad9)*%
X158941801Y-94564500D03*
%TO.P,U1,10,PB2*%
%TO.N,unconnected-(U1-Pad10)*%
X158941801Y-93764500D03*
%TO.P,U1,11,PB3*%
%TO.N,unconnected-(U1-Pad11)*%
X158941801Y-92964500D03*
D25*
%TO.P,U1,12,PB7*%
%TO.N,unconnected-(U1-Pad12)*%
X160641801Y-91264500D03*
%TO.P,U1,13,~{RESET}*%
%TO.N,Net-(R1-Pad1)*%
X161441801Y-91264500D03*
%TO.P,U1,14,VCC*%
%TO.N,+5V*%
X162241801Y-91264500D03*
%TO.P,U1,15,GND*%
%TO.N,GND*%
X163041801Y-91264500D03*
%TO.P,U1,16,XTAL2*%
%TO.N,Net-(C2-Pad2)*%
X163841801Y-91264500D03*
%TO.P,U1,17,XTAL1*%
%TO.N,Net-(C1-Pad2)*%
X164641801Y-91264500D03*
%TO.P,U1,18,PD0*%
%TO.N,unconnected-(U1-Pad18)*%
X165441801Y-91264500D03*
%TO.P,U1,19,PD1*%
%TO.N,unconnected-(U1-Pad19)*%
X166241801Y-91264500D03*
%TO.P,U1,20,PD2*%
%TO.N,unconnected-(U1-Pad20)*%
X167041801Y-91264500D03*
%TO.P,U1,21,PD3*%
%TO.N,unconnected-(U1-Pad21)*%
X167841801Y-91264500D03*
%TO.P,U1,22,PD5*%
%TO.N,unconnected-(U1-Pad22)*%
X168641801Y-91264500D03*
D24*
%TO.P,U1,23,GND*%
%TO.N,GND*%
X170341801Y-92964500D03*
%TO.P,U1,24,AVCC*%
%TO.N,+5V*%
X170341801Y-93764500D03*
%TO.P,U1,25,PD4*%
%TO.N,unconnected-(U1-Pad25)*%
X170341801Y-94564500D03*
%TO.P,U1,26,PD6*%
%TO.N,unconnected-(U1-Pad26)*%
X170341801Y-95364500D03*
%TO.P,U1,27,PD7*%
%TO.N,row0*%
X170341801Y-96164500D03*
%TO.P,U1,28,PB4*%
%TO.N,col1*%
X170341801Y-96964500D03*
%TO.P,U1,29,PB5*%
%TO.N,col0*%
X170341801Y-97764500D03*
%TO.P,U1,30,PB6*%
%TO.N,row1*%
X170341801Y-98564500D03*
%TO.P,U1,31,PC6*%
%TO.N,unconnected-(U1-Pad31)*%
X170341801Y-99364500D03*
%TO.P,U1,32,PC7*%
%TO.N,unconnected-(U1-Pad32)*%
X170341801Y-100164500D03*
%TO.P,U1,33,~{HWB}/PE2*%
%TO.N,Net-(R4-Pad1)*%
X170341801Y-100964500D03*
D25*
%TO.P,U1,34,VCC*%
%TO.N,+5V*%
X168641801Y-102664500D03*
%TO.P,U1,35,GND*%
%TO.N,GND*%
X167841801Y-102664500D03*
%TO.P,U1,36,PF7*%
%TO.N,unconnected-(U1-Pad36)*%
X167041801Y-102664500D03*
%TO.P,U1,37,PF6*%
%TO.N,unconnected-(U1-Pad37)*%
X166241801Y-102664500D03*
%TO.P,U1,38,PF5*%
%TO.N,unconnected-(U1-Pad38)*%
X165441801Y-102664500D03*
%TO.P,U1,39,PF4*%
%TO.N,unconnected-(U1-Pad39)*%
X164641801Y-102664500D03*
%TO.P,U1,40,PF1*%
%TO.N,unconnected-(U1-Pad40)*%
X163841801Y-102664500D03*
%TO.P,U1,41,PF0*%
%TO.N,unconnected-(U1-Pad41)*%
X163041801Y-102664500D03*
%TO.P,U1,42,AREF*%
%TO.N,unconnected-(U1-Pad42)*%
X162241801Y-102664500D03*
%TO.P,U1,43,GND*%
%TO.N,GND*%
X161441801Y-102664500D03*
%TO.P,U1,44,AVCC*%
%TO.N,+5V*%
X160641801Y-102664500D03*
%TD*%
D14*
%TO.P,D3,1,K*%
%TO.N,row1*%
X197407801Y-110157801D03*
%TO.P,D3,2,A*%
%TO.N,Net-(D3-Pad2)*%
X197407801Y-106857801D03*
%TD*%
D26*
%TO.P,C6,1*%
%TO.N,GND*%
X167071000Y-105410000D03*
%TO.P,C6,2*%
%TO.N,+5V*%
X168971000Y-105410000D03*
%TD*%
D27*
%TO.P,SW1,1,1*%
%TO.N,GND*%
X137743000Y-108911000D03*
X143943000Y-108911000D03*
%TO.P,SW1,2,2*%
%TO.N,Net-(R1-Pad1)*%
X143943000Y-105211000D03*
X137743000Y-105211000D03*
%TD*%
D23*
%TO.P,R4,1*%
%TO.N,Net-(R4-Pad1)*%
X173609000Y-101449500D03*
%TO.P,R4,2*%
%TO.N,GND*%
X173609000Y-103274500D03*
%TD*%
D28*
%TO.P,R1,1*%
%TO.N,Net-(R1-Pad1)*%
X151384000Y-88034500D03*
%TO.P,R1,2*%
%TO.N,GND*%
X151384000Y-86209500D03*
%TD*%
D23*
%TO.P,R2,1*%
%TO.N,D+*%
X151193500Y-97322000D03*
%TO.P,R2,2*%
%TO.N,D+ OUT*%
X151193500Y-99147000D03*
%TD*%
D29*
%TO.P,R5,1*%
%TO.N,GND*%
X134469500Y-89027000D03*
%TO.P,R5,2*%
%TO.N,Net-(R5-Pad2)*%
X136294500Y-89027000D03*
%TD*%
D30*
%TO.P,R6,1*%
%TO.N,GND*%
X141628500Y-89027000D03*
%TO.P,R6,2*%
%TO.N,Net-(R6-Pad2)*%
X139803500Y-89027000D03*
%TD*%
D21*
%TO.P,C2,1*%
%TO.N,GND*%
X160972500Y-86802000D03*
%TO.P,C2,2*%
%TO.N,Net-(C2-Pad2)*%
X160972500Y-84902000D03*
%TD*%
D31*
%TO.P,U2,1,I/O1*%
%TO.N,D+ OUT*%
X138872000Y-97403500D03*
%TO.P,U2,2,GND*%
%TO.N,GND*%
X137922000Y-97403500D03*
%TO.P,U2,3,I/O2*%
%TO.N,D- OUT*%
X136972000Y-97403500D03*
%TO.P,U2,4,I/O2*%
%TO.N,D- IN*%
X136972000Y-95128500D03*
%TO.P,U2,5,VBUS*%
%TO.N,+5V*%
X137922000Y-95128500D03*
%TO.P,U2,6,I/O1*%
%TO.N,D+ IN*%
X138872000Y-95128500D03*
%TD*%
D32*
%TO.N,+5V*%
X157353000Y-107442000D03*
X157353000Y-101473000D03*
X175641000Y-105537000D03*
X141351000Y-102743000D03*
X141351000Y-92837000D03*
X157353000Y-95631000D03*
X175641000Y-94869000D03*
%TO.N,Net-(R1-Pad1)*%
X146335750Y-105251250D03*
X148082000Y-88011000D03*
%TD*%
D33*
%TO.N,GND*%
X161441801Y-99133500D02*
X166443500Y-99133500D01*
X141147000Y-88545500D02*
X141628500Y-89027000D01*
X165608500Y-92964500D02*
X166496500Y-92964500D01*
X144708000Y-108911000D02*
X143943000Y-108911000D01*
X163610301Y-92964000D02*
X163041801Y-92395500D01*
X133602000Y-84571000D02*
X133782000Y-84571000D01*
X155956000Y-102296000D02*
X157641250Y-103981250D01*
X155020625Y-102296000D02*
X152541625Y-104775000D01*
X173609000Y-103274500D02*
X171056823Y-103274500D01*
X168314124Y-100531801D02*
X167841801Y-100531801D01*
X133602000Y-80645000D02*
X133604000Y-80645000D01*
X137922000Y-97403500D02*
X137922000Y-96927297D01*
X158623000Y-84455000D02*
X158623000Y-86106000D01*
X169703750Y-84902000D02*
X166685000Y-84902000D01*
X143943000Y-108911000D02*
X137743000Y-108911000D01*
X159319000Y-86802000D02*
X160972500Y-86802000D01*
X155956000Y-97343000D02*
X156377500Y-97764500D01*
X161130073Y-103981250D02*
X161441801Y-103669522D01*
X163041801Y-92395500D02*
X163041801Y-91264500D01*
X161441801Y-103669522D02*
X161441801Y-102664500D01*
X155956000Y-102296000D02*
X155020625Y-102296000D01*
X160072801Y-97764500D02*
X161441801Y-99133500D01*
X160972500Y-86802000D02*
X163041801Y-88871301D01*
D34*
X142062000Y-84571000D02*
X141147000Y-85486000D01*
D33*
X166443500Y-93017500D02*
X166496500Y-92964500D01*
X158623000Y-86106000D02*
X159319000Y-86802000D01*
X136598317Y-96181020D02*
X134469500Y-94052203D01*
X173547500Y-92964500D02*
X173609000Y-92903000D01*
X170341801Y-92964500D02*
X173547500Y-92964500D01*
X152541625Y-104775000D02*
X148844000Y-104775000D01*
X167841801Y-100531801D02*
X167841801Y-102664500D01*
X165354000Y-82931000D02*
X160147000Y-82931000D01*
X166496500Y-92964500D02*
X170341801Y-92964500D01*
X165608000Y-92964000D02*
X163610301Y-92964000D01*
X137175723Y-96181020D02*
X136598317Y-96181020D01*
X158941801Y-97764500D02*
X160072801Y-97764500D01*
X158557000Y-86172000D02*
X158623000Y-86106000D01*
X142242000Y-84571000D02*
X142062000Y-84571000D01*
X164574750Y-86758250D02*
X164328750Y-86758250D01*
X166443500Y-99133500D02*
X166443500Y-93017500D01*
X151421500Y-86172000D02*
X151384000Y-86209500D01*
X151384000Y-86209500D02*
X151995500Y-86209500D01*
D34*
X141147000Y-85486000D02*
X141147000Y-88545500D01*
D33*
X133602000Y-80391000D02*
X142242000Y-80391000D01*
X166528750Y-85058250D02*
X166528750Y-84105750D01*
X166274750Y-85058250D02*
X164574750Y-86758250D01*
X163041801Y-88871301D02*
X163041801Y-91264500D01*
X148844000Y-104775000D02*
X144708000Y-108911000D01*
X171056823Y-103274500D02*
X168314124Y-100531801D01*
X137922000Y-96927297D02*
X137175723Y-96181020D01*
X133604000Y-80645000D02*
X133731000Y-80772000D01*
X166443500Y-99133500D02*
X167841801Y-100531801D01*
X166528750Y-85058250D02*
X166274750Y-85058250D01*
X167841801Y-104639199D02*
X167071000Y-105410000D01*
X133782000Y-84571000D02*
X134697000Y-85486000D01*
X160147000Y-82931000D02*
X158623000Y-84455000D01*
X134469500Y-94052203D02*
X134469500Y-89027000D01*
X155664500Y-86209500D02*
X155702000Y-86172000D01*
X155702000Y-86172000D02*
X158557000Y-86172000D01*
X165608000Y-92964000D02*
X165608500Y-92964500D01*
X157641250Y-103981250D02*
X161130073Y-103981250D01*
X142242000Y-80391000D02*
X142242000Y-84571000D01*
X133602000Y-80391000D02*
X133602000Y-84571000D01*
X156377500Y-97764500D02*
X158941801Y-97764500D01*
X155702000Y-86172000D02*
X151421500Y-86172000D01*
X161441801Y-99133500D02*
X161441801Y-102664500D01*
X134697000Y-88799500D02*
X134469500Y-89027000D01*
X167841801Y-102664500D02*
X167841801Y-104639199D01*
X166528750Y-84105750D02*
X165354000Y-82931000D01*
X166685000Y-84902000D02*
X166528750Y-85058250D01*
X134697000Y-85486000D02*
X134697000Y-88799500D01*
D35*
%TO.N,Net-(C1-Pad2)*%
X164592000Y-89789000D02*
X164641801Y-89838801D01*
X164641801Y-89838801D02*
X164641801Y-91264500D01*
X166528750Y-86758250D02*
X166528750Y-87852250D01*
X166528750Y-87852250D02*
X164592000Y-89789000D01*
X169703750Y-86802000D02*
X169660000Y-86758250D01*
X169660000Y-86758250D02*
X166528750Y-86758250D01*
%TO.N,Net-(C2-Pad2)*%
X160972500Y-84902000D02*
X161128750Y-85058250D01*
X162814000Y-85979000D02*
X162814000Y-87912324D01*
X163841801Y-88940125D02*
X163841801Y-91264500D01*
X161128750Y-85058250D02*
X164328750Y-85058250D01*
X163734750Y-85058250D02*
X162814000Y-85979000D01*
X162814000Y-87912324D02*
X163841801Y-88940125D01*
%TO.N,Net-(C3-Pad1)*%
X155956000Y-95443000D02*
X157477500Y-96964500D01*
X157477500Y-96964500D02*
X158941801Y-96964500D01*
D33*
%TO.N,+5V*%
X139276980Y-96181020D02*
X140081000Y-95377000D01*
X175575000Y-94803000D02*
X175641000Y-94869000D01*
X157822500Y-100164500D02*
X158941801Y-100164500D01*
X169098000Y-105537000D02*
X168971000Y-105410000D01*
X156187500Y-100164500D02*
X157822500Y-100164500D01*
X162241801Y-93869522D02*
X162241801Y-91264500D01*
X140081000Y-92580000D02*
X139322000Y-91821000D01*
X173609000Y-94803000D02*
X172908000Y-94803000D01*
X168971000Y-102993699D02*
X168641801Y-102664500D01*
X160072801Y-100164500D02*
X160641801Y-100733500D01*
X168971000Y-105410000D02*
X166939000Y-107442000D01*
X157353000Y-101473000D02*
X157353000Y-100748279D01*
X162241801Y-90280458D02*
X162241801Y-91264500D01*
X158941801Y-100164500D02*
X160072801Y-100164500D01*
X137922000Y-95604703D02*
X138498317Y-96181020D01*
X157353000Y-100748279D02*
X157822500Y-100278779D01*
X171869500Y-93764500D02*
X170341801Y-93764500D01*
X160641801Y-100733500D02*
X160641801Y-102664500D01*
X158941801Y-96164500D02*
X159946823Y-96164500D01*
X140335000Y-91821000D02*
X139322000Y-91821000D01*
X157886500Y-96164500D02*
X157353000Y-95631000D01*
X159946823Y-96164500D02*
X162241801Y-93869522D01*
X140081000Y-95377000D02*
X140081000Y-92580000D01*
X166939000Y-107442000D02*
X157353000Y-107442000D01*
X157822500Y-100278779D02*
X157822500Y-100164500D01*
X142589250Y-103981250D02*
X152384125Y-103981250D01*
X172908000Y-94803000D02*
X171869500Y-93764500D01*
X140335000Y-91821000D02*
X141351000Y-92837000D01*
X138498317Y-96181020D02*
X139276980Y-96181020D01*
X155956000Y-100409375D02*
X155956000Y-100396000D01*
X158941801Y-96164500D02*
X157886500Y-96164500D01*
X141351000Y-102743000D02*
X142589250Y-103981250D01*
X152384125Y-103981250D02*
X155956000Y-100409375D01*
X155702000Y-88072000D02*
X160033344Y-88072000D01*
X168971000Y-105410000D02*
X168971000Y-102993699D01*
X155956000Y-100396000D02*
X156187500Y-100164500D01*
X173609000Y-94803000D02*
X175575000Y-94803000D01*
X137922000Y-95128500D02*
X137922000Y-95604703D01*
X175641000Y-105537000D02*
X169098000Y-105537000D01*
X160033344Y-88072000D02*
X162241801Y-90280458D01*
D35*
%TO.N,row0*%
X197534801Y-91107801D02*
X197747222Y-91320222D01*
X197534801Y-91107801D02*
X192478102Y-96164500D01*
X216372380Y-91320222D02*
X216584801Y-91107801D01*
X192478102Y-96164500D02*
X170341801Y-96164500D01*
X197747222Y-91320222D02*
X216372380Y-91320222D01*
%TO.N,Net-(D1-Pad2)*%
X195629801Y-83869801D02*
X191819801Y-83869801D01*
X197534801Y-87807801D02*
X197534801Y-85774801D01*
X197534801Y-85774801D02*
X195629801Y-83869801D01*
%TO.N,Net-(D2-Pad2)*%
X216584801Y-87807801D02*
X216584801Y-86282801D01*
X214503000Y-84201000D02*
X211078602Y-84201000D01*
X211078602Y-84201000D02*
X210829801Y-84449801D01*
X216584801Y-86282801D02*
X214503000Y-84201000D01*
%TO.N,row1*%
X181864000Y-110998000D02*
X182245000Y-111379000D01*
X196293199Y-110157801D02*
X197407801Y-110157801D01*
X181864000Y-101092000D02*
X179336500Y-98564500D01*
X179336500Y-98564500D02*
X170341801Y-98564500D01*
X182245000Y-111379000D02*
X195072000Y-111379000D01*
X198889222Y-110370222D02*
X199771000Y-111252000D01*
X197620222Y-110370222D02*
X198889222Y-110370222D01*
X197407801Y-110157801D02*
X197620222Y-110370222D01*
X181864000Y-101092000D02*
X181864000Y-110998000D01*
X199771000Y-111252000D02*
X215490602Y-111252000D01*
X215490602Y-111252000D02*
X216584801Y-110157801D01*
X195072000Y-111379000D02*
X196293199Y-110157801D01*
%TO.N,Net-(D3-Pad2)*%
X195199000Y-102997000D02*
X192282602Y-102997000D01*
X192282602Y-102997000D02*
X191779801Y-103499801D01*
X197407801Y-106857801D02*
X197407801Y-105205801D01*
X197407801Y-105205801D02*
X195199000Y-102997000D01*
%TO.N,Net-(D4-Pad2)*%
X216584801Y-104951801D02*
X214503000Y-102870000D01*
X216584801Y-106857801D02*
X216584801Y-104951801D01*
X214503000Y-102870000D02*
X214453199Y-102919801D01*
X214453199Y-102919801D02*
X210869801Y-102919801D01*
%TO.N,col0*%
X170341801Y-97764500D02*
X180544500Y-97764500D01*
X180544500Y-97764500D02*
X186779801Y-103999801D01*
%TO.N,Net-(R1-Pad1)*%
X151384000Y-88034500D02*
X148105500Y-88034500D01*
X148105500Y-88034500D02*
X148082000Y-88011000D01*
X151384000Y-88034500D02*
X152677500Y-88034500D01*
X160462301Y-89281000D02*
X161441801Y-90260500D01*
X143943000Y-105211000D02*
X143983250Y-105251250D01*
X143983250Y-105251250D02*
X146335750Y-105251250D01*
X152677500Y-88034500D02*
X153924000Y-89281000D01*
X153924000Y-89281000D02*
X160462301Y-89281000D01*
X161441801Y-90260500D02*
X161441801Y-91264500D01*
X143943000Y-105211000D02*
X137743000Y-105211000D01*
D36*
%TO.N,D-*%
X158941801Y-99364500D02*
X153841750Y-99364500D01*
X153841750Y-99364500D02*
X152264750Y-100941500D01*
X152264750Y-100941500D02*
X151130000Y-100941500D01*
D35*
%TO.N,Net-(R4-Pad1)*%
X173609000Y-101449500D02*
X173124000Y-100964500D01*
X173124000Y-100964500D02*
X170341801Y-100964500D01*
%TO.N,col1*%
X205829801Y-103999801D02*
X198794500Y-96964500D01*
X198794500Y-96964500D02*
X170341801Y-96964500D01*
%TO.N,D+ OUT*%
X151193500Y-99147000D02*
X140615500Y-99147000D01*
X140615500Y-99147000D02*
X138872000Y-97403500D01*
%TO.N,D- OUT*%
X148693500Y-100330000D02*
X138430000Y-100330000D01*
X151130000Y-102766500D02*
X148693500Y-100330000D01*
X138430000Y-100330000D02*
X136972000Y-98872000D01*
X136972000Y-98872000D02*
X136972000Y-97403500D01*
%TO.N,D- IN*%
X137172000Y-84457978D02*
X137428978Y-84201000D01*
X137428978Y-84201000D02*
X137922000Y-84201000D01*
X137172000Y-86753000D02*
X137795000Y-87376000D01*
X137795000Y-87376000D02*
X137795000Y-92583000D01*
X137795000Y-92583000D02*
X136972000Y-93406000D01*
X137172000Y-85486000D02*
X137172000Y-86753000D01*
X137922000Y-84201000D02*
X138172000Y-84451000D01*
X137172000Y-85486000D02*
X137172000Y-84457978D01*
X136972000Y-93406000D02*
X136972000Y-95128500D01*
X138172000Y-84451000D02*
X138172000Y-85486000D01*
%TO.N,D+ IN*%
X138303000Y-86995000D02*
X138303000Y-92710000D01*
X138672000Y-86626000D02*
X138672000Y-85486000D01*
X137672000Y-86364000D02*
X138303000Y-86995000D01*
X138303000Y-86995000D02*
X138672000Y-86626000D01*
X137672000Y-85486000D02*
X137672000Y-86364000D01*
X138872000Y-93279000D02*
X138872000Y-95128500D01*
X138303000Y-92710000D02*
X138872000Y-93279000D01*
D36*
%TO.N,D+*%
X151193500Y-97322000D02*
X152436000Y-98564500D01*
X152436000Y-98564500D02*
X158941801Y-98564500D01*
D35*
%TO.N,Net-(R5-Pad2)*%
X136672000Y-85486000D02*
X136672000Y-88649500D01*
X136672000Y-88649500D02*
X136294500Y-89027000D01*
%TO.N,Net-(R6-Pad2)*%
X139672000Y-85486000D02*
X139672000Y-88895500D01*
X139672000Y-88895500D02*
X139803500Y-89027000D01*
D33*
%TO.N,Vcc*%
X135391980Y-85566020D02*
X135391980Y-90690980D01*
X135391980Y-90690980D02*
X136522000Y-91821000D01*
D35*
X140372000Y-84746000D02*
X140372000Y-85486000D01*
X137096904Y-83058000D02*
X138684000Y-83058000D01*
X135472000Y-84682904D02*
X137096904Y-83058000D01*
X135472000Y-85486000D02*
X135472000Y-84682904D01*
X138684000Y-83058000D02*
X140372000Y-84746000D01*
D33*
X135472000Y-85486000D02*
X135391980Y-85566020D01*
%TD*%
%TA.AperFunction,Conductor*%
%TO.N,GND*%
G36*
X130148606Y-79883444D02*
G01*
X132469917Y-79884790D01*
X132538024Y-79904831D01*
X132584486Y-79958513D01*
X132595057Y-80024829D01*
X132594393Y-80030748D01*
X132594000Y-80037785D01*
X132594000Y-80118885D01*
X132598475Y-80134124D01*
X132599865Y-80135329D01*
X132607548Y-80137000D01*
X134591885Y-80137000D01*
X134607124Y-80132525D01*
X134608329Y-80131135D01*
X134610000Y-80123452D01*
X134610000Y-80044343D01*
X134609699Y-80038187D01*
X134608347Y-80024394D01*
X134621608Y-79954647D01*
X134670472Y-79903141D01*
X134733819Y-79886102D01*
X136848060Y-79887327D01*
X141109356Y-79889797D01*
X141177463Y-79909838D01*
X141223925Y-79963520D01*
X141234076Y-80027218D01*
X141234589Y-80027247D01*
X141234457Y-80029609D01*
X141234495Y-80029847D01*
X141234393Y-80030758D01*
X141234000Y-80037785D01*
X141234000Y-80118885D01*
X141238475Y-80134124D01*
X141239865Y-80135329D01*
X141247548Y-80137000D01*
X143231885Y-80137000D01*
X143247124Y-80132525D01*
X143248329Y-80131135D01*
X143250000Y-80123452D01*
X143250000Y-80044343D01*
X143249699Y-80038182D01*
X143248838Y-80029399D01*
X143262100Y-79959652D01*
X143310965Y-79908147D01*
X143374309Y-79891109D01*
X179579073Y-79912091D01*
X179647182Y-79932133D01*
X179693644Y-79985815D01*
X179705000Y-80038091D01*
X179705000Y-95403000D01*
X179684998Y-95471121D01*
X179631342Y-95517614D01*
X179579000Y-95529000D01*
X176527232Y-95529000D01*
X176459111Y-95508998D01*
X176412618Y-95455342D01*
X176402514Y-95385068D01*
X176418113Y-95340000D01*
X176472223Y-95246279D01*
X176472224Y-95246278D01*
X176475527Y-95240556D01*
X176534542Y-95058928D01*
X176554504Y-94869000D01*
X176553814Y-94862435D01*
X176535232Y-94685635D01*
X176535232Y-94685633D01*
X176534542Y-94679072D01*
X176475527Y-94497444D01*
X176467671Y-94483836D01*
X176383341Y-94337774D01*
X176380040Y-94332056D01*
X176336634Y-94283848D01*
X176256675Y-94195045D01*
X176256674Y-94195044D01*
X176252253Y-94190134D01*
X176115850Y-94091031D01*
X176103094Y-94081763D01*
X176103093Y-94081762D01*
X176097752Y-94077882D01*
X176091724Y-94075198D01*
X176091722Y-94075197D01*
X175929319Y-94002891D01*
X175929318Y-94002891D01*
X175923288Y-94000206D01*
X175819119Y-93978064D01*
X175742944Y-93961872D01*
X175742939Y-93961872D01*
X175736487Y-93960500D01*
X175545513Y-93960500D01*
X175539061Y-93961872D01*
X175539056Y-93961872D01*
X175462881Y-93978064D01*
X175358712Y-94000206D01*
X175352682Y-94002891D01*
X175352681Y-94002891D01*
X175190278Y-94075197D01*
X175190276Y-94075198D01*
X175184248Y-94077882D01*
X175178907Y-94081762D01*
X175173189Y-94085064D01*
X175172140Y-94083247D01*
X175114555Y-94103794D01*
X175107360Y-94104000D01*
X174759997Y-94104000D01*
X174691876Y-94083998D01*
X174670979Y-94067173D01*
X174582576Y-93978924D01*
X174557303Y-93953695D01*
X174552765Y-93950898D01*
X174512176Y-93893647D01*
X174508946Y-93822724D01*
X174544572Y-93761313D01*
X174553068Y-93753938D01*
X174563207Y-93745902D01*
X174677739Y-93631171D01*
X174686751Y-93619760D01*
X174771816Y-93481757D01*
X174777963Y-93468576D01*
X174829138Y-93314290D01*
X174832005Y-93300914D01*
X174841672Y-93206562D01*
X174842000Y-93200146D01*
X174842000Y-93175115D01*
X174837525Y-93159876D01*
X174836135Y-93158671D01*
X174828452Y-93157000D01*
X172394116Y-93157000D01*
X172351329Y-93169563D01*
X172337945Y-93178164D01*
X172266949Y-93178162D01*
X172238768Y-93165743D01*
X172234260Y-93162208D01*
X172227341Y-93159084D01*
X172224311Y-93157249D01*
X172211602Y-93150000D01*
X172208454Y-93148312D01*
X172202239Y-93143944D01*
X172143550Y-93121062D01*
X172137505Y-93118522D01*
X172080065Y-93092587D01*
X172072592Y-93091202D01*
X172069174Y-93090131D01*
X172055185Y-93086146D01*
X172051693Y-93085249D01*
X172044611Y-93082488D01*
X172037078Y-93081496D01*
X172037077Y-93081496D01*
X171982170Y-93074267D01*
X171975657Y-93073235D01*
X171921182Y-93063139D01*
X171921180Y-93063139D01*
X171913713Y-93061755D01*
X171906133Y-93062192D01*
X171906132Y-93062192D01*
X171852388Y-93065291D01*
X171845135Y-93065500D01*
X171415994Y-93065500D01*
X171354226Y-93047364D01*
X171353561Y-93048579D01*
X171348004Y-93045536D01*
X171347873Y-93045498D01*
X171347648Y-93045341D01*
X171345690Y-93044269D01*
X171338506Y-93038885D01*
X171202117Y-92987755D01*
X171139935Y-92981000D01*
X169543667Y-92981000D01*
X169481485Y-92987755D01*
X169345096Y-93038885D01*
X169228540Y-93126239D01*
X169223159Y-93133419D01*
X169223158Y-93133420D01*
X169197193Y-93168065D01*
X169140334Y-93210580D01*
X169110727Y-93215913D01*
X169086678Y-93222975D01*
X169085473Y-93224365D01*
X169083802Y-93232048D01*
X169083802Y-93284169D01*
X169084172Y-93290990D01*
X169090549Y-93349707D01*
X169087803Y-93350005D01*
X169087861Y-93378946D01*
X169090056Y-93379184D01*
X169083301Y-93441366D01*
X169083301Y-94087634D01*
X169083670Y-94091031D01*
X169090056Y-94149816D01*
X169087627Y-94150080D01*
X169087627Y-94178920D01*
X169090056Y-94179184D01*
X169083301Y-94241366D01*
X169083301Y-94887634D01*
X169083670Y-94891031D01*
X169090056Y-94949816D01*
X169087627Y-94950080D01*
X169087627Y-94978920D01*
X169090056Y-94979184D01*
X169083301Y-95041366D01*
X169083301Y-95687634D01*
X169083670Y-95691031D01*
X169090056Y-95749816D01*
X169087627Y-95750080D01*
X169087627Y-95778920D01*
X169090056Y-95779184D01*
X169083301Y-95841366D01*
X169083301Y-96487634D01*
X169083669Y-96491020D01*
X169083670Y-96491031D01*
X169090056Y-96549816D01*
X169087627Y-96550080D01*
X169087627Y-96578920D01*
X169090056Y-96579184D01*
X169083301Y-96641366D01*
X169083301Y-97287634D01*
X169083670Y-97291031D01*
X169090056Y-97349816D01*
X169087627Y-97350080D01*
X169087627Y-97378920D01*
X169090056Y-97379184D01*
X169083301Y-97441366D01*
X169083301Y-98087634D01*
X169083670Y-98091031D01*
X169090056Y-98149816D01*
X169087627Y-98150080D01*
X169087627Y-98178920D01*
X169090056Y-98179184D01*
X169083301Y-98241366D01*
X169083301Y-98887634D01*
X169083670Y-98891031D01*
X169090056Y-98949816D01*
X169087627Y-98950080D01*
X169087627Y-98978920D01*
X169090056Y-98979184D01*
X169083301Y-99041366D01*
X169083301Y-99687634D01*
X169083670Y-99691031D01*
X169090056Y-99749816D01*
X169087627Y-99750080D01*
X169087627Y-99778920D01*
X169090056Y-99779184D01*
X169083301Y-99841366D01*
X169083301Y-100487634D01*
X169083670Y-100491031D01*
X169090056Y-100549816D01*
X169087627Y-100550080D01*
X169087627Y-100578920D01*
X169090056Y-100579184D01*
X169083301Y-100641366D01*
X169083301Y-101280000D01*
X169063299Y-101348121D01*
X169009643Y-101394614D01*
X168957301Y-101406000D01*
X168318667Y-101406000D01*
X168315270Y-101406369D01*
X168278845Y-101410326D01*
X168256485Y-101412755D01*
X168256253Y-101410616D01*
X168227289Y-101410666D01*
X168227008Y-101413248D01*
X168168287Y-101406869D01*
X168161473Y-101406500D01*
X168113916Y-101406500D01*
X168098677Y-101410975D01*
X168097472Y-101412365D01*
X168092922Y-101433283D01*
X168091704Y-101433018D01*
X168075799Y-101487187D01*
X168045366Y-101519892D01*
X168024653Y-101535416D01*
X168003540Y-101551239D01*
X167998159Y-101558419D01*
X167942627Y-101632515D01*
X167885768Y-101675030D01*
X167814949Y-101680056D01*
X167752656Y-101645996D01*
X167740975Y-101632515D01*
X167685443Y-101558419D01*
X167680062Y-101551239D01*
X167658950Y-101535416D01*
X167638236Y-101519892D01*
X167595721Y-101463033D01*
X167590388Y-101433426D01*
X167583326Y-101409377D01*
X167581936Y-101408172D01*
X167574253Y-101406501D01*
X167522132Y-101406501D01*
X167515311Y-101406871D01*
X167456594Y-101413248D01*
X167456296Y-101410502D01*
X167427355Y-101410560D01*
X167427117Y-101412755D01*
X167368332Y-101406369D01*
X167364935Y-101406000D01*
X166718667Y-101406000D01*
X166715270Y-101406369D01*
X166678845Y-101410326D01*
X166656485Y-101412755D01*
X166656221Y-101410326D01*
X166627381Y-101410326D01*
X166627117Y-101412755D01*
X166568332Y-101406369D01*
X166564935Y-101406000D01*
X165918667Y-101406000D01*
X165915270Y-101406369D01*
X165878845Y-101410326D01*
X165856485Y-101412755D01*
X165856221Y-101410326D01*
X165827381Y-101410326D01*
X165827117Y-101412755D01*
X165768332Y-101406369D01*
X165764935Y-101406000D01*
X165118667Y-101406000D01*
X165115270Y-101406369D01*
X165078845Y-101410326D01*
X165056485Y-101412755D01*
X165056221Y-101410326D01*
X165027381Y-101410326D01*
X165027117Y-101412755D01*
X164968332Y-101406369D01*
X164964935Y-101406000D01*
X164318667Y-101406000D01*
X164315270Y-101406369D01*
X164278845Y-101410326D01*
X164256485Y-101412755D01*
X164256221Y-101410326D01*
X164227381Y-101410326D01*
X164227117Y-101412755D01*
X164168332Y-101406369D01*
X164164935Y-101406000D01*
X163518667Y-101406000D01*
X163515270Y-101406369D01*
X163478845Y-101410326D01*
X163456485Y-101412755D01*
X163456221Y-101410326D01*
X163427381Y-101410326D01*
X163427117Y-101412755D01*
X163368332Y-101406369D01*
X163364935Y-101406000D01*
X162718667Y-101406000D01*
X162715270Y-101406369D01*
X162678845Y-101410326D01*
X162656485Y-101412755D01*
X162656221Y-101410326D01*
X162627381Y-101410326D01*
X162627117Y-101412755D01*
X162568332Y-101406369D01*
X162564935Y-101406000D01*
X161918667Y-101406000D01*
X161915270Y-101406369D01*
X161878845Y-101410326D01*
X161856485Y-101412755D01*
X161856253Y-101410616D01*
X161827289Y-101410666D01*
X161827008Y-101413248D01*
X161768287Y-101406869D01*
X161761473Y-101406500D01*
X161713916Y-101406500D01*
X161698677Y-101410975D01*
X161697472Y-101412365D01*
X161692922Y-101433283D01*
X161691704Y-101433018D01*
X161675799Y-101487187D01*
X161645366Y-101519892D01*
X161624653Y-101535416D01*
X161603540Y-101551239D01*
X161567625Y-101599160D01*
X161510768Y-101641673D01*
X161439950Y-101646699D01*
X161377656Y-101612639D01*
X161343666Y-101550308D01*
X161340801Y-101523593D01*
X161340801Y-100762100D01*
X161341093Y-100753529D01*
X161343880Y-100712652D01*
X161344971Y-100696649D01*
X161334135Y-100634565D01*
X161333179Y-100628086D01*
X161325610Y-100565540D01*
X161322926Y-100558438D01*
X161322071Y-100554956D01*
X161318231Y-100540921D01*
X161317190Y-100537473D01*
X161315883Y-100529983D01*
X161312827Y-100523021D01*
X161290564Y-100472305D01*
X161288071Y-100466197D01*
X161268493Y-100414386D01*
X161268493Y-100414385D01*
X161265807Y-100407278D01*
X161261501Y-100401012D01*
X161259851Y-100397857D01*
X161252732Y-100385065D01*
X161250932Y-100382021D01*
X161247879Y-100375067D01*
X161241657Y-100366958D01*
X161209541Y-100325104D01*
X161205663Y-100319767D01*
X161174282Y-100274107D01*
X161174280Y-100274105D01*
X161169980Y-100267848D01*
X161124112Y-100226981D01*
X161118837Y-100222001D01*
X160587298Y-99690462D01*
X160581444Y-99684196D01*
X160564888Y-99665217D01*
X160543959Y-99641226D01*
X160492423Y-99605006D01*
X160487127Y-99601073D01*
X160443538Y-99566894D01*
X160443535Y-99566892D01*
X160437561Y-99562208D01*
X160430637Y-99559082D01*
X160427602Y-99557244D01*
X160414903Y-99550000D01*
X160411755Y-99548312D01*
X160405540Y-99543944D01*
X160346851Y-99521062D01*
X160340806Y-99518522D01*
X160283366Y-99492587D01*
X160283365Y-99492587D01*
X160283681Y-99491888D01*
X160229598Y-99455731D01*
X160201279Y-99390626D01*
X160200301Y-99374956D01*
X160200301Y-99041366D01*
X160193546Y-98979184D01*
X160195975Y-98978920D01*
X160195975Y-98950080D01*
X160193546Y-98949816D01*
X160199932Y-98891031D01*
X160200301Y-98887634D01*
X160200301Y-98241366D01*
X160193546Y-98179184D01*
X160195685Y-98178952D01*
X160195635Y-98149988D01*
X160193053Y-98149707D01*
X160199432Y-98090986D01*
X160199801Y-98084172D01*
X160199801Y-98036615D01*
X160195326Y-98021376D01*
X160193936Y-98020171D01*
X160173018Y-98015621D01*
X160173283Y-98014403D01*
X160119114Y-97998498D01*
X160086409Y-97968065D01*
X160060444Y-97933420D01*
X160060443Y-97933419D01*
X160055062Y-97926239D01*
X159973786Y-97865326D01*
X159931271Y-97808467D01*
X159926245Y-97737648D01*
X159960305Y-97675355D01*
X159973786Y-97663674D01*
X160032057Y-97620002D01*
X160055062Y-97602761D01*
X160066509Y-97587488D01*
X160086409Y-97560935D01*
X160143268Y-97518420D01*
X160172875Y-97513087D01*
X160196924Y-97506025D01*
X160198129Y-97504635D01*
X160199800Y-97496952D01*
X160199800Y-97444831D01*
X160199430Y-97438010D01*
X160193053Y-97379293D01*
X160195799Y-97378995D01*
X160195741Y-97350054D01*
X160193546Y-97349816D01*
X160199932Y-97291031D01*
X160200301Y-97287634D01*
X160200301Y-96901814D01*
X160220303Y-96833693D01*
X160267392Y-96790642D01*
X160273045Y-96788506D01*
X160279303Y-96784205D01*
X160282442Y-96782564D01*
X160295195Y-96775467D01*
X160298301Y-96773630D01*
X160305256Y-96770577D01*
X160311283Y-96765952D01*
X160311287Y-96765950D01*
X160355225Y-96732235D01*
X160360543Y-96728371D01*
X160412475Y-96692679D01*
X160453342Y-96646811D01*
X160458322Y-96641536D01*
X162715839Y-94384019D01*
X162722105Y-94378165D01*
X162759350Y-94345674D01*
X162765075Y-94340680D01*
X162801295Y-94289144D01*
X162805228Y-94283848D01*
X162839407Y-94240259D01*
X162839409Y-94240256D01*
X162844093Y-94234282D01*
X162847219Y-94227358D01*
X162849057Y-94224323D01*
X162856301Y-94211624D01*
X162857989Y-94208476D01*
X162862357Y-94202261D01*
X162885239Y-94143572D01*
X162887779Y-94137527D01*
X162913714Y-94080087D01*
X162915099Y-94072614D01*
X162916170Y-94069196D01*
X162920155Y-94055207D01*
X162921052Y-94051715D01*
X162923813Y-94044633D01*
X162932034Y-93982192D01*
X162933066Y-93975679D01*
X162943162Y-93921204D01*
X162943162Y-93921202D01*
X162944546Y-93913735D01*
X162941010Y-93852409D01*
X162940801Y-93845157D01*
X162940801Y-92405407D01*
X162960803Y-92337286D01*
X163014459Y-92290793D01*
X163084733Y-92280689D01*
X163149313Y-92310183D01*
X163167621Y-92329835D01*
X163203540Y-92377761D01*
X163210720Y-92383142D01*
X163210721Y-92383143D01*
X163245366Y-92409108D01*
X163287881Y-92465967D01*
X163293214Y-92495574D01*
X163300276Y-92519623D01*
X163301666Y-92520828D01*
X163309349Y-92522499D01*
X163361470Y-92522499D01*
X163368291Y-92522129D01*
X163427008Y-92515752D01*
X163427306Y-92518498D01*
X163456247Y-92518440D01*
X163456485Y-92516245D01*
X163487581Y-92519623D01*
X163518667Y-92523000D01*
X164164935Y-92523000D01*
X164196022Y-92519623D01*
X164227117Y-92516245D01*
X164227381Y-92518674D01*
X164256221Y-92518674D01*
X164256485Y-92516245D01*
X164287581Y-92519623D01*
X164318667Y-92523000D01*
X164964935Y-92523000D01*
X164996022Y-92519623D01*
X165027117Y-92516245D01*
X165027381Y-92518674D01*
X165056221Y-92518674D01*
X165056485Y-92516245D01*
X165087581Y-92519623D01*
X165118667Y-92523000D01*
X165764935Y-92523000D01*
X165796022Y-92519623D01*
X165827117Y-92516245D01*
X165827381Y-92518674D01*
X165856221Y-92518674D01*
X165856485Y-92516245D01*
X165887581Y-92519623D01*
X165918667Y-92523000D01*
X166564935Y-92523000D01*
X166596022Y-92519623D01*
X166627117Y-92516245D01*
X166627381Y-92518674D01*
X166656221Y-92518674D01*
X166656485Y-92516245D01*
X166687581Y-92519623D01*
X166718667Y-92523000D01*
X167364935Y-92523000D01*
X167396022Y-92519623D01*
X167427117Y-92516245D01*
X167427381Y-92518674D01*
X167456221Y-92518674D01*
X167456485Y-92516245D01*
X167487581Y-92519623D01*
X167518667Y-92523000D01*
X168164935Y-92523000D01*
X168196022Y-92519623D01*
X168227117Y-92516245D01*
X168227381Y-92518674D01*
X168256221Y-92518674D01*
X168256485Y-92516245D01*
X168287581Y-92519623D01*
X168318667Y-92523000D01*
X168957801Y-92523000D01*
X169025922Y-92543002D01*
X169072415Y-92596658D01*
X169083801Y-92649000D01*
X169083801Y-92692385D01*
X169088276Y-92707624D01*
X169089666Y-92708829D01*
X169097349Y-92710500D01*
X170069686Y-92710500D01*
X170084925Y-92706025D01*
X170086130Y-92704635D01*
X170087801Y-92696952D01*
X170087801Y-92692385D01*
X170595801Y-92692385D01*
X170600276Y-92707624D01*
X170601666Y-92708829D01*
X170609349Y-92710500D01*
X171581685Y-92710500D01*
X171596924Y-92706025D01*
X171598129Y-92704635D01*
X171599800Y-92696952D01*
X171599800Y-92644831D01*
X171599430Y-92638010D01*
X171598656Y-92630885D01*
X172376000Y-92630885D01*
X172380475Y-92646124D01*
X172381865Y-92647329D01*
X172389548Y-92649000D01*
X173336885Y-92649000D01*
X173352124Y-92644525D01*
X173353329Y-92643135D01*
X173355000Y-92635452D01*
X173355000Y-92630885D01*
X173863000Y-92630885D01*
X173867475Y-92646124D01*
X173868865Y-92647329D01*
X173876548Y-92649000D01*
X174823884Y-92649000D01*
X174839123Y-92644525D01*
X174840328Y-92643135D01*
X174841999Y-92635452D01*
X174841999Y-92605905D01*
X174841662Y-92599386D01*
X174831743Y-92503794D01*
X174828851Y-92490400D01*
X174777412Y-92336216D01*
X174771239Y-92323038D01*
X174685937Y-92185193D01*
X174676901Y-92173792D01*
X174562171Y-92059261D01*
X174550760Y-92050249D01*
X174412757Y-91965184D01*
X174399576Y-91959037D01*
X174245290Y-91907862D01*
X174231914Y-91904995D01*
X174137562Y-91895328D01*
X174131145Y-91895000D01*
X173881115Y-91895000D01*
X173865876Y-91899475D01*
X173864671Y-91900865D01*
X173863000Y-91908548D01*
X173863000Y-92630885D01*
X173355000Y-92630885D01*
X173355000Y-91913116D01*
X173350525Y-91897877D01*
X173349135Y-91896672D01*
X173341452Y-91895001D01*
X173086905Y-91895001D01*
X173080386Y-91895338D01*
X172984794Y-91905257D01*
X172971400Y-91908149D01*
X172817216Y-91959588D01*
X172804038Y-91965761D01*
X172666193Y-92051063D01*
X172654792Y-92060099D01*
X172540261Y-92174829D01*
X172531249Y-92186240D01*
X172446184Y-92324243D01*
X172440037Y-92337424D01*
X172388862Y-92491710D01*
X172385995Y-92505086D01*
X172376328Y-92599438D01*
X172376000Y-92605855D01*
X172376000Y-92630885D01*
X171598656Y-92630885D01*
X171593906Y-92587148D01*
X171590280Y-92571896D01*
X171545125Y-92451446D01*
X171536587Y-92435851D01*
X171460086Y-92333776D01*
X171447525Y-92321215D01*
X171345450Y-92244714D01*
X171329855Y-92236176D01*
X171209407Y-92191022D01*
X171194152Y-92187395D01*
X171143287Y-92181869D01*
X171136473Y-92181500D01*
X170613916Y-92181500D01*
X170598677Y-92185975D01*
X170597472Y-92187365D01*
X170595801Y-92195048D01*
X170595801Y-92692385D01*
X170087801Y-92692385D01*
X170087801Y-92199616D01*
X170083326Y-92184377D01*
X170081936Y-92183172D01*
X170074253Y-92181501D01*
X169551301Y-92181501D01*
X169483180Y-92161499D01*
X169436687Y-92107843D01*
X169425301Y-92055501D01*
X169425301Y-90466366D01*
X169418546Y-90404184D01*
X169367416Y-90267795D01*
X169280062Y-90151239D01*
X169163506Y-90063885D01*
X169027117Y-90012755D01*
X168964935Y-90006000D01*
X168318667Y-90006000D01*
X168256485Y-90012755D01*
X168256221Y-90010326D01*
X168227381Y-90010326D01*
X168227117Y-90012755D01*
X168168332Y-90006369D01*
X168164935Y-90006000D01*
X167518667Y-90006000D01*
X167456485Y-90012755D01*
X167456221Y-90010326D01*
X167427381Y-90010326D01*
X167427117Y-90012755D01*
X167368332Y-90006369D01*
X167364935Y-90006000D01*
X166718667Y-90006000D01*
X166656485Y-90012755D01*
X166656221Y-90010326D01*
X166627381Y-90010326D01*
X166627117Y-90012755D01*
X166568332Y-90006369D01*
X166564935Y-90006000D01*
X165918667Y-90006000D01*
X165856485Y-90012755D01*
X165856221Y-90010326D01*
X165827381Y-90010326D01*
X165827117Y-90012755D01*
X165768332Y-90006369D01*
X165764935Y-90006000D01*
X165577922Y-90006000D01*
X165509801Y-89985998D01*
X165463308Y-89932342D01*
X165453204Y-89862068D01*
X165482698Y-89797488D01*
X165488827Y-89790905D01*
X166113279Y-89166454D01*
X166922233Y-88357500D01*
X166930559Y-88349924D01*
X166937053Y-88345803D01*
X166983836Y-88295984D01*
X166986590Y-88293143D01*
X167006389Y-88273344D01*
X167008818Y-88270213D01*
X167008822Y-88270208D01*
X167008889Y-88270122D01*
X167016597Y-88261097D01*
X167041541Y-88234535D01*
X167041544Y-88234531D01*
X167046967Y-88228756D01*
X167050786Y-88221810D01*
X167050789Y-88221805D01*
X167056772Y-88210922D01*
X167067628Y-88194394D01*
X167075242Y-88184579D01*
X167075244Y-88184576D01*
X167080099Y-88178317D01*
X167083245Y-88171047D01*
X167083248Y-88171042D01*
X167097719Y-88137600D01*
X167102942Y-88126939D01*
X167120499Y-88095003D01*
X167120501Y-88094998D01*
X167124319Y-88088053D01*
X167126289Y-88080379D01*
X167126292Y-88080372D01*
X167129382Y-88068337D01*
X167135786Y-88049632D01*
X167140717Y-88038237D01*
X167143867Y-88030958D01*
X167150810Y-87987123D01*
X167153217Y-87975503D01*
X167155097Y-87968180D01*
X167156862Y-87961308D01*
X167193174Y-87900302D01*
X167256705Y-87868612D01*
X167272085Y-87866826D01*
X167273488Y-87866750D01*
X167276884Y-87866750D01*
X167280260Y-87866383D01*
X167280265Y-87866383D01*
X167307970Y-87863373D01*
X167339066Y-87859995D01*
X167475455Y-87808865D01*
X167592011Y-87721511D01*
X167679365Y-87604955D01*
X167682518Y-87596545D01*
X167727888Y-87475521D01*
X167770529Y-87418756D01*
X167837091Y-87394056D01*
X167845870Y-87393750D01*
X168478015Y-87393750D01*
X168546136Y-87413752D01*
X168585159Y-87453447D01*
X168630272Y-87526348D01*
X168755447Y-87651305D01*
X168761677Y-87655145D01*
X168761678Y-87655146D01*
X168898840Y-87739694D01*
X168906012Y-87744115D01*
X168985755Y-87770564D01*
X169067361Y-87797632D01*
X169067363Y-87797632D01*
X169073889Y-87799797D01*
X169080725Y-87800497D01*
X169080728Y-87800498D01*
X169123781Y-87804909D01*
X169178350Y-87810500D01*
X170229150Y-87810500D01*
X170232396Y-87810163D01*
X170232400Y-87810163D01*
X170328058Y-87800238D01*
X170328062Y-87800237D01*
X170334916Y-87799526D01*
X170341452Y-87797345D01*
X170341454Y-87797345D01*
X170482473Y-87750297D01*
X170502696Y-87743550D01*
X170653098Y-87650478D01*
X170778055Y-87525303D01*
X170809644Y-87474056D01*
X170867025Y-87380968D01*
X170867026Y-87380966D01*
X170870865Y-87374738D01*
X170922002Y-87220565D01*
X170924382Y-87213389D01*
X170924382Y-87213387D01*
X170926547Y-87206861D01*
X170937250Y-87102400D01*
X170937250Y-86501600D01*
X170936913Y-86498350D01*
X170926988Y-86402692D01*
X170926987Y-86402688D01*
X170926276Y-86395834D01*
X170898758Y-86313351D01*
X170872618Y-86235002D01*
X170870300Y-86228054D01*
X170777228Y-86077652D01*
X170652053Y-85952695D01*
X170647515Y-85949898D01*
X170606926Y-85892647D01*
X170603696Y-85821724D01*
X170639322Y-85760313D01*
X170647818Y-85752938D01*
X170657957Y-85744902D01*
X170772489Y-85630171D01*
X170781501Y-85618760D01*
X170866566Y-85480757D01*
X170872713Y-85467576D01*
X170923888Y-85313290D01*
X170926755Y-85299914D01*
X170936422Y-85205562D01*
X170936750Y-85199146D01*
X170936750Y-85174115D01*
X170932275Y-85158876D01*
X170930885Y-85157671D01*
X170923202Y-85156000D01*
X168488866Y-85156000D01*
X168473627Y-85160475D01*
X168472422Y-85161865D01*
X168470751Y-85169548D01*
X168470751Y-85199095D01*
X168471088Y-85205614D01*
X168481007Y-85301206D01*
X168483899Y-85314600D01*
X168535338Y-85468784D01*
X168541511Y-85481962D01*
X168626813Y-85619807D01*
X168635849Y-85631208D01*
X168750578Y-85745738D01*
X168759512Y-85752794D01*
X168800573Y-85810712D01*
X168803803Y-85881635D01*
X168768176Y-85943046D01*
X168760343Y-85949846D01*
X168754402Y-85953522D01*
X168629445Y-86078697D01*
X168628901Y-86078154D01*
X168575645Y-86115907D01*
X168534687Y-86122750D01*
X167845870Y-86122750D01*
X167777749Y-86102748D01*
X167731256Y-86049092D01*
X167727888Y-86040979D01*
X167694444Y-85951767D01*
X167689261Y-85880960D01*
X167694444Y-85863309D01*
X167727228Y-85775859D01*
X167730855Y-85760601D01*
X167736381Y-85709736D01*
X167736750Y-85702922D01*
X167736750Y-85330365D01*
X167732275Y-85315126D01*
X167730885Y-85313921D01*
X167723202Y-85312250D01*
X166400750Y-85312250D01*
X166332629Y-85292248D01*
X166286136Y-85238592D01*
X166274750Y-85186250D01*
X166274750Y-84786135D01*
X166782750Y-84786135D01*
X166787225Y-84801374D01*
X166788615Y-84802579D01*
X166796298Y-84804250D01*
X167718634Y-84804250D01*
X167733873Y-84799775D01*
X167735078Y-84798385D01*
X167736749Y-84790702D01*
X167736749Y-84629885D01*
X168470750Y-84629885D01*
X168475225Y-84645124D01*
X168476615Y-84646329D01*
X168484298Y-84648000D01*
X169431635Y-84648000D01*
X169446874Y-84643525D01*
X169448079Y-84642135D01*
X169449750Y-84634452D01*
X169449750Y-84629885D01*
X169957750Y-84629885D01*
X169962225Y-84645124D01*
X169963615Y-84646329D01*
X169971298Y-84648000D01*
X170918634Y-84648000D01*
X170933873Y-84643525D01*
X170935078Y-84642135D01*
X170936749Y-84634452D01*
X170936749Y-84604905D01*
X170936412Y-84598386D01*
X170926493Y-84502794D01*
X170923601Y-84489400D01*
X170872162Y-84335216D01*
X170865989Y-84322038D01*
X170780687Y-84184193D01*
X170771651Y-84172792D01*
X170656921Y-84058261D01*
X170645510Y-84049249D01*
X170507507Y-83964184D01*
X170494326Y-83958037D01*
X170340040Y-83906862D01*
X170326664Y-83903995D01*
X170232312Y-83894328D01*
X170225895Y-83894000D01*
X169975865Y-83894000D01*
X169960626Y-83898475D01*
X169959421Y-83899865D01*
X169957750Y-83907548D01*
X169957750Y-84629885D01*
X169449750Y-84629885D01*
X169449750Y-83912116D01*
X169445275Y-83896877D01*
X169443885Y-83895672D01*
X169436202Y-83894001D01*
X169181655Y-83894001D01*
X169175136Y-83894338D01*
X169079544Y-83904257D01*
X169066150Y-83907149D01*
X168911966Y-83958588D01*
X168898788Y-83964761D01*
X168760943Y-84050063D01*
X168749542Y-84059099D01*
X168635011Y-84173829D01*
X168625999Y-84185240D01*
X168540934Y-84323243D01*
X168534787Y-84336424D01*
X168483612Y-84490710D01*
X168480745Y-84504086D01*
X168471078Y-84598438D01*
X168470750Y-84604855D01*
X168470750Y-84629885D01*
X167736749Y-84629885D01*
X167736749Y-84413581D01*
X167736379Y-84406760D01*
X167730855Y-84355898D01*
X167727229Y-84340646D01*
X167682074Y-84220196D01*
X167673536Y-84204601D01*
X167597035Y-84102526D01*
X167584474Y-84089965D01*
X167482399Y-84013464D01*
X167466804Y-84004926D01*
X167346356Y-83959772D01*
X167331101Y-83956145D01*
X167280236Y-83950619D01*
X167273422Y-83950250D01*
X166800865Y-83950250D01*
X166785626Y-83954725D01*
X166784421Y-83956115D01*
X166782750Y-83963798D01*
X166782750Y-84786135D01*
X166274750Y-84786135D01*
X166274750Y-83968366D01*
X166270275Y-83953127D01*
X166268885Y-83951922D01*
X166261202Y-83950251D01*
X165784081Y-83950251D01*
X165777260Y-83950621D01*
X165726398Y-83956145D01*
X165711146Y-83959771D01*
X165590696Y-84004926D01*
X165575102Y-84013464D01*
X165504732Y-84066203D01*
X165438226Y-84091051D01*
X165368843Y-84075998D01*
X165353602Y-84066203D01*
X165314635Y-84036999D01*
X165275455Y-84007635D01*
X165139066Y-83956505D01*
X165076884Y-83949750D01*
X163580616Y-83949750D01*
X163518434Y-83956505D01*
X163382045Y-84007635D01*
X163265489Y-84094989D01*
X163178135Y-84211545D01*
X163174983Y-84219954D01*
X163174982Y-84219955D01*
X163129612Y-84340979D01*
X163086971Y-84397744D01*
X163020409Y-84422444D01*
X163011630Y-84422750D01*
X162261434Y-84422750D01*
X162193313Y-84402748D01*
X162146820Y-84349092D01*
X162141911Y-84336628D01*
X162141370Y-84335005D01*
X162141367Y-84334998D01*
X162139050Y-84328054D01*
X162045978Y-84177652D01*
X161920803Y-84052695D01*
X161914572Y-84048854D01*
X161776468Y-83963725D01*
X161776466Y-83963724D01*
X161770238Y-83959885D01*
X161690495Y-83933436D01*
X161608889Y-83906368D01*
X161608887Y-83906368D01*
X161602361Y-83904203D01*
X161595525Y-83903503D01*
X161595522Y-83903502D01*
X161552469Y-83899091D01*
X161497900Y-83893500D01*
X160447100Y-83893500D01*
X160443854Y-83893837D01*
X160443850Y-83893837D01*
X160348192Y-83903762D01*
X160348188Y-83903763D01*
X160341334Y-83904474D01*
X160334798Y-83906655D01*
X160334796Y-83906655D01*
X160318428Y-83912116D01*
X160173554Y-83960450D01*
X160023152Y-84053522D01*
X159898195Y-84178697D01*
X159894355Y-84184927D01*
X159894354Y-84184928D01*
X159816559Y-84311135D01*
X159805385Y-84329262D01*
X159749703Y-84497139D01*
X159749003Y-84503975D01*
X159749002Y-84503978D01*
X159744591Y-84547031D01*
X159739000Y-84601600D01*
X159739000Y-85202400D01*
X159739337Y-85205646D01*
X159739337Y-85205650D01*
X159749252Y-85301206D01*
X159749974Y-85308166D01*
X159752155Y-85314702D01*
X159752155Y-85314704D01*
X159766600Y-85358000D01*
X159805950Y-85475946D01*
X159899022Y-85626348D01*
X160024197Y-85751305D01*
X160028735Y-85754102D01*
X160069324Y-85811353D01*
X160072554Y-85882276D01*
X160036928Y-85943687D01*
X160028432Y-85951062D01*
X160018293Y-85959098D01*
X159903761Y-86073829D01*
X159894749Y-86085240D01*
X159809684Y-86223243D01*
X159803537Y-86236424D01*
X159752362Y-86390710D01*
X159749495Y-86404086D01*
X159739828Y-86498438D01*
X159739500Y-86504855D01*
X159739500Y-86529885D01*
X159743975Y-86545124D01*
X159745365Y-86546329D01*
X159753048Y-86548000D01*
X161100500Y-86548000D01*
X161168621Y-86568002D01*
X161215114Y-86621658D01*
X161226500Y-86674000D01*
X161226500Y-87791884D01*
X161230975Y-87807123D01*
X161232365Y-87808328D01*
X161240048Y-87809999D01*
X161494595Y-87809999D01*
X161501114Y-87809662D01*
X161596706Y-87799743D01*
X161610100Y-87796851D01*
X161764284Y-87745412D01*
X161777462Y-87739239D01*
X161915307Y-87653937D01*
X161926708Y-87644901D01*
X161963327Y-87608218D01*
X162025609Y-87574139D01*
X162096429Y-87579142D01*
X162153302Y-87621639D01*
X162178171Y-87688138D01*
X162178500Y-87697236D01*
X162178500Y-87833304D01*
X162177970Y-87844538D01*
X162176292Y-87852043D01*
X162177870Y-87902266D01*
X162178438Y-87920336D01*
X162178500Y-87924293D01*
X162178500Y-87952307D01*
X162178996Y-87956232D01*
X162178996Y-87956233D01*
X162179008Y-87956328D01*
X162179941Y-87968173D01*
X162181335Y-88012529D01*
X162186689Y-88030958D01*
X162187013Y-88032072D01*
X162191023Y-88051436D01*
X162193573Y-88071623D01*
X162196489Y-88078987D01*
X162196490Y-88078992D01*
X162209907Y-88112880D01*
X162213752Y-88124109D01*
X162216087Y-88132144D01*
X162226131Y-88166717D01*
X162230169Y-88173544D01*
X162230170Y-88173547D01*
X162236488Y-88184230D01*
X162245188Y-88201988D01*
X162249761Y-88213539D01*
X162249765Y-88213545D01*
X162252681Y-88220912D01*
X162257339Y-88227323D01*
X162257340Y-88227325D01*
X162270099Y-88244886D01*
X162276034Y-88253054D01*
X162278764Y-88256812D01*
X162285281Y-88266734D01*
X162303826Y-88298092D01*
X162303829Y-88298096D01*
X162307866Y-88304922D01*
X162322250Y-88319306D01*
X162335091Y-88334340D01*
X162347058Y-88350811D01*
X162369207Y-88369134D01*
X162381250Y-88379097D01*
X162390031Y-88387087D01*
X163169397Y-89166454D01*
X163203422Y-89228766D01*
X163206301Y-89255549D01*
X163206301Y-90105580D01*
X163186299Y-90173701D01*
X163181141Y-90181126D01*
X163156493Y-90214013D01*
X163099635Y-90256526D01*
X163028817Y-90261551D01*
X162966524Y-90227491D01*
X162932533Y-90165160D01*
X162930582Y-90153584D01*
X162926523Y-90120040D01*
X162926522Y-90120037D01*
X162925610Y-90112498D01*
X162922926Y-90105396D01*
X162922071Y-90101914D01*
X162918231Y-90087879D01*
X162917190Y-90084431D01*
X162915883Y-90076941D01*
X162890564Y-90019263D01*
X162888071Y-90013155D01*
X162868493Y-89961344D01*
X162868493Y-89961343D01*
X162865807Y-89954236D01*
X162861501Y-89947970D01*
X162859851Y-89944815D01*
X162852732Y-89932023D01*
X162850932Y-89928979D01*
X162847879Y-89922025D01*
X162842127Y-89914529D01*
X162809541Y-89872062D01*
X162805663Y-89866725D01*
X162774282Y-89821065D01*
X162774280Y-89821063D01*
X162769980Y-89814806D01*
X162724094Y-89773923D01*
X162718838Y-89768960D01*
X160755405Y-87805526D01*
X160721379Y-87743214D01*
X160718500Y-87716431D01*
X160718500Y-87074115D01*
X160714025Y-87058876D01*
X160712635Y-87057671D01*
X160704952Y-87056000D01*
X159757616Y-87056000D01*
X159742377Y-87060475D01*
X159741172Y-87061865D01*
X159739501Y-87069548D01*
X159739501Y-87099095D01*
X159739838Y-87105614D01*
X159749757Y-87201208D01*
X159753902Y-87220405D01*
X159748729Y-87291213D01*
X159706095Y-87347984D01*
X159639537Y-87372693D01*
X159630741Y-87373000D01*
X156852997Y-87373000D01*
X156784876Y-87352998D01*
X156763979Y-87336173D01*
X156655486Y-87227869D01*
X156650303Y-87222695D01*
X156645765Y-87219898D01*
X156605176Y-87162647D01*
X156601946Y-87091724D01*
X156637572Y-87030313D01*
X156646068Y-87022938D01*
X156656207Y-87014902D01*
X156770739Y-86900171D01*
X156779751Y-86888760D01*
X156864816Y-86750757D01*
X156870963Y-86737576D01*
X156922138Y-86583290D01*
X156925005Y-86569914D01*
X156934672Y-86475562D01*
X156935000Y-86469146D01*
X156935000Y-86444115D01*
X156930525Y-86428876D01*
X156929135Y-86427671D01*
X156921452Y-86426000D01*
X154487116Y-86426000D01*
X154471877Y-86430475D01*
X154470672Y-86431865D01*
X154469001Y-86439548D01*
X154469001Y-86469095D01*
X154469338Y-86475614D01*
X154479257Y-86571206D01*
X154482149Y-86584600D01*
X154533588Y-86738784D01*
X154539761Y-86751962D01*
X154625063Y-86889807D01*
X154634099Y-86901208D01*
X154748828Y-87015738D01*
X154757762Y-87022794D01*
X154798823Y-87080712D01*
X154802053Y-87151635D01*
X154766426Y-87213046D01*
X154758593Y-87219846D01*
X154752652Y-87223522D01*
X154627695Y-87348697D01*
X154623855Y-87354927D01*
X154623854Y-87354928D01*
X154544817Y-87483150D01*
X154534885Y-87499262D01*
X154526248Y-87525303D01*
X154494295Y-87621639D01*
X154479203Y-87667139D01*
X154468500Y-87771600D01*
X154468500Y-88372400D01*
X154468837Y-88375646D01*
X154468837Y-88375650D01*
X154474382Y-88429086D01*
X154479474Y-88478166D01*
X154481655Y-88484703D01*
X154483111Y-88491445D01*
X154480417Y-88492027D01*
X154482536Y-88550606D01*
X154446336Y-88611680D01*
X154382864Y-88643488D01*
X154360436Y-88645500D01*
X154239423Y-88645500D01*
X154171302Y-88625498D01*
X154150328Y-88608595D01*
X153182750Y-87641017D01*
X153175174Y-87632691D01*
X153171053Y-87626197D01*
X153121234Y-87579414D01*
X153118393Y-87576660D01*
X153098594Y-87556861D01*
X153095469Y-87554437D01*
X153095460Y-87554429D01*
X153095374Y-87554363D01*
X153086349Y-87546655D01*
X153070233Y-87531521D01*
X153054006Y-87516283D01*
X153036169Y-87506477D01*
X153019653Y-87495627D01*
X153003567Y-87483150D01*
X152962834Y-87465524D01*
X152952186Y-87460307D01*
X152936064Y-87451444D01*
X152913303Y-87438931D01*
X152905628Y-87436960D01*
X152905622Y-87436958D01*
X152893589Y-87433869D01*
X152874887Y-87427466D01*
X152856208Y-87419383D01*
X152820656Y-87413752D01*
X152812373Y-87412440D01*
X152800760Y-87410035D01*
X152757782Y-87399000D01*
X152737435Y-87399000D01*
X152717724Y-87397449D01*
X152705450Y-87395505D01*
X152697621Y-87394265D01*
X152689729Y-87395011D01*
X152653444Y-87398441D01*
X152641586Y-87399000D01*
X152565396Y-87399000D01*
X152497275Y-87378998D01*
X152458253Y-87339304D01*
X152432478Y-87297652D01*
X152363410Y-87228704D01*
X152345537Y-87210862D01*
X152311458Y-87148579D01*
X152316461Y-87077759D01*
X152345382Y-87032671D01*
X152427739Y-86950171D01*
X152436751Y-86938760D01*
X152521816Y-86800757D01*
X152527963Y-86787576D01*
X152579138Y-86633290D01*
X152582005Y-86619914D01*
X152591672Y-86525562D01*
X152592000Y-86519146D01*
X152592000Y-86481615D01*
X152587525Y-86466376D01*
X152586135Y-86465171D01*
X152578452Y-86463500D01*
X150194116Y-86463500D01*
X150178877Y-86467975D01*
X150177672Y-86469365D01*
X150176001Y-86477048D01*
X150176001Y-86519095D01*
X150176338Y-86525614D01*
X150186257Y-86621206D01*
X150189149Y-86634600D01*
X150240588Y-86788784D01*
X150246761Y-86801962D01*
X150332063Y-86939807D01*
X150341099Y-86951208D01*
X150422462Y-87032430D01*
X150456541Y-87094713D01*
X150451538Y-87165533D01*
X150422617Y-87210620D01*
X150339870Y-87293512D01*
X150339866Y-87293517D01*
X150334695Y-87298697D01*
X150330853Y-87304929D01*
X150330852Y-87304931D01*
X150309779Y-87339117D01*
X150257007Y-87386610D01*
X150202520Y-87399000D01*
X148809558Y-87399000D01*
X148741437Y-87378998D01*
X148715921Y-87357309D01*
X148697677Y-87337046D01*
X148697670Y-87337040D01*
X148693253Y-87332134D01*
X148655812Y-87304931D01*
X148544094Y-87223763D01*
X148544093Y-87223762D01*
X148538752Y-87219882D01*
X148532724Y-87217198D01*
X148532722Y-87217197D01*
X148370319Y-87144891D01*
X148370318Y-87144891D01*
X148364288Y-87142206D01*
X148270887Y-87122353D01*
X148183944Y-87103872D01*
X148183939Y-87103872D01*
X148177487Y-87102500D01*
X147986513Y-87102500D01*
X147980061Y-87103872D01*
X147980056Y-87103872D01*
X147893113Y-87122353D01*
X147799712Y-87142206D01*
X147793682Y-87144891D01*
X147793681Y-87144891D01*
X147631278Y-87217197D01*
X147631276Y-87217198D01*
X147625248Y-87219882D01*
X147619907Y-87223762D01*
X147619906Y-87223763D01*
X147572463Y-87258233D01*
X147470747Y-87332134D01*
X147466326Y-87337044D01*
X147466325Y-87337045D01*
X147355340Y-87460307D01*
X147342960Y-87474056D01*
X147301045Y-87546655D01*
X147251635Y-87632236D01*
X147247473Y-87639444D01*
X147188458Y-87821072D01*
X147187768Y-87827633D01*
X147187768Y-87827635D01*
X147172400Y-87973854D01*
X147168496Y-88011000D01*
X147169186Y-88017565D01*
X147186740Y-88184579D01*
X147188458Y-88200928D01*
X147247473Y-88382556D01*
X147250776Y-88388278D01*
X147250777Y-88388279D01*
X147269573Y-88420834D01*
X147342960Y-88547944D01*
X147347378Y-88552851D01*
X147347379Y-88552852D01*
X147453045Y-88670206D01*
X147470747Y-88689866D01*
X147625248Y-88802118D01*
X147631276Y-88804802D01*
X147631278Y-88804803D01*
X147662907Y-88818885D01*
X147799712Y-88879794D01*
X147877390Y-88896305D01*
X147980056Y-88918128D01*
X147980061Y-88918128D01*
X147986513Y-88919500D01*
X148177487Y-88919500D01*
X148183939Y-88918128D01*
X148183944Y-88918128D01*
X148286610Y-88896305D01*
X148364288Y-88879794D01*
X148501093Y-88818885D01*
X148532722Y-88804803D01*
X148532724Y-88804802D01*
X148538752Y-88802118D01*
X148578830Y-88773000D01*
X148687475Y-88694064D01*
X148754343Y-88670206D01*
X148761536Y-88670000D01*
X150202604Y-88670000D01*
X150270725Y-88690002D01*
X150309747Y-88729696D01*
X150335522Y-88771348D01*
X150460697Y-88896305D01*
X150466927Y-88900145D01*
X150466928Y-88900146D01*
X150604090Y-88984694D01*
X150611262Y-88989115D01*
X150645304Y-89000406D01*
X150772611Y-89042632D01*
X150772613Y-89042632D01*
X150779139Y-89044797D01*
X150785975Y-89045497D01*
X150785978Y-89045498D01*
X150829031Y-89049909D01*
X150883600Y-89055500D01*
X151884400Y-89055500D01*
X151887646Y-89055163D01*
X151887650Y-89055163D01*
X151983308Y-89045238D01*
X151983312Y-89045237D01*
X151990166Y-89044526D01*
X151996702Y-89042345D01*
X151996704Y-89042345D01*
X152128806Y-88998272D01*
X152157946Y-88988550D01*
X152308348Y-88895478D01*
X152358222Y-88845517D01*
X152384808Y-88818885D01*
X152447091Y-88784806D01*
X152517911Y-88789809D01*
X152563076Y-88818808D01*
X153418745Y-89674477D01*
X153426322Y-89682803D01*
X153430447Y-89689303D01*
X153436225Y-89694729D01*
X153436226Y-89694730D01*
X153480281Y-89736100D01*
X153483123Y-89738855D01*
X153502906Y-89758638D01*
X153506114Y-89761126D01*
X153515143Y-89768837D01*
X153547494Y-89799217D01*
X153554443Y-89803037D01*
X153565329Y-89809022D01*
X153581853Y-89819876D01*
X153597933Y-89832349D01*
X153605210Y-89835498D01*
X153638650Y-89849969D01*
X153649311Y-89855192D01*
X153681247Y-89872749D01*
X153681252Y-89872751D01*
X153688197Y-89876569D01*
X153695871Y-89878539D01*
X153695878Y-89878542D01*
X153707913Y-89881632D01*
X153726618Y-89888036D01*
X153738013Y-89892967D01*
X153745292Y-89896117D01*
X153772342Y-89900401D01*
X153789127Y-89903060D01*
X153800740Y-89905465D01*
X153843718Y-89916500D01*
X153864065Y-89916500D01*
X153883777Y-89918051D01*
X153903879Y-89921235D01*
X153911771Y-89920489D01*
X153948056Y-89917059D01*
X153959914Y-89916500D01*
X159938533Y-89916500D01*
X160006654Y-89936502D01*
X160053147Y-89990158D01*
X160063251Y-90060432D01*
X160033757Y-90125012D01*
X160014099Y-90143325D01*
X160010722Y-90145856D01*
X160010720Y-90145858D01*
X160003540Y-90151239D01*
X159916186Y-90267795D01*
X159865056Y-90404184D01*
X159858301Y-90466366D01*
X159858301Y-92055000D01*
X159838299Y-92123121D01*
X159784643Y-92169614D01*
X159732301Y-92181000D01*
X158143667Y-92181000D01*
X158081485Y-92187755D01*
X157945096Y-92238885D01*
X157828540Y-92326239D01*
X157741186Y-92442795D01*
X157690056Y-92579184D01*
X157683301Y-92641366D01*
X157683301Y-93287634D01*
X157683670Y-93291031D01*
X157690056Y-93349816D01*
X157687627Y-93350080D01*
X157687627Y-93378920D01*
X157690056Y-93379184D01*
X157683301Y-93441366D01*
X157683301Y-94087634D01*
X157683670Y-94091031D01*
X157690056Y-94149816D01*
X157687627Y-94150080D01*
X157687627Y-94178920D01*
X157690056Y-94179184D01*
X157683301Y-94241366D01*
X157683301Y-94616814D01*
X157663299Y-94684935D01*
X157609643Y-94731428D01*
X157539369Y-94741532D01*
X157531107Y-94740062D01*
X157513660Y-94736353D01*
X157454944Y-94723872D01*
X157454939Y-94723872D01*
X157448487Y-94722500D01*
X157257513Y-94722500D01*
X157251061Y-94723872D01*
X157251056Y-94723872D01*
X157139535Y-94747577D01*
X157068744Y-94742175D01*
X157024320Y-94713503D01*
X156909483Y-94598866D01*
X156904303Y-94593695D01*
X156762023Y-94505992D01*
X156759968Y-94504725D01*
X156759966Y-94504724D01*
X156753738Y-94500885D01*
X156593254Y-94447655D01*
X156592389Y-94447368D01*
X156592387Y-94447368D01*
X156585861Y-94445203D01*
X156579025Y-94444503D01*
X156579022Y-94444502D01*
X156535969Y-94440091D01*
X156481400Y-94434500D01*
X155430600Y-94434500D01*
X155427354Y-94434837D01*
X155427350Y-94434837D01*
X155331692Y-94444762D01*
X155331688Y-94444763D01*
X155324834Y-94445474D01*
X155318298Y-94447655D01*
X155318296Y-94447655D01*
X155209849Y-94483836D01*
X155157054Y-94501450D01*
X155006652Y-94594522D01*
X154881695Y-94719697D01*
X154877855Y-94725927D01*
X154877854Y-94725928D01*
X154793710Y-94862435D01*
X154788885Y-94870262D01*
X154733203Y-95038139D01*
X154722500Y-95142600D01*
X154722500Y-95743400D01*
X154722837Y-95746646D01*
X154722837Y-95746650D01*
X154732725Y-95841944D01*
X154733474Y-95849166D01*
X154735655Y-95855702D01*
X154735655Y-95855704D01*
X154754246Y-95911427D01*
X154789450Y-96016946D01*
X154882522Y-96167348D01*
X155007697Y-96292305D01*
X155012235Y-96295102D01*
X155052824Y-96352353D01*
X155056054Y-96423276D01*
X155020428Y-96484687D01*
X155011932Y-96492062D01*
X155001793Y-96500098D01*
X154887261Y-96614829D01*
X154878249Y-96626240D01*
X154793184Y-96764243D01*
X154787037Y-96777424D01*
X154735862Y-96931710D01*
X154732995Y-96945086D01*
X154723328Y-97039438D01*
X154723000Y-97045855D01*
X154723000Y-97070885D01*
X154727475Y-97086124D01*
X154728865Y-97087329D01*
X154736548Y-97089000D01*
X156084000Y-97089000D01*
X156152121Y-97109002D01*
X156198614Y-97162658D01*
X156210000Y-97215000D01*
X156210000Y-97471000D01*
X156189998Y-97539121D01*
X156136342Y-97585614D01*
X156084000Y-97597000D01*
X154741116Y-97597000D01*
X154725877Y-97601475D01*
X154724672Y-97602865D01*
X154723001Y-97610548D01*
X154723001Y-97640095D01*
X154723338Y-97646614D01*
X154733257Y-97742206D01*
X154736149Y-97755600D01*
X154747667Y-97790124D01*
X154750251Y-97861073D01*
X154714068Y-97922157D01*
X154650603Y-97953982D01*
X154628143Y-97956000D01*
X152740239Y-97956000D01*
X152672118Y-97935998D01*
X152651144Y-97919095D01*
X152438905Y-97706856D01*
X152404879Y-97644544D01*
X152402000Y-97617761D01*
X152402000Y-97009100D01*
X152395358Y-96945086D01*
X152391738Y-96910192D01*
X152391737Y-96910188D01*
X152391026Y-96903334D01*
X152371389Y-96844473D01*
X152337368Y-96742502D01*
X152335050Y-96735554D01*
X152241978Y-96585152D01*
X152212973Y-96556197D01*
X152121983Y-96465366D01*
X152116803Y-96460195D01*
X152056910Y-96423276D01*
X151972468Y-96371225D01*
X151972466Y-96371224D01*
X151966238Y-96367385D01*
X151805754Y-96314155D01*
X151804889Y-96313868D01*
X151804887Y-96313868D01*
X151798361Y-96311703D01*
X151791525Y-96311003D01*
X151791522Y-96311002D01*
X151748469Y-96306591D01*
X151693900Y-96301000D01*
X150693100Y-96301000D01*
X150689854Y-96301337D01*
X150689850Y-96301337D01*
X150594192Y-96311262D01*
X150594188Y-96311263D01*
X150587334Y-96311974D01*
X150580798Y-96314155D01*
X150580796Y-96314155D01*
X150536301Y-96329000D01*
X150419554Y-96367950D01*
X150269152Y-96461022D01*
X150144195Y-96586197D01*
X150140355Y-96592427D01*
X150140354Y-96592428D01*
X150056567Y-96728356D01*
X150051385Y-96736762D01*
X149995703Y-96904639D01*
X149985000Y-97009100D01*
X149985000Y-97634900D01*
X149985337Y-97638146D01*
X149985337Y-97638150D01*
X149989198Y-97675355D01*
X149995974Y-97740666D01*
X149998155Y-97747202D01*
X149998155Y-97747204D01*
X150033667Y-97853645D01*
X150051950Y-97908446D01*
X150145022Y-98058848D01*
X150150204Y-98064021D01*
X150231609Y-98145284D01*
X150265688Y-98207566D01*
X150260685Y-98278386D01*
X150231764Y-98323475D01*
X150193546Y-98361760D01*
X150144195Y-98411197D01*
X150140353Y-98417429D01*
X150140352Y-98417431D01*
X150119279Y-98451617D01*
X150066507Y-98499110D01*
X150012020Y-98511500D01*
X140930923Y-98511500D01*
X140862802Y-98491498D01*
X140841828Y-98474595D01*
X139717405Y-97350172D01*
X139683379Y-97287860D01*
X139680500Y-97261077D01*
X139680500Y-96824498D01*
X139680394Y-96823149D01*
X139697671Y-96754447D01*
X139730909Y-96718793D01*
X139730673Y-96718526D01*
X139733395Y-96716126D01*
X139734897Y-96714515D01*
X139736373Y-96713501D01*
X139736375Y-96713499D01*
X139742632Y-96709199D01*
X139758164Y-96691767D01*
X139783498Y-96663332D01*
X139788479Y-96658056D01*
X140555038Y-95891497D01*
X140561304Y-95885643D01*
X140598549Y-95853152D01*
X140604274Y-95848158D01*
X140640494Y-95796622D01*
X140644427Y-95791326D01*
X140678606Y-95747737D01*
X140678608Y-95747734D01*
X140683292Y-95741760D01*
X140686418Y-95734836D01*
X140688256Y-95731801D01*
X140695500Y-95719102D01*
X140697188Y-95715954D01*
X140701556Y-95709739D01*
X140724438Y-95651050D01*
X140726978Y-95645005D01*
X140752913Y-95587565D01*
X140754298Y-95580092D01*
X140755369Y-95576674D01*
X140759354Y-95562685D01*
X140760251Y-95559193D01*
X140763012Y-95552111D01*
X140766272Y-95527348D01*
X140771233Y-95489670D01*
X140772265Y-95483157D01*
X140782361Y-95428682D01*
X140782361Y-95428680D01*
X140783745Y-95421213D01*
X140780209Y-95359887D01*
X140780000Y-95352635D01*
X140780000Y-93771275D01*
X140800002Y-93703154D01*
X140853658Y-93656661D01*
X140923932Y-93646557D01*
X140957248Y-93656168D01*
X141062677Y-93703108D01*
X141062685Y-93703111D01*
X141068712Y-93705794D01*
X141142236Y-93721422D01*
X141249056Y-93744128D01*
X141249061Y-93744128D01*
X141255513Y-93745500D01*
X141446487Y-93745500D01*
X141452939Y-93744128D01*
X141452944Y-93744128D01*
X141559764Y-93721422D01*
X141633288Y-93705794D01*
X141715408Y-93669232D01*
X141801722Y-93630803D01*
X141801724Y-93630802D01*
X141807752Y-93628118D01*
X141962253Y-93515866D01*
X142090040Y-93373944D01*
X142177202Y-93222975D01*
X142182223Y-93214279D01*
X142182224Y-93214278D01*
X142185527Y-93208556D01*
X142244542Y-93026928D01*
X142249331Y-92981369D01*
X142263814Y-92843565D01*
X142264504Y-92837000D01*
X142256726Y-92762998D01*
X142245232Y-92653635D01*
X142245232Y-92653633D01*
X142244542Y-92647072D01*
X142185527Y-92465444D01*
X142168442Y-92435851D01*
X142104004Y-92324243D01*
X142090040Y-92300056D01*
X142055059Y-92261205D01*
X141966675Y-92163045D01*
X141966674Y-92163044D01*
X141962253Y-92158134D01*
X141826167Y-92059261D01*
X141813094Y-92049763D01*
X141813093Y-92049762D01*
X141807752Y-92045882D01*
X141801724Y-92043198D01*
X141801722Y-92043197D01*
X141639319Y-91970891D01*
X141639318Y-91970891D01*
X141633288Y-91968206D01*
X141463369Y-91932088D01*
X141400472Y-91897937D01*
X140849497Y-91346962D01*
X140843643Y-91340696D01*
X140811152Y-91303451D01*
X140806158Y-91297726D01*
X140754622Y-91261506D01*
X140749326Y-91257573D01*
X140705737Y-91223394D01*
X140705734Y-91223392D01*
X140699760Y-91218708D01*
X140692836Y-91215582D01*
X140689801Y-91213744D01*
X140677102Y-91206500D01*
X140673954Y-91204812D01*
X140667739Y-91200444D01*
X140609050Y-91177562D01*
X140603005Y-91175022D01*
X140545565Y-91149087D01*
X140538094Y-91147702D01*
X140531895Y-91145760D01*
X140472872Y-91106304D01*
X140446410Y-91052121D01*
X140445238Y-91046691D01*
X140444526Y-91039834D01*
X140388550Y-90872054D01*
X140295478Y-90721652D01*
X140170303Y-90596695D01*
X140019738Y-90503885D01*
X139951022Y-90481093D01*
X139892662Y-90440662D01*
X139865425Y-90375098D01*
X139877958Y-90305217D01*
X139926283Y-90253205D01*
X139990689Y-90235500D01*
X140116400Y-90235500D01*
X140119646Y-90235163D01*
X140119650Y-90235163D01*
X140215308Y-90225238D01*
X140215312Y-90225237D01*
X140222166Y-90224526D01*
X140228702Y-90222345D01*
X140228704Y-90222345D01*
X140379785Y-90171940D01*
X140389946Y-90168550D01*
X140540348Y-90075478D01*
X140596465Y-90019263D01*
X140627138Y-89988537D01*
X140689421Y-89954458D01*
X140760241Y-89959461D01*
X140805329Y-89988382D01*
X140887829Y-90070739D01*
X140899240Y-90079751D01*
X141037243Y-90164816D01*
X141050424Y-90170963D01*
X141204710Y-90222138D01*
X141218086Y-90225005D01*
X141312438Y-90234672D01*
X141318854Y-90235000D01*
X141356385Y-90235000D01*
X141371624Y-90230525D01*
X141372829Y-90229135D01*
X141374500Y-90221452D01*
X141374500Y-90216884D01*
X141882500Y-90216884D01*
X141886975Y-90232123D01*
X141888365Y-90233328D01*
X141896048Y-90234999D01*
X141938095Y-90234999D01*
X141944614Y-90234662D01*
X142040206Y-90224743D01*
X142053600Y-90221851D01*
X142207784Y-90170412D01*
X142220962Y-90164239D01*
X142358807Y-90078937D01*
X142370208Y-90069901D01*
X142484739Y-89955171D01*
X142493751Y-89943760D01*
X142578816Y-89805757D01*
X142584963Y-89792576D01*
X142636138Y-89638290D01*
X142639005Y-89624914D01*
X142648672Y-89530562D01*
X142649000Y-89524146D01*
X142649000Y-89299115D01*
X142644525Y-89283876D01*
X142643135Y-89282671D01*
X142635452Y-89281000D01*
X141900615Y-89281000D01*
X141885376Y-89285475D01*
X141884171Y-89286865D01*
X141882500Y-89294548D01*
X141882500Y-90216884D01*
X141374500Y-90216884D01*
X141374500Y-88754885D01*
X141882500Y-88754885D01*
X141886975Y-88770124D01*
X141888365Y-88771329D01*
X141896048Y-88773000D01*
X142630884Y-88773000D01*
X142646123Y-88768525D01*
X142647328Y-88767135D01*
X142648999Y-88759452D01*
X142648999Y-88529905D01*
X142648662Y-88523386D01*
X142638743Y-88427794D01*
X142635851Y-88414400D01*
X142584412Y-88260216D01*
X142578239Y-88247038D01*
X142492937Y-88109193D01*
X142483901Y-88097792D01*
X142369171Y-87983261D01*
X142357760Y-87974249D01*
X142219757Y-87889184D01*
X142206576Y-87883037D01*
X142052290Y-87831862D01*
X142038914Y-87828995D01*
X141944562Y-87819328D01*
X141938145Y-87819000D01*
X141900615Y-87819000D01*
X141885376Y-87823475D01*
X141884171Y-87824865D01*
X141882500Y-87832548D01*
X141882500Y-88754885D01*
X141374500Y-88754885D01*
X141374500Y-87837116D01*
X141370025Y-87821877D01*
X141368635Y-87820672D01*
X141360952Y-87819001D01*
X141318905Y-87819001D01*
X141312386Y-87819338D01*
X141216794Y-87829257D01*
X141203400Y-87832149D01*
X141049216Y-87883588D01*
X141036038Y-87889761D01*
X140898193Y-87975063D01*
X140886792Y-87984099D01*
X140805570Y-88065462D01*
X140743287Y-88099541D01*
X140672467Y-88094538D01*
X140627380Y-88065617D01*
X140544488Y-87982870D01*
X140544483Y-87982866D01*
X140539303Y-87977695D01*
X140504640Y-87956328D01*
X140452669Y-87924293D01*
X140388738Y-87884885D01*
X140381785Y-87882579D01*
X140380252Y-87881864D01*
X140326966Y-87834948D01*
X140307500Y-87767668D01*
X140307500Y-86845500D01*
X140327502Y-86777379D01*
X140381158Y-86730886D01*
X140433500Y-86719500D01*
X140720134Y-86719500D01*
X140748219Y-86716449D01*
X140775434Y-86716449D01*
X140795519Y-86718631D01*
X140802328Y-86719000D01*
X140874885Y-86719000D01*
X140890124Y-86714525D01*
X140899183Y-86704071D01*
X140923432Y-86659662D01*
X140936962Y-86647932D01*
X140972019Y-86621658D01*
X141035261Y-86574261D01*
X141122615Y-86457705D01*
X141133423Y-86428876D01*
X141157018Y-86365936D01*
X141199659Y-86309171D01*
X141266221Y-86284471D01*
X141335570Y-86299678D01*
X141385688Y-86349964D01*
X141401000Y-86410165D01*
X141401000Y-86700884D01*
X141405475Y-86716123D01*
X141406865Y-86717328D01*
X141414548Y-86718999D01*
X141491669Y-86718999D01*
X141498490Y-86718629D01*
X141549352Y-86713105D01*
X141564604Y-86709479D01*
X141685054Y-86664324D01*
X141700649Y-86655786D01*
X141802724Y-86579285D01*
X141815285Y-86566724D01*
X141891786Y-86464649D01*
X141900324Y-86449054D01*
X141945478Y-86328606D01*
X141949105Y-86313351D01*
X141954631Y-86262486D01*
X141955000Y-86255672D01*
X141955000Y-86182129D01*
X141970692Y-86128685D01*
X141968173Y-86127490D01*
X141988000Y-86085701D01*
X141988000Y-86078924D01*
X142496000Y-86078924D01*
X142499973Y-86092455D01*
X142507768Y-86093575D01*
X142615521Y-86061862D01*
X142626889Y-86057269D01*
X142791154Y-85971393D01*
X142801415Y-85964679D01*
X142835362Y-85937385D01*
X150176000Y-85937385D01*
X150180475Y-85952624D01*
X150181865Y-85953829D01*
X150189548Y-85955500D01*
X151111885Y-85955500D01*
X151127124Y-85951025D01*
X151128329Y-85949635D01*
X151130000Y-85941952D01*
X151130000Y-85937385D01*
X151638000Y-85937385D01*
X151642475Y-85952624D01*
X151643865Y-85953829D01*
X151651548Y-85955500D01*
X152573884Y-85955500D01*
X152589123Y-85951025D01*
X152590328Y-85949635D01*
X152591999Y-85941952D01*
X152591999Y-85899905D01*
X152591998Y-85899885D01*
X154469000Y-85899885D01*
X154473475Y-85915124D01*
X154474865Y-85916329D01*
X154482548Y-85918000D01*
X155429885Y-85918000D01*
X155445124Y-85913525D01*
X155446329Y-85912135D01*
X155448000Y-85904452D01*
X155448000Y-85899885D01*
X155956000Y-85899885D01*
X155960475Y-85915124D01*
X155961865Y-85916329D01*
X155969548Y-85918000D01*
X156916884Y-85918000D01*
X156932123Y-85913525D01*
X156933328Y-85912135D01*
X156934999Y-85904452D01*
X156934999Y-85874905D01*
X156934662Y-85868386D01*
X156924743Y-85772794D01*
X156921851Y-85759400D01*
X156870412Y-85605216D01*
X156864239Y-85592038D01*
X156778937Y-85454193D01*
X156769901Y-85442792D01*
X156655171Y-85328261D01*
X156643760Y-85319249D01*
X156505757Y-85234184D01*
X156492576Y-85228037D01*
X156338290Y-85176862D01*
X156324914Y-85173995D01*
X156230562Y-85164328D01*
X156224145Y-85164000D01*
X155974115Y-85164000D01*
X155958876Y-85168475D01*
X155957671Y-85169865D01*
X155956000Y-85177548D01*
X155956000Y-85899885D01*
X155448000Y-85899885D01*
X155448000Y-85182116D01*
X155443525Y-85166877D01*
X155442135Y-85165672D01*
X155434452Y-85164001D01*
X155179905Y-85164001D01*
X155173386Y-85164338D01*
X155077794Y-85174257D01*
X155064400Y-85177149D01*
X154910216Y-85228588D01*
X154897038Y-85234761D01*
X154759193Y-85320063D01*
X154747792Y-85329099D01*
X154633261Y-85443829D01*
X154624249Y-85455240D01*
X154539184Y-85593243D01*
X154533037Y-85606424D01*
X154481862Y-85760710D01*
X154478995Y-85774086D01*
X154469328Y-85868438D01*
X154469000Y-85874855D01*
X154469000Y-85899885D01*
X152591998Y-85899885D01*
X152591662Y-85893386D01*
X152581743Y-85797794D01*
X152578851Y-85784400D01*
X152527412Y-85630216D01*
X152521239Y-85617038D01*
X152435937Y-85479193D01*
X152426901Y-85467792D01*
X152312171Y-85353261D01*
X152300760Y-85344249D01*
X152162757Y-85259184D01*
X152149576Y-85253037D01*
X151995290Y-85201862D01*
X151981914Y-85198995D01*
X151887562Y-85189328D01*
X151881145Y-85189000D01*
X151656115Y-85189000D01*
X151640876Y-85193475D01*
X151639671Y-85194865D01*
X151638000Y-85202548D01*
X151638000Y-85937385D01*
X151130000Y-85937385D01*
X151130000Y-85207116D01*
X151125525Y-85191877D01*
X151124135Y-85190672D01*
X151116452Y-85189001D01*
X150886905Y-85189001D01*
X150880386Y-85189338D01*
X150784794Y-85199257D01*
X150771400Y-85202149D01*
X150617216Y-85253588D01*
X150604038Y-85259761D01*
X150466193Y-85345063D01*
X150454792Y-85354099D01*
X150340261Y-85468829D01*
X150331249Y-85480240D01*
X150246184Y-85618243D01*
X150240037Y-85631424D01*
X150188862Y-85785710D01*
X150185995Y-85799086D01*
X150176328Y-85893438D01*
X150176000Y-85899855D01*
X150176000Y-85937385D01*
X142835362Y-85937385D01*
X142945873Y-85848532D01*
X142954632Y-85839954D01*
X143073778Y-85697961D01*
X143080708Y-85687841D01*
X143170002Y-85525415D01*
X143174834Y-85514142D01*
X143230880Y-85337462D01*
X143233430Y-85325468D01*
X143249607Y-85181239D01*
X143250000Y-85174215D01*
X143250000Y-84843115D01*
X143245525Y-84827876D01*
X143244135Y-84826671D01*
X143236452Y-84825000D01*
X142514115Y-84825000D01*
X142498876Y-84829475D01*
X142497671Y-84830865D01*
X142496000Y-84838548D01*
X142496000Y-86078924D01*
X141988000Y-86078924D01*
X141988000Y-85758115D01*
X141983525Y-85742876D01*
X141982135Y-85741671D01*
X141974452Y-85740000D01*
X141419115Y-85740000D01*
X141403875Y-85744475D01*
X141401724Y-85746957D01*
X141341998Y-85785341D01*
X141271002Y-85785341D01*
X141211276Y-85746957D01*
X141181783Y-85682377D01*
X141180500Y-85664445D01*
X141180500Y-85358000D01*
X141200502Y-85289879D01*
X141254158Y-85243386D01*
X141306500Y-85232000D01*
X141969885Y-85232000D01*
X141985124Y-85227525D01*
X141986329Y-85226135D01*
X141988000Y-85218452D01*
X141988000Y-84843115D01*
X141983525Y-84827876D01*
X141982135Y-84826671D01*
X141974452Y-84825000D01*
X141512674Y-84825000D01*
X141444553Y-84804998D01*
X141398060Y-84751342D01*
X141387956Y-84681068D01*
X141417450Y-84616488D01*
X141426101Y-84607452D01*
X141445527Y-84589082D01*
X141445529Y-84589080D01*
X141450485Y-84584393D01*
X141454317Y-84578755D01*
X141454320Y-84578751D01*
X141548442Y-84440255D01*
X141552277Y-84434612D01*
X141567638Y-84396206D01*
X141611505Y-84340387D01*
X141684626Y-84317000D01*
X141969885Y-84317000D01*
X141985124Y-84312525D01*
X141986329Y-84311135D01*
X141988000Y-84303452D01*
X141988000Y-84298885D01*
X142496000Y-84298885D01*
X142500475Y-84314124D01*
X142501865Y-84315329D01*
X142509548Y-84317000D01*
X143231885Y-84317000D01*
X143247124Y-84312525D01*
X143248329Y-84311135D01*
X143250000Y-84303452D01*
X143250000Y-83974343D01*
X143249699Y-83968195D01*
X143236188Y-83830397D01*
X143233805Y-83818362D01*
X143180233Y-83640924D01*
X143175559Y-83629584D01*
X143088540Y-83465923D01*
X143081751Y-83455706D01*
X142964603Y-83312067D01*
X142955959Y-83303363D01*
X142813144Y-83185216D01*
X142802973Y-83178356D01*
X142639924Y-83090196D01*
X142628619Y-83085444D01*
X142513308Y-83049750D01*
X142499205Y-83049544D01*
X142496000Y-83056299D01*
X142496000Y-84298885D01*
X141988000Y-84298885D01*
X141988000Y-83063076D01*
X141984027Y-83049545D01*
X141976232Y-83048425D01*
X141868479Y-83080138D01*
X141857111Y-83084731D01*
X141692846Y-83170607D01*
X141682585Y-83177321D01*
X141538127Y-83293468D01*
X141529368Y-83302046D01*
X141485000Y-83354921D01*
X141425890Y-83394248D01*
X141354902Y-83395374D01*
X141311952Y-83374028D01*
X141246322Y-83323850D01*
X141141186Y-83274825D01*
X141088369Y-83250195D01*
X141088366Y-83250194D01*
X141082192Y-83247315D01*
X141075544Y-83245829D01*
X141075541Y-83245828D01*
X140910494Y-83208936D01*
X140910495Y-83208936D01*
X140905457Y-83207810D01*
X140899912Y-83207500D01*
X140766756Y-83207500D01*
X140631963Y-83222143D01*
X140548609Y-83250195D01*
X140466796Y-83277728D01*
X140466794Y-83277729D01*
X140460325Y-83279906D01*
X140305095Y-83373177D01*
X140184841Y-83486897D01*
X140121606Y-83519167D01*
X140050959Y-83512127D01*
X140009175Y-83484442D01*
X139189250Y-82664517D01*
X139181674Y-82656191D01*
X139177553Y-82649697D01*
X139127734Y-82602914D01*
X139124893Y-82600160D01*
X139105094Y-82580361D01*
X139101969Y-82577937D01*
X139101960Y-82577929D01*
X139101874Y-82577863D01*
X139092849Y-82570155D01*
X139066285Y-82545210D01*
X139060506Y-82539783D01*
X139042669Y-82529977D01*
X139026153Y-82519127D01*
X139010067Y-82506650D01*
X138969334Y-82489024D01*
X138958686Y-82483807D01*
X138929787Y-82467920D01*
X138919803Y-82462431D01*
X138912128Y-82460460D01*
X138912122Y-82460458D01*
X138900089Y-82457369D01*
X138881387Y-82450966D01*
X138862708Y-82442883D01*
X138822913Y-82436580D01*
X138818873Y-82435940D01*
X138807260Y-82433535D01*
X138764282Y-82422500D01*
X138743935Y-82422500D01*
X138724224Y-82420949D01*
X138711950Y-82419005D01*
X138704121Y-82417765D01*
X138696229Y-82418511D01*
X138659944Y-82421941D01*
X138648086Y-82422500D01*
X137175924Y-82422500D01*
X137164690Y-82421970D01*
X137157185Y-82420292D01*
X137089475Y-82422420D01*
X137088892Y-82422438D01*
X137084935Y-82422500D01*
X137056921Y-82422500D01*
X137052996Y-82422996D01*
X137052995Y-82422996D01*
X137052900Y-82423008D01*
X137041055Y-82423941D01*
X137011234Y-82424878D01*
X137004622Y-82425086D01*
X137004621Y-82425086D01*
X136996699Y-82425335D01*
X136977156Y-82431013D01*
X136957792Y-82435023D01*
X136945464Y-82436580D01*
X136945462Y-82436580D01*
X136937605Y-82437573D01*
X136930241Y-82440489D01*
X136930236Y-82440490D01*
X136896348Y-82453907D01*
X136885119Y-82457752D01*
X136875806Y-82460458D01*
X136842511Y-82470131D01*
X136835685Y-82474168D01*
X136824995Y-82480490D01*
X136807245Y-82489187D01*
X136788316Y-82496681D01*
X136781900Y-82501342D01*
X136781899Y-82501343D01*
X136752423Y-82522759D01*
X136742499Y-82529278D01*
X136711128Y-82547830D01*
X136711123Y-82547834D01*
X136704305Y-82551866D01*
X136689918Y-82566253D01*
X136674884Y-82579094D01*
X136658417Y-82591058D01*
X136653364Y-82597166D01*
X136630132Y-82625249D01*
X136622142Y-82634029D01*
X135804241Y-83451930D01*
X135741929Y-83485956D01*
X135671114Y-83480891D01*
X135618907Y-83444162D01*
X135614592Y-83439056D01*
X135610187Y-83433843D01*
X135604762Y-83429695D01*
X135471743Y-83327994D01*
X135471739Y-83327991D01*
X135466322Y-83323850D01*
X135361186Y-83274825D01*
X135308369Y-83250195D01*
X135308366Y-83250194D01*
X135302192Y-83247315D01*
X135295544Y-83245829D01*
X135295541Y-83245828D01*
X135130494Y-83208936D01*
X135130495Y-83208936D01*
X135125457Y-83207810D01*
X135119912Y-83207500D01*
X134986756Y-83207500D01*
X134851963Y-83222143D01*
X134768609Y-83250195D01*
X134686796Y-83277728D01*
X134686794Y-83277729D01*
X134680325Y-83279906D01*
X134528349Y-83371222D01*
X134528346Y-83371223D01*
X134525095Y-83373177D01*
X134524745Y-83372594D01*
X134463083Y-83396065D01*
X134393609Y-83381439D01*
X134355609Y-83350085D01*
X134324603Y-83312067D01*
X134315959Y-83303363D01*
X134173144Y-83185216D01*
X134162973Y-83178356D01*
X133999924Y-83090196D01*
X133988619Y-83085444D01*
X133873308Y-83049750D01*
X133859205Y-83049544D01*
X133856000Y-83056299D01*
X133856000Y-84298885D01*
X133860475Y-84314124D01*
X133861865Y-84315329D01*
X133869548Y-84317000D01*
X134159243Y-84317000D01*
X134227364Y-84337002D01*
X134270700Y-84384235D01*
X134336922Y-84509836D01*
X134341327Y-84515049D01*
X134341330Y-84515053D01*
X134428051Y-84617672D01*
X134456743Y-84682613D01*
X134445770Y-84752756D01*
X134398617Y-84805833D01*
X134331813Y-84825000D01*
X133874115Y-84825000D01*
X133858876Y-84829475D01*
X133857671Y-84830865D01*
X133856000Y-84838548D01*
X133856000Y-85213885D01*
X133860475Y-85229124D01*
X133861865Y-85230329D01*
X133869548Y-85232000D01*
X134537500Y-85232000D01*
X134605621Y-85252002D01*
X134652114Y-85305658D01*
X134663500Y-85358000D01*
X134663500Y-85614000D01*
X134643498Y-85682121D01*
X134589842Y-85728614D01*
X134537500Y-85740000D01*
X133874115Y-85740000D01*
X133858876Y-85744475D01*
X133857671Y-85745865D01*
X133856000Y-85753548D01*
X133856000Y-86078924D01*
X133866052Y-86113157D01*
X133883898Y-86140927D01*
X133889001Y-86176424D01*
X133889001Y-86255669D01*
X133889371Y-86262490D01*
X133894895Y-86313352D01*
X133898521Y-86328604D01*
X133943676Y-86449054D01*
X133952214Y-86464649D01*
X134028715Y-86566724D01*
X134041276Y-86579285D01*
X134143351Y-86655786D01*
X134158946Y-86664324D01*
X134279394Y-86709478D01*
X134294649Y-86713105D01*
X134345514Y-86718631D01*
X134352328Y-86719000D01*
X134566980Y-86719000D01*
X134635101Y-86739002D01*
X134681594Y-86792658D01*
X134692980Y-86845000D01*
X134692980Y-90662381D01*
X134692688Y-90670951D01*
X134688810Y-90727832D01*
X134690115Y-90735308D01*
X134690115Y-90735312D01*
X134699643Y-90789904D01*
X134700606Y-90796429D01*
X134708171Y-90858940D01*
X134710855Y-90866042D01*
X134711699Y-90869480D01*
X134715563Y-90883603D01*
X134716593Y-90887014D01*
X134717899Y-90894497D01*
X134720952Y-90901452D01*
X134743219Y-90952178D01*
X134745710Y-90958284D01*
X134767974Y-91017202D01*
X134772273Y-91023457D01*
X134773915Y-91026598D01*
X134781013Y-91039352D01*
X134782850Y-91042458D01*
X134785903Y-91049413D01*
X134790528Y-91055440D01*
X134790530Y-91055444D01*
X134824245Y-91099382D01*
X134828109Y-91104700D01*
X134863801Y-91156632D01*
X134909687Y-91197515D01*
X134914943Y-91202478D01*
X135351595Y-91639130D01*
X135385621Y-91701442D01*
X135388500Y-91728225D01*
X135388500Y-92496400D01*
X135388837Y-92499646D01*
X135388837Y-92499650D01*
X135397916Y-92587148D01*
X135399474Y-92602166D01*
X135401655Y-92608702D01*
X135401655Y-92608704D01*
X135431097Y-92696952D01*
X135455450Y-92769946D01*
X135548522Y-92920348D01*
X135673697Y-93045305D01*
X135679927Y-93049145D01*
X135679928Y-93049146D01*
X135804996Y-93126239D01*
X135824262Y-93138115D01*
X135873930Y-93154589D01*
X135985611Y-93191632D01*
X135985613Y-93191632D01*
X135992139Y-93193797D01*
X135998975Y-93194497D01*
X135998978Y-93194498D01*
X136042031Y-93198909D01*
X136096600Y-93204500D01*
X136210500Y-93204500D01*
X136278621Y-93224502D01*
X136325114Y-93278158D01*
X136336500Y-93330500D01*
X136336500Y-93346065D01*
X136334949Y-93365776D01*
X136331765Y-93385879D01*
X136332511Y-93393771D01*
X136335941Y-93430056D01*
X136336500Y-93441914D01*
X136336500Y-94118050D01*
X136316498Y-94186171D01*
X136307702Y-94197085D01*
X136308011Y-94197325D01*
X136303155Y-94203585D01*
X136297547Y-94209193D01*
X136293511Y-94216017D01*
X136293509Y-94216020D01*
X136278520Y-94241366D01*
X136212855Y-94352399D01*
X136166438Y-94512169D01*
X136163500Y-94549498D01*
X136163500Y-95707502D01*
X136166438Y-95744831D01*
X136212855Y-95904601D01*
X136216892Y-95911427D01*
X136293509Y-96040980D01*
X136293511Y-96040983D01*
X136297547Y-96047807D01*
X136415193Y-96165453D01*
X136419002Y-96167706D01*
X136459655Y-96223996D01*
X136463506Y-96294888D01*
X136428418Y-96356609D01*
X136420724Y-96363276D01*
X136415193Y-96366547D01*
X136297547Y-96484193D01*
X136293511Y-96491017D01*
X136293509Y-96491020D01*
X136258581Y-96550080D01*
X136212855Y-96627399D01*
X136210644Y-96635010D01*
X136210643Y-96635012D01*
X136195537Y-96687008D01*
X136166438Y-96787169D01*
X136165934Y-96793574D01*
X136165933Y-96793579D01*
X136163693Y-96822042D01*
X136163500Y-96824498D01*
X136163500Y-97982502D01*
X136166438Y-98019831D01*
X136212855Y-98179601D01*
X136216892Y-98186427D01*
X136293509Y-98315980D01*
X136293511Y-98315983D01*
X136297547Y-98322807D01*
X136303155Y-98328415D01*
X136308011Y-98334675D01*
X136305866Y-98336339D01*
X136333621Y-98387167D01*
X136336500Y-98413950D01*
X136336500Y-98792980D01*
X136335970Y-98804214D01*
X136334292Y-98811719D01*
X136334541Y-98819638D01*
X136336438Y-98880012D01*
X136336500Y-98883969D01*
X136336500Y-98911983D01*
X136336996Y-98915908D01*
X136336996Y-98915909D01*
X136337008Y-98916004D01*
X136337941Y-98927849D01*
X136339335Y-98972205D01*
X136341547Y-98979817D01*
X136345013Y-98991748D01*
X136349023Y-99011112D01*
X136351573Y-99031299D01*
X136354489Y-99038663D01*
X136354490Y-99038668D01*
X136367907Y-99072556D01*
X136371752Y-99083785D01*
X136384131Y-99126393D01*
X136388169Y-99133220D01*
X136388170Y-99133223D01*
X136394488Y-99143906D01*
X136403188Y-99161664D01*
X136407761Y-99173215D01*
X136407765Y-99173221D01*
X136410681Y-99180588D01*
X136415339Y-99186999D01*
X136415340Y-99187001D01*
X136436764Y-99216488D01*
X136443281Y-99226410D01*
X136461826Y-99257768D01*
X136461829Y-99257772D01*
X136465866Y-99264598D01*
X136480250Y-99278982D01*
X136493091Y-99294016D01*
X136505058Y-99310487D01*
X136511166Y-99315540D01*
X136539255Y-99338777D01*
X136548035Y-99346767D01*
X137924745Y-100723477D01*
X137932322Y-100731803D01*
X137936447Y-100738303D01*
X137942225Y-100743729D01*
X137942226Y-100743730D01*
X137986281Y-100785100D01*
X137989123Y-100787855D01*
X138008906Y-100807638D01*
X138012114Y-100810126D01*
X138021143Y-100817837D01*
X138053494Y-100848217D01*
X138060443Y-100852037D01*
X138071329Y-100858022D01*
X138087853Y-100868876D01*
X138103933Y-100881349D01*
X138111210Y-100884498D01*
X138144650Y-100898969D01*
X138155311Y-100904192D01*
X138187247Y-100921749D01*
X138187252Y-100921751D01*
X138194197Y-100925569D01*
X138201871Y-100927539D01*
X138201878Y-100927542D01*
X138213913Y-100930632D01*
X138232618Y-100937036D01*
X138244013Y-100941967D01*
X138251292Y-100945117D01*
X138278342Y-100949401D01*
X138295127Y-100952060D01*
X138306740Y-100954465D01*
X138349718Y-100965500D01*
X138370065Y-100965500D01*
X138389777Y-100967051D01*
X138409879Y-100970235D01*
X138417771Y-100969489D01*
X138454056Y-100966059D01*
X138465914Y-100965500D01*
X148378078Y-100965500D01*
X148446199Y-100985502D01*
X148467173Y-101002405D01*
X149884595Y-102419827D01*
X149918621Y-102482139D01*
X149921500Y-102508922D01*
X149921500Y-103079400D01*
X149921836Y-103082643D01*
X149921837Y-103082653D01*
X149928124Y-103143247D01*
X149915259Y-103213069D01*
X149866687Y-103264850D01*
X149802797Y-103282250D01*
X142930975Y-103282250D01*
X142862854Y-103262248D01*
X142841880Y-103245345D01*
X142287243Y-102690708D01*
X142253217Y-102628396D01*
X142251028Y-102614783D01*
X142245232Y-102559637D01*
X142245232Y-102559635D01*
X142244542Y-102553072D01*
X142185527Y-102371444D01*
X142090040Y-102206056D01*
X142044744Y-102155749D01*
X141966675Y-102069045D01*
X141966674Y-102069044D01*
X141962253Y-102064134D01*
X141807752Y-101951882D01*
X141801724Y-101949198D01*
X141801722Y-101949197D01*
X141639319Y-101876891D01*
X141639318Y-101876891D01*
X141633288Y-101874206D01*
X141520721Y-101850279D01*
X141452944Y-101835872D01*
X141452939Y-101835872D01*
X141446487Y-101834500D01*
X141255513Y-101834500D01*
X141249061Y-101835872D01*
X141249056Y-101835872D01*
X141181279Y-101850279D01*
X141068712Y-101874206D01*
X141062682Y-101876891D01*
X141062681Y-101876891D01*
X140900278Y-101949197D01*
X140900276Y-101949198D01*
X140894248Y-101951882D01*
X140739747Y-102064134D01*
X140735326Y-102069044D01*
X140735325Y-102069045D01*
X140657257Y-102155749D01*
X140611960Y-102206056D01*
X140516473Y-102371444D01*
X140457458Y-102553072D01*
X140437496Y-102743000D01*
X140438186Y-102749565D01*
X140453108Y-102891536D01*
X140457458Y-102932928D01*
X140516473Y-103114556D01*
X140519776Y-103120278D01*
X140519777Y-103120279D01*
X140553686Y-103179010D01*
X140611960Y-103279944D01*
X140616378Y-103284851D01*
X140616379Y-103284852D01*
X140633316Y-103303662D01*
X140739747Y-103421866D01*
X140791156Y-103459217D01*
X140886516Y-103528500D01*
X140894248Y-103534118D01*
X140900276Y-103536802D01*
X140900278Y-103536803D01*
X141062681Y-103609109D01*
X141068712Y-103611794D01*
X141238631Y-103647912D01*
X141301528Y-103682063D01*
X141979870Y-104360405D01*
X142013896Y-104422717D01*
X142008831Y-104493532D01*
X141966284Y-104550368D01*
X141899764Y-104575179D01*
X141890775Y-104575500D01*
X139241376Y-104575500D01*
X139173255Y-104555498D01*
X139126762Y-104501842D01*
X139123394Y-104493730D01*
X139096767Y-104422703D01*
X139093615Y-104414295D01*
X139006261Y-104297739D01*
X138889705Y-104210385D01*
X138753316Y-104159255D01*
X138691134Y-104152500D01*
X136794866Y-104152500D01*
X136732684Y-104159255D01*
X136596295Y-104210385D01*
X136479739Y-104297739D01*
X136392385Y-104414295D01*
X136341255Y-104550684D01*
X136334500Y-104612866D01*
X136334500Y-105809134D01*
X136341255Y-105871316D01*
X136392385Y-106007705D01*
X136479739Y-106124261D01*
X136596295Y-106211615D01*
X136732684Y-106262745D01*
X136794866Y-106269500D01*
X138691134Y-106269500D01*
X138753316Y-106262745D01*
X138889705Y-106211615D01*
X139006261Y-106124261D01*
X139093615Y-106007705D01*
X139123394Y-105928270D01*
X139166036Y-105871506D01*
X139232597Y-105846806D01*
X139241376Y-105846500D01*
X142444624Y-105846500D01*
X142512745Y-105866502D01*
X142559238Y-105920158D01*
X142562606Y-105928270D01*
X142592385Y-106007705D01*
X142679739Y-106124261D01*
X142796295Y-106211615D01*
X142932684Y-106262745D01*
X142994866Y-106269500D01*
X144891134Y-106269500D01*
X144953316Y-106262745D01*
X145089705Y-106211615D01*
X145206261Y-106124261D01*
X145248257Y-106068226D01*
X145288233Y-106014887D01*
X145288235Y-106014884D01*
X145293615Y-106007705D01*
X145308304Y-105968522D01*
X145350945Y-105911757D01*
X145417506Y-105887056D01*
X145426286Y-105886750D01*
X145629351Y-105886750D01*
X145697472Y-105906752D01*
X145714658Y-105921359D01*
X145715170Y-105920790D01*
X145720082Y-105925213D01*
X145724497Y-105930116D01*
X145736193Y-105938614D01*
X145831289Y-106007705D01*
X145878998Y-106042368D01*
X145885026Y-106045052D01*
X145885028Y-106045053D01*
X146046807Y-106117081D01*
X146053462Y-106120044D01*
X146146863Y-106139897D01*
X146233806Y-106158378D01*
X146233811Y-106158378D01*
X146240263Y-106159750D01*
X146431237Y-106159750D01*
X146437689Y-106158378D01*
X146437694Y-106158378D01*
X146524638Y-106139897D01*
X146618038Y-106120044D01*
X146624693Y-106117081D01*
X146786472Y-106045053D01*
X146786474Y-106045052D01*
X146792502Y-106042368D01*
X146947003Y-105930116D01*
X146961263Y-105914279D01*
X147070371Y-105793102D01*
X147070372Y-105793101D01*
X147074790Y-105788194D01*
X147170277Y-105622806D01*
X147229292Y-105441178D01*
X147249254Y-105251250D01*
X147237339Y-105137885D01*
X166063000Y-105137885D01*
X166067475Y-105153124D01*
X166068865Y-105154329D01*
X166076548Y-105156000D01*
X166798885Y-105156000D01*
X166814124Y-105151525D01*
X166815329Y-105150135D01*
X166817000Y-105142452D01*
X166817000Y-104195116D01*
X166812525Y-104179877D01*
X166811135Y-104178672D01*
X166803452Y-104177001D01*
X166773905Y-104177001D01*
X166767386Y-104177338D01*
X166671794Y-104187257D01*
X166658400Y-104190149D01*
X166504216Y-104241588D01*
X166491038Y-104247761D01*
X166353193Y-104333063D01*
X166341792Y-104342099D01*
X166227261Y-104456829D01*
X166218249Y-104468240D01*
X166133184Y-104606243D01*
X166127037Y-104619424D01*
X166075862Y-104773710D01*
X166072995Y-104787086D01*
X166063328Y-104881438D01*
X166063000Y-104887855D01*
X166063000Y-105137885D01*
X147237339Y-105137885D01*
X147229292Y-105061322D01*
X147170277Y-104879694D01*
X147164246Y-104869249D01*
X147147509Y-104800256D01*
X147170729Y-104733164D01*
X147226535Y-104689276D01*
X147273366Y-104680250D01*
X152355526Y-104680250D01*
X152364096Y-104680542D01*
X152413402Y-104683904D01*
X152413406Y-104683904D01*
X152420977Y-104684420D01*
X152428453Y-104683115D01*
X152428457Y-104683115D01*
X152483049Y-104673587D01*
X152489574Y-104672624D01*
X152544543Y-104665972D01*
X152544545Y-104665971D01*
X152552085Y-104665059D01*
X152559187Y-104662375D01*
X152562625Y-104661531D01*
X152576748Y-104657667D01*
X152580159Y-104656637D01*
X152587642Y-104655331D01*
X152645322Y-104630011D01*
X152651429Y-104627520D01*
X152703242Y-104607941D01*
X152703243Y-104607940D01*
X152710347Y-104605256D01*
X152716602Y-104600957D01*
X152719743Y-104599315D01*
X152732497Y-104592217D01*
X152735603Y-104590380D01*
X152742558Y-104587327D01*
X152748585Y-104582702D01*
X152748589Y-104582700D01*
X152792527Y-104548985D01*
X152797845Y-104545121D01*
X152849777Y-104509429D01*
X152863765Y-104493730D01*
X152890643Y-104463562D01*
X152895624Y-104458286D01*
X154569307Y-102784603D01*
X154631619Y-102750577D01*
X154702434Y-102755642D01*
X154759270Y-102798189D01*
X154777926Y-102833823D01*
X154787587Y-102862782D01*
X154793761Y-102875962D01*
X154879063Y-103013807D01*
X154888099Y-103025208D01*
X155002829Y-103139739D01*
X155014240Y-103148751D01*
X155152243Y-103233816D01*
X155165424Y-103239963D01*
X155319710Y-103291138D01*
X155333086Y-103294005D01*
X155427438Y-103303672D01*
X155433854Y-103304000D01*
X155683885Y-103304000D01*
X155699124Y-103299525D01*
X155700329Y-103298135D01*
X155702000Y-103290452D01*
X155702000Y-102168000D01*
X155722002Y-102099879D01*
X155775658Y-102053386D01*
X155828000Y-102042000D01*
X156084000Y-102042000D01*
X156152121Y-102062002D01*
X156198614Y-102115658D01*
X156210000Y-102168000D01*
X156210000Y-103285884D01*
X156214475Y-103301123D01*
X156215865Y-103302328D01*
X156223548Y-103303999D01*
X156478095Y-103303999D01*
X156484614Y-103303662D01*
X156580206Y-103293743D01*
X156593600Y-103290851D01*
X156747784Y-103239412D01*
X156760962Y-103233239D01*
X156898807Y-103147937D01*
X156910208Y-103138901D01*
X157024739Y-103024171D01*
X157033751Y-103012760D01*
X157118816Y-102874757D01*
X157124963Y-102861576D01*
X157176138Y-102707290D01*
X157179005Y-102693914D01*
X157188672Y-102599562D01*
X157189000Y-102593146D01*
X157189000Y-102507500D01*
X157209002Y-102439379D01*
X157262658Y-102392886D01*
X157315000Y-102381500D01*
X157448487Y-102381500D01*
X157454939Y-102380128D01*
X157454944Y-102380128D01*
X157541888Y-102361647D01*
X157635288Y-102341794D01*
X157703768Y-102311305D01*
X157803722Y-102266803D01*
X157803724Y-102266802D01*
X157809752Y-102264118D01*
X157964253Y-102151866D01*
X158045167Y-102062002D01*
X158087621Y-102014852D01*
X158087622Y-102014851D01*
X158092040Y-102009944D01*
X158170409Y-101874206D01*
X158184223Y-101850279D01*
X158184224Y-101850278D01*
X158187527Y-101844556D01*
X158190612Y-101835063D01*
X158191718Y-101833444D01*
X158192253Y-101832243D01*
X158192473Y-101832341D01*
X158230683Y-101776459D01*
X158296079Y-101748821D01*
X158310444Y-101748000D01*
X159732301Y-101748000D01*
X159800422Y-101768002D01*
X159846915Y-101821658D01*
X159858301Y-101874000D01*
X159858301Y-103462634D01*
X159865056Y-103524816D01*
X159916186Y-103661205D01*
X160003540Y-103777761D01*
X160120096Y-103865115D01*
X160256485Y-103916245D01*
X160318667Y-103923000D01*
X160964935Y-103923000D01*
X160972935Y-103922131D01*
X161027117Y-103916245D01*
X161027349Y-103918384D01*
X161056313Y-103918334D01*
X161056594Y-103915752D01*
X161115315Y-103922131D01*
X161122129Y-103922500D01*
X161169686Y-103922500D01*
X161184925Y-103918025D01*
X161186130Y-103916635D01*
X161190680Y-103895717D01*
X161191898Y-103895982D01*
X161207803Y-103841813D01*
X161238236Y-103809108D01*
X161272881Y-103783143D01*
X161272882Y-103783142D01*
X161280062Y-103777761D01*
X161340975Y-103696485D01*
X161397834Y-103653970D01*
X161468653Y-103648944D01*
X161530946Y-103683004D01*
X161542626Y-103696484D01*
X161603540Y-103777761D01*
X161610720Y-103783142D01*
X161610721Y-103783143D01*
X161645366Y-103809108D01*
X161687881Y-103865967D01*
X161693214Y-103895574D01*
X161700276Y-103919623D01*
X161701666Y-103920828D01*
X161709349Y-103922499D01*
X161761470Y-103922499D01*
X161768291Y-103922129D01*
X161827008Y-103915752D01*
X161827306Y-103918498D01*
X161856247Y-103918440D01*
X161856485Y-103916245D01*
X161910668Y-103922131D01*
X161918667Y-103923000D01*
X162564935Y-103923000D01*
X162572935Y-103922131D01*
X162627117Y-103916245D01*
X162627381Y-103918674D01*
X162656221Y-103918674D01*
X162656485Y-103916245D01*
X162710668Y-103922131D01*
X162718667Y-103923000D01*
X163364935Y-103923000D01*
X163372935Y-103922131D01*
X163427117Y-103916245D01*
X163427381Y-103918674D01*
X163456221Y-103918674D01*
X163456485Y-103916245D01*
X163510668Y-103922131D01*
X163518667Y-103923000D01*
X164164935Y-103923000D01*
X164172935Y-103922131D01*
X164227117Y-103916245D01*
X164227381Y-103918674D01*
X164256221Y-103918674D01*
X164256485Y-103916245D01*
X164310668Y-103922131D01*
X164318667Y-103923000D01*
X164964935Y-103923000D01*
X164972935Y-103922131D01*
X165027117Y-103916245D01*
X165027381Y-103918674D01*
X165056221Y-103918674D01*
X165056485Y-103916245D01*
X165110668Y-103922131D01*
X165118667Y-103923000D01*
X165764935Y-103923000D01*
X165772935Y-103922131D01*
X165827117Y-103916245D01*
X165827381Y-103918674D01*
X165856221Y-103918674D01*
X165856485Y-103916245D01*
X165910668Y-103922131D01*
X165918667Y-103923000D01*
X166564935Y-103923000D01*
X166572935Y-103922131D01*
X166627117Y-103916245D01*
X166627381Y-103918674D01*
X166656221Y-103918674D01*
X166656485Y-103916245D01*
X166710668Y-103922131D01*
X166718667Y-103923000D01*
X167364935Y-103923000D01*
X167372935Y-103922131D01*
X167427117Y-103916245D01*
X167427349Y-103918384D01*
X167456313Y-103918334D01*
X167456594Y-103915752D01*
X167515315Y-103922131D01*
X167522129Y-103922500D01*
X167569686Y-103922500D01*
X167584925Y-103918025D01*
X167586130Y-103916635D01*
X167590680Y-103895717D01*
X167591898Y-103895982D01*
X167607803Y-103841813D01*
X167638236Y-103809108D01*
X167672881Y-103783143D01*
X167672882Y-103783142D01*
X167680062Y-103777761D01*
X167740975Y-103696485D01*
X167797834Y-103653970D01*
X167868653Y-103648944D01*
X167930946Y-103683004D01*
X167942626Y-103696484D01*
X168003540Y-103777761D01*
X168010720Y-103783142D01*
X168010721Y-103783143D01*
X168045366Y-103809108D01*
X168087881Y-103865967D01*
X168093214Y-103895574D01*
X168100276Y-103919623D01*
X168101666Y-103920828D01*
X168109349Y-103922499D01*
X168146000Y-103922499D01*
X168214121Y-103942501D01*
X168260614Y-103996157D01*
X168272000Y-104048499D01*
X168272000Y-104259003D01*
X168251998Y-104327124D01*
X168235173Y-104348021D01*
X168121695Y-104461697D01*
X168118898Y-104466235D01*
X168061647Y-104506824D01*
X167990724Y-104510054D01*
X167929313Y-104474428D01*
X167921938Y-104465932D01*
X167913902Y-104455793D01*
X167799171Y-104341261D01*
X167787760Y-104332249D01*
X167649757Y-104247184D01*
X167636576Y-104241037D01*
X167482290Y-104189862D01*
X167468914Y-104186995D01*
X167374562Y-104177328D01*
X167368145Y-104177000D01*
X167343115Y-104177000D01*
X167327876Y-104181475D01*
X167326671Y-104182865D01*
X167325000Y-104190548D01*
X167325000Y-105538000D01*
X167304998Y-105606121D01*
X167251342Y-105652614D01*
X167199000Y-105664000D01*
X166081116Y-105664000D01*
X166065877Y-105668475D01*
X166064672Y-105669865D01*
X166063001Y-105677548D01*
X166063001Y-105932095D01*
X166063338Y-105938614D01*
X166073257Y-106034206D01*
X166076149Y-106047600D01*
X166127588Y-106201784D01*
X166133761Y-106214962D01*
X166219063Y-106352807D01*
X166228099Y-106364208D01*
X166342829Y-106478739D01*
X166354240Y-106487751D01*
X166389913Y-106509740D01*
X166437406Y-106562512D01*
X166448830Y-106632584D01*
X166420556Y-106697708D01*
X166361562Y-106737207D01*
X166323797Y-106743000D01*
X157977481Y-106743000D01*
X157909360Y-106722998D01*
X157903420Y-106718936D01*
X157815094Y-106654763D01*
X157815093Y-106654762D01*
X157809752Y-106650882D01*
X157803724Y-106648198D01*
X157803722Y-106648197D01*
X157641319Y-106575891D01*
X157641318Y-106575891D01*
X157635288Y-106573206D01*
X157541887Y-106553353D01*
X157454944Y-106534872D01*
X157454939Y-106534872D01*
X157448487Y-106533500D01*
X157257513Y-106533500D01*
X157251061Y-106534872D01*
X157251056Y-106534872D01*
X157164112Y-106553353D01*
X157070712Y-106573206D01*
X157064682Y-106575891D01*
X157064681Y-106575891D01*
X156902278Y-106648197D01*
X156902276Y-106648198D01*
X156896248Y-106650882D01*
X156741747Y-106763134D01*
X156613960Y-106905056D01*
X156518473Y-107070444D01*
X156459458Y-107252072D01*
X156439496Y-107442000D01*
X156459458Y-107631928D01*
X156518473Y-107813556D01*
X156521776Y-107819278D01*
X156521777Y-107819279D01*
X156546743Y-107862521D01*
X156613960Y-107978944D01*
X156618378Y-107983851D01*
X156618379Y-107983852D01*
X156692351Y-108066006D01*
X156741747Y-108120866D01*
X156896248Y-108233118D01*
X156902276Y-108235802D01*
X156902278Y-108235803D01*
X157064681Y-108308109D01*
X157070712Y-108310794D01*
X157164113Y-108330647D01*
X157251056Y-108349128D01*
X157251061Y-108349128D01*
X157257513Y-108350500D01*
X157448487Y-108350500D01*
X157454939Y-108349128D01*
X157454944Y-108349128D01*
X157541887Y-108330647D01*
X157635288Y-108310794D01*
X157641319Y-108308109D01*
X157803722Y-108235803D01*
X157803724Y-108235802D01*
X157809752Y-108233118D01*
X157903420Y-108165064D01*
X157970288Y-108141206D01*
X157977481Y-108141000D01*
X166910401Y-108141000D01*
X166918971Y-108141292D01*
X166968277Y-108144654D01*
X166968281Y-108144654D01*
X166975852Y-108145170D01*
X166983328Y-108143865D01*
X166983332Y-108143865D01*
X167037924Y-108134337D01*
X167044449Y-108133374D01*
X167099418Y-108126722D01*
X167099420Y-108126721D01*
X167106960Y-108125809D01*
X167114062Y-108123125D01*
X167117500Y-108122281D01*
X167131623Y-108118417D01*
X167135034Y-108117387D01*
X167142517Y-108116081D01*
X167200197Y-108090761D01*
X167206304Y-108088270D01*
X167258117Y-108068691D01*
X167258118Y-108068690D01*
X167265222Y-108066006D01*
X167271477Y-108061707D01*
X167274618Y-108060065D01*
X167287372Y-108052967D01*
X167290478Y-108051130D01*
X167297433Y-108048077D01*
X167303460Y-108043452D01*
X167303464Y-108043450D01*
X167347402Y-108009735D01*
X167352720Y-108005871D01*
X167404652Y-107970179D01*
X167445519Y-107924311D01*
X167450499Y-107919036D01*
X168689130Y-106680405D01*
X168751442Y-106646379D01*
X168778225Y-106643500D01*
X169271400Y-106643500D01*
X169274646Y-106643163D01*
X169274650Y-106643163D01*
X169370308Y-106633238D01*
X169370312Y-106633237D01*
X169377166Y-106632526D01*
X169383702Y-106630345D01*
X169383704Y-106630345D01*
X169537998Y-106578868D01*
X169544946Y-106576550D01*
X169695348Y-106483478D01*
X169820305Y-106358303D01*
X169837256Y-106330803D01*
X169858781Y-106295884D01*
X169911554Y-106248390D01*
X169966041Y-106236000D01*
X175016519Y-106236000D01*
X175084640Y-106256002D01*
X175090580Y-106260064D01*
X175103568Y-106269500D01*
X175184248Y-106328118D01*
X175190276Y-106330802D01*
X175190278Y-106330803D01*
X175352681Y-106403109D01*
X175358712Y-106405794D01*
X175452113Y-106425647D01*
X175539056Y-106444128D01*
X175539061Y-106444128D01*
X175545513Y-106445500D01*
X175736487Y-106445500D01*
X175742939Y-106444128D01*
X175742944Y-106444128D01*
X175829887Y-106425647D01*
X175923288Y-106405794D01*
X175929319Y-106403109D01*
X176091722Y-106330803D01*
X176091724Y-106330802D01*
X176097752Y-106328118D01*
X176252253Y-106215866D01*
X176260930Y-106206229D01*
X176375621Y-106078852D01*
X176375622Y-106078851D01*
X176380040Y-106073944D01*
X176458173Y-105938614D01*
X176472223Y-105914279D01*
X176472224Y-105914278D01*
X176475527Y-105908556D01*
X176534542Y-105726928D01*
X176540540Y-105669865D01*
X176553814Y-105543565D01*
X176554504Y-105537000D01*
X176534542Y-105347072D01*
X176475527Y-105165444D01*
X176470075Y-105156000D01*
X176383341Y-105005774D01*
X176380040Y-105000056D01*
X176252253Y-104858134D01*
X176097752Y-104745882D01*
X176091724Y-104743198D01*
X176091722Y-104743197D01*
X175929319Y-104670891D01*
X175929318Y-104670891D01*
X175923288Y-104668206D01*
X175829887Y-104648353D01*
X175742944Y-104629872D01*
X175742939Y-104629872D01*
X175736487Y-104628500D01*
X175545513Y-104628500D01*
X175539061Y-104629872D01*
X175539056Y-104629872D01*
X175452113Y-104648353D01*
X175358712Y-104668206D01*
X175352682Y-104670891D01*
X175352681Y-104670891D01*
X175190278Y-104743197D01*
X175190276Y-104743198D01*
X175184248Y-104745882D01*
X175178907Y-104749762D01*
X175178906Y-104749763D01*
X175090580Y-104813936D01*
X175023712Y-104837794D01*
X175016519Y-104838000D01*
X170079056Y-104838000D01*
X170010935Y-104817998D01*
X169964442Y-104764342D01*
X169959532Y-104751876D01*
X169956637Y-104743197D01*
X169912550Y-104611054D01*
X169819478Y-104460652D01*
X169706982Y-104348352D01*
X169672903Y-104286070D01*
X169670000Y-104259179D01*
X169670000Y-103584095D01*
X172401001Y-103584095D01*
X172401338Y-103590614D01*
X172411257Y-103686206D01*
X172414149Y-103699600D01*
X172465588Y-103853784D01*
X172471761Y-103866962D01*
X172557063Y-104004807D01*
X172566099Y-104016208D01*
X172680829Y-104130739D01*
X172692240Y-104139751D01*
X172830243Y-104224816D01*
X172843424Y-104230963D01*
X172997710Y-104282138D01*
X173011086Y-104285005D01*
X173105438Y-104294672D01*
X173111854Y-104295000D01*
X173336885Y-104295000D01*
X173352124Y-104290525D01*
X173353329Y-104289135D01*
X173355000Y-104281452D01*
X173355000Y-104276884D01*
X173863000Y-104276884D01*
X173867475Y-104292123D01*
X173868865Y-104293328D01*
X173876548Y-104294999D01*
X174106095Y-104294999D01*
X174112614Y-104294662D01*
X174208206Y-104284743D01*
X174221600Y-104281851D01*
X174375784Y-104230412D01*
X174388962Y-104224239D01*
X174526807Y-104138937D01*
X174538208Y-104129901D01*
X174652739Y-104015171D01*
X174661751Y-104003760D01*
X174746816Y-103865757D01*
X174752963Y-103852576D01*
X174804138Y-103698290D01*
X174807005Y-103684914D01*
X174816672Y-103590562D01*
X174817000Y-103584146D01*
X174817000Y-103546615D01*
X174812525Y-103531376D01*
X174811135Y-103530171D01*
X174803452Y-103528500D01*
X173881115Y-103528500D01*
X173865876Y-103532975D01*
X173864671Y-103534365D01*
X173863000Y-103542048D01*
X173863000Y-104276884D01*
X173355000Y-104276884D01*
X173355000Y-103546615D01*
X173350525Y-103531376D01*
X173349135Y-103530171D01*
X173341452Y-103528500D01*
X172419116Y-103528500D01*
X172403877Y-103532975D01*
X172402672Y-103534365D01*
X172401001Y-103542048D01*
X172401001Y-103584095D01*
X169670000Y-103584095D01*
X169670000Y-103022299D01*
X169670292Y-103013728D01*
X169671065Y-103002385D01*
X169674170Y-102956848D01*
X169663334Y-102894764D01*
X169662378Y-102888285D01*
X169654809Y-102825739D01*
X169652125Y-102818637D01*
X169651270Y-102815155D01*
X169647430Y-102801120D01*
X169646389Y-102797672D01*
X169645082Y-102790182D01*
X169629920Y-102755642D01*
X169619763Y-102732504D01*
X169617270Y-102726396D01*
X169597692Y-102674585D01*
X169597692Y-102674584D01*
X169595006Y-102667477D01*
X169590700Y-102661211D01*
X169589050Y-102658056D01*
X169581931Y-102645264D01*
X169580131Y-102642220D01*
X169577078Y-102635266D01*
X169572452Y-102629237D01*
X169538740Y-102585303D01*
X169534862Y-102579966D01*
X169503481Y-102534306D01*
X169503479Y-102534304D01*
X169499179Y-102528047D01*
X169467482Y-102499806D01*
X169429926Y-102439556D01*
X169425301Y-102405730D01*
X169425301Y-101874000D01*
X169445303Y-101805879D01*
X169498959Y-101759386D01*
X169551301Y-101748000D01*
X171139935Y-101748000D01*
X171202117Y-101741245D01*
X171338506Y-101690115D01*
X171425157Y-101625174D01*
X171491662Y-101600326D01*
X171500721Y-101600000D01*
X172274500Y-101600000D01*
X172342621Y-101620002D01*
X172389114Y-101673658D01*
X172400500Y-101726000D01*
X172400500Y-101762400D01*
X172400837Y-101765646D01*
X172400837Y-101765650D01*
X172408040Y-101835065D01*
X172411474Y-101868166D01*
X172467450Y-102035946D01*
X172560522Y-102186348D01*
X172565704Y-102191521D01*
X172647463Y-102273138D01*
X172681542Y-102335421D01*
X172676539Y-102406241D01*
X172647618Y-102451329D01*
X172565261Y-102533829D01*
X172556249Y-102545240D01*
X172471184Y-102683243D01*
X172465037Y-102696424D01*
X172413862Y-102850710D01*
X172410995Y-102864086D01*
X172401328Y-102958438D01*
X172401000Y-102964855D01*
X172401000Y-103002385D01*
X172405475Y-103017624D01*
X172406865Y-103018829D01*
X172414548Y-103020500D01*
X174798884Y-103020500D01*
X174814123Y-103016025D01*
X174815328Y-103014635D01*
X174816999Y-103006952D01*
X174816999Y-102964905D01*
X174816662Y-102958386D01*
X174806743Y-102862794D01*
X174803851Y-102849400D01*
X174752412Y-102695216D01*
X174746239Y-102682038D01*
X174660937Y-102544193D01*
X174651901Y-102532792D01*
X174570538Y-102451570D01*
X174536459Y-102389287D01*
X174541462Y-102318467D01*
X174570383Y-102273380D01*
X174653130Y-102190488D01*
X174653134Y-102190483D01*
X174658305Y-102185303D01*
X174668971Y-102168000D01*
X174747275Y-102040968D01*
X174747276Y-102040966D01*
X174751115Y-102034738D01*
X174806797Y-101866861D01*
X174809083Y-101844556D01*
X174813394Y-101802478D01*
X174817500Y-101762400D01*
X174817500Y-101136600D01*
X174806526Y-101030834D01*
X174797042Y-101002405D01*
X174752868Y-100870002D01*
X174750550Y-100863054D01*
X174657478Y-100712652D01*
X174532303Y-100587695D01*
X174518496Y-100579184D01*
X174387968Y-100498725D01*
X174387966Y-100498724D01*
X174381738Y-100494885D01*
X174295246Y-100466197D01*
X174220389Y-100441368D01*
X174220387Y-100441368D01*
X174213861Y-100439203D01*
X174207025Y-100438503D01*
X174207022Y-100438502D01*
X174163969Y-100434091D01*
X174109400Y-100428500D01*
X173508540Y-100428500D01*
X173450318Y-100412573D01*
X173450068Y-100413151D01*
X173450067Y-100413150D01*
X173409334Y-100395524D01*
X173398686Y-100390307D01*
X173370964Y-100375067D01*
X173359803Y-100368931D01*
X173352128Y-100366960D01*
X173352122Y-100366958D01*
X173340089Y-100363869D01*
X173321387Y-100357466D01*
X173302708Y-100349383D01*
X173268872Y-100344024D01*
X173258873Y-100342440D01*
X173247260Y-100340035D01*
X173204282Y-100329000D01*
X173183935Y-100329000D01*
X173164224Y-100327449D01*
X173151950Y-100325505D01*
X173144121Y-100324265D01*
X173136229Y-100325011D01*
X173099944Y-100328441D01*
X173088086Y-100329000D01*
X171726301Y-100329000D01*
X171658180Y-100308998D01*
X171611687Y-100255342D01*
X171600301Y-100203000D01*
X171600301Y-99841366D01*
X171593546Y-99779184D01*
X171595975Y-99778920D01*
X171595975Y-99750080D01*
X171593546Y-99749816D01*
X171599932Y-99691031D01*
X171600301Y-99687634D01*
X171600301Y-99326000D01*
X171620303Y-99257879D01*
X171673959Y-99211386D01*
X171726301Y-99200000D01*
X179021078Y-99200000D01*
X179089199Y-99220002D01*
X179110173Y-99236905D01*
X179668095Y-99794827D01*
X179702121Y-99857139D01*
X179705000Y-99883922D01*
X179705000Y-116870091D01*
X179684998Y-116938212D01*
X179631342Y-116984705D01*
X179578927Y-116996091D01*
X129430684Y-116967029D01*
X129411384Y-116965530D01*
X129387520Y-116961814D01*
X129371251Y-116963941D01*
X129346683Y-116964734D01*
X129144984Y-116951514D01*
X129128644Y-116949363D01*
X128904517Y-116904782D01*
X128888596Y-116900516D01*
X128672207Y-116827061D01*
X128656981Y-116820754D01*
X128452033Y-116719685D01*
X128437759Y-116711444D01*
X128247753Y-116584486D01*
X128234678Y-116574453D01*
X128233642Y-116573545D01*
X128062864Y-116423777D01*
X128051223Y-116412136D01*
X127900547Y-116240322D01*
X127890514Y-116227247D01*
X127763556Y-116037241D01*
X127755315Y-116022967D01*
X127654246Y-115818019D01*
X127647939Y-115802793D01*
X127574484Y-115586404D01*
X127570218Y-115570483D01*
X127525637Y-115346356D01*
X127523486Y-115330016D01*
X127510974Y-115139126D01*
X127512147Y-115115968D01*
X127511829Y-115115939D01*
X127512264Y-115111083D01*
X127513071Y-115106289D01*
X127513224Y-115093750D01*
X127509273Y-115066162D01*
X127508000Y-115048299D01*
X127508000Y-109505669D01*
X136335001Y-109505669D01*
X136335371Y-109512490D01*
X136340895Y-109563352D01*
X136344521Y-109578604D01*
X136389676Y-109699054D01*
X136398214Y-109714649D01*
X136474715Y-109816724D01*
X136487276Y-109829285D01*
X136589351Y-109905786D01*
X136604946Y-109914324D01*
X136725394Y-109959478D01*
X136740649Y-109963105D01*
X136791514Y-109968631D01*
X136798328Y-109969000D01*
X137470885Y-109969000D01*
X137486124Y-109964525D01*
X137487329Y-109963135D01*
X137489000Y-109955452D01*
X137489000Y-109950884D01*
X137997000Y-109950884D01*
X138001475Y-109966123D01*
X138002865Y-109967328D01*
X138010548Y-109968999D01*
X138687669Y-109968999D01*
X138694490Y-109968629D01*
X138745352Y-109963105D01*
X138760604Y-109959479D01*
X138881054Y-109914324D01*
X138896649Y-109905786D01*
X138998724Y-109829285D01*
X139011285Y-109816724D01*
X139087786Y-109714649D01*
X139096324Y-109699054D01*
X139141478Y-109578606D01*
X139145105Y-109563351D01*
X139150631Y-109512486D01*
X139151000Y-109505672D01*
X139151000Y-109505669D01*
X142535001Y-109505669D01*
X142535371Y-109512490D01*
X142540895Y-109563352D01*
X142544521Y-109578604D01*
X142589676Y-109699054D01*
X142598214Y-109714649D01*
X142674715Y-109816724D01*
X142687276Y-109829285D01*
X142789351Y-109905786D01*
X142804946Y-109914324D01*
X142925394Y-109959478D01*
X142940649Y-109963105D01*
X142991514Y-109968631D01*
X142998328Y-109969000D01*
X143670885Y-109969000D01*
X143686124Y-109964525D01*
X143687329Y-109963135D01*
X143689000Y-109955452D01*
X143689000Y-109950884D01*
X144197000Y-109950884D01*
X144201475Y-109966123D01*
X144202865Y-109967328D01*
X144210548Y-109968999D01*
X144887669Y-109968999D01*
X144894490Y-109968629D01*
X144945352Y-109963105D01*
X144960604Y-109959479D01*
X145081054Y-109914324D01*
X145096649Y-109905786D01*
X145198724Y-109829285D01*
X145211285Y-109816724D01*
X145287786Y-109714649D01*
X145296324Y-109699054D01*
X145341478Y-109578606D01*
X145345105Y-109563351D01*
X145350631Y-109512486D01*
X145351000Y-109505672D01*
X145351000Y-109183115D01*
X145346525Y-109167876D01*
X145345135Y-109166671D01*
X145337452Y-109165000D01*
X144215115Y-109165000D01*
X144199876Y-109169475D01*
X144198671Y-109170865D01*
X144197000Y-109178548D01*
X144197000Y-109950884D01*
X143689000Y-109950884D01*
X143689000Y-109183115D01*
X143684525Y-109167876D01*
X143683135Y-109166671D01*
X143675452Y-109165000D01*
X142553116Y-109165000D01*
X142537877Y-109169475D01*
X142536672Y-109170865D01*
X142535001Y-109178548D01*
X142535001Y-109505669D01*
X139151000Y-109505669D01*
X139151000Y-109183115D01*
X139146525Y-109167876D01*
X139145135Y-109166671D01*
X139137452Y-109165000D01*
X138015115Y-109165000D01*
X137999876Y-109169475D01*
X137998671Y-109170865D01*
X137997000Y-109178548D01*
X137997000Y-109950884D01*
X137489000Y-109950884D01*
X137489000Y-109183115D01*
X137484525Y-109167876D01*
X137483135Y-109166671D01*
X137475452Y-109165000D01*
X136353116Y-109165000D01*
X136337877Y-109169475D01*
X136336672Y-109170865D01*
X136335001Y-109178548D01*
X136335001Y-109505669D01*
X127508000Y-109505669D01*
X127508000Y-108638885D01*
X136335000Y-108638885D01*
X136339475Y-108654124D01*
X136340865Y-108655329D01*
X136348548Y-108657000D01*
X137470885Y-108657000D01*
X137486124Y-108652525D01*
X137487329Y-108651135D01*
X137489000Y-108643452D01*
X137489000Y-108638885D01*
X137997000Y-108638885D01*
X138001475Y-108654124D01*
X138002865Y-108655329D01*
X138010548Y-108657000D01*
X139132884Y-108657000D01*
X139148123Y-108652525D01*
X139149328Y-108651135D01*
X139150999Y-108643452D01*
X139150999Y-108638885D01*
X142535000Y-108638885D01*
X142539475Y-108654124D01*
X142540865Y-108655329D01*
X142548548Y-108657000D01*
X143670885Y-108657000D01*
X143686124Y-108652525D01*
X143687329Y-108651135D01*
X143689000Y-108643452D01*
X143689000Y-108638885D01*
X144197000Y-108638885D01*
X144201475Y-108654124D01*
X144202865Y-108655329D01*
X144210548Y-108657000D01*
X145332884Y-108657000D01*
X145348123Y-108652525D01*
X145349328Y-108651135D01*
X145350999Y-108643452D01*
X145350999Y-108316331D01*
X145350629Y-108309510D01*
X145345105Y-108258648D01*
X145341479Y-108243396D01*
X145296324Y-108122946D01*
X145287786Y-108107351D01*
X145211285Y-108005276D01*
X145198724Y-107992715D01*
X145096649Y-107916214D01*
X145081054Y-107907676D01*
X144960606Y-107862522D01*
X144945351Y-107858895D01*
X144894486Y-107853369D01*
X144887672Y-107853000D01*
X144215115Y-107853000D01*
X144199876Y-107857475D01*
X144198671Y-107858865D01*
X144197000Y-107866548D01*
X144197000Y-108638885D01*
X143689000Y-108638885D01*
X143689000Y-107871116D01*
X143684525Y-107855877D01*
X143683135Y-107854672D01*
X143675452Y-107853001D01*
X142998331Y-107853001D01*
X142991510Y-107853371D01*
X142940648Y-107858895D01*
X142925396Y-107862521D01*
X142804946Y-107907676D01*
X142789351Y-107916214D01*
X142687276Y-107992715D01*
X142674715Y-108005276D01*
X142598214Y-108107351D01*
X142589676Y-108122946D01*
X142544522Y-108243394D01*
X142540895Y-108258649D01*
X142535369Y-108309514D01*
X142535000Y-108316328D01*
X142535000Y-108638885D01*
X139150999Y-108638885D01*
X139150999Y-108316331D01*
X139150629Y-108309510D01*
X139145105Y-108258648D01*
X139141479Y-108243396D01*
X139096324Y-108122946D01*
X139087786Y-108107351D01*
X139011285Y-108005276D01*
X138998724Y-107992715D01*
X138896649Y-107916214D01*
X138881054Y-107907676D01*
X138760606Y-107862522D01*
X138745351Y-107858895D01*
X138694486Y-107853369D01*
X138687672Y-107853000D01*
X138015115Y-107853000D01*
X137999876Y-107857475D01*
X137998671Y-107858865D01*
X137997000Y-107866548D01*
X137997000Y-108638885D01*
X137489000Y-108638885D01*
X137489000Y-107871116D01*
X137484525Y-107855877D01*
X137483135Y-107854672D01*
X137475452Y-107853001D01*
X136798331Y-107853001D01*
X136791510Y-107853371D01*
X136740648Y-107858895D01*
X136725396Y-107862521D01*
X136604946Y-107907676D01*
X136589351Y-107916214D01*
X136487276Y-107992715D01*
X136474715Y-108005276D01*
X136398214Y-108107351D01*
X136389676Y-108122946D01*
X136344522Y-108243394D01*
X136340895Y-108258649D01*
X136335369Y-108309514D01*
X136335000Y-108316328D01*
X136335000Y-108638885D01*
X127508000Y-108638885D01*
X127508000Y-89524095D01*
X133449001Y-89524095D01*
X133449338Y-89530614D01*
X133459257Y-89626206D01*
X133462149Y-89639600D01*
X133513588Y-89793784D01*
X133519761Y-89806962D01*
X133605063Y-89944807D01*
X133614099Y-89956208D01*
X133728829Y-90070739D01*
X133740240Y-90079751D01*
X133878243Y-90164816D01*
X133891424Y-90170963D01*
X134045710Y-90222138D01*
X134059086Y-90225005D01*
X134153438Y-90234672D01*
X134159854Y-90235000D01*
X134197385Y-90235000D01*
X134212624Y-90230525D01*
X134213829Y-90229135D01*
X134215500Y-90221452D01*
X134215500Y-89299115D01*
X134211025Y-89283876D01*
X134209635Y-89282671D01*
X134201952Y-89281000D01*
X133467116Y-89281000D01*
X133451877Y-89285475D01*
X133450672Y-89286865D01*
X133449001Y-89294548D01*
X133449001Y-89524095D01*
X127508000Y-89524095D01*
X127508000Y-88754885D01*
X133449000Y-88754885D01*
X133453475Y-88770124D01*
X133454865Y-88771329D01*
X133462548Y-88773000D01*
X134197385Y-88773000D01*
X134212624Y-88768525D01*
X134213829Y-88767135D01*
X134215500Y-88759452D01*
X134215500Y-87837116D01*
X134211025Y-87821877D01*
X134209635Y-87820672D01*
X134201952Y-87819001D01*
X134159905Y-87819001D01*
X134153386Y-87819338D01*
X134057794Y-87829257D01*
X134044400Y-87832149D01*
X133890216Y-87883588D01*
X133877038Y-87889761D01*
X133739193Y-87975063D01*
X133727792Y-87984099D01*
X133613261Y-88098829D01*
X133604249Y-88110240D01*
X133519184Y-88248243D01*
X133513037Y-88261424D01*
X133461862Y-88415710D01*
X133458995Y-88429086D01*
X133449328Y-88523438D01*
X133449000Y-88529855D01*
X133449000Y-88754885D01*
X127508000Y-88754885D01*
X127508000Y-85167657D01*
X132594000Y-85167657D01*
X132594301Y-85173805D01*
X132607812Y-85311603D01*
X132610195Y-85323638D01*
X132663767Y-85501076D01*
X132668441Y-85512416D01*
X132755460Y-85676077D01*
X132762249Y-85686294D01*
X132879397Y-85829933D01*
X132888041Y-85838637D01*
X133030856Y-85956784D01*
X133041027Y-85963644D01*
X133204076Y-86051804D01*
X133215381Y-86056556D01*
X133330692Y-86092250D01*
X133344795Y-86092456D01*
X133348000Y-86085701D01*
X133348000Y-84843115D01*
X133343525Y-84827876D01*
X133342135Y-84826671D01*
X133334452Y-84825000D01*
X132612115Y-84825000D01*
X132596876Y-84829475D01*
X132595671Y-84830865D01*
X132594000Y-84838548D01*
X132594000Y-85167657D01*
X127508000Y-85167657D01*
X127508000Y-84298885D01*
X132594000Y-84298885D01*
X132598475Y-84314124D01*
X132599865Y-84315329D01*
X132607548Y-84317000D01*
X133329885Y-84317000D01*
X133345124Y-84312525D01*
X133346329Y-84311135D01*
X133348000Y-84303452D01*
X133348000Y-83063076D01*
X133344027Y-83049545D01*
X133336232Y-83048425D01*
X133228479Y-83080138D01*
X133217111Y-83084731D01*
X133052846Y-83170607D01*
X133042585Y-83177321D01*
X132898127Y-83293468D01*
X132889368Y-83302046D01*
X132770222Y-83444039D01*
X132763292Y-83454159D01*
X132673998Y-83616585D01*
X132669166Y-83627858D01*
X132613120Y-83804538D01*
X132610570Y-83816532D01*
X132594393Y-83960761D01*
X132594000Y-83967785D01*
X132594000Y-84298885D01*
X127508000Y-84298885D01*
X127508000Y-81809457D01*
X127509746Y-81788553D01*
X127512264Y-81773585D01*
X127513071Y-81768789D01*
X127513224Y-81756250D01*
X127511502Y-81744225D01*
X127510499Y-81718121D01*
X127523486Y-81519984D01*
X127525637Y-81503644D01*
X127570218Y-81279517D01*
X127574484Y-81263596D01*
X127647939Y-81047207D01*
X127654246Y-81031981D01*
X127755315Y-80827033D01*
X127763556Y-80812759D01*
X127813738Y-80737657D01*
X132594000Y-80737657D01*
X132594301Y-80743805D01*
X132607812Y-80881603D01*
X132610195Y-80893638D01*
X132663767Y-81071076D01*
X132668441Y-81082416D01*
X132755460Y-81246077D01*
X132762249Y-81256294D01*
X132879397Y-81399933D01*
X132888041Y-81408637D01*
X133030856Y-81526784D01*
X133041027Y-81533644D01*
X133204076Y-81621804D01*
X133215381Y-81626556D01*
X133330692Y-81662250D01*
X133344795Y-81662456D01*
X133348000Y-81655701D01*
X133348000Y-81648924D01*
X133856000Y-81648924D01*
X133859973Y-81662455D01*
X133867768Y-81663575D01*
X133975521Y-81631862D01*
X133986889Y-81627269D01*
X134151154Y-81541393D01*
X134161415Y-81534679D01*
X134305873Y-81418532D01*
X134314632Y-81409954D01*
X134433778Y-81267961D01*
X134440708Y-81257841D01*
X134530002Y-81095415D01*
X134534834Y-81084142D01*
X134590880Y-80907462D01*
X134593430Y-80895468D01*
X134609607Y-80751239D01*
X134610000Y-80744215D01*
X134610000Y-80737657D01*
X141234000Y-80737657D01*
X141234301Y-80743805D01*
X141247812Y-80881603D01*
X141250195Y-80893638D01*
X141303767Y-81071076D01*
X141308441Y-81082416D01*
X141395460Y-81246077D01*
X141402249Y-81256294D01*
X141519397Y-81399933D01*
X141528041Y-81408637D01*
X141670856Y-81526784D01*
X141681027Y-81533644D01*
X141844076Y-81621804D01*
X141855381Y-81626556D01*
X141970692Y-81662250D01*
X141984795Y-81662456D01*
X141988000Y-81655701D01*
X141988000Y-81648924D01*
X142496000Y-81648924D01*
X142499973Y-81662455D01*
X142507768Y-81663575D01*
X142615521Y-81631862D01*
X142626889Y-81627269D01*
X142791154Y-81541393D01*
X142801415Y-81534679D01*
X142945873Y-81418532D01*
X142954632Y-81409954D01*
X143073778Y-81267961D01*
X143080708Y-81257841D01*
X143170002Y-81095415D01*
X143174834Y-81084142D01*
X143230880Y-80907462D01*
X143233430Y-80895468D01*
X143249607Y-80751239D01*
X143250000Y-80744215D01*
X143250000Y-80663115D01*
X143245525Y-80647876D01*
X143244135Y-80646671D01*
X143236452Y-80645000D01*
X142514115Y-80645000D01*
X142498876Y-80649475D01*
X142497671Y-80650865D01*
X142496000Y-80658548D01*
X142496000Y-81648924D01*
X141988000Y-81648924D01*
X141988000Y-80663115D01*
X141983525Y-80647876D01*
X141982135Y-80646671D01*
X141974452Y-80645000D01*
X141252115Y-80645000D01*
X141236876Y-80649475D01*
X141235671Y-80650865D01*
X141234000Y-80658548D01*
X141234000Y-80737657D01*
X134610000Y-80737657D01*
X134610000Y-80663115D01*
X134605525Y-80647876D01*
X134604135Y-80646671D01*
X134596452Y-80645000D01*
X133874115Y-80645000D01*
X133858876Y-80649475D01*
X133857671Y-80650865D01*
X133856000Y-80658548D01*
X133856000Y-81648924D01*
X133348000Y-81648924D01*
X133348000Y-80663115D01*
X133343525Y-80647876D01*
X133342135Y-80646671D01*
X133334452Y-80645000D01*
X132612115Y-80645000D01*
X132596876Y-80649475D01*
X132595671Y-80650865D01*
X132594000Y-80658548D01*
X132594000Y-80737657D01*
X127813738Y-80737657D01*
X127890514Y-80622753D01*
X127900547Y-80609678D01*
X127901455Y-80608642D01*
X128051223Y-80437864D01*
X128062864Y-80426223D01*
X128234678Y-80275547D01*
X128247753Y-80265514D01*
X128437759Y-80138556D01*
X128452033Y-80130315D01*
X128656981Y-80029246D01*
X128672207Y-80022939D01*
X128888596Y-79949484D01*
X128904517Y-79945218D01*
X129128644Y-79900637D01*
X129144984Y-79898486D01*
X129339518Y-79885736D01*
X129362554Y-79886761D01*
X129366106Y-79886804D01*
X129374980Y-79888186D01*
X129383881Y-79887022D01*
X129383886Y-79887022D01*
X129406319Y-79884088D01*
X129422730Y-79883024D01*
X130148606Y-79883444D01*
G37*
%TD.AperFunction*%
%TA.AperFunction,Conductor*%
G36*
X138005621Y-97169502D02*
G01*
X138052114Y-97223158D01*
X138063500Y-97275500D01*
X138063500Y-97982502D01*
X138066438Y-98019831D01*
X138112855Y-98179601D01*
X138137423Y-98221142D01*
X138158453Y-98256703D01*
X138176000Y-98320842D01*
X138176000Y-98552878D01*
X138179973Y-98566409D01*
X138187871Y-98567544D01*
X138327790Y-98526893D01*
X138346326Y-98518872D01*
X138416788Y-98510176D01*
X138446404Y-98518872D01*
X138451577Y-98521111D01*
X138458399Y-98525145D01*
X138466010Y-98527356D01*
X138466012Y-98527357D01*
X138518231Y-98542528D01*
X138618169Y-98571562D01*
X138624574Y-98572066D01*
X138624579Y-98572067D01*
X138653042Y-98574307D01*
X138653050Y-98574307D01*
X138655498Y-98574500D01*
X139088502Y-98574500D01*
X139088502Y-98574839D01*
X139155856Y-98591778D01*
X139181038Y-98611270D01*
X140049173Y-99479405D01*
X140083199Y-99541717D01*
X140078134Y-99612532D01*
X140035587Y-99669368D01*
X139969067Y-99694179D01*
X139960078Y-99694500D01*
X138745423Y-99694500D01*
X138677302Y-99674498D01*
X138656328Y-99657595D01*
X137695166Y-98696433D01*
X137661140Y-98634121D01*
X137666205Y-98563306D01*
X137668000Y-98558955D01*
X137668000Y-98320842D01*
X137685547Y-98256703D01*
X137706577Y-98221142D01*
X137731145Y-98179601D01*
X137777562Y-98019831D01*
X137780500Y-97982502D01*
X137780500Y-97275500D01*
X137800502Y-97207379D01*
X137854158Y-97160886D01*
X137906500Y-97149500D01*
X137937500Y-97149500D01*
X138005621Y-97169502D01*
G37*
%TD.AperFunction*%
%TA.AperFunction,Conductor*%
G36*
X164524871Y-86524252D02*
G01*
X164571364Y-86577908D01*
X164582750Y-86630250D01*
X164582750Y-87848134D01*
X164587225Y-87863373D01*
X164588615Y-87864578D01*
X164596298Y-87866249D01*
X165073419Y-87866249D01*
X165080240Y-87865879D01*
X165131102Y-87860355D01*
X165146354Y-87856729D01*
X165266804Y-87811574D01*
X165282398Y-87803036D01*
X165352768Y-87750297D01*
X165419274Y-87725449D01*
X165488657Y-87740502D01*
X165503892Y-87750293D01*
X165517974Y-87760846D01*
X165560487Y-87817705D01*
X165565512Y-87888523D01*
X165531503Y-87950765D01*
X164665709Y-88816558D01*
X164603399Y-88850582D01*
X164532583Y-88845517D01*
X164475748Y-88802970D01*
X164459464Y-88773843D01*
X164445894Y-88739568D01*
X164442049Y-88728340D01*
X164437203Y-88711660D01*
X164429670Y-88685732D01*
X164425631Y-88678902D01*
X164419313Y-88668219D01*
X164410613Y-88650461D01*
X164406040Y-88638910D01*
X164406036Y-88638904D01*
X164403120Y-88631537D01*
X164377035Y-88595634D01*
X164370520Y-88585715D01*
X164351975Y-88554357D01*
X164351972Y-88554353D01*
X164347935Y-88547527D01*
X164333551Y-88533143D01*
X164320710Y-88518109D01*
X164313403Y-88508052D01*
X164308743Y-88501638D01*
X164274551Y-88473352D01*
X164265770Y-88465362D01*
X163881754Y-88081345D01*
X163847729Y-88019033D01*
X163852794Y-87948217D01*
X163895341Y-87891382D01*
X163961861Y-87866571D01*
X163970850Y-87866250D01*
X164056635Y-87866250D01*
X164071874Y-87861775D01*
X164073079Y-87860385D01*
X164074750Y-87852702D01*
X164074750Y-86630250D01*
X164094752Y-86562129D01*
X164148408Y-86515636D01*
X164200750Y-86504250D01*
X164456750Y-86504250D01*
X164524871Y-86524252D01*
G37*
%TD.AperFunction*%
%TD*%
M02*
