%TF.GenerationSoftware,KiCad,Pcbnew,(6.0.0)*%
%TF.CreationDate,2023-04-29T04:55:56-07:00*%
%TF.ProjectId,coolpcbproject,636f6f6c-7063-4627-9072-6f6a6563742e,rev?*%
%TF.SameCoordinates,Original*%
%TF.FileFunction,Copper,L1,Top*%
%TF.FilePolarity,Positive*%
%FSLAX46Y46*%
G04 Gerber Fmt 4.6, Leading zero omitted, Abs format (unit mm)*
G04 Created by KiCad (PCBNEW (6.0.0)) date 2023-04-29 04:55:56*
%MOMM*%
%LPD*%
G01*
G04 APERTURE LIST*
G04 Aperture macros list*
%AMHorizOval*
0 Thick line with rounded ends*
0 $1 width*
0 $2 $3 position (X,Y) of the first rounded end (center of the circle)*
0 $4 $5 position (X,Y) of the second rounded end (center of the circle)*
0 Add line between two ends*
20,1,$1,$2,$3,$4,$5,0*
0 Add two circle primitives to create the rounded ends*
1,1,$1,$2,$3*
1,1,$1,$4,$5*%
G04 Aperture macros list end*
%ADD10C,0.300000*%
%TA.AperFunction,NonConductor*%
%ADD11C,0.300000*%
%TD*%
%TA.AperFunction,ComponentPad*%
%ADD12HorizOval,2.250000X0.655008X0.729993X-0.655008X-0.729993X0*%
%TD*%
%TA.AperFunction,ComponentPad*%
%ADD13C,2.250000*%
%TD*%
%TA.AperFunction,ComponentPad*%
%ADD14HorizOval,2.250000X0.020000X0.290000X-0.020000X-0.290000X0*%
%TD*%
%TA.AperFunction,ComponentPad*%
%ADD15HorizOval,2.250000X0.655001X0.730000X-0.655001X-0.730000X0*%
%TD*%
%TA.AperFunction,ComponentPad*%
%ADD16O,1.000000X1.600000*%
%TD*%
%TA.AperFunction,ComponentPad*%
%ADD17O,1.000000X2.100000*%
%TD*%
%TA.AperFunction,ViaPad*%
%ADD18C,0.800000*%
%TD*%
%TA.AperFunction,Conductor*%
%ADD19C,0.381000*%
%TD*%
%TA.AperFunction,Conductor*%
%ADD20C,0.254000*%
%TD*%
G04 APERTURE END LIST*
D10*
D11*
X140557523Y-113742476D02*
X141271809Y-113742476D01*
X140914666Y-114992476D02*
X140914666Y-113742476D01*
X141688476Y-114992476D02*
X141688476Y-113742476D01*
X142224190Y-114992476D02*
X142224190Y-114337714D01*
X142164666Y-114218666D01*
X142045619Y-114159142D01*
X141867047Y-114159142D01*
X141748000Y-114218666D01*
X141688476Y-114278190D01*
X143355142Y-114992476D02*
X143355142Y-114337714D01*
X143295619Y-114218666D01*
X143176571Y-114159142D01*
X142938476Y-114159142D01*
X142819428Y-114218666D01*
X143355142Y-114932952D02*
X143236095Y-114992476D01*
X142938476Y-114992476D01*
X142819428Y-114932952D01*
X142759904Y-114813904D01*
X142759904Y-114694857D01*
X142819428Y-114575809D01*
X142938476Y-114516285D01*
X143236095Y-114516285D01*
X143355142Y-114456761D01*
X143950380Y-114159142D02*
X143950380Y-114992476D01*
X143950380Y-114278190D02*
X144009904Y-114218666D01*
X144128952Y-114159142D01*
X144307523Y-114159142D01*
X144426571Y-114218666D01*
X144486095Y-114337714D01*
X144486095Y-114992476D01*
X145081333Y-114992476D02*
X145081333Y-113742476D01*
X145200380Y-114516285D02*
X145557523Y-114992476D01*
X145557523Y-114159142D02*
X145081333Y-114635333D01*
X146926571Y-114159142D02*
X147224190Y-114992476D01*
X147521809Y-114159142D02*
X147224190Y-114992476D01*
X147105142Y-115290095D01*
X147045619Y-115349619D01*
X146926571Y-115409142D01*
X148176571Y-114992476D02*
X148057523Y-114932952D01*
X147998000Y-114873428D01*
X147938476Y-114754380D01*
X147938476Y-114397238D01*
X147998000Y-114278190D01*
X148057523Y-114218666D01*
X148176571Y-114159142D01*
X148355142Y-114159142D01*
X148474190Y-114218666D01*
X148533714Y-114278190D01*
X148593238Y-114397238D01*
X148593238Y-114754380D01*
X148533714Y-114873428D01*
X148474190Y-114932952D01*
X148355142Y-114992476D01*
X148176571Y-114992476D01*
X149664666Y-114159142D02*
X149664666Y-114992476D01*
X149128952Y-114159142D02*
X149128952Y-114813904D01*
X149188476Y-114932952D01*
X149307523Y-114992476D01*
X149486095Y-114992476D01*
X149605142Y-114932952D01*
X149664666Y-114873428D01*
X151033714Y-114159142D02*
X151509904Y-114159142D01*
X151212285Y-114992476D02*
X151212285Y-113921047D01*
X151271809Y-113802000D01*
X151390857Y-113742476D01*
X151509904Y-113742476D01*
X152105142Y-114992476D02*
X151986095Y-114932952D01*
X151926571Y-114873428D01*
X151867047Y-114754380D01*
X151867047Y-114397238D01*
X151926571Y-114278190D01*
X151986095Y-114218666D01*
X152105142Y-114159142D01*
X152283714Y-114159142D01*
X152402761Y-114218666D01*
X152462285Y-114278190D01*
X152521809Y-114397238D01*
X152521809Y-114754380D01*
X152462285Y-114873428D01*
X152402761Y-114932952D01*
X152283714Y-114992476D01*
X152105142Y-114992476D01*
X153057523Y-114992476D02*
X153057523Y-114159142D01*
X153057523Y-114397238D02*
X153117047Y-114278190D01*
X153176571Y-114218666D01*
X153295619Y-114159142D01*
X153414666Y-114159142D01*
X154724190Y-114932952D02*
X154843238Y-114992476D01*
X155081333Y-114992476D01*
X155200380Y-114932952D01*
X155259904Y-114813904D01*
X155259904Y-114754380D01*
X155200380Y-114635333D01*
X155081333Y-114575809D01*
X154902761Y-114575809D01*
X154783714Y-114516285D01*
X154724190Y-114397238D01*
X154724190Y-114337714D01*
X154783714Y-114218666D01*
X154902761Y-114159142D01*
X155081333Y-114159142D01*
X155200380Y-114218666D01*
X156331333Y-114159142D02*
X156331333Y-114992476D01*
X155795619Y-114159142D02*
X155795619Y-114813904D01*
X155855142Y-114932952D01*
X155974190Y-114992476D01*
X156152761Y-114992476D01*
X156271809Y-114932952D01*
X156331333Y-114873428D01*
X156926571Y-114159142D02*
X156926571Y-115409142D01*
X156926571Y-114218666D02*
X157045619Y-114159142D01*
X157283714Y-114159142D01*
X157402761Y-114218666D01*
X157462285Y-114278190D01*
X157521809Y-114397238D01*
X157521809Y-114754380D01*
X157462285Y-114873428D01*
X157402761Y-114932952D01*
X157283714Y-114992476D01*
X157045619Y-114992476D01*
X156926571Y-114932952D01*
X158057523Y-114159142D02*
X158057523Y-115409142D01*
X158057523Y-114218666D02*
X158176571Y-114159142D01*
X158414666Y-114159142D01*
X158533714Y-114218666D01*
X158593238Y-114278190D01*
X158652761Y-114397238D01*
X158652761Y-114754380D01*
X158593238Y-114873428D01*
X158533714Y-114932952D01*
X158414666Y-114992476D01*
X158176571Y-114992476D01*
X158057523Y-114932952D01*
X159367047Y-114992476D02*
X159248000Y-114932952D01*
X159188476Y-114873428D01*
X159128952Y-114754380D01*
X159128952Y-114397238D01*
X159188476Y-114278190D01*
X159248000Y-114218666D01*
X159367047Y-114159142D01*
X159545619Y-114159142D01*
X159664666Y-114218666D01*
X159724190Y-114278190D01*
X159783714Y-114397238D01*
X159783714Y-114754380D01*
X159724190Y-114873428D01*
X159664666Y-114932952D01*
X159545619Y-114992476D01*
X159367047Y-114992476D01*
X160319428Y-114992476D02*
X160319428Y-114159142D01*
X160319428Y-114397238D02*
X160378952Y-114278190D01*
X160438476Y-114218666D01*
X160557523Y-114159142D01*
X160676571Y-114159142D01*
X160914666Y-114159142D02*
X161390857Y-114159142D01*
X161093238Y-113742476D02*
X161093238Y-114813904D01*
X161152761Y-114932952D01*
X161271809Y-114992476D01*
X161390857Y-114992476D01*
X161807523Y-114992476D02*
X161807523Y-114159142D01*
X161807523Y-113742476D02*
X161747999Y-113802000D01*
X161807523Y-113861523D01*
X161867047Y-113802000D01*
X161807523Y-113742476D01*
X161807523Y-113861523D01*
X162402761Y-114159142D02*
X162402761Y-114992476D01*
X162402761Y-114278190D02*
X162462285Y-114218666D01*
X162581333Y-114159142D01*
X162759904Y-114159142D01*
X162878952Y-114218666D01*
X162938476Y-114337714D01*
X162938476Y-114992476D01*
X164069428Y-114159142D02*
X164069428Y-115171047D01*
X164009904Y-115290095D01*
X163950380Y-115349619D01*
X163831333Y-115409142D01*
X163652761Y-115409142D01*
X163533714Y-115349619D01*
X164069428Y-114932952D02*
X163950380Y-114992476D01*
X163712285Y-114992476D01*
X163593238Y-114932952D01*
X163533714Y-114873428D01*
X163474190Y-114754380D01*
X163474190Y-114397238D01*
X163533714Y-114278190D01*
X163593238Y-114218666D01*
X163712285Y-114159142D01*
X163950380Y-114159142D01*
X164069428Y-114218666D01*
X165438476Y-114159142D02*
X165914666Y-114159142D01*
X165617047Y-113742476D02*
X165617047Y-114813904D01*
X165676571Y-114932952D01*
X165795619Y-114992476D01*
X165914666Y-114992476D01*
X166331333Y-114992476D02*
X166331333Y-113742476D01*
X166867047Y-114992476D02*
X166867047Y-114337714D01*
X166807523Y-114218666D01*
X166688476Y-114159142D01*
X166509904Y-114159142D01*
X166390857Y-114218666D01*
X166331333Y-114278190D01*
X167462285Y-114992476D02*
X167462285Y-114159142D01*
X167462285Y-113742476D02*
X167402761Y-113802000D01*
X167462285Y-113861523D01*
X167521809Y-113802000D01*
X167462285Y-113742476D01*
X167462285Y-113861523D01*
X167997999Y-114932952D02*
X168117047Y-114992476D01*
X168355142Y-114992476D01*
X168474190Y-114932952D01*
X168533714Y-114813904D01*
X168533714Y-114754380D01*
X168474190Y-114635333D01*
X168355142Y-114575809D01*
X168176571Y-114575809D01*
X168057523Y-114516285D01*
X167997999Y-114397238D01*
X167997999Y-114337714D01*
X168057523Y-114218666D01*
X168176571Y-114159142D01*
X168355142Y-114159142D01*
X168474190Y-114218666D01*
X170021809Y-114159142D02*
X170021809Y-115409142D01*
X170021809Y-114218666D02*
X170140857Y-114159142D01*
X170378952Y-114159142D01*
X170497999Y-114218666D01*
X170557523Y-114278190D01*
X170617047Y-114397238D01*
X170617047Y-114754380D01*
X170557523Y-114873428D01*
X170497999Y-114932952D01*
X170378952Y-114992476D01*
X170140857Y-114992476D01*
X170021809Y-114932952D01*
X171152761Y-114992476D02*
X171152761Y-114159142D01*
X171152761Y-114397238D02*
X171212285Y-114278190D01*
X171271809Y-114218666D01*
X171390857Y-114159142D01*
X171509904Y-114159142D01*
X172105142Y-114992476D02*
X171986095Y-114932952D01*
X171926571Y-114873428D01*
X171867047Y-114754380D01*
X171867047Y-114397238D01*
X171926571Y-114278190D01*
X171986095Y-114218666D01*
X172105142Y-114159142D01*
X172283714Y-114159142D01*
X172402761Y-114218666D01*
X172462285Y-114278190D01*
X172521809Y-114397238D01*
X172521809Y-114754380D01*
X172462285Y-114873428D01*
X172402761Y-114932952D01*
X172283714Y-114992476D01*
X172105142Y-114992476D01*
X173057523Y-114159142D02*
X173057523Y-115230571D01*
X172997999Y-115349619D01*
X172878952Y-115409142D01*
X172819428Y-115409142D01*
X173057523Y-113742476D02*
X172997999Y-113802000D01*
X173057523Y-113861523D01*
X173117047Y-113802000D01*
X173057523Y-113742476D01*
X173057523Y-113861523D01*
X174128952Y-114932952D02*
X174009904Y-114992476D01*
X173771809Y-114992476D01*
X173652761Y-114932952D01*
X173593238Y-114813904D01*
X173593238Y-114337714D01*
X173652761Y-114218666D01*
X173771809Y-114159142D01*
X174009904Y-114159142D01*
X174128952Y-114218666D01*
X174188476Y-114337714D01*
X174188476Y-114456761D01*
X173593238Y-114575809D01*
X175259904Y-114932952D02*
X175140857Y-114992476D01*
X174902761Y-114992476D01*
X174783714Y-114932952D01*
X174724190Y-114873428D01*
X174664666Y-114754380D01*
X174664666Y-114397238D01*
X174724190Y-114278190D01*
X174783714Y-114218666D01*
X174902761Y-114159142D01*
X175140857Y-114159142D01*
X175259904Y-114218666D01*
X175617047Y-114159142D02*
X176093238Y-114159142D01*
X175795619Y-113742476D02*
X175795619Y-114813904D01*
X175855142Y-114932952D01*
X175974190Y-114992476D01*
X176093238Y-114992476D01*
X176509904Y-114873428D02*
X176569428Y-114932952D01*
X176509904Y-114992476D01*
X176450380Y-114932952D01*
X176509904Y-114873428D01*
X176509904Y-114992476D01*
X176509904Y-114516285D02*
X176450380Y-113802000D01*
X176509904Y-113742476D01*
X176569428Y-113802000D01*
X176509904Y-114516285D01*
X176509904Y-113742476D01*
D12*
%TO.P,MX4,1,COL*%
%TO.N,col1*%
X205174809Y-104729808D03*
D13*
X205829801Y-103999801D03*
%TO.P,MX4,2,ROW*%
%TO.N,Net-(D4-Pad2)*%
X210869801Y-102919801D03*
D14*
X210849801Y-103209801D03*
%TD*%
D13*
%TO.P,MX2,1,COL*%
%TO.N,col1*%
X205829801Y-84949801D03*
D12*
X205174809Y-85679808D03*
D13*
%TO.P,MX2,2,ROW*%
%TO.N,Net-(D2-Pad2)*%
X210869801Y-83869801D03*
D14*
X210849801Y-84159801D03*
%TD*%
D13*
%TO.P,MX1,1,COL*%
%TO.N,col0*%
X186779801Y-84949801D03*
D15*
X186124802Y-85679801D03*
D14*
%TO.P,MX1,2,ROW*%
%TO.N,Net-(D1-Pad2)*%
X191799801Y-84159801D03*
D13*
X191819801Y-83869801D03*
%TD*%
D15*
%TO.P,MX3,1,COL*%
%TO.N,col0*%
X186124802Y-104729801D03*
D13*
X186779801Y-103999801D03*
%TO.P,MX3,2,ROW*%
%TO.N,Net-(D3-Pad2)*%
X191819801Y-102919801D03*
D14*
X191799801Y-103209801D03*
%TD*%
D16*
%TO.P,USB1,13,SHIELD*%
%TO.N,GND*%
X142242000Y-80391000D03*
D17*
X142242000Y-84571000D03*
X133602000Y-84571000D03*
D16*
X133602000Y-80391000D03*
%TD*%
D18*
%TO.N,+5V*%
X157353000Y-107442000D03*
X157353000Y-101473000D03*
X175641000Y-105537000D03*
X141351000Y-102743000D03*
X141351000Y-92837000D03*
X157353000Y-95631000D03*
X175641000Y-94869000D03*
%TO.N,Net-(R1-Pad1)*%
X146335750Y-105251250D03*
X148082000Y-88011000D03*
%TD*%
D19*
%TO.N,+5V*%
X175641000Y-94869000D02*
X175641000Y-105537000D01*
X141351000Y-102743000D02*
X141351000Y-92837000D01*
X157353000Y-101473000D02*
X157353000Y-95631000D01*
X157353000Y-107442000D02*
X157353000Y-101473000D01*
D20*
%TO.N,col0*%
X185469801Y-86409801D02*
X185469801Y-102689801D01*
X185469801Y-102689801D02*
X186779801Y-103999801D01*
%TO.N,Net-(R1-Pad1)*%
X148082000Y-104902000D02*
X147701000Y-105283000D01*
X147701000Y-105283000D02*
X146431000Y-105283000D01*
X148082000Y-88011000D02*
X148082000Y-104902000D01*
%TO.N,col1*%
X204519801Y-102689801D02*
X205829801Y-103999801D01*
X204519801Y-86409801D02*
X204519801Y-102689801D01*
%TD*%
M02*
