%TF.GenerationSoftware,KiCad,Pcbnew,(6.0.0)*%
%TF.CreationDate,2023-04-29T05:22:17-07:00*%
%TF.ProjectId,coolpcbproject,636f6f6c-7063-4627-9072-6f6a6563742e,rev?*%
%TF.SameCoordinates,Original*%
%TF.FileFunction,Copper,L1,Top*%
%TF.FilePolarity,Positive*%
%FSLAX46Y46*%
G04 Gerber Fmt 4.6, Leading zero omitted, Abs format (unit mm)*
G04 Created by KiCad (PCBNEW (6.0.0)) date 2023-04-29 05:22:17*
%MOMM*%
%LPD*%
G01*
G04 APERTURE LIST*
G04 Aperture macros list*
%AMHorizOval*
0 Thick line with rounded ends*
0 $1 width*
0 $2 $3 position (X,Y) of the first rounded end (center of the circle)*
0 $4 $5 position (X,Y) of the second rounded end (center of the circle)*
0 Add line between two ends*
20,1,$1,$2,$3,$4,$5,0*
0 Add two circle primitives to create the rounded ends*
1,1,$1,$2,$3*
1,1,$1,$4,$5*%
G04 Aperture macros list end*
%ADD10C,0.300000*%
%TA.AperFunction,NonConductor*%
%ADD11C,0.300000*%
%TD*%
%TA.AperFunction,ComponentPad*%
%ADD12HorizOval,2.250000X0.655008X0.729993X-0.655008X-0.729993X0*%
%TD*%
%TA.AperFunction,ComponentPad*%
%ADD13C,2.250000*%
%TD*%
%TA.AperFunction,ComponentPad*%
%ADD14HorizOval,2.250000X0.020000X0.290000X-0.020000X-0.290000X0*%
%TD*%
%TA.AperFunction,ComponentPad*%
%ADD15HorizOval,2.250000X0.655001X0.730000X-0.655001X-0.730000X0*%
%TD*%
%TA.AperFunction,ComponentPad*%
%ADD16O,1.000000X1.600000*%
%TD*%
%TA.AperFunction,ComponentPad*%
%ADD17O,1.000000X2.100000*%
%TD*%
%TA.AperFunction,ViaPad*%
%ADD18C,0.800000*%
%TD*%
%TA.AperFunction,Conductor*%
%ADD19C,0.381000*%
%TD*%
%TA.AperFunction,Conductor*%
%ADD20C,0.254000*%
%TD*%
G04 APERTURE END LIST*
D10*
D11*
X142672238Y-113712761D02*
X143815095Y-113712761D01*
X143243666Y-115712761D02*
X143243666Y-113712761D01*
X144481761Y-115712761D02*
X144481761Y-113712761D01*
X145338904Y-115712761D02*
X145338904Y-114665142D01*
X145243666Y-114474666D01*
X145053190Y-114379428D01*
X144767476Y-114379428D01*
X144577000Y-114474666D01*
X144481761Y-114569904D01*
X147148428Y-115712761D02*
X147148428Y-114665142D01*
X147053190Y-114474666D01*
X146862714Y-114379428D01*
X146481761Y-114379428D01*
X146291285Y-114474666D01*
X147148428Y-115617523D02*
X146957952Y-115712761D01*
X146481761Y-115712761D01*
X146291285Y-115617523D01*
X146196047Y-115427047D01*
X146196047Y-115236571D01*
X146291285Y-115046095D01*
X146481761Y-114950857D01*
X146957952Y-114950857D01*
X147148428Y-114855619D01*
X148100809Y-114379428D02*
X148100809Y-115712761D01*
X148100809Y-114569904D02*
X148196047Y-114474666D01*
X148386523Y-114379428D01*
X148672238Y-114379428D01*
X148862714Y-114474666D01*
X148957952Y-114665142D01*
X148957952Y-115712761D01*
X149910333Y-115712761D02*
X149910333Y-113712761D01*
X150100809Y-114950857D02*
X150672238Y-115712761D01*
X150672238Y-114379428D02*
X149910333Y-115141333D01*
X152862714Y-114379428D02*
X153338904Y-115712761D01*
X153815095Y-114379428D02*
X153338904Y-115712761D01*
X153148428Y-116188952D01*
X153053190Y-116284190D01*
X152862714Y-116379428D01*
X154862714Y-115712761D02*
X154672238Y-115617523D01*
X154577000Y-115522285D01*
X154481761Y-115331809D01*
X154481761Y-114760380D01*
X154577000Y-114569904D01*
X154672238Y-114474666D01*
X154862714Y-114379428D01*
X155148428Y-114379428D01*
X155338904Y-114474666D01*
X155434142Y-114569904D01*
X155529380Y-114760380D01*
X155529380Y-115331809D01*
X155434142Y-115522285D01*
X155338904Y-115617523D01*
X155148428Y-115712761D01*
X154862714Y-115712761D01*
X157243666Y-114379428D02*
X157243666Y-115712761D01*
X156386523Y-114379428D02*
X156386523Y-115427047D01*
X156481761Y-115617523D01*
X156672238Y-115712761D01*
X156957952Y-115712761D01*
X157148428Y-115617523D01*
X157243666Y-115522285D01*
X159434142Y-114379428D02*
X160196047Y-114379428D01*
X159719857Y-115712761D02*
X159719857Y-113998476D01*
X159815095Y-113808000D01*
X160005571Y-113712761D01*
X160196047Y-113712761D01*
X161148428Y-115712761D02*
X160957952Y-115617523D01*
X160862714Y-115522285D01*
X160767476Y-115331809D01*
X160767476Y-114760380D01*
X160862714Y-114569904D01*
X160957952Y-114474666D01*
X161148428Y-114379428D01*
X161434142Y-114379428D01*
X161624619Y-114474666D01*
X161719857Y-114569904D01*
X161815095Y-114760380D01*
X161815095Y-115331809D01*
X161719857Y-115522285D01*
X161624619Y-115617523D01*
X161434142Y-115712761D01*
X161148428Y-115712761D01*
X162672238Y-115712761D02*
X162672238Y-114379428D01*
X162672238Y-114760380D02*
X162767476Y-114569904D01*
X162862714Y-114474666D01*
X163053190Y-114379428D01*
X163243666Y-114379428D01*
X165338904Y-115617523D02*
X165529380Y-115712761D01*
X165910333Y-115712761D01*
X166100809Y-115617523D01*
X166196047Y-115427047D01*
X166196047Y-115331809D01*
X166100809Y-115141333D01*
X165910333Y-115046095D01*
X165624619Y-115046095D01*
X165434142Y-114950857D01*
X165338904Y-114760380D01*
X165338904Y-114665142D01*
X165434142Y-114474666D01*
X165624619Y-114379428D01*
X165910333Y-114379428D01*
X166100809Y-114474666D01*
X167910333Y-114379428D02*
X167910333Y-115712761D01*
X167053190Y-114379428D02*
X167053190Y-115427047D01*
X167148428Y-115617523D01*
X167338904Y-115712761D01*
X167624619Y-115712761D01*
X167815095Y-115617523D01*
X167910333Y-115522285D01*
X168862714Y-114379428D02*
X168862714Y-116379428D01*
X168862714Y-114474666D02*
X169053190Y-114379428D01*
X169434142Y-114379428D01*
X169624619Y-114474666D01*
X169719857Y-114569904D01*
X169815095Y-114760380D01*
X169815095Y-115331809D01*
X169719857Y-115522285D01*
X169624619Y-115617523D01*
X169434142Y-115712761D01*
X169053190Y-115712761D01*
X168862714Y-115617523D01*
X170672238Y-114379428D02*
X170672238Y-116379428D01*
X170672238Y-114474666D02*
X170862714Y-114379428D01*
X171243666Y-114379428D01*
X171434142Y-114474666D01*
X171529380Y-114569904D01*
X171624619Y-114760380D01*
X171624619Y-115331809D01*
X171529380Y-115522285D01*
X171434142Y-115617523D01*
X171243666Y-115712761D01*
X170862714Y-115712761D01*
X170672238Y-115617523D01*
X172767476Y-115712761D02*
X172577000Y-115617523D01*
X172481761Y-115522285D01*
X172386523Y-115331809D01*
X172386523Y-114760380D01*
X172481761Y-114569904D01*
X172577000Y-114474666D01*
X172767476Y-114379428D01*
X173053190Y-114379428D01*
X173243666Y-114474666D01*
X173338904Y-114569904D01*
X173434142Y-114760380D01*
X173434142Y-115331809D01*
X173338904Y-115522285D01*
X173243666Y-115617523D01*
X173053190Y-115712761D01*
X172767476Y-115712761D01*
X174291285Y-115712761D02*
X174291285Y-114379428D01*
X174291285Y-114760380D02*
X174386523Y-114569904D01*
X174481761Y-114474666D01*
X174672238Y-114379428D01*
X174862714Y-114379428D01*
X175243666Y-114379428D02*
X176005571Y-114379428D01*
X175529380Y-113712761D02*
X175529380Y-115427047D01*
X175624619Y-115617523D01*
X175815095Y-115712761D01*
X176005571Y-115712761D01*
X176672238Y-115712761D02*
X176672238Y-114379428D01*
X176672238Y-113712761D02*
X176577000Y-113808000D01*
X176672238Y-113903238D01*
X176767476Y-113808000D01*
X176672238Y-113712761D01*
X176672238Y-113903238D01*
X177624619Y-114379428D02*
X177624619Y-115712761D01*
X177624619Y-114569904D02*
X177719857Y-114474666D01*
X177910333Y-114379428D01*
X178196047Y-114379428D01*
X178386523Y-114474666D01*
X178481761Y-114665142D01*
X178481761Y-115712761D01*
X180291285Y-114379428D02*
X180291285Y-115998476D01*
X180196047Y-116188952D01*
X180100809Y-116284190D01*
X179910333Y-116379428D01*
X179624619Y-116379428D01*
X179434142Y-116284190D01*
X180291285Y-115617523D02*
X180100809Y-115712761D01*
X179719857Y-115712761D01*
X179529380Y-115617523D01*
X179434142Y-115522285D01*
X179338904Y-115331809D01*
X179338904Y-114760380D01*
X179434142Y-114569904D01*
X179529380Y-114474666D01*
X179719857Y-114379428D01*
X180100809Y-114379428D01*
X180291285Y-114474666D01*
X182481761Y-114379428D02*
X183243666Y-114379428D01*
X182767476Y-113712761D02*
X182767476Y-115427047D01*
X182862714Y-115617523D01*
X183053190Y-115712761D01*
X183243666Y-115712761D01*
X183910333Y-115712761D02*
X183910333Y-113712761D01*
X184767476Y-115712761D02*
X184767476Y-114665142D01*
X184672238Y-114474666D01*
X184481761Y-114379428D01*
X184196047Y-114379428D01*
X184005571Y-114474666D01*
X183910333Y-114569904D01*
X185719857Y-115712761D02*
X185719857Y-114379428D01*
X185719857Y-113712761D02*
X185624619Y-113808000D01*
X185719857Y-113903238D01*
X185815095Y-113808000D01*
X185719857Y-113712761D01*
X185719857Y-113903238D01*
X186577000Y-115617523D02*
X186767476Y-115712761D01*
X187148428Y-115712761D01*
X187338904Y-115617523D01*
X187434142Y-115427047D01*
X187434142Y-115331809D01*
X187338904Y-115141333D01*
X187148428Y-115046095D01*
X186862714Y-115046095D01*
X186672238Y-114950857D01*
X186577000Y-114760380D01*
X186577000Y-114665142D01*
X186672238Y-114474666D01*
X186862714Y-114379428D01*
X187148428Y-114379428D01*
X187338904Y-114474666D01*
X189815095Y-114379428D02*
X189815095Y-116379428D01*
X189815095Y-114474666D02*
X190005571Y-114379428D01*
X190386523Y-114379428D01*
X190577000Y-114474666D01*
X190672238Y-114569904D01*
X190767476Y-114760380D01*
X190767476Y-115331809D01*
X190672238Y-115522285D01*
X190577000Y-115617523D01*
X190386523Y-115712761D01*
X190005571Y-115712761D01*
X189815095Y-115617523D01*
X191624619Y-115712761D02*
X191624619Y-114379428D01*
X191624619Y-114760380D02*
X191719857Y-114569904D01*
X191815095Y-114474666D01*
X192005571Y-114379428D01*
X192196047Y-114379428D01*
X193148428Y-115712761D02*
X192957952Y-115617523D01*
X192862714Y-115522285D01*
X192767476Y-115331809D01*
X192767476Y-114760380D01*
X192862714Y-114569904D01*
X192957952Y-114474666D01*
X193148428Y-114379428D01*
X193434142Y-114379428D01*
X193624619Y-114474666D01*
X193719857Y-114569904D01*
X193815095Y-114760380D01*
X193815095Y-115331809D01*
X193719857Y-115522285D01*
X193624619Y-115617523D01*
X193434142Y-115712761D01*
X193148428Y-115712761D01*
X194672238Y-114379428D02*
X194672238Y-116093714D01*
X194577000Y-116284190D01*
X194386523Y-116379428D01*
X194291285Y-116379428D01*
X194672238Y-113712761D02*
X194577000Y-113808000D01*
X194672238Y-113903238D01*
X194767476Y-113808000D01*
X194672238Y-113712761D01*
X194672238Y-113903238D01*
X196386523Y-115617523D02*
X196196047Y-115712761D01*
X195815095Y-115712761D01*
X195624619Y-115617523D01*
X195529380Y-115427047D01*
X195529380Y-114665142D01*
X195624619Y-114474666D01*
X195815095Y-114379428D01*
X196196047Y-114379428D01*
X196386523Y-114474666D01*
X196481761Y-114665142D01*
X196481761Y-114855619D01*
X195529380Y-115046095D01*
X198196047Y-115617523D02*
X198005571Y-115712761D01*
X197624619Y-115712761D01*
X197434142Y-115617523D01*
X197338904Y-115522285D01*
X197243666Y-115331809D01*
X197243666Y-114760380D01*
X197338904Y-114569904D01*
X197434142Y-114474666D01*
X197624619Y-114379428D01*
X198005571Y-114379428D01*
X198196047Y-114474666D01*
X198767476Y-114379428D02*
X199529380Y-114379428D01*
X199053190Y-113712761D02*
X199053190Y-115427047D01*
X199148428Y-115617523D01*
X199338904Y-115712761D01*
X199529380Y-115712761D01*
X200196047Y-115522285D02*
X200291285Y-115617523D01*
X200196047Y-115712761D01*
X200100809Y-115617523D01*
X200196047Y-115522285D01*
X200196047Y-115712761D01*
X200196047Y-114950857D02*
X200100809Y-113808000D01*
X200196047Y-113712761D01*
X200291285Y-113808000D01*
X200196047Y-114950857D01*
X200196047Y-113712761D01*
D12*
%TO.P,MX4,1,COL*%
%TO.N,col1*%
X205174809Y-104729808D03*
D13*
X205829801Y-103999801D03*
%TO.P,MX4,2,ROW*%
%TO.N,Net-(D4-Pad2)*%
X210869801Y-102919801D03*
D14*
X210849801Y-103209801D03*
%TD*%
D13*
%TO.P,MX2,1,COL*%
%TO.N,col1*%
X205829801Y-84949801D03*
D12*
X205174809Y-85679808D03*
D13*
%TO.P,MX2,2,ROW*%
%TO.N,Net-(D2-Pad2)*%
X210869801Y-83869801D03*
D14*
X210849801Y-84159801D03*
%TD*%
D13*
%TO.P,MX1,1,COL*%
%TO.N,col0*%
X186779801Y-84949801D03*
D15*
X186124802Y-85679801D03*
D14*
%TO.P,MX1,2,ROW*%
%TO.N,Net-(D1-Pad2)*%
X191799801Y-84159801D03*
D13*
X191819801Y-83869801D03*
%TD*%
D15*
%TO.P,MX3,1,COL*%
%TO.N,col0*%
X186124802Y-104729801D03*
D13*
X186779801Y-103999801D03*
%TO.P,MX3,2,ROW*%
%TO.N,Net-(D3-Pad2)*%
X191819801Y-102919801D03*
D14*
X191799801Y-103209801D03*
%TD*%
D16*
%TO.P,USB1,13,SHIELD*%
%TO.N,GND*%
X142242000Y-80391000D03*
D17*
X142242000Y-84571000D03*
X133602000Y-84571000D03*
D16*
X133602000Y-80391000D03*
%TD*%
D18*
%TO.N,+5V*%
X157353000Y-107442000D03*
X157353000Y-101473000D03*
X175641000Y-105537000D03*
X143510000Y-101727000D03*
X143510000Y-93599000D03*
X157353000Y-95631000D03*
X175641000Y-94869000D03*
%TO.N,Net-(R1-Pad1)*%
X146335750Y-105251250D03*
X148082000Y-88011000D03*
%TD*%
D19*
%TO.N,+5V*%
X175641000Y-94869000D02*
X175641000Y-105537000D01*
X143510000Y-101727000D02*
X143510000Y-93599000D01*
X157353000Y-101473000D02*
X157353000Y-95631000D01*
X157353000Y-107442000D02*
X157353000Y-101473000D01*
D20*
%TO.N,col0*%
X185469801Y-86409801D02*
X185469801Y-102689801D01*
X185469801Y-102689801D02*
X186779801Y-103999801D01*
%TO.N,Net-(R1-Pad1)*%
X148082000Y-104902000D02*
X147701000Y-105283000D01*
X147701000Y-105283000D02*
X146431000Y-105283000D01*
X148082000Y-88011000D02*
X148082000Y-104902000D01*
%TO.N,col1*%
X204519801Y-102689801D02*
X205829801Y-103999801D01*
X204519801Y-86409801D02*
X204519801Y-102689801D01*
%TD*%
M02*
