%TF.GenerationSoftware,KiCad,Pcbnew,(6.0.0)*%
%TF.CreationDate,2023-04-29T04:55:56-07:00*%
%TF.ProjectId,coolpcbproject,636f6f6c-7063-4627-9072-6f6a6563742e,rev?*%
%TF.SameCoordinates,Original*%
%TF.FileFunction,Soldermask,Top*%
%TF.FilePolarity,Negative*%
%FSLAX46Y46*%
G04 Gerber Fmt 4.6, Leading zero omitted, Abs format (unit mm)*
G04 Created by KiCad (PCBNEW (6.0.0)) date 2023-04-29 04:55:56*
%MOMM*%
%LPD*%
G01*
G04 APERTURE LIST*
%ADD10C,1.750000*%
%ADD11C,3.987800*%
%ADD12C,0.650000*%
%ADD13O,1.000000X1.600000*%
%ADD14O,1.000000X2.100000*%
G04 APERTURE END LIST*
%TO.C,G\u002A\u002A\u002A*%
G36*
X130210348Y-114710886D02*
G01*
X130208357Y-114721236D01*
X130198837Y-114733245D01*
X130182823Y-114742672D01*
X130154771Y-114749035D01*
X130111097Y-114753030D01*
X130091906Y-114753978D01*
X130049162Y-114755284D01*
X130024530Y-114754597D01*
X130015714Y-114751662D01*
X130020416Y-114746224D01*
X130020669Y-114746065D01*
X130038420Y-114739166D01*
X130068648Y-114731204D01*
X130105743Y-114723218D01*
X130144098Y-114716249D01*
X130178104Y-114711337D01*
X130202151Y-114709522D01*
X130210348Y-114710886D01*
G37*
G36*
X132678524Y-113573725D02*
G01*
X132681333Y-113576027D01*
X132687067Y-113592177D01*
X132679597Y-113606453D01*
X132669935Y-113609693D01*
X132656799Y-113602233D01*
X132654021Y-113598559D01*
X132652824Y-113582939D01*
X132663660Y-113572460D01*
X132678524Y-113573725D01*
G37*
G36*
X130506605Y-111483678D02*
G01*
X130510362Y-111502969D01*
X130514030Y-111534010D01*
X130516442Y-111578716D01*
X130517330Y-111630293D01*
X130516898Y-111666840D01*
X130514008Y-111781508D01*
X130506388Y-111694451D01*
X130502746Y-111640976D01*
X130500397Y-111582953D01*
X130499827Y-111532549D01*
X130499852Y-111530580D01*
X130500493Y-111492006D01*
X130501439Y-111472365D01*
X130503279Y-111470105D01*
X130506605Y-111483678D01*
G37*
G36*
X130821438Y-105704798D02*
G01*
X130823867Y-105718018D01*
X130823772Y-105746981D01*
X130821596Y-105787163D01*
X130817786Y-105834039D01*
X130812785Y-105883086D01*
X130807041Y-105929780D01*
X130800996Y-105969595D01*
X130795097Y-105998009D01*
X130791600Y-106008127D01*
X130774134Y-106036612D01*
X130760999Y-106045502D01*
X130751554Y-106035074D01*
X130748914Y-106026564D01*
X130747935Y-106003964D01*
X130751495Y-105969110D01*
X130758822Y-105929532D01*
X130758856Y-105929385D01*
X130767315Y-105885801D01*
X130773228Y-105843136D01*
X130775215Y-105813558D01*
X130778540Y-105787709D01*
X130786928Y-105758343D01*
X130798064Y-105730915D01*
X130809628Y-105710879D01*
X130819302Y-105703688D01*
X130821438Y-105704798D01*
G37*
G36*
X130431203Y-106485760D02*
G01*
X130454160Y-106506466D01*
X130475908Y-106530674D01*
X130485590Y-106551771D01*
X130487004Y-106579608D01*
X130486422Y-106590161D01*
X130482513Y-106619285D01*
X130476159Y-106638353D01*
X130472623Y-106641955D01*
X130459718Y-106637322D01*
X130439474Y-106621560D01*
X130429659Y-106612030D01*
X130397945Y-106571971D01*
X130383782Y-106533827D01*
X130383958Y-106500705D01*
X130392027Y-106477867D01*
X130407489Y-106472862D01*
X130431203Y-106485760D01*
G37*
G36*
X132009292Y-111862608D02*
G01*
X132014451Y-111879479D01*
X132004875Y-111917434D01*
X131977561Y-111947127D01*
X131965498Y-111954314D01*
X131938674Y-111963890D01*
X131902918Y-111971623D01*
X131865957Y-111976413D01*
X131835517Y-111977157D01*
X131822298Y-111974713D01*
X131807127Y-111961698D01*
X131798921Y-111949659D01*
X131794866Y-111934936D01*
X131803700Y-111922154D01*
X131822082Y-111909622D01*
X131855763Y-111895628D01*
X131893082Y-111888831D01*
X131896669Y-111888723D01*
X131930428Y-111884729D01*
X131959862Y-111875450D01*
X131963242Y-111873685D01*
X131992624Y-111860563D01*
X132009292Y-111862608D01*
G37*
G36*
X129981051Y-114467034D02*
G01*
X130002059Y-114485737D01*
X130018334Y-114503302D01*
X130055799Y-114546830D01*
X130185044Y-114550226D01*
X130233791Y-114552147D01*
X130274126Y-114554956D01*
X130302191Y-114558293D01*
X130314125Y-114561801D01*
X130314290Y-114562243D01*
X130305894Y-114581678D01*
X130284275Y-114605114D01*
X130254788Y-114627919D01*
X130222785Y-114645464D01*
X130214290Y-114648738D01*
X130184345Y-114656567D01*
X130138205Y-114665615D01*
X130080080Y-114675321D01*
X130014181Y-114685120D01*
X129944719Y-114694450D01*
X129875905Y-114702747D01*
X129811950Y-114709449D01*
X129757064Y-114713991D01*
X129715459Y-114715811D01*
X129712771Y-114715822D01*
X129674340Y-114715376D01*
X129651597Y-114713022D01*
X129639751Y-114707236D01*
X129634009Y-114696493D01*
X129632286Y-114690217D01*
X129631541Y-114649902D01*
X129650723Y-114614256D01*
X129689839Y-114583270D01*
X129748897Y-114556936D01*
X129753185Y-114555466D01*
X129783474Y-114543553D01*
X129823994Y-114525407D01*
X129866962Y-114504546D01*
X129875451Y-114500210D01*
X129912649Y-114481789D01*
X129943817Y-114467764D01*
X129963856Y-114460376D01*
X129967349Y-114459774D01*
X129981051Y-114467034D01*
G37*
G36*
X131779980Y-105639526D02*
G01*
X131785848Y-105646930D01*
X131795199Y-105674492D01*
X131794580Y-105715921D01*
X131784391Y-105767421D01*
X131767788Y-105818157D01*
X131753557Y-105850814D01*
X131737753Y-105880528D01*
X131722919Y-105903380D01*
X131711597Y-105915452D01*
X131706336Y-105912879D01*
X131706959Y-105871244D01*
X131716929Y-105816570D01*
X131727016Y-105779733D01*
X131739640Y-105737495D01*
X131751972Y-105694970D01*
X131758265Y-105672535D01*
X131766318Y-105645475D01*
X131772526Y-105635428D01*
X131779980Y-105639526D01*
G37*
G36*
X133539869Y-104522345D02*
G01*
X133565371Y-104540807D01*
X133587797Y-104564229D01*
X133600698Y-104586596D01*
X133601769Y-104593218D01*
X133594859Y-104607998D01*
X133576876Y-104632220D01*
X133551689Y-104661743D01*
X133523168Y-104692431D01*
X133495184Y-104720144D01*
X133471605Y-104740744D01*
X133456301Y-104750092D01*
X133454914Y-104750268D01*
X133437536Y-104745755D01*
X133418698Y-104737466D01*
X133399875Y-104721314D01*
X133378774Y-104693988D01*
X133367805Y-104675747D01*
X133351964Y-104641232D01*
X133350066Y-104616374D01*
X133363567Y-104594661D01*
X133391058Y-104571699D01*
X133419266Y-104550701D01*
X133444182Y-104579608D01*
X133461130Y-104604952D01*
X133459981Y-104620801D01*
X133440702Y-104627317D01*
X133434403Y-104627516D01*
X133405759Y-104635425D01*
X133389113Y-104656161D01*
X133386871Y-104669632D01*
X133395773Y-104684205D01*
X133418140Y-104693383D01*
X133447462Y-104696307D01*
X133477228Y-104692119D01*
X133495648Y-104683978D01*
X133511015Y-104671689D01*
X133517931Y-104656754D01*
X133518557Y-104632134D01*
X133517177Y-104613887D01*
X133512978Y-104578391D01*
X133507561Y-104548126D01*
X133504840Y-104537899D01*
X133502133Y-104520446D01*
X133513021Y-104514999D01*
X133517738Y-104514854D01*
X133539869Y-104522345D01*
G37*
G36*
X132248921Y-104043979D02*
G01*
X132276809Y-104098684D01*
X132286920Y-104143235D01*
X132279259Y-104177650D01*
X132277330Y-104180820D01*
X132267203Y-104200018D01*
X132267077Y-104217886D01*
X132275848Y-104242407D01*
X132288885Y-104281943D01*
X132288475Y-104308861D01*
X132274148Y-104326392D01*
X132262818Y-104332168D01*
X132186136Y-104365922D01*
X132115081Y-104401941D01*
X132068972Y-104428877D01*
X132038241Y-104447102D01*
X132019420Y-104454372D01*
X132008050Y-104452050D01*
X132004464Y-104448589D01*
X131989191Y-104415348D01*
X131987749Y-104373287D01*
X132000166Y-104328716D01*
X132003943Y-104320780D01*
X132022140Y-104289074D01*
X132049507Y-104246141D01*
X132082630Y-104196913D01*
X132118090Y-104146324D01*
X132152472Y-104099307D01*
X132182360Y-104060794D01*
X132192098Y-104049099D01*
X132227027Y-104008385D01*
X132248921Y-104043979D01*
G37*
G36*
X132454806Y-104625074D02*
G01*
X132476711Y-104644868D01*
X132499989Y-104671246D01*
X132519927Y-104698798D01*
X132531811Y-104722113D01*
X132532536Y-104724623D01*
X132534968Y-104754810D01*
X132531209Y-104790943D01*
X132522779Y-104823495D01*
X132514135Y-104840036D01*
X132502070Y-104850071D01*
X132487683Y-104849961D01*
X132467461Y-104838224D01*
X132437892Y-104813379D01*
X132426689Y-104803163D01*
X132390181Y-104763303D01*
X132373101Y-104728512D01*
X132375243Y-104698008D01*
X132393141Y-104673841D01*
X132411091Y-104652535D01*
X132419436Y-104636407D01*
X132430441Y-104620542D01*
X132438990Y-104617274D01*
X132454806Y-104625074D01*
G37*
G36*
X132475874Y-112395388D02*
G01*
X132489495Y-112416877D01*
X132490646Y-112421379D01*
X132492141Y-112453110D01*
X132482404Y-112470646D01*
X132465273Y-112472089D01*
X132444583Y-112455540D01*
X132438516Y-112447182D01*
X132427931Y-112426001D01*
X132430999Y-112410817D01*
X132434413Y-112406214D01*
X132455854Y-112391386D01*
X132475874Y-112395388D01*
G37*
G36*
X130426900Y-102373729D02*
G01*
X130424834Y-102392012D01*
X130411217Y-102420315D01*
X130386511Y-102456684D01*
X130370618Y-102476709D01*
X130322696Y-102537581D01*
X130280349Y-102597278D01*
X130245363Y-102652828D01*
X130219522Y-102701258D01*
X130204613Y-102739596D01*
X130201629Y-102758034D01*
X130206088Y-102772306D01*
X130217288Y-102770078D01*
X130231957Y-102752721D01*
X130237475Y-102743000D01*
X130253577Y-102721146D01*
X130269556Y-102712903D01*
X130280864Y-102719283D01*
X130283564Y-102732758D01*
X130286802Y-102749788D01*
X130296962Y-102749915D01*
X130314713Y-102732676D01*
X130340722Y-102697608D01*
X130346424Y-102689229D01*
X130382163Y-102638012D01*
X130414656Y-102594875D01*
X130441865Y-102562298D01*
X130461752Y-102542763D01*
X130470565Y-102538161D01*
X130474709Y-102547414D01*
X130475969Y-102571732D01*
X130474705Y-102605956D01*
X130471272Y-102644923D01*
X130466028Y-102683475D01*
X130459330Y-102716449D01*
X130457846Y-102721925D01*
X130448907Y-102742749D01*
X130431138Y-102776390D01*
X130406946Y-102818536D01*
X130378737Y-102864876D01*
X130372703Y-102874461D01*
X130344275Y-102920572D01*
X130319645Y-102962813D01*
X130301115Y-102997066D01*
X130290989Y-103019217D01*
X130290109Y-103022092D01*
X130282414Y-103042437D01*
X130274519Y-103050258D01*
X130264451Y-103043099D01*
X130244147Y-103023780D01*
X130216884Y-102995535D01*
X130195339Y-102972102D01*
X130164202Y-102936842D01*
X130137378Y-102905085D01*
X130118515Y-102881223D01*
X130112375Y-102872243D01*
X130102949Y-102841431D01*
X130100112Y-102798086D01*
X130103725Y-102749023D01*
X130113651Y-102701055D01*
X130116005Y-102693346D01*
X130135539Y-102651089D01*
X130167898Y-102600820D01*
X130209440Y-102546702D01*
X130256519Y-102492902D01*
X130305490Y-102443584D01*
X130352709Y-102402913D01*
X130394532Y-102375053D01*
X130394542Y-102375048D01*
X130416956Y-102367423D01*
X130426900Y-102373729D01*
G37*
G36*
X132393403Y-112211669D02*
G01*
X132388282Y-112216790D01*
X132383161Y-112211669D01*
X132388282Y-112206548D01*
X132393403Y-112211669D01*
G37*
G36*
X132988782Y-110009935D02*
G01*
X133012053Y-110030555D01*
X133025613Y-110048060D01*
X133061493Y-110093043D01*
X133102582Y-110137116D01*
X133143936Y-110175463D01*
X133180612Y-110203269D01*
X133191455Y-110209632D01*
X133278406Y-110253788D01*
X133353328Y-110288654D01*
X133414913Y-110313690D01*
X133461852Y-110328359D01*
X133488900Y-110332274D01*
X133526111Y-110337473D01*
X133563540Y-110350240D01*
X133568550Y-110352758D01*
X133600185Y-110366016D01*
X133630185Y-110372948D01*
X133635594Y-110373242D01*
X133666935Y-110378053D01*
X133692077Y-110387142D01*
X133723012Y-110399333D01*
X133753503Y-110407466D01*
X133794384Y-110422287D01*
X133836401Y-110448710D01*
X133872218Y-110481286D01*
X133892929Y-110511021D01*
X133904634Y-110558188D01*
X133897201Y-110606113D01*
X133871989Y-110649538D01*
X133857394Y-110662480D01*
X133828602Y-110684497D01*
X133788618Y-110713538D01*
X133740445Y-110747553D01*
X133687087Y-110784493D01*
X133631546Y-110822305D01*
X133576827Y-110858941D01*
X133525932Y-110892349D01*
X133481866Y-110920479D01*
X133447631Y-110941280D01*
X133431881Y-110949998D01*
X133398976Y-110968593D01*
X133360833Y-110992753D01*
X133322753Y-111018809D01*
X133290034Y-111043089D01*
X133267977Y-111061924D01*
X133263967Y-111066287D01*
X133221499Y-111127050D01*
X133197148Y-111181220D01*
X133190892Y-111228142D01*
X133202706Y-111267165D01*
X133232567Y-111297634D01*
X133273155Y-111316660D01*
X133303595Y-111328516D01*
X133328491Y-111341390D01*
X133330258Y-111342562D01*
X133352774Y-111351136D01*
X133385116Y-111356029D01*
X133397434Y-111356467D01*
X133436957Y-111360649D01*
X133464641Y-111371973D01*
X133477227Y-111388613D01*
X133476097Y-111400595D01*
X133455512Y-111427442D01*
X133417351Y-111450442D01*
X133364353Y-111468367D01*
X133299256Y-111479987D01*
X133298964Y-111480021D01*
X133198120Y-111492534D01*
X133113784Y-111505631D01*
X133041988Y-111520490D01*
X132978762Y-111538292D01*
X132920140Y-111560215D01*
X132862154Y-111587439D01*
X132800835Y-111621143D01*
X132777145Y-111635111D01*
X132715321Y-111671696D01*
X132665019Y-111700379D01*
X132620464Y-111724224D01*
X132575879Y-111746297D01*
X132525486Y-111769663D01*
X132512596Y-111775484D01*
X132467445Y-111795232D01*
X132437658Y-111805081D01*
X132420001Y-111803717D01*
X132411241Y-111789828D01*
X132408144Y-111762102D01*
X132407607Y-111732858D01*
X132403673Y-111675512D01*
X132393436Y-111633579D01*
X132389918Y-111625827D01*
X132378472Y-111600214D01*
X132372998Y-111581000D01*
X132372919Y-111579543D01*
X132381758Y-111570024D01*
X132405350Y-111555274D01*
X132439306Y-111537356D01*
X132479236Y-111518335D01*
X132520753Y-111500273D01*
X132559467Y-111485233D01*
X132590990Y-111475278D01*
X132598242Y-111473621D01*
X132628876Y-111464703D01*
X132653601Y-111452927D01*
X132654291Y-111452457D01*
X132688357Y-111439469D01*
X132722569Y-111444468D01*
X132752634Y-111465448D01*
X132774256Y-111500399D01*
X132777552Y-111510096D01*
X132791958Y-111542670D01*
X132809511Y-111559275D01*
X132827263Y-111558773D01*
X132842267Y-111540024D01*
X132844018Y-111535780D01*
X132856327Y-111514089D01*
X132877626Y-111485536D01*
X132894406Y-111466118D01*
X132920104Y-111433035D01*
X132941322Y-111396226D01*
X132956042Y-111360609D01*
X132962246Y-111331104D01*
X132957917Y-111312630D01*
X132957532Y-111312225D01*
X132947516Y-111288681D01*
X132949951Y-111254037D01*
X132964403Y-111213115D01*
X132966951Y-111207959D01*
X132977892Y-111184609D01*
X132984089Y-111163555D01*
X132985160Y-111140716D01*
X132980721Y-111112009D01*
X132970387Y-111073352D01*
X132953776Y-111020661D01*
X132947564Y-111001668D01*
X132931438Y-110951356D01*
X132917217Y-110904795D01*
X132906465Y-110867250D01*
X132900821Y-110844371D01*
X132891710Y-110809367D01*
X132880157Y-110777798D01*
X132869297Y-110752107D01*
X132854665Y-110715607D01*
X132841076Y-110680500D01*
X132801118Y-110577046D01*
X132765094Y-110487807D01*
X132730767Y-110407467D01*
X132695901Y-110330709D01*
X132677972Y-110292857D01*
X132656165Y-110246750D01*
X132638323Y-110207818D01*
X132625964Y-110179471D01*
X132620606Y-110165117D01*
X132620588Y-110164051D01*
X132657208Y-110142170D01*
X132711662Y-110115883D01*
X132782006Y-110086106D01*
X132808201Y-110075737D01*
X132854604Y-110057168D01*
X132895463Y-110039944D01*
X132926089Y-110026095D01*
X132941065Y-110018172D01*
X132966493Y-110006292D01*
X132988782Y-110009935D01*
G37*
G36*
X130514458Y-111816627D02*
G01*
X130520608Y-111836292D01*
X130526433Y-111864605D01*
X130527121Y-111886584D01*
X130526952Y-111887502D01*
X130522915Y-111894652D01*
X130517271Y-111882202D01*
X130516294Y-111878806D01*
X130510879Y-111847757D01*
X130509950Y-111827596D01*
X130511175Y-111813341D01*
X130514458Y-111816627D01*
G37*
G36*
X132360392Y-111721391D02*
G01*
X132363221Y-111726193D01*
X132369774Y-111745140D01*
X132362054Y-111756476D01*
X132361174Y-111757048D01*
X132341927Y-111765266D01*
X132333279Y-111756510D01*
X132331951Y-111741144D01*
X132336274Y-111717249D01*
X132346918Y-111710108D01*
X132360392Y-111721391D01*
G37*
G36*
X131955071Y-106672062D02*
G01*
X131963523Y-106687414D01*
X131958131Y-106709407D01*
X131940873Y-106731670D01*
X131935076Y-106736427D01*
X131891583Y-106773083D01*
X131860274Y-106808162D01*
X131844226Y-106838185D01*
X131843809Y-106839774D01*
X131832170Y-106867908D01*
X131821039Y-106884363D01*
X131815014Y-106894316D01*
X131810491Y-106910342D01*
X131807214Y-106935310D01*
X131804927Y-106972088D01*
X131803373Y-107023548D01*
X131802297Y-107092556D01*
X131802276Y-107094323D01*
X131801308Y-107169837D01*
X131800046Y-107227326D01*
X131797986Y-107269248D01*
X131794623Y-107298060D01*
X131789451Y-107316221D01*
X131781965Y-107326188D01*
X131771660Y-107330419D01*
X131758032Y-107331373D01*
X131753555Y-107331387D01*
X131718371Y-107331387D01*
X131715343Y-107262294D01*
X131713253Y-107225427D01*
X131709288Y-107203324D01*
X131700834Y-107190279D01*
X131685279Y-107180586D01*
X131675856Y-107176074D01*
X131640984Y-107157265D01*
X131624551Y-107140235D01*
X131625246Y-107121329D01*
X131641758Y-107096890D01*
X131645780Y-107092222D01*
X131663760Y-107069296D01*
X131673381Y-107047559D01*
X131677219Y-107018932D01*
X131677838Y-106991605D01*
X131682830Y-106937530D01*
X131696483Y-106896254D01*
X131717667Y-106870572D01*
X131728994Y-106864961D01*
X131756450Y-106850940D01*
X131791939Y-106825600D01*
X131830344Y-106793327D01*
X131866547Y-106758506D01*
X131895431Y-106725524D01*
X131901749Y-106716871D01*
X131924802Y-106686230D01*
X131941367Y-106671811D01*
X131954009Y-106671459D01*
X131955071Y-106672062D01*
G37*
G36*
X134953887Y-101647113D02*
G01*
X134953887Y-115268887D01*
X128952113Y-115268887D01*
X128952113Y-106690377D01*
X129271820Y-106690377D01*
X129273132Y-106758877D01*
X129287608Y-106825442D01*
X129314006Y-106885147D01*
X129351080Y-106933067D01*
X129366002Y-106945881D01*
X129411681Y-106977693D01*
X129452787Y-106997978D01*
X129496244Y-107008818D01*
X129548973Y-107012295D01*
X129585082Y-107011805D01*
X129631373Y-107010697D01*
X129662850Y-107011528D01*
X129685165Y-107015424D01*
X129703972Y-107023514D01*
X129724922Y-107036923D01*
X129730551Y-107040818D01*
X129784237Y-107076098D01*
X129830760Y-107101082D01*
X129878040Y-107119331D01*
X129933996Y-107134407D01*
X129943465Y-107136579D01*
X129998704Y-107149650D01*
X130060953Y-107165295D01*
X130117564Y-107180326D01*
X130122254Y-107181624D01*
X130161472Y-107191775D01*
X130191976Y-107198232D01*
X130209412Y-107200146D01*
X130211871Y-107199099D01*
X130203330Y-107191140D01*
X130181322Y-107178489D01*
X130160473Y-107168422D01*
X130122917Y-107150284D01*
X130099063Y-107133446D01*
X130085813Y-107112663D01*
X130080071Y-107082692D01*
X130078737Y-107038287D01*
X130078725Y-107030033D01*
X130079656Y-106984608D01*
X130083255Y-106953397D01*
X130090738Y-106930184D01*
X130102030Y-106910641D01*
X130118668Y-106889062D01*
X130135324Y-106879759D01*
X130160861Y-106878707D01*
X130170916Y-106879351D01*
X130206514Y-106884810D01*
X130254452Y-106895986D01*
X130308060Y-106910974D01*
X130360665Y-106927866D01*
X130405596Y-106944756D01*
X130416709Y-106949596D01*
X130451301Y-106959381D01*
X130506161Y-106966454D01*
X130575459Y-106970599D01*
X130624253Y-106973139D01*
X130665865Y-106976588D01*
X130695840Y-106980490D01*
X130709649Y-106984331D01*
X130727555Y-106987761D01*
X130752163Y-106982508D01*
X130785010Y-106976845D01*
X130827503Y-106981020D01*
X130838175Y-106983127D01*
X130875747Y-106989442D01*
X130923638Y-106995225D01*
X130977249Y-107000185D01*
X131031985Y-107004032D01*
X131083248Y-107006477D01*
X131126444Y-107007230D01*
X131156974Y-107006001D01*
X131168043Y-107003929D01*
X131181770Y-106996587D01*
X131176649Y-106991146D01*
X131174613Y-106990436D01*
X131059060Y-106947610D01*
X130956278Y-106899183D01*
X130867431Y-106846129D01*
X130793685Y-106789422D01*
X130736209Y-106730037D01*
X130696166Y-106668946D01*
X130674725Y-106607125D01*
X130671274Y-106570077D01*
X130673360Y-106542057D01*
X130678645Y-106503711D01*
X130685991Y-106461085D01*
X130694259Y-106420229D01*
X130702314Y-106387190D01*
X130709017Y-106368015D01*
X130709394Y-106367367D01*
X130714738Y-106353550D01*
X130723565Y-106325619D01*
X130734094Y-106289255D01*
X130735549Y-106284008D01*
X130749415Y-106240323D01*
X130765797Y-106198159D01*
X130780516Y-106167838D01*
X130822015Y-106081477D01*
X130848012Y-105989273D01*
X130856894Y-105930000D01*
X130863163Y-105877412D01*
X130871313Y-105815681D01*
X130879863Y-105755870D01*
X130882332Y-105739658D01*
X130889189Y-105691693D01*
X130894536Y-105647138D01*
X130897620Y-105612629D01*
X130898080Y-105600685D01*
X130899200Y-105587560D01*
X130903602Y-105573940D01*
X130912854Y-105558107D01*
X130928521Y-105538340D01*
X130952170Y-105512922D01*
X130985367Y-105480134D01*
X131029679Y-105438255D01*
X131086672Y-105385567D01*
X131131541Y-105344451D01*
X131160454Y-105315953D01*
X131177789Y-105291315D01*
X131188405Y-105262174D01*
X131193992Y-105236911D01*
X131206369Y-105193247D01*
X131224353Y-105151751D01*
X131234687Y-105134492D01*
X131253595Y-105109757D01*
X131269935Y-105098237D01*
X131291836Y-105095676D01*
X131307403Y-105096425D01*
X131348810Y-105093306D01*
X131375376Y-105078331D01*
X131385696Y-105052625D01*
X131384098Y-105035032D01*
X131381294Y-105005321D01*
X131383652Y-104973182D01*
X131389968Y-104945068D01*
X131399036Y-104927430D01*
X131404741Y-104924532D01*
X131418375Y-104932096D01*
X131437718Y-104951252D01*
X131447255Y-104962939D01*
X131485395Y-105008256D01*
X131518137Y-105035464D01*
X131547890Y-105045395D01*
X131577063Y-105038878D01*
X131606793Y-105017888D01*
X131625896Y-104997936D01*
X131632260Y-104979778D01*
X131625637Y-104957908D01*
X131605777Y-104926819D01*
X131602461Y-104922164D01*
X131595417Y-104905348D01*
X131604739Y-104889494D01*
X131606714Y-104887477D01*
X131628199Y-104876716D01*
X131650517Y-104884968D01*
X131672650Y-104910845D01*
X131693583Y-104952959D01*
X131712296Y-105009922D01*
X131720231Y-105042314D01*
X131734156Y-105106021D01*
X131744088Y-105155005D01*
X131750716Y-105194487D01*
X131754728Y-105229687D01*
X131756811Y-105265824D01*
X131757652Y-105308118D01*
X131757792Y-105327473D01*
X131757626Y-105378107D01*
X131756007Y-105412849D01*
X131752244Y-105436280D01*
X131745648Y-105452977D01*
X131736948Y-105465739D01*
X131726381Y-105481336D01*
X131720686Y-105498257D01*
X131719135Y-105522117D01*
X131720999Y-105558529D01*
X131722485Y-105577223D01*
X131725240Y-105628464D01*
X131723161Y-105667588D01*
X131715649Y-105702518D01*
X131712218Y-105713450D01*
X131700647Y-105741702D01*
X131689243Y-105759091D01*
X131683152Y-105762013D01*
X131673092Y-105751638D01*
X131658011Y-105727682D01*
X131641156Y-105695305D01*
X131640971Y-105694919D01*
X131620590Y-105657145D01*
X131603998Y-105635784D01*
X131592484Y-105631344D01*
X131587337Y-105644330D01*
X131589761Y-105674754D01*
X131598294Y-105711837D01*
X131611089Y-105753272D01*
X131616267Y-105767310D01*
X131627883Y-105803941D01*
X131634243Y-105838522D01*
X131635089Y-105866379D01*
X131630166Y-105882836D01*
X131622697Y-105884939D01*
X131611048Y-105876176D01*
X131594156Y-105854934D01*
X131571253Y-105819983D01*
X131541574Y-105770099D01*
X131504354Y-105704053D01*
X131466508Y-105634834D01*
X131423582Y-105559180D01*
X131384145Y-105496853D01*
X131349029Y-105448797D01*
X131319063Y-105415954D01*
X131295078Y-105399268D01*
X131277903Y-105399680D01*
X131270028Y-105411664D01*
X131274897Y-105423188D01*
X131290599Y-105445878D01*
X131314231Y-105475700D01*
X131326565Y-105490239D01*
X131356699Y-105529034D01*
X131391217Y-105579775D01*
X131425805Y-105635862D01*
X131450398Y-105679715D01*
X131509237Y-105784224D01*
X131575693Y-105892014D01*
X131644653Y-105995062D01*
X131699340Y-106070210D01*
X131727789Y-106109990D01*
X131754988Y-106152080D01*
X131775124Y-106187480D01*
X131775382Y-106187993D01*
X131798118Y-106227936D01*
X131825445Y-106268805D01*
X131837643Y-106284795D01*
X131870982Y-106336400D01*
X131896837Y-106397249D01*
X131914180Y-106462193D01*
X131921985Y-106526087D01*
X131919224Y-106583782D01*
X131906078Y-106627762D01*
X131893440Y-106645698D01*
X131868727Y-106674562D01*
X131834786Y-106711251D01*
X131794465Y-106752661D01*
X131762691Y-106784037D01*
X131635500Y-106907534D01*
X131635500Y-106966409D01*
X131634286Y-107001595D01*
X131628669Y-107024348D01*
X131615680Y-107042668D01*
X131602491Y-107055432D01*
X131579336Y-107074020D01*
X131560689Y-107084630D01*
X131556391Y-107085580D01*
X131542639Y-107078554D01*
X131521174Y-107060952D01*
X131497266Y-107037995D01*
X131476184Y-107014900D01*
X131463198Y-106996886D01*
X131461387Y-106991495D01*
X131468133Y-106969712D01*
X131486829Y-106937285D01*
X131512841Y-106901225D01*
X131547097Y-106850128D01*
X131583096Y-106783493D01*
X131618671Y-106705890D01*
X131651652Y-106621887D01*
X131668007Y-106574287D01*
X131687427Y-106511723D01*
X131699301Y-106463360D01*
X131703655Y-106424364D01*
X131700512Y-106389901D01*
X131689897Y-106355138D01*
X131671835Y-106315241D01*
X131669345Y-106310233D01*
X131650174Y-106275674D01*
X131620706Y-106227407D01*
X131582833Y-106168189D01*
X131538447Y-106100774D01*
X131489439Y-106027919D01*
X131437701Y-105952379D01*
X131385123Y-105876910D01*
X131333599Y-105804269D01*
X131285018Y-105737209D01*
X131241274Y-105678489D01*
X131204256Y-105630862D01*
X131196251Y-105620983D01*
X131177778Y-105599418D01*
X131166086Y-105591797D01*
X131155034Y-105596171D01*
X131145056Y-105604727D01*
X131128231Y-105627327D01*
X131114055Y-105658625D01*
X131111731Y-105666179D01*
X131091769Y-105732992D01*
X131067309Y-105806061D01*
X131041528Y-105876267D01*
X131020409Y-105928129D01*
X130971104Y-106041828D01*
X130929637Y-106138683D01*
X130895395Y-106220512D01*
X130867768Y-106289133D01*
X130846145Y-106346363D01*
X130829915Y-106394019D01*
X130818467Y-106433919D01*
X130811191Y-106467881D01*
X130807474Y-106497722D01*
X130806708Y-106525259D01*
X130808279Y-106552310D01*
X130808801Y-106557635D01*
X130818670Y-106603006D01*
X130839679Y-106648403D01*
X130873112Y-106695176D01*
X130920251Y-106744680D01*
X130982383Y-106798265D01*
X131060790Y-106857285D01*
X131154129Y-106921350D01*
X131199321Y-106951355D01*
X131241986Y-106979734D01*
X131277208Y-107003213D01*
X131299444Y-107018099D01*
X131334025Y-107051444D01*
X131347201Y-107079671D01*
X131350731Y-107105339D01*
X131352378Y-107146092D01*
X131352277Y-107196634D01*
X131350565Y-107251665D01*
X131347375Y-107305889D01*
X131342845Y-107354006D01*
X131339584Y-107377475D01*
X131332858Y-107418443D01*
X131261417Y-107425740D01*
X131123528Y-107429599D01*
X130984742Y-107413064D01*
X130877596Y-107386567D01*
X130736646Y-107343094D01*
X130605732Y-107300975D01*
X130498645Y-107264867D01*
X130454613Y-107251010D01*
X130411206Y-107239643D01*
X130377388Y-107233099D01*
X130375742Y-107232897D01*
X130329653Y-107227536D01*
X130373181Y-107248235D01*
X130400209Y-107264187D01*
X130414098Y-107282727D01*
X130415728Y-107308229D01*
X130405980Y-107345065D01*
X130397374Y-107368428D01*
X130386512Y-107403684D01*
X130373869Y-107457073D01*
X130359851Y-107526362D01*
X130344860Y-107609316D01*
X130329303Y-107703703D01*
X130313581Y-107807287D01*
X130298590Y-107914203D01*
X130290160Y-107975174D01*
X130282391Y-108025549D01*
X130274193Y-108069662D01*
X130264475Y-108111845D01*
X130252146Y-108156432D01*
X130236114Y-108207757D01*
X130215289Y-108270154D01*
X130191586Y-108339243D01*
X130166775Y-108412416D01*
X130142603Y-108485997D01*
X130120466Y-108555565D01*
X130101759Y-108616700D01*
X130087877Y-108664983D01*
X130083504Y-108681624D01*
X130067961Y-108738570D01*
X130048024Y-108804339D01*
X130026861Y-108868719D01*
X130015758Y-108900076D01*
X130002549Y-108938354D01*
X129987172Y-108986417D01*
X129970798Y-109040175D01*
X129954597Y-109095533D01*
X129939740Y-109148402D01*
X129927397Y-109194687D01*
X129918738Y-109230298D01*
X129914934Y-109251141D01*
X129914854Y-109252842D01*
X129905087Y-109253988D01*
X129877679Y-109255020D01*
X129835474Y-109255889D01*
X129781317Y-109256543D01*
X129718051Y-109256934D01*
X129676729Y-109257022D01*
X129589661Y-109257490D01*
X129521553Y-109258820D01*
X129470900Y-109261088D01*
X129436193Y-109264366D01*
X129415927Y-109268728D01*
X129413000Y-109269966D01*
X129385381Y-109292062D01*
X129366144Y-109327317D01*
X129355121Y-109376950D01*
X129352144Y-109442178D01*
X129357046Y-109524221D01*
X129366833Y-109604947D01*
X129372656Y-109652754D01*
X129378795Y-109714727D01*
X129384701Y-109784569D01*
X129389824Y-109855980D01*
X129392296Y-109896992D01*
X129402037Y-110072755D01*
X129410793Y-110229261D01*
X129418636Y-110367709D01*
X129425637Y-110489299D01*
X129431868Y-110595230D01*
X129437400Y-110686702D01*
X129442305Y-110764915D01*
X129446653Y-110831067D01*
X129450518Y-110886358D01*
X129453924Y-110931427D01*
X129457221Y-110984023D01*
X129459741Y-111046356D01*
X129461479Y-111114737D01*
X129462431Y-111185480D01*
X129462592Y-111254898D01*
X129461957Y-111319302D01*
X129460523Y-111375007D01*
X129458284Y-111418325D01*
X129455237Y-111445568D01*
X129454560Y-111448645D01*
X129446534Y-111474948D01*
X129433303Y-111513159D01*
X129417347Y-111556197D01*
X129412599Y-111568480D01*
X129394676Y-111618579D01*
X129386911Y-111654988D01*
X129389872Y-111682117D01*
X129404128Y-111704378D01*
X129430248Y-111726179D01*
X129433188Y-111728261D01*
X129458013Y-111747424D01*
X129469875Y-111764632D01*
X129473310Y-111788576D01*
X129473298Y-111805075D01*
X129475441Y-111845851D01*
X129481724Y-111890406D01*
X129484671Y-111904411D01*
X129488471Y-111929353D01*
X129492452Y-111971106D01*
X129496368Y-112025999D01*
X129499973Y-112090363D01*
X129503023Y-112160528D01*
X129504302Y-112197902D01*
X129507198Y-112282496D01*
X129510400Y-112348947D01*
X129514443Y-112399598D01*
X129519864Y-112436788D01*
X129527199Y-112462859D01*
X129536983Y-112480151D01*
X129549752Y-112491004D01*
X129566044Y-112497760D01*
X129573438Y-112499782D01*
X129599625Y-112502741D01*
X129640513Y-112503308D01*
X129690663Y-112501835D01*
X129744638Y-112498674D01*
X129796998Y-112494179D01*
X129842307Y-112488701D01*
X129875125Y-112482594D01*
X129884686Y-112479607D01*
X129912293Y-112472938D01*
X129959873Y-112467153D01*
X130026928Y-112462299D01*
X130112614Y-112458432D01*
X130175463Y-112455945D01*
X130233063Y-112453184D01*
X130281560Y-112450371D01*
X130317102Y-112447729D01*
X130335376Y-112445577D01*
X130365500Y-112439552D01*
X130365447Y-112663594D01*
X130362432Y-112891971D01*
X130353530Y-113103222D01*
X130338790Y-113296638D01*
X130318260Y-113471505D01*
X130303814Y-113563604D01*
X130295548Y-113611118D01*
X130286498Y-113662854D01*
X130282342Y-113686508D01*
X130272502Y-113726878D01*
X130258818Y-113764765D01*
X130249375Y-113783327D01*
X130232020Y-113813398D01*
X130218191Y-113841257D01*
X130216710Y-113844778D01*
X130207609Y-113865369D01*
X130190950Y-113901175D01*
X130168252Y-113949049D01*
X130141036Y-114005842D01*
X130110820Y-114068409D01*
X130079125Y-114133601D01*
X130047469Y-114198272D01*
X130017374Y-114259273D01*
X129991669Y-114310847D01*
X129967778Y-114356808D01*
X129945798Y-114396078D01*
X129927902Y-114424981D01*
X129916261Y-114439843D01*
X129914854Y-114440817D01*
X129900713Y-114447591D01*
X129871564Y-114461470D01*
X129830909Y-114480791D01*
X129782253Y-114503888D01*
X129748837Y-114519738D01*
X129689680Y-114547970D01*
X129646556Y-114570115D01*
X129617070Y-114589033D01*
X129598829Y-114607584D01*
X129589440Y-114628630D01*
X129586507Y-114655031D01*
X129587638Y-114689647D01*
X129588971Y-114710787D01*
X129592937Y-114750337D01*
X129600387Y-114776914D01*
X129613919Y-114798012D01*
X129622527Y-114807548D01*
X129664993Y-114838143D01*
X129725397Y-114860422D01*
X129802812Y-114874051D01*
X129807314Y-114874519D01*
X129846271Y-114879031D01*
X129896514Y-114885651D01*
X129949117Y-114893184D01*
X129966064Y-114895758D01*
X130017381Y-114902694D01*
X130080282Y-114909719D01*
X130145894Y-114915906D01*
X130192768Y-114919518D01*
X130242826Y-114923366D01*
X130285776Y-114927557D01*
X130317304Y-114931608D01*
X130333095Y-114935035D01*
X130333608Y-114935303D01*
X130347970Y-114938431D01*
X130378167Y-114941508D01*
X130419553Y-114944149D01*
X130460251Y-114945771D01*
X130522311Y-114947788D01*
X130600671Y-114950623D01*
X130691169Y-114954101D01*
X130789644Y-114958047D01*
X130891937Y-114962288D01*
X130993887Y-114966648D01*
X131091332Y-114970953D01*
X131180112Y-114975029D01*
X131256067Y-114978700D01*
X131302637Y-114981112D01*
X131386298Y-114984590D01*
X131480625Y-114986746D01*
X131581297Y-114987625D01*
X131683993Y-114987272D01*
X131784391Y-114985733D01*
X131878170Y-114983053D01*
X131961009Y-114979278D01*
X132028587Y-114974453D01*
X132040056Y-114973349D01*
X132200827Y-114957294D01*
X132342026Y-114943833D01*
X132464394Y-114932904D01*
X132568670Y-114924442D01*
X132655592Y-114918383D01*
X132721145Y-114914867D01*
X132795890Y-114909594D01*
X132872206Y-114900578D01*
X132945934Y-114888621D01*
X133012919Y-114874523D01*
X133069001Y-114859084D01*
X133110025Y-114843106D01*
X133118859Y-114838275D01*
X133145045Y-114813993D01*
X133152503Y-114786319D01*
X133142171Y-114757581D01*
X133114991Y-114730104D01*
X133071902Y-114706216D01*
X133064250Y-114703135D01*
X133029446Y-114691632D01*
X132980488Y-114677931D01*
X132923380Y-114663468D01*
X132864127Y-114649679D01*
X132808734Y-114638000D01*
X132763206Y-114629870D01*
X132750743Y-114628132D01*
X132707720Y-114619672D01*
X132673873Y-114607030D01*
X132653475Y-114592139D01*
X132649451Y-114582297D01*
X132656438Y-114569737D01*
X132674005Y-114550166D01*
X132682738Y-114541865D01*
X132700244Y-114522114D01*
X132701771Y-114511689D01*
X132690108Y-114511714D01*
X132668045Y-114523311D01*
X132656898Y-114531467D01*
X132631284Y-114547817D01*
X132614091Y-114551157D01*
X132608483Y-114542313D01*
X132615740Y-114531558D01*
X132635021Y-114511516D01*
X132652187Y-114495621D01*
X132721145Y-114495621D01*
X132726266Y-114500742D01*
X132731387Y-114495621D01*
X132726266Y-114490500D01*
X132721145Y-114495621D01*
X132652187Y-114495621D01*
X132662592Y-114485987D01*
X132671372Y-114478301D01*
X132708529Y-114446126D01*
X132753381Y-114407217D01*
X132798181Y-114368296D01*
X132813466Y-114355001D01*
X132857317Y-114313581D01*
X132904065Y-114264233D01*
X132945394Y-114215862D01*
X132955416Y-114202976D01*
X132985233Y-114164814D01*
X133004953Y-114142913D01*
X133015564Y-114136307D01*
X133018161Y-114141725D01*
X133012939Y-114169793D01*
X132996429Y-114203342D01*
X132967364Y-114244173D01*
X132924477Y-114294089D01*
X132873210Y-114348075D01*
X132834428Y-114387845D01*
X132799813Y-114423729D01*
X132772382Y-114452572D01*
X132755155Y-114471214D01*
X132751871Y-114475017D01*
X132742198Y-114488025D01*
X132747439Y-114487810D01*
X132758512Y-114482131D01*
X132776998Y-114469444D01*
X132804433Y-114447383D01*
X132834920Y-114420691D01*
X132835326Y-114420320D01*
X132868675Y-114390114D01*
X132901479Y-114360841D01*
X132924433Y-114340749D01*
X132965302Y-114300855D01*
X132998240Y-114259450D01*
X133020266Y-114220876D01*
X133028402Y-114189476D01*
X133028403Y-114189169D01*
X133032890Y-114159289D01*
X133042482Y-114136871D01*
X133053177Y-114113885D01*
X133062190Y-114081977D01*
X133063815Y-114073442D01*
X133075312Y-114034347D01*
X133093729Y-114002356D01*
X133115585Y-113982470D01*
X133129978Y-113978403D01*
X133150230Y-113985570D01*
X133166669Y-113998887D01*
X133185332Y-114014292D01*
X133198982Y-114019371D01*
X133210469Y-114011930D01*
X133211723Y-113996421D01*
X133202516Y-113983524D01*
X133193912Y-113969078D01*
X133192274Y-113957315D01*
X133189862Y-113946189D01*
X133179525Y-113940178D01*
X133156614Y-113937775D01*
X133130822Y-113937435D01*
X133096772Y-113936904D01*
X133078388Y-113933954D01*
X133070860Y-113926556D01*
X133069373Y-113912675D01*
X133069371Y-113911490D01*
X133074861Y-113885453D01*
X133089456Y-113850757D01*
X133110335Y-113811824D01*
X133134682Y-113773079D01*
X133159679Y-113738944D01*
X133182507Y-113713843D01*
X133200349Y-113702197D01*
X133202919Y-113701871D01*
X133211956Y-113711581D01*
X133221063Y-113738617D01*
X133229490Y-113779837D01*
X133236490Y-113832099D01*
X133238282Y-113850379D01*
X133244050Y-113907278D01*
X133249655Y-113945986D01*
X133255561Y-113968787D01*
X133262235Y-113977964D01*
X133264333Y-113978403D01*
X133269471Y-113968912D01*
X133272292Y-113943155D01*
X133272904Y-113905206D01*
X133271412Y-113859139D01*
X133267923Y-113809029D01*
X133262543Y-113758949D01*
X133257740Y-113726270D01*
X133249391Y-113674804D01*
X133241117Y-113621226D01*
X133234482Y-113575706D01*
X133233525Y-113568725D01*
X133223284Y-113516356D01*
X133206024Y-113465810D01*
X133179849Y-113413464D01*
X133142866Y-113355693D01*
X133093177Y-113288874D01*
X133075446Y-113266442D01*
X133022976Y-113198835D01*
X132983927Y-113143827D01*
X132957193Y-113099572D01*
X132941671Y-113064225D01*
X132936255Y-113035943D01*
X132936225Y-113033892D01*
X132930513Y-113009954D01*
X132916140Y-112979955D01*
X132908868Y-112968441D01*
X132884830Y-112933352D01*
X132859310Y-112895978D01*
X132853629Y-112887637D01*
X132833194Y-112851695D01*
X132814957Y-112810035D01*
X132809944Y-112795459D01*
X132800903Y-112767302D01*
X132786825Y-112724805D01*
X132769386Y-112672980D01*
X132750268Y-112616838D01*
X132743024Y-112595742D01*
X132724615Y-112541394D01*
X132708259Y-112491496D01*
X132695332Y-112450366D01*
X132687209Y-112422323D01*
X132685501Y-112415189D01*
X132682931Y-112393240D01*
X132690564Y-112382710D01*
X132713448Y-112376699D01*
X132713703Y-112376651D01*
X132743909Y-112367696D01*
X132767988Y-112355272D01*
X132768015Y-112355251D01*
X132777611Y-112346626D01*
X132774908Y-112342120D01*
X132756851Y-112340355D01*
X132734262Y-112340019D01*
X132680806Y-112339693D01*
X132668988Y-112321219D01*
X132870911Y-112321219D01*
X132886153Y-112322716D01*
X132919122Y-112323786D01*
X132968443Y-112324412D01*
X133032740Y-112324577D01*
X133110635Y-112324266D01*
X133200754Y-112323462D01*
X133212758Y-112323327D01*
X133302402Y-112322085D01*
X133387038Y-112320515D01*
X133464141Y-112318694D01*
X133531183Y-112316697D01*
X133585639Y-112314601D01*
X133624982Y-112312483D01*
X133646686Y-112310419D01*
X133648040Y-112310167D01*
X133648590Y-112308234D01*
X133631117Y-112306784D01*
X133598077Y-112305785D01*
X133551925Y-112305210D01*
X133495115Y-112305030D01*
X133430103Y-112305215D01*
X133359344Y-112305736D01*
X133285292Y-112306565D01*
X133210404Y-112307671D01*
X133137134Y-112309028D01*
X133067937Y-112310604D01*
X133005267Y-112312371D01*
X132951581Y-112314301D01*
X132909333Y-112316364D01*
X132880979Y-112318531D01*
X132874774Y-112319311D01*
X132870911Y-112321219D01*
X132668988Y-112321219D01*
X132644780Y-112283375D01*
X132618581Y-112238696D01*
X132594882Y-112191566D01*
X132575709Y-112146774D01*
X132563086Y-112109110D01*
X132559037Y-112083364D01*
X132559260Y-112081048D01*
X132568403Y-112064988D01*
X132592722Y-112051924D01*
X132611044Y-112045947D01*
X132639012Y-112036811D01*
X132656602Y-112029120D01*
X132659693Y-112026289D01*
X132652965Y-112010239D01*
X132635289Y-111984521D01*
X132610425Y-111953720D01*
X132582134Y-111922423D01*
X132554178Y-111895218D01*
X132547419Y-111889372D01*
X132521078Y-111866251D01*
X132502484Y-111847893D01*
X132495822Y-111838609D01*
X132504313Y-111828453D01*
X132527176Y-111811528D01*
X132560494Y-111790295D01*
X132600350Y-111767213D01*
X132642828Y-111744740D01*
X132654572Y-111738933D01*
X132697162Y-111717461D01*
X132745729Y-111691850D01*
X132782596Y-111671631D01*
X132897491Y-111616258D01*
X133028106Y-111569986D01*
X133171375Y-111533756D01*
X133306446Y-111510801D01*
X133386039Y-111495554D01*
X133454791Y-111473074D01*
X133509046Y-111444718D01*
X133531084Y-111427389D01*
X133551870Y-111405019D01*
X133559678Y-111384848D01*
X133558436Y-111358333D01*
X133551225Y-111327938D01*
X133537885Y-111288996D01*
X133525202Y-111258695D01*
X133491208Y-111183975D01*
X133465622Y-111125713D01*
X133447713Y-111082031D01*
X133436750Y-111051056D01*
X133432001Y-111030911D01*
X133432381Y-111020656D01*
X133444374Y-111004957D01*
X133467586Y-110986722D01*
X133477117Y-110980875D01*
X133506141Y-110962393D01*
X133542202Y-110936782D01*
X133571866Y-110914016D01*
X133600416Y-110892333D01*
X133641451Y-110862728D01*
X133690313Y-110828489D01*
X133742342Y-110792907D01*
X133764400Y-110778098D01*
X133824066Y-110737282D01*
X133869820Y-110703297D01*
X133905571Y-110672875D01*
X133935229Y-110642749D01*
X133956436Y-110617621D01*
X133981672Y-110583612D01*
X134000847Y-110553240D01*
X134010861Y-110531589D01*
X134011629Y-110527077D01*
X134004882Y-110498636D01*
X133985614Y-110457389D01*
X133955287Y-110405500D01*
X133915358Y-110345136D01*
X133867289Y-110278461D01*
X133812538Y-110207640D01*
X133752567Y-110134839D01*
X133727565Y-110105788D01*
X133692850Y-110065241D01*
X133656273Y-110021378D01*
X133625180Y-109983022D01*
X133622435Y-109979550D01*
X133593398Y-109942880D01*
X133563846Y-109905856D01*
X133543060Y-109880058D01*
X133524040Y-109854786D01*
X133511991Y-109835220D01*
X133509774Y-109828822D01*
X133517509Y-109814835D01*
X133538348Y-109792150D01*
X133568740Y-109763996D01*
X133605135Y-109733601D01*
X133643981Y-109704193D01*
X133656480Y-109695430D01*
X133692189Y-109668830D01*
X133734744Y-109634042D01*
X133776518Y-109597369D01*
X133788083Y-109586635D01*
X133823966Y-109550923D01*
X133852131Y-109517394D01*
X133877115Y-109479711D01*
X133903455Y-109431535D01*
X133913916Y-109410859D01*
X133936809Y-109363717D01*
X133957374Y-109319018D01*
X133973112Y-109282332D01*
X133980708Y-109261992D01*
X133990677Y-109234202D01*
X133999753Y-109214984D01*
X134001831Y-109212086D01*
X134012170Y-109214900D01*
X134033547Y-109229589D01*
X134062499Y-109253565D01*
X134085391Y-109274466D01*
X134121881Y-109307553D01*
X134163696Y-109343163D01*
X134207570Y-109378784D01*
X134250237Y-109411901D01*
X134288431Y-109440002D01*
X134318887Y-109460574D01*
X134338339Y-109471103D01*
X134342011Y-109471951D01*
X134357602Y-109478253D01*
X134371850Y-109488901D01*
X134379488Y-109498075D01*
X134384747Y-109511737D01*
X134388054Y-109533454D01*
X134389835Y-109566791D01*
X134390518Y-109615312D01*
X134390580Y-109645360D01*
X134391346Y-109705974D01*
X134393430Y-109767880D01*
X134396515Y-109823821D01*
X134400282Y-109866534D01*
X134403899Y-109902746D01*
X134408157Y-109954609D01*
X134412705Y-110017314D01*
X134417197Y-110086052D01*
X134421284Y-110156015D01*
X134421401Y-110158161D01*
X134425420Y-110226279D01*
X134429848Y-110291615D01*
X134434351Y-110349847D01*
X134438590Y-110396652D01*
X134442230Y-110427706D01*
X134442516Y-110429572D01*
X134445569Y-110455836D01*
X134449340Y-110499270D01*
X134453602Y-110556580D01*
X134458123Y-110624475D01*
X134462676Y-110699661D01*
X134467029Y-110778846D01*
X134467505Y-110788040D01*
X134471601Y-110865187D01*
X134475633Y-110936654D01*
X134479419Y-110999600D01*
X134482783Y-111051182D01*
X134485545Y-111088559D01*
X134487525Y-111108888D01*
X134487813Y-111110661D01*
X134489571Y-111127617D01*
X134491907Y-111161989D01*
X134494656Y-111210725D01*
X134497656Y-111270769D01*
X134500744Y-111339069D01*
X134503298Y-111400869D01*
X134506859Y-111485295D01*
X134510212Y-111551390D01*
X134513553Y-111601303D01*
X134517080Y-111637183D01*
X134520991Y-111661179D01*
X134525482Y-111675440D01*
X134528988Y-111680693D01*
X134539062Y-111701101D01*
X134544039Y-111732448D01*
X134544209Y-111739486D01*
X134539426Y-111774334D01*
X134522940Y-111802185D01*
X134491552Y-111827097D01*
X134462274Y-111843315D01*
X134418382Y-111872832D01*
X134369998Y-111918024D01*
X134320088Y-111975489D01*
X134271619Y-112041824D01*
X134229270Y-112110563D01*
X134205080Y-112154409D01*
X134185077Y-112192141D01*
X134171186Y-112220021D01*
X134165329Y-112234311D01*
X134165258Y-112234931D01*
X134161797Y-112243556D01*
X134149688Y-112250154D01*
X134126338Y-112255172D01*
X134089157Y-112259055D01*
X134035553Y-112262250D01*
X133996874Y-112263926D01*
X133930164Y-112267379D01*
X133867940Y-112272091D01*
X133813270Y-112277686D01*
X133769224Y-112283789D01*
X133738875Y-112290024D01*
X133725290Y-112296017D01*
X133724854Y-112297194D01*
X133734638Y-112299474D01*
X133762169Y-112301210D01*
X133804719Y-112302430D01*
X133859562Y-112303165D01*
X133923967Y-112303444D01*
X133995209Y-112303296D01*
X134070557Y-112302750D01*
X134147285Y-112301837D01*
X134222664Y-112300584D01*
X134293966Y-112299023D01*
X134358464Y-112297182D01*
X134413428Y-112295091D01*
X134456131Y-112292779D01*
X134483845Y-112290275D01*
X134491333Y-112288932D01*
X134527253Y-112273987D01*
X134563002Y-112251196D01*
X134572215Y-112243466D01*
X134594311Y-112220496D01*
X134606309Y-112197888D01*
X134612224Y-112166785D01*
X134613609Y-112152129D01*
X134614012Y-112114875D01*
X134610888Y-112066292D01*
X134604877Y-112015108D01*
X134602410Y-111999373D01*
X134594815Y-111946197D01*
X134587772Y-111882714D01*
X134582342Y-111819093D01*
X134580534Y-111789835D01*
X134577106Y-111736713D01*
X134572562Y-111684947D01*
X134567587Y-111641681D01*
X134564323Y-111620843D01*
X134557247Y-111575749D01*
X134549587Y-111513115D01*
X134541568Y-111435867D01*
X134533414Y-111346934D01*
X134525352Y-111249242D01*
X134517605Y-111145720D01*
X134510399Y-111039294D01*
X134503959Y-110932893D01*
X134498509Y-110829443D01*
X134494276Y-110731872D01*
X134492830Y-110690742D01*
X134489704Y-110598745D01*
X134486169Y-110503235D01*
X134482417Y-110408832D01*
X134478639Y-110320156D01*
X134475026Y-110241828D01*
X134471769Y-110178468D01*
X134471201Y-110168403D01*
X134465908Y-110069413D01*
X134461303Y-109969353D01*
X134457454Y-109870927D01*
X134454426Y-109776835D01*
X134452287Y-109689782D01*
X134451104Y-109612468D01*
X134450943Y-109547596D01*
X134451871Y-109497869D01*
X134453855Y-109466830D01*
X134456449Y-109415749D01*
X134454863Y-109351970D01*
X134449721Y-109282708D01*
X134441646Y-109215177D01*
X134431262Y-109156592D01*
X134424794Y-109130798D01*
X134402790Y-109077289D01*
X134377243Y-109045878D01*
X134364041Y-109035416D01*
X134351183Y-109028523D01*
X134334549Y-109024713D01*
X134310020Y-109023500D01*
X134273477Y-109024401D01*
X134220800Y-109026928D01*
X134217738Y-109027085D01*
X134163676Y-109030819D01*
X134112830Y-109036046D01*
X134071009Y-109042063D01*
X134044557Y-109047993D01*
X133992921Y-109060033D01*
X133944729Y-109059514D01*
X133893281Y-109045748D01*
X133852590Y-109028266D01*
X133780057Y-108997182D01*
X133691935Y-108965211D01*
X133592957Y-108934030D01*
X133558566Y-108924156D01*
X133521303Y-108910193D01*
X133476350Y-108888289D01*
X133432428Y-108862764D01*
X133425421Y-108858196D01*
X133385353Y-108832014D01*
X133336030Y-108800496D01*
X133281655Y-108766253D01*
X133226431Y-108731895D01*
X133174564Y-108700034D01*
X133130256Y-108673280D01*
X133097713Y-108654244D01*
X133090946Y-108650469D01*
X133058978Y-108632979D01*
X133085653Y-108563413D01*
X133117180Y-108480903D01*
X133142123Y-108414820D01*
X133161395Y-108362525D01*
X133175908Y-108321382D01*
X133186575Y-108288754D01*
X133194309Y-108262005D01*
X133200022Y-108238496D01*
X133202899Y-108224651D01*
X133209324Y-108187053D01*
X133210121Y-108160969D01*
X133204800Y-108138086D01*
X133196588Y-108118227D01*
X133177869Y-108089869D01*
X133152332Y-108066932D01*
X133125545Y-108053109D01*
X133103076Y-108052096D01*
X133099513Y-108053804D01*
X133086344Y-108054550D01*
X133058224Y-108052384D01*
X133020361Y-108048034D01*
X132977961Y-108042227D01*
X132936231Y-108035692D01*
X132900379Y-108029158D01*
X132875610Y-108023353D01*
X132871074Y-108021846D01*
X132855157Y-108007323D01*
X132842878Y-107976493D01*
X132833793Y-107927871D01*
X132829003Y-107881291D01*
X132824304Y-107832051D01*
X132817646Y-107795821D01*
X132806283Y-107766076D01*
X132787466Y-107736289D01*
X132758449Y-107699935D01*
X132746865Y-107686209D01*
X132711757Y-107646441D01*
X132682175Y-107619043D01*
X132652843Y-107601729D01*
X132618485Y-107592214D01*
X132573825Y-107588212D01*
X132518829Y-107587435D01*
X132407674Y-107587435D01*
X132375053Y-107508060D01*
X132352865Y-107462513D01*
X132323728Y-107414684D01*
X132290420Y-107367956D01*
X132255720Y-107325710D01*
X132222407Y-107291329D01*
X132193260Y-107268196D01*
X132171058Y-107259693D01*
X132170998Y-107259693D01*
X132150151Y-107263383D01*
X132116175Y-107273277D01*
X132074811Y-107287608D01*
X132052681Y-107296073D01*
X131994122Y-107316682D01*
X131950111Y-107325931D01*
X131918267Y-107323994D01*
X131896211Y-107311044D01*
X131893202Y-107307684D01*
X131884450Y-107288552D01*
X131875044Y-107254256D01*
X131866040Y-107210046D01*
X131858494Y-107161170D01*
X131853461Y-107112878D01*
X131853160Y-107108625D01*
X131848832Y-107044613D01*
X131897695Y-107044613D01*
X131938076Y-107038708D01*
X131970450Y-107022975D01*
X131990114Y-107000380D01*
X131993857Y-106983936D01*
X131987126Y-106968797D01*
X131970286Y-106945778D01*
X131948172Y-106920256D01*
X131925621Y-106897605D01*
X131907469Y-106883201D01*
X131901020Y-106880742D01*
X131891370Y-106874651D01*
X131896392Y-106857984D01*
X131914914Y-106833144D01*
X131933708Y-106813687D01*
X131968453Y-106776345D01*
X131988986Y-106741720D01*
X131997501Y-106703239D01*
X131996192Y-106654328D01*
X131993825Y-106633572D01*
X131985685Y-106582031D01*
X131974444Y-106526801D01*
X131961518Y-106473623D01*
X131948323Y-106428238D01*
X131936274Y-106396385D01*
X131934366Y-106392586D01*
X131926036Y-106364392D01*
X131921940Y-106323645D01*
X131922254Y-106277873D01*
X131927156Y-106234601D01*
X131930320Y-106220137D01*
X131943472Y-106155490D01*
X131948835Y-106095619D01*
X131946268Y-106045284D01*
X131936516Y-106010954D01*
X131925125Y-105979403D01*
X131926552Y-105948594D01*
X131929071Y-105938131D01*
X131933904Y-105900871D01*
X131929980Y-105875903D01*
X131925200Y-105854787D01*
X131920345Y-105819534D01*
X131916226Y-105776473D01*
X131915015Y-105759250D01*
X131910848Y-105714340D01*
X131904753Y-105674308D01*
X131897814Y-105645739D01*
X131895261Y-105639415D01*
X131887787Y-105612760D01*
X131883175Y-105567634D01*
X131881346Y-105503192D01*
X131881306Y-105490111D01*
X131876244Y-105390622D01*
X131860884Y-105307863D01*
X131834969Y-105240710D01*
X131817238Y-105211588D01*
X131804165Y-105185354D01*
X131801000Y-105161901D01*
X131806515Y-105145710D01*
X131819480Y-105141262D01*
X131834373Y-105149153D01*
X131847845Y-105153295D01*
X131869983Y-105147549D01*
X131901595Y-105132648D01*
X131937531Y-105112098D01*
X131956276Y-105095120D01*
X131959907Y-105078334D01*
X131950501Y-105058364D01*
X131948792Y-105055873D01*
X131940182Y-105035597D01*
X131934584Y-105007689D01*
X131932446Y-104978844D01*
X131934222Y-104955761D01*
X131940361Y-104945136D01*
X131941328Y-104945016D01*
X131954529Y-104950335D01*
X131977386Y-104963726D01*
X131987872Y-104970621D01*
X132019903Y-104989722D01*
X132042036Y-104995312D01*
X132058943Y-104988275D01*
X132062750Y-104984797D01*
X132080600Y-104971460D01*
X132098085Y-104961516D01*
X132119028Y-104940874D01*
X132124819Y-104909072D01*
X132115220Y-104868991D01*
X132107177Y-104851591D01*
X132095453Y-104826968D01*
X132092402Y-104808651D01*
X132099320Y-104790012D01*
X132117506Y-104764424D01*
X132126473Y-104752980D01*
X132155002Y-104726741D01*
X132183041Y-104720889D01*
X132208242Y-104733534D01*
X132234939Y-104751774D01*
X132271416Y-104771398D01*
X132308280Y-104787720D01*
X132332226Y-104795359D01*
X132359238Y-104807445D01*
X132392160Y-104830813D01*
X132424838Y-104860193D01*
X132451118Y-104890313D01*
X132460655Y-104905361D01*
X132471413Y-104946728D01*
X132469917Y-104968621D01*
X132469903Y-105001204D01*
X132484946Y-105028940D01*
X132508035Y-105051952D01*
X132543627Y-105080326D01*
X132586024Y-105110032D01*
X132629524Y-105137040D01*
X132662989Y-105154808D01*
X132693930Y-105174753D01*
X132724898Y-105202669D01*
X132734221Y-105213301D01*
X132771601Y-105248185D01*
X132823601Y-105280034D01*
X132833344Y-105284783D01*
X132888833Y-105312718D01*
X132928130Y-105337588D01*
X132954613Y-105362367D01*
X132971665Y-105390029D01*
X132980156Y-105413951D01*
X132989832Y-105442346D01*
X133002844Y-105461331D01*
X133024947Y-105477234D01*
X133049492Y-105490214D01*
X133087916Y-105507869D01*
X133126406Y-105522991D01*
X133146185Y-105529339D01*
X133206276Y-105548547D01*
X133268285Y-105573200D01*
X133324752Y-105600069D01*
X133366387Y-105624651D01*
X133388258Y-105638943D01*
X133407582Y-105648214D01*
X133429725Y-105653617D01*
X133460055Y-105656304D01*
X133503940Y-105657428D01*
X133520016Y-105657627D01*
X133583746Y-105659942D01*
X133630403Y-105665504D01*
X133663198Y-105674711D01*
X133665634Y-105675757D01*
X133699417Y-105687039D01*
X133732435Y-105692565D01*
X133736456Y-105692677D01*
X133770105Y-105687487D01*
X133814712Y-105673663D01*
X133864117Y-105653821D01*
X133912162Y-105630579D01*
X133952689Y-105606555D01*
X133970314Y-105593299D01*
X134001559Y-105563471D01*
X134023476Y-105533499D01*
X134036577Y-105500005D01*
X134041374Y-105459610D01*
X134038380Y-105408934D01*
X134028108Y-105344598D01*
X134016565Y-105288260D01*
X134006985Y-105240966D01*
X134000062Y-105200828D01*
X133996456Y-105172141D01*
X133996776Y-105159271D01*
X134009083Y-105148772D01*
X134032396Y-105134521D01*
X134040489Y-105130221D01*
X134084405Y-105101376D01*
X134117797Y-105063220D01*
X134145004Y-105011588D01*
X134151311Y-104995817D01*
X134156369Y-104979251D01*
X134160368Y-104959370D01*
X134163499Y-104933656D01*
X134165952Y-104899590D01*
X134167918Y-104854653D01*
X134169586Y-104796326D01*
X134171147Y-104722091D01*
X134172474Y-104648000D01*
X134173648Y-104481213D01*
X134170918Y-104331587D01*
X134164010Y-104196124D01*
X134152649Y-104071827D01*
X134136563Y-103955697D01*
X134115478Y-103844735D01*
X134089259Y-103736467D01*
X134077325Y-103691608D01*
X134066820Y-103651727D01*
X134059276Y-103622660D01*
X134056985Y-103613564D01*
X134027810Y-103507137D01*
X133993579Y-103403672D01*
X133957131Y-103311717D01*
X133955360Y-103307709D01*
X133942255Y-103278344D01*
X133929736Y-103250755D01*
X133916773Y-103222855D01*
X133902337Y-103192554D01*
X133885395Y-103157766D01*
X133864917Y-103116401D01*
X133839873Y-103066373D01*
X133809232Y-103005592D01*
X133771963Y-102931970D01*
X133727035Y-102843420D01*
X133696441Y-102783177D01*
X133661638Y-102713703D01*
X133629734Y-102648197D01*
X133602008Y-102589428D01*
X133579738Y-102540167D01*
X133564203Y-102503183D01*
X133556681Y-102481246D01*
X133556362Y-102479667D01*
X133555520Y-102447799D01*
X133562722Y-102406441D01*
X133578534Y-102353912D01*
X133603517Y-102288530D01*
X133638237Y-102208613D01*
X133670427Y-102139343D01*
X133700952Y-102075187D01*
X133724541Y-102026274D01*
X133742953Y-101989303D01*
X133757949Y-101960972D01*
X133771291Y-101937977D01*
X133784738Y-101917019D01*
X133800051Y-101894793D01*
X133803190Y-101890335D01*
X133827176Y-101852398D01*
X133836227Y-101827263D01*
X133830517Y-101813900D01*
X133816523Y-101810983D01*
X133793778Y-101814673D01*
X133766788Y-101826847D01*
X133732998Y-101849161D01*
X133689848Y-101883271D01*
X133643813Y-101922857D01*
X133584635Y-101973767D01*
X133533897Y-102014309D01*
X133485768Y-102048811D01*
X133434421Y-102081603D01*
X133411836Y-102095115D01*
X133368614Y-102118091D01*
X133321350Y-102139232D01*
X133275906Y-102156275D01*
X133238143Y-102166962D01*
X133219072Y-102169451D01*
X133201634Y-102166881D01*
X133168236Y-102159761D01*
X133122668Y-102148982D01*
X133068717Y-102135430D01*
X133024409Y-102123814D01*
X132974962Y-102110724D01*
X132928367Y-102098665D01*
X132881967Y-102087020D01*
X132833104Y-102075169D01*
X132779122Y-102062495D01*
X132717362Y-102048378D01*
X132645167Y-102032201D01*
X132559881Y-102013346D01*
X132458845Y-101991193D01*
X132388282Y-101975783D01*
X132203202Y-101938642D01*
X132025731Y-101909472D01*
X131857803Y-101888447D01*
X131701348Y-101875742D01*
X131558298Y-101871533D01*
X131430586Y-101875993D01*
X131362269Y-101882885D01*
X131290530Y-101894526D01*
X131206529Y-101911855D01*
X131115575Y-101933459D01*
X131022974Y-101957928D01*
X130934033Y-101983851D01*
X130854058Y-102009815D01*
X130788358Y-102034410D01*
X130781170Y-102037422D01*
X130744593Y-102052585D01*
X130720016Y-102060417D01*
X130700620Y-102061680D01*
X130679588Y-102057138D01*
X130660335Y-102050944D01*
X130622590Y-102041396D01*
X130590716Y-102041474D01*
X130562398Y-102052956D01*
X130535321Y-102077624D01*
X130507173Y-102117257D01*
X130475638Y-102173634D01*
X130459482Y-102205431D01*
X130435258Y-102252615D01*
X130414712Y-102287137D01*
X130393100Y-102315007D01*
X130365678Y-102342235D01*
X130327702Y-102374830D01*
X130322021Y-102379544D01*
X130242981Y-102449212D01*
X130180474Y-102514531D01*
X130132080Y-102578922D01*
X130095380Y-102645808D01*
X130067954Y-102718611D01*
X130058470Y-102752355D01*
X130051588Y-102779854D01*
X130047367Y-102803162D01*
X130047046Y-102824445D01*
X130051864Y-102845872D01*
X130063063Y-102869607D01*
X130081881Y-102897819D01*
X130109559Y-102932674D01*
X130147336Y-102976339D01*
X130196453Y-103030980D01*
X130254221Y-103094454D01*
X130287840Y-103136114D01*
X130322348Y-103186548D01*
X130350835Y-103235587D01*
X130352942Y-103239733D01*
X130376400Y-103284811D01*
X130396278Y-103316374D01*
X130417272Y-103339646D01*
X130444079Y-103359848D01*
X130480721Y-103381819D01*
X130512205Y-103402267D01*
X130526264Y-103420661D01*
X130524564Y-103442364D01*
X130508925Y-103472490D01*
X130494657Y-103507302D01*
X130488457Y-103545562D01*
X130488441Y-103547175D01*
X130483815Y-103575724D01*
X130472084Y-103607828D01*
X130456394Y-103637392D01*
X130439896Y-103658322D01*
X130427678Y-103664774D01*
X130414720Y-103672429D01*
X130411796Y-103690075D01*
X130419110Y-103709727D01*
X130426325Y-103717535D01*
X130434465Y-103725478D01*
X130440199Y-103736214D01*
X130443945Y-103753137D01*
X130446121Y-103779641D01*
X130447143Y-103819123D01*
X130447429Y-103874975D01*
X130447435Y-103889178D01*
X130447568Y-103948425D01*
X130448234Y-103990222D01*
X130449837Y-104017604D01*
X130452777Y-104033605D01*
X130457457Y-104041258D01*
X130464280Y-104043598D01*
X130467919Y-104043725D01*
X130485113Y-104036413D01*
X130488403Y-104023846D01*
X130492622Y-104002846D01*
X130504333Y-104000012D01*
X130522114Y-104015069D01*
X130535383Y-104032994D01*
X130549569Y-104057695D01*
X130558665Y-104083909D01*
X130564252Y-104118048D01*
X130567782Y-104164142D01*
X130569696Y-104210268D01*
X130568607Y-104242261D01*
X130563721Y-104266352D01*
X130554242Y-104288772D01*
X130551140Y-104294699D01*
X130535877Y-104325135D01*
X130530757Y-104344568D01*
X130535461Y-104359606D01*
X130547294Y-104374254D01*
X130554626Y-104385553D01*
X130560082Y-104403102D01*
X130564111Y-104430234D01*
X130567163Y-104470281D01*
X130569687Y-104526578D01*
X130570338Y-104545041D01*
X130573143Y-104605488D01*
X130576953Y-104655051D01*
X130581459Y-104690680D01*
X130586351Y-104709322D01*
X130587079Y-104710439D01*
X130596937Y-104730027D01*
X130605230Y-104758261D01*
X130605719Y-104760661D01*
X130618528Y-104813680D01*
X130636254Y-104870052D01*
X130657338Y-104926369D01*
X130680220Y-104979223D01*
X130703342Y-105025206D01*
X130725145Y-105060908D01*
X130744072Y-105082923D01*
X130755610Y-105088403D01*
X130766524Y-105080105D01*
X130777228Y-105062386D01*
X130788742Y-105044572D01*
X130805394Y-105040663D01*
X130820537Y-105043152D01*
X130848844Y-105051799D01*
X130881087Y-105065173D01*
X130910278Y-105079958D01*
X130929429Y-105092838D01*
X130932460Y-105096270D01*
X130926761Y-105104699D01*
X130906929Y-105118727D01*
X130879384Y-105134186D01*
X130830338Y-105160243D01*
X130797244Y-105180675D01*
X130777229Y-105197932D01*
X130767419Y-105214463D01*
X130764935Y-105231708D01*
X130762299Y-105249505D01*
X130752652Y-105266473D01*
X130733382Y-105284973D01*
X130701880Y-105307366D01*
X130655534Y-105336011D01*
X130638293Y-105346207D01*
X130595506Y-105372557D01*
X130551484Y-105401591D01*
X130516504Y-105426479D01*
X130485551Y-105448979D01*
X130458105Y-105467346D01*
X130443428Y-105475860D01*
X130425330Y-105484412D01*
X130393640Y-105499218D01*
X130353364Y-105517942D01*
X130322786Y-105532112D01*
X130273686Y-105555967D01*
X130239148Y-105576044D01*
X130214478Y-105595556D01*
X130194983Y-105617714D01*
X130192201Y-105621485D01*
X130170635Y-105654281D01*
X130162388Y-105678141D01*
X130166788Y-105699089D01*
X130181145Y-105720608D01*
X130197418Y-105755269D01*
X130201629Y-105795640D01*
X130203410Y-105836883D01*
X130210441Y-105863576D01*
X130225250Y-105881474D01*
X130244617Y-105893440D01*
X130269249Y-105914856D01*
X130292865Y-105949734D01*
X130311956Y-105991208D01*
X130323011Y-106032409D01*
X130324432Y-106049597D01*
X130323360Y-106068569D01*
X130319121Y-106087779D01*
X130310349Y-106109404D01*
X130295677Y-106135623D01*
X130273741Y-106168612D01*
X130243175Y-106210549D01*
X130202614Y-106263612D01*
X130150691Y-106329978D01*
X130140399Y-106343040D01*
X130096244Y-106399078D01*
X130055213Y-106451221D01*
X130019375Y-106496835D01*
X129990800Y-106533283D01*
X129971557Y-106557930D01*
X129965205Y-106566150D01*
X129943446Y-106594663D01*
X129895864Y-106566656D01*
X129835919Y-106532592D01*
X129789674Y-106511002D01*
X129753965Y-106502982D01*
X129725631Y-106509626D01*
X129701506Y-106532029D01*
X129678427Y-106571285D01*
X129653231Y-106628489D01*
X129642824Y-106654211D01*
X129623783Y-106698576D01*
X129604272Y-106738717D01*
X129587271Y-106768710D01*
X129580276Y-106778493D01*
X129560044Y-106807832D01*
X129545107Y-106838356D01*
X129544877Y-106839007D01*
X129532177Y-106861632D01*
X129512575Y-106869921D01*
X129482401Y-106864613D01*
X129459881Y-106856128D01*
X129438459Y-106843718D01*
X129422772Y-106824548D01*
X129410501Y-106794291D01*
X129399328Y-106748619D01*
X129397519Y-106739751D01*
X129395975Y-106717342D01*
X129401804Y-106692594D01*
X129416757Y-106659655D01*
X129427513Y-106639540D01*
X129452558Y-106586934D01*
X129462969Y-106545664D01*
X129459157Y-106513166D01*
X129450440Y-106497116D01*
X129430836Y-106484994D01*
X129404298Y-106488243D01*
X129373996Y-106504417D01*
X129343100Y-106531067D01*
X129314782Y-106565749D01*
X129292211Y-106606013D01*
X129284917Y-106624868D01*
X129271820Y-106690377D01*
X128952113Y-106690377D01*
X128952113Y-101647113D01*
X134953887Y-101647113D01*
G37*
G36*
X130478828Y-102836514D02*
G01*
X130485265Y-102865007D01*
X130487833Y-102912888D01*
X130487899Y-102927354D01*
X130487358Y-102966028D01*
X130484216Y-102992701D01*
X130475850Y-103014575D01*
X130459636Y-103038855D01*
X130436591Y-103068181D01*
X130411012Y-103098218D01*
X130388840Y-103120696D01*
X130374032Y-103131696D01*
X130371952Y-103132193D01*
X130355366Y-103125184D01*
X130340265Y-103112119D01*
X130327673Y-103089071D01*
X130328475Y-103058073D01*
X130328665Y-103057042D01*
X130336803Y-103033688D01*
X130353346Y-102998568D01*
X130375328Y-102956956D01*
X130399785Y-102914125D01*
X130423751Y-102875350D01*
X130444262Y-102845903D01*
X130453406Y-102835177D01*
X130468287Y-102826780D01*
X130478828Y-102836514D01*
G37*
G36*
X133457897Y-104817997D02*
G01*
X133487836Y-104838575D01*
X133521731Y-104873016D01*
X133538001Y-104893075D01*
X133559578Y-104926164D01*
X133565213Y-104946981D01*
X133555947Y-104954707D01*
X133532820Y-104948524D01*
X133496872Y-104927614D01*
X133495376Y-104926593D01*
X133469623Y-104904366D01*
X133447893Y-104877645D01*
X133432576Y-104850885D01*
X133426060Y-104828542D01*
X133430736Y-104815071D01*
X133434688Y-104813424D01*
X133457897Y-104817997D01*
G37*
G36*
X131086000Y-105096186D02*
G01*
X131082465Y-105107880D01*
X131068083Y-105132677D01*
X131044937Y-105167799D01*
X131015115Y-105210465D01*
X130980701Y-105257895D01*
X130943780Y-105307308D01*
X130906438Y-105355924D01*
X130870760Y-105400963D01*
X130838832Y-105439644D01*
X130812739Y-105469189D01*
X130794566Y-105486815D01*
X130791191Y-105489230D01*
X130757494Y-105507413D01*
X130718907Y-105524455D01*
X130679771Y-105538959D01*
X130644427Y-105549525D01*
X130617220Y-105554755D01*
X130602490Y-105553250D01*
X130601064Y-105550464D01*
X130608748Y-105538522D01*
X130628431Y-105520193D01*
X130644592Y-105507692D01*
X130682667Y-105477506D01*
X130725986Y-105439012D01*
X130770228Y-105396502D01*
X130811072Y-105354266D01*
X130844195Y-105316595D01*
X130864084Y-105289743D01*
X130905630Y-105230436D01*
X130951175Y-105177989D01*
X130996639Y-105136682D01*
X131031820Y-105113706D01*
X131059927Y-105101124D01*
X131079917Y-105095271D01*
X131086000Y-105096186D01*
G37*
G36*
X130720195Y-102687627D02*
G01*
X130742378Y-102703646D01*
X130771015Y-102726280D01*
X130774140Y-102728847D01*
X130838566Y-102775207D01*
X130902452Y-102805578D01*
X130973064Y-102822908D01*
X131018510Y-102828036D01*
X131078065Y-102834725D01*
X131118507Y-102844016D01*
X131139545Y-102855689D01*
X131140889Y-102869524D01*
X131122247Y-102885302D01*
X131105479Y-102893789D01*
X131079597Y-102908347D01*
X131044519Y-102931848D01*
X131006632Y-102959939D01*
X130995379Y-102968847D01*
X130949294Y-103005020D01*
X130915169Y-103029265D01*
X130889865Y-103043496D01*
X130870245Y-103049628D01*
X130862006Y-103050258D01*
X130846816Y-103043487D01*
X130822357Y-103025615D01*
X130793559Y-103000304D01*
X130789578Y-102996488D01*
X130757805Y-102963330D01*
X130738260Y-102935550D01*
X130726664Y-102906398D01*
X130723000Y-102891508D01*
X130716768Y-102856241D01*
X130711540Y-102814869D01*
X130707635Y-102772181D01*
X130705372Y-102732965D01*
X130705069Y-102702012D01*
X130707044Y-102684110D01*
X130709044Y-102681548D01*
X130720195Y-102687627D01*
G37*
G36*
X129570471Y-112005051D02*
G01*
X129602855Y-112024956D01*
X129643866Y-112048305D01*
X129688720Y-112072596D01*
X129732636Y-112095322D01*
X129770831Y-112113981D01*
X129798522Y-112126069D01*
X129806959Y-112128872D01*
X129836199Y-112138064D01*
X129870666Y-112151488D01*
X129878652Y-112154987D01*
X129922566Y-112173795D01*
X129961754Y-112187619D01*
X130000975Y-112197308D01*
X130044988Y-112203712D01*
X130098551Y-112207681D01*
X130166424Y-112210064D01*
X130189984Y-112210591D01*
X130360379Y-112214091D01*
X130363461Y-112284359D01*
X130364753Y-112325920D01*
X130363028Y-112358112D01*
X130356020Y-112382133D01*
X130341463Y-112399178D01*
X130317091Y-112410443D01*
X130280638Y-112417125D01*
X130229838Y-112420418D01*
X130162426Y-112421521D01*
X130103403Y-112421629D01*
X129916056Y-112421629D01*
X129884211Y-112361882D01*
X129844789Y-112296408D01*
X129803662Y-112246783D01*
X129756780Y-112208505D01*
X129733152Y-112194023D01*
X129697483Y-112171037D01*
X129657975Y-112141087D01*
X129618842Y-112107923D01*
X129584299Y-112075294D01*
X129558561Y-112046950D01*
X129546225Y-112027732D01*
X129541695Y-112004616D01*
X129550249Y-111996703D01*
X129570471Y-112005051D01*
G37*
G36*
X132168757Y-103825873D02*
G01*
X132177235Y-103847744D01*
X132178322Y-103864841D01*
X132171784Y-103902233D01*
X132152205Y-103955256D01*
X132119640Y-104023793D01*
X132074144Y-104107724D01*
X132039092Y-104168069D01*
X132011257Y-104215168D01*
X131985743Y-104258664D01*
X131965146Y-104294111D01*
X131952059Y-104317067D01*
X131950915Y-104319138D01*
X131932203Y-104341493D01*
X131910836Y-104351018D01*
X131892446Y-104346309D01*
X131884985Y-104335555D01*
X131886992Y-104321128D01*
X131896511Y-104291420D01*
X131912204Y-104249621D01*
X131932728Y-104198922D01*
X131956745Y-104142513D01*
X131982914Y-104083587D01*
X132009895Y-104025332D01*
X132036347Y-103970940D01*
X132046661Y-103950628D01*
X132076952Y-103897561D01*
X132105734Y-103857623D01*
X132131580Y-103831742D01*
X132153063Y-103820849D01*
X132168757Y-103825873D01*
G37*
G36*
X132336887Y-104597725D02*
G01*
X132340594Y-104603466D01*
X132339012Y-104618414D01*
X132332137Y-104646969D01*
X132327859Y-104663363D01*
X132314368Y-104699298D01*
X132296550Y-104716471D01*
X132272313Y-104716479D01*
X132262818Y-104713100D01*
X132252007Y-104699593D01*
X132250016Y-104688470D01*
X132256736Y-104668938D01*
X132273391Y-104643852D01*
X132294717Y-104619407D01*
X132315454Y-104601797D01*
X132327891Y-104596790D01*
X132336887Y-104597725D01*
G37*
G36*
X132534093Y-104389246D02*
G01*
X132587351Y-104404581D01*
X132631260Y-104437747D01*
X132661227Y-104481327D01*
X132682995Y-104522384D01*
X132707347Y-104565651D01*
X132718066Y-104583746D01*
X132739695Y-104623445D01*
X132759863Y-104666984D01*
X132766551Y-104683846D01*
X132782265Y-104721100D01*
X132800688Y-104749533D01*
X132826159Y-104773434D01*
X132863016Y-104797092D01*
X132902403Y-104818105D01*
X132980632Y-104864542D01*
X133041492Y-104915823D01*
X133087989Y-104974687D01*
X133103438Y-105001346D01*
X133141308Y-105055176D01*
X133188007Y-105092995D01*
X133240734Y-105113760D01*
X133296690Y-105116424D01*
X133353077Y-105099941D01*
X133359237Y-105096888D01*
X133391434Y-105080371D01*
X133420413Y-105065723D01*
X133427838Y-105062034D01*
X133449200Y-105044535D01*
X133468743Y-105017740D01*
X133471447Y-105012581D01*
X133488601Y-104984507D01*
X133503199Y-104976300D01*
X133514895Y-104985983D01*
X133529967Y-104993846D01*
X133556092Y-104995954D01*
X133584780Y-104992695D01*
X133607541Y-104984455D01*
X133611387Y-104981593D01*
X133623474Y-104973951D01*
X133638868Y-104974136D01*
X133663853Y-104982792D01*
X133676888Y-104988315D01*
X133726221Y-105009670D01*
X133779308Y-104988573D01*
X133816264Y-104975273D01*
X133851407Y-104964839D01*
X133866212Y-104961517D01*
X133892015Y-104953965D01*
X133928379Y-104939642D01*
X133967843Y-104921511D01*
X133971441Y-104919718D01*
X134023437Y-104896937D01*
X134068275Y-104883696D01*
X134103226Y-104880340D01*
X134125563Y-104887218D01*
X134132392Y-104899262D01*
X134129421Y-104924215D01*
X134117336Y-104959819D01*
X134098953Y-105000073D01*
X134077087Y-105038976D01*
X134054556Y-105070528D01*
X134049235Y-105076474D01*
X134022277Y-105101401D01*
X133994861Y-105121700D01*
X133987971Y-105125704D01*
X133956829Y-105137907D01*
X133911612Y-105150610D01*
X133858646Y-105162505D01*
X133804259Y-105172281D01*
X133754778Y-105178629D01*
X133723822Y-105180359D01*
X133654746Y-105187116D01*
X133597220Y-105207737D01*
X133566104Y-105227486D01*
X133520676Y-105252831D01*
X133460769Y-105273844D01*
X133392115Y-105289524D01*
X133320446Y-105298868D01*
X133251495Y-105300874D01*
X133190994Y-105294539D01*
X133187153Y-105293743D01*
X133097457Y-105266769D01*
X133019177Y-105227708D01*
X132954934Y-105178166D01*
X132909758Y-105123593D01*
X132883998Y-105090035D01*
X132848323Y-105052051D01*
X132809638Y-105016903D01*
X132803956Y-105012287D01*
X132763073Y-104977446D01*
X132725147Y-104941134D01*
X132693273Y-104906739D01*
X132670543Y-104877648D01*
X132660052Y-104857247D01*
X132659693Y-104854344D01*
X132667964Y-104843932D01*
X132675056Y-104842596D01*
X132687625Y-104839023D01*
X132687649Y-104827209D01*
X132674333Y-104805511D01*
X132646882Y-104772289D01*
X132634088Y-104757966D01*
X132607888Y-104727394D01*
X132588176Y-104701308D01*
X132578303Y-104684245D01*
X132577758Y-104681695D01*
X132570888Y-104667298D01*
X132553158Y-104644826D01*
X132535771Y-104626517D01*
X132512028Y-104601948D01*
X132500422Y-104583805D01*
X132497894Y-104564776D01*
X132500601Y-104542426D01*
X132505012Y-104505927D01*
X132508392Y-104462555D01*
X132509301Y-104443161D01*
X132511122Y-104410933D01*
X132515245Y-104394457D01*
X132523848Y-104389001D01*
X132534093Y-104389246D01*
G37*
G36*
X130649012Y-114422372D02*
G01*
X130650643Y-114436184D01*
X130646179Y-114464553D01*
X130636963Y-114503250D01*
X130624336Y-114548048D01*
X130609639Y-114594721D01*
X130594213Y-114639039D01*
X130579401Y-114676776D01*
X130566542Y-114703705D01*
X130556979Y-114715597D01*
X130555902Y-114715822D01*
X130547469Y-114707983D01*
X130539973Y-114696012D01*
X130531501Y-114669801D01*
X130529371Y-114650279D01*
X130522890Y-114627957D01*
X130506710Y-114600799D01*
X130485722Y-114575025D01*
X130464821Y-114556852D01*
X130452004Y-114551951D01*
X130436048Y-114559941D01*
X130428228Y-114569789D01*
X130417564Y-114581560D01*
X130411877Y-114581259D01*
X130415531Y-114571547D01*
X130430793Y-114551180D01*
X130454726Y-114523931D01*
X130464879Y-114513183D01*
X130500964Y-114478173D01*
X130531862Y-114455188D01*
X130564368Y-114439634D01*
X130583016Y-114433310D01*
X130615345Y-114424772D01*
X130639542Y-114421069D01*
X130649012Y-114422372D01*
G37*
G36*
X131353331Y-102803720D02*
G01*
X131396137Y-102821227D01*
X131451768Y-102850113D01*
X131487006Y-102877608D01*
X131501833Y-102903697D01*
X131502354Y-102909393D01*
X131495711Y-102928396D01*
X131478311Y-102956082D01*
X131453948Y-102988025D01*
X131426419Y-103019796D01*
X131399518Y-103046966D01*
X131377039Y-103065106D01*
X131364606Y-103070139D01*
X131342887Y-103064240D01*
X131315039Y-103050332D01*
X131307758Y-103045749D01*
X131261887Y-103009745D01*
X131232836Y-102972377D01*
X131217598Y-102931272D01*
X131213593Y-102893994D01*
X131219024Y-102868506D01*
X131231451Y-102856943D01*
X131248431Y-102861439D01*
X131267523Y-102884130D01*
X131268874Y-102886451D01*
X131289075Y-102911050D01*
X131310569Y-102915344D01*
X131332631Y-102901018D01*
X131345793Y-102884586D01*
X131345951Y-102869401D01*
X131332558Y-102848185D01*
X131328242Y-102842624D01*
X131310018Y-102815154D01*
X131308021Y-102799546D01*
X131322407Y-102795751D01*
X131353331Y-102803720D01*
G37*
G36*
X131868163Y-105707460D02*
G01*
X131874928Y-105718700D01*
X131877873Y-105736187D01*
X131880610Y-105770359D01*
X131883064Y-105817418D01*
X131885158Y-105873567D01*
X131886816Y-105935005D01*
X131887964Y-105997937D01*
X131888524Y-106058562D01*
X131888420Y-106113084D01*
X131887578Y-106157703D01*
X131885920Y-106188622D01*
X131884529Y-106198900D01*
X131873842Y-106230691D01*
X131860576Y-106243192D01*
X131845382Y-106235859D01*
X131843187Y-106233280D01*
X131823168Y-106204833D01*
X131800272Y-106167354D01*
X131777530Y-106126456D01*
X131757972Y-106087753D01*
X131744630Y-106056859D01*
X131740704Y-106043484D01*
X131740470Y-106014352D01*
X131745662Y-105976086D01*
X131754507Y-105937695D01*
X131765234Y-105908190D01*
X131768408Y-105902637D01*
X131775289Y-105888786D01*
X131787393Y-105861429D01*
X131802410Y-105826107D01*
X131818030Y-105788359D01*
X131831942Y-105753729D01*
X131841835Y-105727756D01*
X131844210Y-105720842D01*
X131855142Y-105704744D01*
X131868163Y-105707460D01*
G37*
G36*
X131138500Y-102567924D02*
G01*
X131151607Y-102576869D01*
X131163636Y-102591178D01*
X131178211Y-102615265D01*
X131192798Y-102643757D01*
X131204860Y-102671281D01*
X131211862Y-102692465D01*
X131211271Y-102701936D01*
X131210665Y-102702032D01*
X131199635Y-102697203D01*
X131178357Y-102685232D01*
X131172300Y-102681586D01*
X131141369Y-102666454D01*
X131117223Y-102661547D01*
X131104118Y-102667415D01*
X131102919Y-102672625D01*
X131109330Y-102686248D01*
X131125759Y-102708625D01*
X131139382Y-102724547D01*
X131159185Y-102749340D01*
X131170633Y-102769382D01*
X131171859Y-102776998D01*
X131159338Y-102785712D01*
X131132961Y-102790581D01*
X131099000Y-102791563D01*
X131063724Y-102788619D01*
X131033406Y-102781709D01*
X131024309Y-102777944D01*
X130986628Y-102755068D01*
X130966436Y-102731475D01*
X130963811Y-102705042D01*
X130978831Y-102673646D01*
X131011572Y-102635166D01*
X131030207Y-102616780D01*
X131066917Y-102583947D01*
X131094599Y-102565716D01*
X131117159Y-102560803D01*
X131138500Y-102567924D01*
G37*
G36*
X131137740Y-102918814D02*
G01*
X131140677Y-102940295D01*
X131143963Y-102975324D01*
X131146967Y-103016988D01*
X131147429Y-103024653D01*
X131154695Y-103086740D01*
X131170212Y-103150679D01*
X131195596Y-103222472D01*
X131210119Y-103257657D01*
X131212910Y-103269423D01*
X131206908Y-103273847D01*
X131190079Y-103270362D01*
X131160389Y-103258400D01*
X131115804Y-103237394D01*
X131087556Y-103223454D01*
X131043342Y-103201433D01*
X131003590Y-103181628D01*
X130973302Y-103166531D01*
X130959532Y-103159661D01*
X130936736Y-103137760D01*
X130929185Y-103103864D01*
X130933042Y-103075742D01*
X130945467Y-103052447D01*
X130969715Y-103023365D01*
X131000307Y-102993672D01*
X131031762Y-102968545D01*
X131058600Y-102953161D01*
X131064825Y-102951243D01*
X131092161Y-102938629D01*
X131113063Y-102920032D01*
X131132823Y-102894911D01*
X131137740Y-102918814D01*
G37*
G36*
X132865864Y-104677637D02*
G01*
X132905734Y-104689042D01*
X132969511Y-104703811D01*
X133033502Y-104708748D01*
X133091067Y-104703702D01*
X133124121Y-104694088D01*
X133165088Y-104680602D01*
X133190985Y-104680752D01*
X133202042Y-104694556D01*
X133202516Y-104700261D01*
X133198277Y-104720730D01*
X133187121Y-104751513D01*
X133171387Y-104787824D01*
X133153412Y-104824877D01*
X133135536Y-104857886D01*
X133120098Y-104882067D01*
X133109436Y-104892633D01*
X133108442Y-104892752D01*
X133094636Y-104887579D01*
X133067058Y-104874285D01*
X133029729Y-104854893D01*
X132987435Y-104831852D01*
X132921504Y-104792478D01*
X132871657Y-104756878D01*
X132838910Y-104725903D01*
X132824277Y-104700404D01*
X132823564Y-104694531D01*
X132827223Y-104679956D01*
X132840282Y-104674394D01*
X132865864Y-104677637D01*
G37*
G36*
X132970454Y-105250517D02*
G01*
X132976907Y-105257050D01*
X132985587Y-105277797D01*
X132977881Y-105293332D01*
X132957864Y-105299491D01*
X132938786Y-105296023D01*
X132928908Y-105283511D01*
X132925983Y-105266783D01*
X132933107Y-105247460D01*
X132950113Y-105241621D01*
X132970454Y-105250517D01*
G37*
G36*
X130433138Y-106239540D02*
G01*
X130455472Y-106265908D01*
X130472261Y-106287843D01*
X130501398Y-106328729D01*
X130518979Y-106360506D01*
X130527256Y-106389190D01*
X130528483Y-106420800D01*
X130527523Y-106435402D01*
X130521274Y-106466479D01*
X130509379Y-106477889D01*
X130491864Y-106469615D01*
X130485088Y-106462818D01*
X130472102Y-106442829D01*
X130456224Y-106410382D01*
X130439419Y-106370671D01*
X130423652Y-106328887D01*
X130410886Y-106290225D01*
X130403086Y-106259878D01*
X130402092Y-106243393D01*
X130408792Y-106229767D01*
X130418359Y-106227988D01*
X130433138Y-106239540D01*
G37*
G36*
X131943267Y-112382208D02*
G01*
X131960551Y-112385806D01*
X131971109Y-112393236D01*
X131972410Y-112394730D01*
X131993463Y-112408316D01*
X132009339Y-112411387D01*
X132031512Y-112420860D01*
X132060474Y-112449325D01*
X132096278Y-112496850D01*
X132138976Y-112563505D01*
X132178664Y-112631588D01*
X132211087Y-112687590D01*
X132248043Y-112749142D01*
X132284226Y-112807503D01*
X132306104Y-112841548D01*
X132349851Y-112908944D01*
X132384460Y-112964280D01*
X132412639Y-113012205D01*
X132437093Y-113057371D01*
X132460530Y-113104429D01*
X132467043Y-113118080D01*
X132490296Y-113164881D01*
X132516545Y-113214276D01*
X132540180Y-113255712D01*
X132540563Y-113256346D01*
X132564730Y-113302935D01*
X132576730Y-113341489D01*
X132577731Y-113352838D01*
X132582741Y-113382892D01*
X132594786Y-113406689D01*
X132595098Y-113407039D01*
X132604790Y-113427505D01*
X132609616Y-113456923D01*
X132609357Y-113487276D01*
X132603790Y-113510546D01*
X132598133Y-113517583D01*
X132595575Y-113528890D01*
X132592839Y-113558090D01*
X132590058Y-113602591D01*
X132587366Y-113659805D01*
X132584898Y-113727142D01*
X132582786Y-113802012D01*
X132582252Y-113825105D01*
X132580193Y-113913371D01*
X132578205Y-113983602D01*
X132576100Y-114038249D01*
X132573693Y-114079758D01*
X132570796Y-114110580D01*
X132567225Y-114133161D01*
X132562793Y-114149952D01*
X132557313Y-114163399D01*
X132556369Y-114165318D01*
X132545240Y-114189656D01*
X132544038Y-114200926D01*
X132552316Y-114203724D01*
X132552639Y-114203725D01*
X132569473Y-114195424D01*
X132574221Y-114187926D01*
X132588350Y-114171977D01*
X132614952Y-114154909D01*
X132646614Y-114140514D01*
X132675922Y-114132585D01*
X132683509Y-114132032D01*
X132708721Y-114125778D01*
X132735254Y-114110701D01*
X132735708Y-114110347D01*
X132774679Y-114084898D01*
X132820326Y-114063066D01*
X132868105Y-114046110D01*
X132913474Y-114035288D01*
X132951890Y-114031861D01*
X132978810Y-114037087D01*
X132984798Y-114041314D01*
X132987700Y-114057750D01*
X132979091Y-114086074D01*
X132960915Y-114122729D01*
X132935119Y-114164162D01*
X132903646Y-114206816D01*
X132877401Y-114237565D01*
X132841156Y-114275723D01*
X132799623Y-114317026D01*
X132755979Y-114358580D01*
X132713403Y-114397490D01*
X132675072Y-114430862D01*
X132644165Y-114455800D01*
X132623860Y-114469411D01*
X132621822Y-114470338D01*
X132600341Y-114485320D01*
X132581090Y-114507966D01*
X132553841Y-114540742D01*
X132527175Y-114553538D01*
X132502069Y-114546295D01*
X132479500Y-114518958D01*
X132476837Y-114513992D01*
X132466926Y-114493446D01*
X132462951Y-114477183D01*
X132465268Y-114458637D01*
X132474229Y-114431243D01*
X132482499Y-114409012D01*
X132496273Y-114375199D01*
X132508594Y-114349998D01*
X132516877Y-114338669D01*
X132517092Y-114338578D01*
X132525328Y-114328144D01*
X132525253Y-114313489D01*
X132517003Y-114306145D01*
X132503421Y-114315331D01*
X132483597Y-114341588D01*
X132458882Y-114382959D01*
X132441993Y-114414760D01*
X132415243Y-114467045D01*
X132439483Y-114501816D01*
X132455865Y-114529060D01*
X132466012Y-114552896D01*
X132466970Y-114557072D01*
X132467238Y-114565186D01*
X132462986Y-114570884D01*
X132451140Y-114574658D01*
X132428626Y-114577000D01*
X132392370Y-114578404D01*
X132339300Y-114579362D01*
X132326830Y-114579537D01*
X132273107Y-114579679D01*
X132225455Y-114578692D01*
X132188268Y-114576747D01*
X132165940Y-114574015D01*
X132162959Y-114573137D01*
X132144975Y-114569692D01*
X132111393Y-114566592D01*
X132067102Y-114564188D01*
X132019572Y-114562867D01*
X131827603Y-114559885D01*
X131655064Y-114557124D01*
X131500907Y-114554545D01*
X131364079Y-114552109D01*
X131243530Y-114549778D01*
X131138209Y-114547511D01*
X131047066Y-114545272D01*
X130969049Y-114543020D01*
X130903108Y-114540718D01*
X130848192Y-114538326D01*
X130803249Y-114535805D01*
X130767231Y-114533117D01*
X130739084Y-114530222D01*
X130717759Y-114527083D01*
X130702205Y-114523660D01*
X130691371Y-114519915D01*
X130684206Y-114515808D01*
X130681520Y-114513454D01*
X130679180Y-114498497D01*
X130683159Y-114467344D01*
X130692767Y-114423050D01*
X130707317Y-114368666D01*
X130726118Y-114307244D01*
X130732337Y-114288342D01*
X130747060Y-114242457D01*
X130759826Y-114199352D01*
X130768687Y-114165740D01*
X130770938Y-114155197D01*
X130780036Y-114120120D01*
X130792531Y-114087858D01*
X130793205Y-114086506D01*
X130807802Y-114036628D01*
X130807522Y-113976838D01*
X130792567Y-113911083D01*
X130782784Y-113884632D01*
X130763881Y-113825114D01*
X130749174Y-113751963D01*
X130739488Y-113671750D01*
X130735649Y-113591049D01*
X130737676Y-113526002D01*
X130745188Y-113466287D01*
X130758864Y-113394168D01*
X130777187Y-113316234D01*
X130798641Y-113239073D01*
X130816228Y-113184653D01*
X130826642Y-113151722D01*
X130840458Y-113103660D01*
X130856811Y-113043904D01*
X130874832Y-112975892D01*
X130893655Y-112903060D01*
X130912412Y-112828846D01*
X130930236Y-112756686D01*
X130946260Y-112690017D01*
X130959616Y-112632277D01*
X130969438Y-112586902D01*
X130974858Y-112557329D01*
X130975241Y-112554447D01*
X130980974Y-112514549D01*
X130987896Y-112476468D01*
X130991242Y-112461540D01*
X131000479Y-112424636D01*
X131078849Y-112418011D01*
X131110551Y-112416214D01*
X131159014Y-112414603D01*
X131220517Y-112413245D01*
X131291339Y-112412211D01*
X131367756Y-112411571D01*
X131434834Y-112411387D01*
X131510102Y-112411024D01*
X131580240Y-112410001D01*
X131642156Y-112408417D01*
X131692756Y-112406371D01*
X131728949Y-112403963D01*
X131747310Y-112401389D01*
X131773941Y-112395932D01*
X131813559Y-112390357D01*
X131858699Y-112385675D01*
X131870378Y-112384732D01*
X131914721Y-112381998D01*
X131943267Y-112382208D01*
G37*
G36*
X129769186Y-106536550D02*
G01*
X129800262Y-106549216D01*
X129836270Y-106570421D01*
X129872557Y-106597071D01*
X129904469Y-106626076D01*
X129927351Y-106654341D01*
X129927925Y-106655268D01*
X129946878Y-106682226D01*
X129973746Y-106715677D01*
X129997354Y-106742475D01*
X130035287Y-106785297D01*
X130059723Y-106818753D01*
X130072500Y-106847062D01*
X130075455Y-106874440D01*
X130070425Y-106905104D01*
X130069604Y-106908318D01*
X130050398Y-106989549D01*
X130035347Y-107068278D01*
X130032239Y-107088141D01*
X130027321Y-107109022D01*
X130017698Y-107121413D01*
X129999885Y-107125939D01*
X129970396Y-107123225D01*
X129925746Y-107113895D01*
X129909733Y-107110106D01*
X129865133Y-107095213D01*
X129819072Y-107073448D01*
X129797072Y-107060060D01*
X129759548Y-107030245D01*
X129720427Y-106992563D01*
X129682805Y-106950826D01*
X129649776Y-106908844D01*
X129624437Y-106870427D01*
X129609883Y-106839386D01*
X129607596Y-106826803D01*
X129612369Y-106808554D01*
X129625023Y-106778436D01*
X129643064Y-106742237D01*
X129647805Y-106733494D01*
X129670923Y-106688951D01*
X129693227Y-106641665D01*
X129709970Y-106601709D01*
X129710256Y-106600944D01*
X129724313Y-106568580D01*
X129738373Y-106544679D01*
X129747698Y-106535515D01*
X129769186Y-106536550D01*
G37*
G36*
X130138342Y-114135186D02*
G01*
X130135075Y-114153499D01*
X130122954Y-114181239D01*
X130111310Y-114201545D01*
X130092283Y-114236127D01*
X130077769Y-114270514D01*
X130073406Y-114285661D01*
X130057701Y-114335691D01*
X130033911Y-114381648D01*
X130019572Y-114400883D01*
X130004525Y-114413883D01*
X129991902Y-114419069D01*
X129987788Y-114414404D01*
X129988957Y-114411125D01*
X130017728Y-114351229D01*
X130046339Y-114293812D01*
X130073389Y-114241459D01*
X130097478Y-114196757D01*
X130117205Y-114162293D01*
X130131171Y-114140652D01*
X130137975Y-114134421D01*
X130138342Y-114135186D01*
G37*
G36*
X132016223Y-103461847D02*
G01*
X132040434Y-103467887D01*
X132052561Y-103477435D01*
X132050547Y-103486388D01*
X132032336Y-103490644D01*
X132030668Y-103490661D01*
X132011019Y-103487059D01*
X132004209Y-103479815D01*
X131997935Y-103473698D01*
X131993967Y-103475298D01*
X131984546Y-103474121D01*
X131983725Y-103470133D01*
X131992718Y-103462771D01*
X132015917Y-103461817D01*
X132016223Y-103461847D01*
G37*
G36*
X132401087Y-111848957D02*
G01*
X132430244Y-111853046D01*
X132455030Y-111862535D01*
X132483489Y-111879611D01*
X132489138Y-111883338D01*
X132526548Y-111909674D01*
X132564373Y-111938633D01*
X132583051Y-111954133D01*
X132623846Y-111989670D01*
X132597716Y-111999784D01*
X132577559Y-112004946D01*
X132543043Y-112011359D01*
X132500180Y-112018152D01*
X132454984Y-112024452D01*
X132413467Y-112029390D01*
X132381645Y-112032094D01*
X132372919Y-112032355D01*
X132357047Y-112026476D01*
X132331358Y-112011230D01*
X132306739Y-111993843D01*
X132272996Y-111964555D01*
X132254236Y-111937779D01*
X132248242Y-111919641D01*
X132246337Y-111889157D01*
X132257248Y-111868065D01*
X132282946Y-111855097D01*
X132325403Y-111848984D01*
X132359515Y-111848080D01*
X132401087Y-111848957D01*
G37*
G36*
X131747859Y-111986191D02*
G01*
X131748049Y-111986288D01*
X131766861Y-112001946D01*
X131793126Y-112031684D01*
X131824268Y-112071724D01*
X131857713Y-112118285D01*
X131890884Y-112167589D01*
X131921205Y-112215854D01*
X131946102Y-112259302D01*
X131962997Y-112294152D01*
X131968233Y-112309405D01*
X131970519Y-112322877D01*
X131966610Y-112331590D01*
X131952593Y-112337728D01*
X131924553Y-112343474D01*
X131899807Y-112347571D01*
X131852210Y-112355571D01*
X131802990Y-112364296D01*
X131767649Y-112370926D01*
X131695520Y-112376755D01*
X131659246Y-112372874D01*
X131613908Y-112368706D01*
X131583427Y-112373956D01*
X131565158Y-112377593D01*
X131530795Y-112380821D01*
X131483587Y-112383598D01*
X131426788Y-112385887D01*
X131363647Y-112387646D01*
X131297415Y-112388837D01*
X131231345Y-112389418D01*
X131168686Y-112389350D01*
X131112689Y-112388594D01*
X131066607Y-112387109D01*
X131033690Y-112384856D01*
X131017189Y-112381795D01*
X131016019Y-112380915D01*
X131012519Y-112361655D01*
X131014648Y-112330949D01*
X131021090Y-112296623D01*
X131030527Y-112266500D01*
X131037557Y-112253002D01*
X131049792Y-112229435D01*
X131061318Y-112197813D01*
X131063207Y-112191185D01*
X131072734Y-112160956D01*
X131084959Y-112139451D01*
X131104479Y-112121844D01*
X131135887Y-112103313D01*
X131157520Y-112092175D01*
X131228311Y-112059440D01*
X131294280Y-112036325D01*
X131362152Y-112021213D01*
X131438654Y-112012486D01*
X131502354Y-112009266D01*
X131573775Y-112005844D01*
X131627087Y-112000615D01*
X131664606Y-111993304D01*
X131679868Y-111988075D01*
X131707267Y-111978066D01*
X131726608Y-111977525D01*
X131747859Y-111986191D01*
G37*
G36*
X130443595Y-110802112D02*
G01*
X130444718Y-110824477D01*
X130444334Y-110828981D01*
X130439435Y-110858768D01*
X130433777Y-110870587D01*
X130429053Y-110863771D01*
X130426957Y-110837651D01*
X130426951Y-110835836D01*
X130429199Y-110809559D01*
X130434839Y-110794529D01*
X130437480Y-110793161D01*
X130443595Y-110802112D01*
G37*
G36*
X132613384Y-104810887D02*
G01*
X132625775Y-104837039D01*
X132628967Y-104868240D01*
X132632055Y-104898516D01*
X132644245Y-104922604D01*
X132664814Y-104945016D01*
X132692601Y-104981538D01*
X132701088Y-105017407D01*
X132690087Y-105050748D01*
X132676956Y-105066134D01*
X132656688Y-105082771D01*
X132639749Y-105086719D01*
X132618215Y-105078284D01*
X132602454Y-105069036D01*
X132564074Y-105038539D01*
X132537563Y-105003004D01*
X132526640Y-104967561D01*
X132526548Y-104964321D01*
X132530194Y-104940241D01*
X132539657Y-104907737D01*
X132552726Y-104872232D01*
X132567188Y-104839150D01*
X132580833Y-104813916D01*
X132591447Y-104801954D01*
X132592890Y-104801629D01*
X132613384Y-104810887D01*
G37*
G36*
X130208472Y-113971591D02*
G01*
X130208161Y-113983286D01*
X130201548Y-114005872D01*
X130191382Y-114031862D01*
X130180409Y-114053770D01*
X130175910Y-114060338D01*
X130162042Y-114081617D01*
X130157685Y-114091064D01*
X130152728Y-114099397D01*
X130151228Y-114092980D01*
X130154677Y-114078657D01*
X130164129Y-114054363D01*
X130176897Y-114025795D01*
X130190292Y-113998651D01*
X130201629Y-113978631D01*
X130208220Y-113971431D01*
X130208472Y-113971591D01*
G37*
G36*
X132494447Y-112080357D02*
G01*
X132526731Y-112102565D01*
X132545551Y-112137318D01*
X132552963Y-112159660D01*
X132566007Y-112196114D01*
X132582869Y-112241712D01*
X132601739Y-112291483D01*
X132602544Y-112293580D01*
X132623877Y-112350636D01*
X132645406Y-112410822D01*
X132664381Y-112466320D01*
X132676266Y-112503362D01*
X132699112Y-112573348D01*
X132726649Y-112649920D01*
X132756977Y-112728411D01*
X132788196Y-112804154D01*
X132818407Y-112872481D01*
X132845711Y-112928727D01*
X132860127Y-112955109D01*
X132880576Y-112991492D01*
X132896239Y-113021941D01*
X132904685Y-113041625D01*
X132905500Y-113045388D01*
X132910646Y-113068538D01*
X132924081Y-113102530D01*
X132942797Y-113141122D01*
X132963786Y-113178069D01*
X132982438Y-113205137D01*
X133007830Y-113239693D01*
X133032212Y-113276791D01*
X133038753Y-113287785D01*
X133062579Y-113329465D01*
X133028910Y-113410341D01*
X133011949Y-113453304D01*
X133002408Y-113485768D01*
X132998781Y-113515670D01*
X132999565Y-113550951D01*
X133000265Y-113561430D01*
X133004867Y-113607185D01*
X133010176Y-113632700D01*
X133015453Y-113638169D01*
X133019958Y-113623785D01*
X133022951Y-113589741D01*
X133023747Y-113555293D01*
X133024910Y-113505928D01*
X133028752Y-113469512D01*
X133036669Y-113438553D01*
X133050059Y-113405555D01*
X133052734Y-113399733D01*
X133081254Y-113338282D01*
X133111566Y-113374129D01*
X133150998Y-113431566D01*
X133179256Y-113495006D01*
X133193383Y-113557362D01*
X133194378Y-113572620D01*
X133194219Y-113602052D01*
X133189949Y-113623861D01*
X133178678Y-113644687D01*
X133157516Y-113671164D01*
X133145400Y-113685091D01*
X133119707Y-113712896D01*
X133098326Y-113733346D01*
X133085381Y-113742541D01*
X133084461Y-113742709D01*
X133073264Y-113734894D01*
X133056226Y-113714785D01*
X133045368Y-113699310D01*
X133016789Y-113655782D01*
X133024789Y-113696750D01*
X133027912Y-113723239D01*
X133029969Y-113761851D01*
X133030988Y-113807595D01*
X133030995Y-113855480D01*
X133030017Y-113900517D01*
X133028081Y-113937714D01*
X133025214Y-113962081D01*
X133023327Y-113968087D01*
X133009599Y-113975214D01*
X132985042Y-113978392D01*
X132983504Y-113978403D01*
X132952792Y-113982481D01*
X132909673Y-113993411D01*
X132860231Y-114009236D01*
X132810554Y-114028001D01*
X132766727Y-114047748D01*
X132764885Y-114048682D01*
X132736859Y-114062761D01*
X132721594Y-114068985D01*
X132713596Y-114068796D01*
X132707489Y-114063752D01*
X132703791Y-114049847D01*
X132701359Y-114019532D01*
X132700109Y-113976835D01*
X132699963Y-113925787D01*
X132700837Y-113870415D01*
X132702652Y-113814751D01*
X132705326Y-113762822D01*
X132708778Y-113718658D01*
X132712928Y-113686288D01*
X132715302Y-113675564D01*
X132724933Y-113635286D01*
X132733327Y-113588325D01*
X132736582Y-113563604D01*
X132743105Y-113519836D01*
X132752474Y-113475551D01*
X132758293Y-113454461D01*
X132764783Y-113423633D01*
X132769644Y-113380636D01*
X132772767Y-113330701D01*
X132774044Y-113279058D01*
X132773366Y-113230937D01*
X132770624Y-113191569D01*
X132765711Y-113166183D01*
X132764340Y-113163017D01*
X132757602Y-113144274D01*
X132748751Y-113111549D01*
X132739408Y-113071001D01*
X132736850Y-113058717D01*
X132721723Y-112992689D01*
X132702808Y-112927256D01*
X132678368Y-112857280D01*
X132646668Y-112777622D01*
X132623756Y-112723766D01*
X132603642Y-112675891D01*
X132586057Y-112631386D01*
X132573032Y-112595553D01*
X132566920Y-112575258D01*
X132556224Y-112535351D01*
X132541855Y-112491569D01*
X132526703Y-112452127D01*
X132514811Y-112427175D01*
X132505599Y-112405606D01*
X132495249Y-112373398D01*
X132490456Y-112355482D01*
X132480746Y-112321272D01*
X132466302Y-112276308D01*
X132449833Y-112228918D01*
X132445391Y-112216790D01*
X132426644Y-112162211D01*
X132417433Y-112123328D01*
X132417891Y-112097636D01*
X132428155Y-112082631D01*
X132448359Y-112075808D01*
X132453019Y-112075260D01*
X132494447Y-112080357D01*
G37*
G36*
X131294955Y-103094621D02*
G01*
X131325713Y-103106620D01*
X131358967Y-103115215D01*
X131381038Y-103122740D01*
X131405890Y-103139264D01*
X131437004Y-103167458D01*
X131466508Y-103197835D01*
X131499113Y-103230785D01*
X131529022Y-103257989D01*
X131552082Y-103275820D01*
X131561246Y-103280614D01*
X131580268Y-103282056D01*
X131583272Y-103271029D01*
X131570345Y-103247718D01*
X131541579Y-103212307D01*
X131512828Y-103181214D01*
X131482759Y-103149120D01*
X131458883Y-103122316D01*
X131444249Y-103104304D01*
X131441135Y-103098907D01*
X131443974Y-103091889D01*
X131454149Y-103094661D01*
X131473103Y-103108356D01*
X131502280Y-103134108D01*
X131543121Y-103173048D01*
X131573286Y-103202680D01*
X131620025Y-103248171D01*
X131657327Y-103282109D01*
X131689725Y-103307922D01*
X131721753Y-103329041D01*
X131757944Y-103348893D01*
X131783146Y-103361430D01*
X131824620Y-103381052D01*
X131859997Y-103396765D01*
X131884798Y-103406639D01*
X131893639Y-103409051D01*
X131910860Y-103414418D01*
X131928577Y-103426159D01*
X131939885Y-103438812D01*
X131939955Y-103445667D01*
X131921099Y-103453600D01*
X131889824Y-103457133D01*
X131853732Y-103456211D01*
X131820423Y-103450779D01*
X131807819Y-103446623D01*
X131782143Y-103438644D01*
X131764405Y-103438062D01*
X131762039Y-103439344D01*
X131740450Y-103448984D01*
X131705803Y-103453623D01*
X131665062Y-103452578D01*
X131648671Y-103450425D01*
X131616932Y-103442451D01*
X131591608Y-103431482D01*
X131587219Y-103428456D01*
X131533362Y-103395151D01*
X131465765Y-103372458D01*
X131446024Y-103368201D01*
X131388867Y-103355889D01*
X131349059Y-103344364D01*
X131323553Y-103332480D01*
X131309304Y-103319095D01*
X131307549Y-103316158D01*
X131303449Y-103298916D01*
X131316756Y-103286496D01*
X131317869Y-103285892D01*
X131333525Y-103272286D01*
X131336636Y-103252759D01*
X131326764Y-103224282D01*
X131303467Y-103183822D01*
X131302899Y-103182928D01*
X131284145Y-103150046D01*
X131271153Y-103120694D01*
X131267052Y-103103765D01*
X131268382Y-103088333D01*
X131276716Y-103086392D01*
X131294955Y-103094621D01*
G37*
G36*
X133884313Y-105207906D02*
G01*
X133890310Y-105213520D01*
X133893095Y-105227741D01*
X133895505Y-105258750D01*
X133897370Y-105302851D01*
X133898520Y-105356350D01*
X133898811Y-105398687D01*
X133898771Y-105461804D01*
X133898239Y-105507756D01*
X133896794Y-105539861D01*
X133894016Y-105561440D01*
X133889483Y-105575809D01*
X133882777Y-105586289D01*
X133873828Y-105595844D01*
X133851925Y-105615383D01*
X133837779Y-105620719D01*
X133830316Y-105610355D01*
X133828458Y-105582795D01*
X133831128Y-105536542D01*
X133831133Y-105536488D01*
X133834645Y-105489549D01*
X133838571Y-105430961D01*
X133842336Y-105369534D01*
X133844431Y-105332154D01*
X133847901Y-105278053D01*
X133851842Y-105241391D01*
X133856787Y-105219125D01*
X133863268Y-105208210D01*
X133866400Y-105206344D01*
X133884313Y-105207906D01*
G37*
G36*
X131051969Y-104811956D02*
G01*
X131058814Y-104830080D01*
X131058584Y-104836835D01*
X131046930Y-104849391D01*
X131031566Y-104846883D01*
X131024750Y-104837639D01*
X131023756Y-104818916D01*
X131032380Y-104806325D01*
X131044989Y-104805181D01*
X131051969Y-104811956D01*
G37*
G36*
X131704192Y-104581606D02*
G01*
X131711546Y-104586229D01*
X131726655Y-104596665D01*
X131736121Y-104607925D01*
X131741481Y-104624910D01*
X131744272Y-104652521D01*
X131746034Y-104695659D01*
X131746052Y-104696200D01*
X131746862Y-104756310D01*
X131744183Y-104797894D01*
X131737370Y-104822712D01*
X131725777Y-104832524D01*
X131708757Y-104829089D01*
X131699250Y-104823750D01*
X131688042Y-104808867D01*
X131674320Y-104779898D01*
X131660146Y-104742725D01*
X131647580Y-104703227D01*
X131638680Y-104667287D01*
X131635500Y-104641774D01*
X131644241Y-104604942D01*
X131657776Y-104587076D01*
X131673441Y-104573942D01*
X131685923Y-104572166D01*
X131704192Y-104581606D01*
G37*
G36*
X131584261Y-104738723D02*
G01*
X131592380Y-104759359D01*
X131594532Y-104776861D01*
X131587112Y-104788913D01*
X131571598Y-104790407D01*
X131558628Y-104781053D01*
X131556201Y-104764522D01*
X131560991Y-104744488D01*
X131570006Y-104731141D01*
X131573642Y-104729935D01*
X131584261Y-104738723D01*
G37*
G36*
X132003315Y-112000457D02*
G01*
X132009071Y-112022764D01*
X132010358Y-112029875D01*
X132018592Y-112060961D01*
X132032872Y-112099532D01*
X132043765Y-112123920D01*
X132057912Y-112150839D01*
X132072589Y-112170809D01*
X132092437Y-112187976D01*
X132122100Y-112206487D01*
X132158431Y-112226340D01*
X132214960Y-112257199D01*
X132256601Y-112282378D01*
X132286908Y-112305108D01*
X132309437Y-112328621D01*
X132327744Y-112356149D01*
X132345382Y-112390924D01*
X132349670Y-112400181D01*
X132373027Y-112451317D01*
X132390746Y-112491019D01*
X132405366Y-112525459D01*
X132419424Y-112560807D01*
X132435460Y-112603236D01*
X132455377Y-112657193D01*
X132476378Y-112712569D01*
X132499206Y-112769919D01*
X132520727Y-112821503D01*
X132534145Y-112851790D01*
X132552392Y-112892854D01*
X132567531Y-112931337D01*
X132581354Y-112972667D01*
X132595652Y-113022272D01*
X132612216Y-113085579D01*
X132615260Y-113097596D01*
X132627049Y-113140630D01*
X132636965Y-113166040D01*
X132646754Y-113176365D01*
X132658160Y-113174144D01*
X132664628Y-113169445D01*
X132677268Y-113161693D01*
X132687484Y-113164854D01*
X132698072Y-113181738D01*
X132711827Y-113215161D01*
X132712927Y-113218052D01*
X132723032Y-113251790D01*
X132723303Y-113272438D01*
X132721425Y-113275526D01*
X132706977Y-113278747D01*
X132691237Y-113266284D01*
X132678360Y-113242199D01*
X132674901Y-113230034D01*
X132667270Y-113208829D01*
X132658189Y-113200016D01*
X132653000Y-113205335D01*
X132655564Y-113223292D01*
X132666112Y-113256346D01*
X132664454Y-113272533D01*
X132646919Y-113291131D01*
X132625641Y-113305970D01*
X132605789Y-113317651D01*
X132596537Y-113317188D01*
X132591295Y-113303576D01*
X132590518Y-113300613D01*
X132582730Y-113280392D01*
X132567790Y-113248641D01*
X132548679Y-113211634D01*
X132545156Y-113205137D01*
X132522075Y-113162266D01*
X132494550Y-113110222D01*
X132467384Y-113058109D01*
X132458710Y-113041266D01*
X132433345Y-112994447D01*
X132400902Y-112938338D01*
X132365875Y-112880554D01*
X132337832Y-112836427D01*
X132303545Y-112781855D01*
X132264964Y-112717113D01*
X132226871Y-112650395D01*
X132194742Y-112591220D01*
X132160251Y-112528893D01*
X132125412Y-112472125D01*
X132093339Y-112425795D01*
X132073803Y-112401744D01*
X132045579Y-112368174D01*
X132021017Y-112334856D01*
X132005427Y-112308998D01*
X132005412Y-112308967D01*
X131993825Y-112285746D01*
X131975093Y-112249634D01*
X131951880Y-112205721D01*
X131928798Y-112162694D01*
X131906220Y-112119039D01*
X131888481Y-112081104D01*
X131877319Y-112052878D01*
X131874472Y-112038350D01*
X131874539Y-112038153D01*
X131885798Y-112029415D01*
X131910134Y-112017861D01*
X131940850Y-112006024D01*
X131971248Y-111996436D01*
X131994633Y-111991632D01*
X131997983Y-111991467D01*
X132003315Y-112000457D01*
G37*
G36*
X132671611Y-113023649D02*
G01*
X132682956Y-113042278D01*
X132693994Y-113063547D01*
X132700327Y-113079454D01*
X132700661Y-113081725D01*
X132693737Y-113087188D01*
X132681340Y-113084029D01*
X132677077Y-113079673D01*
X132670885Y-113063231D01*
X132665624Y-113041350D01*
X132663008Y-113022649D01*
X132664356Y-113015661D01*
X132671611Y-113023649D01*
G37*
G36*
X130386920Y-110158782D02*
G01*
X130389039Y-110168763D01*
X130393136Y-110194403D01*
X130398266Y-110234109D01*
X130403643Y-110281543D01*
X130406768Y-110312150D01*
X130412149Y-110364766D01*
X130417931Y-110417075D01*
X130423218Y-110461131D01*
X130425507Y-110478373D01*
X130429325Y-110515399D01*
X130426485Y-110537904D01*
X130414975Y-110551314D01*
X130395220Y-110560209D01*
X130384093Y-110573924D01*
X130375608Y-110606501D01*
X130369716Y-110658325D01*
X130366373Y-110729779D01*
X130365500Y-110805258D01*
X130365500Y-110916770D01*
X130415397Y-110910151D01*
X130449804Y-110907968D01*
X130469504Y-110911978D01*
X130471963Y-110914321D01*
X130475499Y-110928729D01*
X130479474Y-110958469D01*
X130483268Y-110998418D01*
X130485016Y-111022308D01*
X130487720Y-111067815D01*
X130488076Y-111098053D01*
X130485257Y-111118181D01*
X130478438Y-111133356D01*
X130466791Y-111148738D01*
X130464297Y-111151715D01*
X130447085Y-111175538D01*
X130437748Y-111195015D01*
X130437193Y-111198632D01*
X130428519Y-111210385D01*
X130406065Y-111225654D01*
X130382405Y-111237569D01*
X130350922Y-111252743D01*
X130333452Y-111266309D01*
X130324771Y-111283706D01*
X130321066Y-111301452D01*
X130316547Y-111340283D01*
X130314856Y-111387158D01*
X130316071Y-111444921D01*
X130320271Y-111516421D01*
X130327534Y-111604502D01*
X130330172Y-111633000D01*
X130338190Y-111717663D01*
X130344665Y-111784134D01*
X130349977Y-111834613D01*
X130354509Y-111871301D01*
X130358643Y-111896397D01*
X130362761Y-111912104D01*
X130367246Y-111920621D01*
X130372480Y-111924149D01*
X130378845Y-111924888D01*
X130380863Y-111924895D01*
X130387609Y-111924112D01*
X130392704Y-111920065D01*
X130396398Y-111910209D01*
X130398939Y-111891998D01*
X130400580Y-111862885D01*
X130401568Y-111820325D01*
X130402155Y-111761772D01*
X130402488Y-111704693D01*
X130402937Y-111625229D01*
X130403446Y-111564227D01*
X130404151Y-111519668D01*
X130405186Y-111489531D01*
X130406686Y-111471794D01*
X130408786Y-111464438D01*
X130411619Y-111465442D01*
X130415321Y-111472784D01*
X130417576Y-111478291D01*
X130420445Y-111493940D01*
X130424040Y-111526291D01*
X130428097Y-111571586D01*
X130432352Y-111626068D01*
X130436541Y-111685978D01*
X130440400Y-111747559D01*
X130443665Y-111807053D01*
X130446072Y-111860703D01*
X130447296Y-111901374D01*
X130454121Y-111911829D01*
X130471720Y-111931745D01*
X130492061Y-111952583D01*
X130516623Y-111978433D01*
X130530971Y-112000420D01*
X130538859Y-112026667D01*
X130544011Y-112065013D01*
X130547340Y-112110558D01*
X130544202Y-112142612D01*
X130531917Y-112163296D01*
X130507808Y-112174731D01*
X130469198Y-112179040D01*
X130413408Y-112178344D01*
X130401577Y-112177862D01*
X130376385Y-112177232D01*
X130355407Y-112176559D01*
X130338274Y-112174121D01*
X130324620Y-112168195D01*
X130314077Y-112157059D01*
X130306276Y-112138990D01*
X130300850Y-112112267D01*
X130297431Y-112075165D01*
X130295652Y-112025963D01*
X130295143Y-111962939D01*
X130295539Y-111884370D01*
X130296470Y-111788534D01*
X130297426Y-111690129D01*
X130299665Y-111480174D01*
X130302522Y-111289412D01*
X130306057Y-111116561D01*
X130310332Y-110960337D01*
X130315410Y-110819458D01*
X130321352Y-110692640D01*
X130328219Y-110578601D01*
X130336074Y-110476057D01*
X130344979Y-110383726D01*
X130354994Y-110300324D01*
X130366182Y-110224569D01*
X130368711Y-110209371D01*
X130375374Y-110171614D01*
X130379929Y-110151996D01*
X130383428Y-110148419D01*
X130386920Y-110158782D01*
G37*
G36*
X133080604Y-105306701D02*
G01*
X133113363Y-105315026D01*
X133148547Y-105326463D01*
X133180567Y-105339017D01*
X133203833Y-105350696D01*
X133212758Y-105359466D01*
X133210175Y-105382586D01*
X133203659Y-105415191D01*
X133195053Y-105449848D01*
X133186202Y-105479122D01*
X133178996Y-105495520D01*
X133171759Y-105503832D01*
X133163262Y-105506789D01*
X133148991Y-105503493D01*
X133124433Y-105493046D01*
X133093430Y-105478503D01*
X133057862Y-105460160D01*
X133037076Y-105444573D01*
X133026503Y-105427774D01*
X133023671Y-105417917D01*
X133021550Y-105387301D01*
X133026024Y-105354402D01*
X133035318Y-105325532D01*
X133047656Y-105307007D01*
X133055859Y-105303483D01*
X133080604Y-105306701D01*
G37*
G36*
X129786561Y-111703216D02*
G01*
X129790550Y-111641374D01*
X129795352Y-111588107D01*
X129800853Y-111547037D01*
X129806938Y-111521788D01*
X129808757Y-111518004D01*
X129811935Y-111510162D01*
X129815903Y-111494551D01*
X129821095Y-111468832D01*
X129827941Y-111430669D01*
X129836875Y-111377725D01*
X129848329Y-111307660D01*
X129852853Y-111279653D01*
X129856228Y-111241601D01*
X129852279Y-111217977D01*
X129850597Y-111215300D01*
X129834971Y-111205290D01*
X129822154Y-111214017D01*
X129815968Y-111234105D01*
X129811610Y-111259815D01*
X129804893Y-111293841D01*
X129802461Y-111305258D01*
X129794850Y-111346471D01*
X129786235Y-111403541D01*
X129777177Y-111471900D01*
X129768239Y-111546981D01*
X129759983Y-111624215D01*
X129752970Y-111699036D01*
X129750804Y-111725177D01*
X129746231Y-111782760D01*
X129741621Y-111840870D01*
X129737557Y-111892158D01*
X129734967Y-111924895D01*
X129731421Y-111964615D01*
X129727646Y-111998904D01*
X129724569Y-112019698D01*
X129719835Y-112042808D01*
X129670986Y-112018054D01*
X129626079Y-111989311D01*
X129585058Y-111952348D01*
X129552444Y-111912131D01*
X129532760Y-111873627D01*
X129530074Y-111863270D01*
X129527123Y-111830798D01*
X129527474Y-111789967D01*
X129527993Y-111783178D01*
X129629728Y-111783178D01*
X129630280Y-111792809D01*
X129633110Y-111796436D01*
X129637980Y-111796895D01*
X129640883Y-111796824D01*
X129647674Y-111786658D01*
X129657244Y-111756206D01*
X129669592Y-111705476D01*
X129684715Y-111634476D01*
X129697681Y-111568941D01*
X129712773Y-111490510D01*
X129724200Y-111429953D01*
X129732234Y-111385041D01*
X129737143Y-111353546D01*
X129739201Y-111333239D01*
X129738676Y-111321891D01*
X129735840Y-111317273D01*
X129730963Y-111317158D01*
X129728162Y-111317986D01*
X129720991Y-111326258D01*
X129712698Y-111347501D01*
X129702965Y-111383074D01*
X129691470Y-111434335D01*
X129677894Y-111502643D01*
X129661915Y-111589355D01*
X129655064Y-111627879D01*
X129644123Y-111689894D01*
X129636411Y-111734557D01*
X129631692Y-111764707D01*
X129629728Y-111783178D01*
X129527993Y-111783178D01*
X129529182Y-111767613D01*
X129535474Y-111726820D01*
X129546248Y-111674542D01*
X129560049Y-111616419D01*
X129575418Y-111558090D01*
X129590899Y-111505192D01*
X129605034Y-111463365D01*
X129612371Y-111445699D01*
X129624016Y-111415167D01*
X129622497Y-111399876D01*
X129607708Y-111399284D01*
X129603514Y-111400740D01*
X129583972Y-111415410D01*
X129566051Y-111444796D01*
X129548950Y-111490695D01*
X129531872Y-111554907D01*
X129528466Y-111569764D01*
X129517596Y-111615176D01*
X129507205Y-111653349D01*
X129498616Y-111679700D01*
X129493944Y-111689180D01*
X129478694Y-111692042D01*
X129457092Y-111684169D01*
X129436830Y-111669736D01*
X129425603Y-111652920D01*
X129425394Y-111651974D01*
X129428124Y-111635591D01*
X129438143Y-111606488D01*
X129453472Y-111570211D01*
X129458150Y-111560149D01*
X129479523Y-111512286D01*
X129502640Y-111456192D01*
X129522888Y-111403108D01*
X129524919Y-111397435D01*
X129547223Y-111341909D01*
X129569343Y-111302916D01*
X129589389Y-111280077D01*
X129608333Y-111260612D01*
X129619504Y-111240381D01*
X129625861Y-111212135D01*
X129629117Y-111182779D01*
X129635635Y-111118804D01*
X129644752Y-111039365D01*
X129648540Y-111008708D01*
X129712075Y-111008708D01*
X129713397Y-111027976D01*
X129717200Y-111036499D01*
X129721149Y-111036963D01*
X129729729Y-111023933D01*
X129731544Y-111016674D01*
X129833079Y-111016674D01*
X129837424Y-111034620D01*
X129850842Y-111037030D01*
X129857615Y-111032855D01*
X129864031Y-111021426D01*
X129870714Y-111000263D01*
X129878285Y-110966889D01*
X129887368Y-110918825D01*
X129898586Y-110853593D01*
X129901848Y-110834001D01*
X129919356Y-110725062D01*
X129935823Y-110616242D01*
X129950719Y-110511422D01*
X129963515Y-110414479D01*
X129973682Y-110329293D01*
X129980691Y-110259742D01*
X129981483Y-110250338D01*
X129990135Y-110165244D01*
X130003271Y-110064474D01*
X130020164Y-109952163D01*
X130040090Y-109832444D01*
X130062326Y-109709453D01*
X130086148Y-109587326D01*
X130110829Y-109470195D01*
X130135648Y-109362197D01*
X130140660Y-109341666D01*
X130152528Y-109292038D01*
X130165924Y-109233438D01*
X130180129Y-109169301D01*
X130194423Y-109103061D01*
X130208089Y-109038153D01*
X130220405Y-108978012D01*
X130230655Y-108926073D01*
X130238117Y-108885771D01*
X130242073Y-108860539D01*
X130242517Y-108855196D01*
X130234983Y-108851768D01*
X130227233Y-108853731D01*
X130213605Y-108867652D01*
X130211871Y-108875728D01*
X130209014Y-108893310D01*
X130201537Y-108923712D01*
X130191419Y-108959128D01*
X130168814Y-109039589D01*
X130144486Y-109137030D01*
X130119073Y-109248081D01*
X130093217Y-109369374D01*
X130067556Y-109497541D01*
X130042731Y-109629214D01*
X130019382Y-109761025D01*
X129998148Y-109889604D01*
X129979669Y-110011585D01*
X129964585Y-110123598D01*
X129955876Y-110199129D01*
X129952021Y-110234790D01*
X129948127Y-110267615D01*
X129943690Y-110300825D01*
X129938207Y-110337641D01*
X129931175Y-110381281D01*
X129922088Y-110434968D01*
X129910445Y-110501921D01*
X129895740Y-110585361D01*
X129893404Y-110598564D01*
X129883566Y-110656206D01*
X129873286Y-110719967D01*
X129863112Y-110786040D01*
X129853595Y-110850613D01*
X129845284Y-110909878D01*
X129838729Y-110960024D01*
X129834479Y-110997242D01*
X129833079Y-111016674D01*
X129731544Y-111016674D01*
X129738067Y-110990593D01*
X129746181Y-110936863D01*
X129747555Y-110925567D01*
X129758640Y-110835999D01*
X129770872Y-110744403D01*
X129783468Y-110656238D01*
X129795645Y-110576967D01*
X129806620Y-110512050D01*
X129807652Y-110506387D01*
X129823903Y-110418669D01*
X129838340Y-110342018D01*
X129850587Y-110278361D01*
X129860270Y-110229629D01*
X129867014Y-110197749D01*
X129869835Y-110186326D01*
X129868715Y-110171225D01*
X129861774Y-110168454D01*
X129849150Y-110178723D01*
X129835430Y-110209420D01*
X129820619Y-110260521D01*
X129804724Y-110332000D01*
X129787749Y-110423831D01*
X129769701Y-110535989D01*
X129750584Y-110668449D01*
X129746838Y-110695863D01*
X129733972Y-110792572D01*
X129724181Y-110870629D01*
X129717348Y-110931617D01*
X129713352Y-110977116D01*
X129712075Y-111008708D01*
X129648540Y-111008708D01*
X129655888Y-110949234D01*
X129668462Y-110853183D01*
X129675957Y-110798282D01*
X129683395Y-110744611D01*
X129690808Y-110691123D01*
X129697134Y-110645464D01*
X129700083Y-110624169D01*
X129705303Y-110586686D01*
X129712267Y-110536953D01*
X129719849Y-110483001D01*
X129723771Y-110455177D01*
X129729405Y-110410977D01*
X129734742Y-110361478D01*
X129739527Y-110310236D01*
X129743502Y-110260810D01*
X129746411Y-110216757D01*
X129747999Y-110181634D01*
X129748007Y-110159000D01*
X129746180Y-110152412D01*
X129745521Y-110153439D01*
X129742168Y-110166830D01*
X129736286Y-110196641D01*
X129728581Y-110239064D01*
X129719754Y-110290289D01*
X129715256Y-110317310D01*
X129704883Y-110379370D01*
X129694118Y-110442149D01*
X129684083Y-110499195D01*
X129675902Y-110544056D01*
X129674304Y-110552475D01*
X129667894Y-110588541D01*
X129659416Y-110640157D01*
X129649615Y-110702583D01*
X129639233Y-110771080D01*
X129629014Y-110840909D01*
X129628408Y-110845139D01*
X129615820Y-110931807D01*
X129605254Y-111000994D01*
X129596128Y-111055534D01*
X129587860Y-111098263D01*
X129579867Y-111132016D01*
X129571569Y-111159630D01*
X129562382Y-111183940D01*
X129555797Y-111199011D01*
X129544828Y-111222215D01*
X129535814Y-111237800D01*
X129528353Y-111244276D01*
X129522045Y-111240150D01*
X129516486Y-111223935D01*
X129511278Y-111194137D01*
X129506017Y-111149269D01*
X129500302Y-111087838D01*
X129493733Y-111008355D01*
X129489257Y-110951911D01*
X129484375Y-110887134D01*
X129478674Y-110806822D01*
X129472482Y-110715895D01*
X129466126Y-110619269D01*
X129459936Y-110521863D01*
X129454240Y-110428593D01*
X129453689Y-110419330D01*
X129448323Y-110330168D01*
X129442714Y-110239396D01*
X129437135Y-110151242D01*
X129432265Y-110076225D01*
X129752601Y-110076225D01*
X129754210Y-110090765D01*
X129757767Y-110089028D01*
X129759119Y-110068059D01*
X129757767Y-110063423D01*
X129754028Y-110062136D01*
X129752601Y-110076225D01*
X129432265Y-110076225D01*
X129431856Y-110069930D01*
X129427150Y-109999689D01*
X129423288Y-109944744D01*
X129422581Y-109935152D01*
X129418866Y-109878923D01*
X129416429Y-109828453D01*
X129415405Y-109787960D01*
X129415931Y-109761663D01*
X129416760Y-109755379D01*
X129428576Y-109737343D01*
X129454874Y-109712647D01*
X129492196Y-109684510D01*
X129494758Y-109682750D01*
X129573534Y-109619883D01*
X129651176Y-109540677D01*
X129723987Y-109449116D01*
X129757794Y-109399375D01*
X129784574Y-109358477D01*
X129803813Y-109331988D01*
X129818620Y-109316820D01*
X129832103Y-109309886D01*
X129847371Y-109308096D01*
X129849704Y-109308080D01*
X129873911Y-109310214D01*
X129887297Y-109315388D01*
X129887563Y-109315762D01*
X129888454Y-109322385D01*
X129887166Y-109337251D01*
X129883365Y-109362143D01*
X129876720Y-109398844D01*
X129866897Y-109449138D01*
X129853566Y-109514807D01*
X129836392Y-109597635D01*
X129824107Y-109656306D01*
X129809336Y-109728257D01*
X129795450Y-109798870D01*
X129782958Y-109865259D01*
X129772366Y-109924542D01*
X129764182Y-109973834D01*
X129758914Y-110010251D01*
X129757068Y-110030910D01*
X129757566Y-110034404D01*
X129762807Y-110036030D01*
X129768478Y-110026738D01*
X129775473Y-110003903D01*
X129784690Y-109964897D01*
X129790682Y-109937229D01*
X129800296Y-109892080D01*
X129812687Y-109833916D01*
X129817804Y-109809905D01*
X129873213Y-109809905D01*
X129874986Y-109822048D01*
X129877157Y-109823172D01*
X129899477Y-109823057D01*
X129917931Y-109804373D01*
X129924660Y-109791448D01*
X129930289Y-109777357D01*
X129935699Y-109759207D01*
X129941410Y-109734264D01*
X129947944Y-109699791D01*
X129955822Y-109653053D01*
X129965565Y-109591313D01*
X129976756Y-109518040D01*
X129988103Y-109454964D01*
X130004620Y-109379089D01*
X130024763Y-109296968D01*
X130046990Y-109215154D01*
X130052720Y-109195419D01*
X130072932Y-109126585D01*
X130087994Y-109074458D01*
X130098619Y-109036117D01*
X130105516Y-109008641D01*
X130109397Y-108989109D01*
X130110971Y-108974600D01*
X130110951Y-108962193D01*
X130110665Y-108957294D01*
X130104437Y-108942029D01*
X130094391Y-108941128D01*
X130088971Y-108955211D01*
X130088967Y-108955702D01*
X130085904Y-108970941D01*
X130077492Y-109001621D01*
X130064894Y-109043763D01*
X130049275Y-109093388D01*
X130043276Y-109111892D01*
X130021548Y-109179250D01*
X130005175Y-109233137D01*
X129992825Y-109279444D01*
X129983167Y-109324064D01*
X129974869Y-109372887D01*
X129966602Y-109431805D01*
X129960769Y-109477072D01*
X129945627Y-109578565D01*
X129928059Y-109664113D01*
X129908423Y-109732261D01*
X129887077Y-109781550D01*
X129885173Y-109784861D01*
X129873213Y-109809905D01*
X129817804Y-109809905D01*
X129826361Y-109769752D01*
X129839822Y-109706607D01*
X129841813Y-109697274D01*
X129856724Y-109630540D01*
X129874141Y-109557573D01*
X129891931Y-109487049D01*
X129907964Y-109427642D01*
X129908469Y-109425863D01*
X129924819Y-109367762D01*
X129941733Y-109306541D01*
X129956952Y-109250430D01*
X129966089Y-109215903D01*
X129980109Y-109164299D01*
X129997360Y-109104117D01*
X130014702Y-109046250D01*
X130019270Y-109031548D01*
X130034996Y-108981242D01*
X130054109Y-108919773D01*
X130073994Y-108855564D01*
X130089212Y-108806225D01*
X130109031Y-108742991D01*
X130130327Y-108677061D01*
X130152051Y-108611482D01*
X130173150Y-108549301D01*
X130192574Y-108493563D01*
X130209271Y-108447315D01*
X130222191Y-108413604D01*
X130230283Y-108395476D01*
X130231592Y-108393552D01*
X130234848Y-108400136D01*
X130238460Y-108423779D01*
X130242051Y-108461072D01*
X130245250Y-108508601D01*
X130246191Y-108526697D01*
X130249500Y-108582392D01*
X130253700Y-108634311D01*
X130258292Y-108677195D01*
X130262776Y-108705786D01*
X130263512Y-108708927D01*
X130266889Y-108730447D01*
X130270784Y-108769080D01*
X130274948Y-108821473D01*
X130279129Y-108884270D01*
X130283081Y-108954116D01*
X130285600Y-109005943D01*
X130289189Y-109089468D01*
X130291488Y-109156533D01*
X130292437Y-109211128D01*
X130291973Y-109257241D01*
X130290035Y-109298859D01*
X130286562Y-109339971D01*
X130281492Y-109384564D01*
X130279518Y-109400258D01*
X130271218Y-109466480D01*
X130262280Y-109539894D01*
X130253869Y-109610818D01*
X130248059Y-109661427D01*
X130235841Y-109767925D01*
X130222248Y-109882298D01*
X130208215Y-109996866D01*
X130194681Y-110103947D01*
X130186261Y-110168403D01*
X130179281Y-110223918D01*
X130172617Y-110282033D01*
X130167309Y-110333488D01*
X130165576Y-110352758D01*
X130161626Y-110395396D01*
X130155967Y-110450404D01*
X130149441Y-110509824D01*
X130144485Y-110552475D01*
X130138472Y-110608337D01*
X130132076Y-110677076D01*
X130125952Y-110751110D01*
X130120751Y-110822860D01*
X130119371Y-110844371D01*
X130114491Y-110918586D01*
X130108404Y-111003823D01*
X130101808Y-111090708D01*
X130095397Y-111169867D01*
X130093895Y-111187475D01*
X130089041Y-111255180D01*
X130085123Y-111333023D01*
X130082168Y-111417447D01*
X130080201Y-111504894D01*
X130079249Y-111591809D01*
X130079339Y-111674633D01*
X130080498Y-111749810D01*
X130082752Y-111813781D01*
X130086127Y-111862991D01*
X130088698Y-111883927D01*
X130093658Y-111923195D01*
X130097564Y-111969778D01*
X130100280Y-112019067D01*
X130101671Y-112066452D01*
X130101604Y-112107324D01*
X130099943Y-112137074D01*
X130096554Y-112151092D01*
X130096500Y-112151148D01*
X130082761Y-112155780D01*
X130055106Y-112159738D01*
X130026897Y-112161767D01*
X129992297Y-112162631D01*
X129972316Y-112160060D01*
X129961142Y-112152096D01*
X129953001Y-112136866D01*
X129941188Y-112114369D01*
X129926717Y-112101515D01*
X129903883Y-112095638D01*
X129866984Y-112094069D01*
X129861445Y-112094044D01*
X129826548Y-112092720D01*
X129806153Y-112087743D01*
X129794355Y-112077251D01*
X129791127Y-112071862D01*
X129786187Y-112051444D01*
X129782868Y-112014239D01*
X129781056Y-111963870D01*
X129780635Y-111903960D01*
X129781488Y-111838132D01*
X129783254Y-111778412D01*
X129956336Y-111778412D01*
X129956626Y-111820578D01*
X129957970Y-111846199D01*
X129959077Y-111852031D01*
X129967772Y-111867480D01*
X129975160Y-111864496D01*
X129981391Y-111842565D01*
X129986616Y-111801171D01*
X129990798Y-111743100D01*
X129996809Y-111644943D01*
X130004226Y-111535586D01*
X130012742Y-111418786D01*
X130022047Y-111298295D01*
X130031833Y-111177868D01*
X130041792Y-111061260D01*
X130051616Y-110952224D01*
X130060996Y-110854516D01*
X130069624Y-110771890D01*
X130073024Y-110741951D01*
X130081993Y-110663683D01*
X130091247Y-110579879D01*
X130100086Y-110497081D01*
X130107813Y-110421828D01*
X130113512Y-110363000D01*
X130119035Y-110306921D01*
X130124569Y-110257136D01*
X130129620Y-110217651D01*
X130133697Y-110192469D01*
X130135279Y-110186326D01*
X130136512Y-110173069D01*
X130122700Y-110168577D01*
X130115668Y-110168403D01*
X130094348Y-110173407D01*
X130088869Y-110186326D01*
X130087473Y-110208877D01*
X130083743Y-110247778D01*
X130078152Y-110299087D01*
X130071172Y-110358863D01*
X130063276Y-110423166D01*
X130054937Y-110488053D01*
X130046626Y-110549585D01*
X130038836Y-110603685D01*
X130026688Y-110687192D01*
X130016552Y-110763565D01*
X130007915Y-110837791D01*
X130000263Y-110914856D01*
X129993081Y-110999745D01*
X129985855Y-111097446D01*
X129981789Y-111156750D01*
X129976698Y-111237891D01*
X129971983Y-111323240D01*
X129967729Y-111410201D01*
X129964020Y-111496181D01*
X129960942Y-111578586D01*
X129958579Y-111654822D01*
X129957015Y-111722296D01*
X129956336Y-111778412D01*
X129783254Y-111778412D01*
X129783503Y-111770010D01*
X129786561Y-111703216D01*
G37*
G36*
X130742041Y-102617330D02*
G01*
X130760741Y-102626534D01*
X130788649Y-102642529D01*
X130805348Y-102652797D01*
X130833565Y-102669169D01*
X130855912Y-102679582D01*
X130863658Y-102681548D01*
X130877866Y-102689318D01*
X130894370Y-102707108D01*
X130906256Y-102726642D01*
X130908322Y-102735037D01*
X130901117Y-102743477D01*
X130881040Y-102739117D01*
X130850402Y-102722911D01*
X130811511Y-102695812D01*
X130809414Y-102694205D01*
X130772988Y-102664765D01*
X130746615Y-102640604D01*
X130731887Y-102623543D01*
X130730402Y-102615401D01*
X130742041Y-102617330D01*
G37*
G36*
X131188368Y-107492444D02*
G01*
X131213898Y-107500875D01*
X131221081Y-107514341D01*
X131210260Y-107535069D01*
X131197197Y-107549913D01*
X131176454Y-107574166D01*
X131149741Y-107608825D01*
X131122243Y-107647115D01*
X131117516Y-107654008D01*
X131094429Y-107687908D01*
X131063142Y-107733777D01*
X131027024Y-107786680D01*
X130989443Y-107841682D01*
X130971051Y-107868583D01*
X130925162Y-107938956D01*
X130876682Y-108019935D01*
X130824250Y-108113926D01*
X130766501Y-108223335D01*
X130733219Y-108288502D01*
X130696052Y-108361958D01*
X130660047Y-108433064D01*
X130626753Y-108498764D01*
X130597722Y-108555998D01*
X130574503Y-108601709D01*
X130558649Y-108632838D01*
X130556401Y-108637233D01*
X130537901Y-108675549D01*
X130522994Y-108710405D01*
X130514573Y-108734979D01*
X130514099Y-108737092D01*
X130507495Y-108758864D01*
X130499326Y-108762314D01*
X130488714Y-108746868D01*
X130474782Y-108711956D01*
X130474568Y-108711351D01*
X130458246Y-108660743D01*
X130450079Y-108619469D01*
X130450695Y-108582004D01*
X130460729Y-108542821D01*
X130480811Y-108496395D01*
X130504369Y-108450637D01*
X130601096Y-108273388D01*
X130693888Y-108111790D01*
X130782348Y-107966442D01*
X130866081Y-107837947D01*
X130944691Y-107726905D01*
X131017781Y-107633915D01*
X131084956Y-107559579D01*
X131105094Y-107539870D01*
X131136266Y-107511933D01*
X131158437Y-107496686D01*
X131176212Y-107491508D01*
X131188368Y-107492444D01*
G37*
G36*
X132632047Y-112866135D02*
G01*
X132645848Y-112880872D01*
X132657713Y-112909884D01*
X132665843Y-112939298D01*
X132668399Y-112957131D01*
X132660446Y-112962205D01*
X132638343Y-112957717D01*
X132624704Y-112946428D01*
X132608747Y-112923636D01*
X132595043Y-112897130D01*
X132588162Y-112874700D01*
X132588000Y-112871926D01*
X132596774Y-112864514D01*
X132613858Y-112862032D01*
X132632047Y-112866135D01*
G37*
G36*
X130416709Y-111412798D02*
G01*
X130411588Y-111417919D01*
X130406467Y-111412798D01*
X130411588Y-111407677D01*
X130416709Y-111412798D01*
G37*
G36*
X133296180Y-104655632D02*
G01*
X133302755Y-104669861D01*
X133310406Y-104697116D01*
X133314760Y-104717495D01*
X133323002Y-104746844D01*
X133337644Y-104786583D01*
X133356282Y-104831323D01*
X133376510Y-104875678D01*
X133395923Y-104914256D01*
X133412116Y-104941671D01*
X133418365Y-104949625D01*
X133428017Y-104972425D01*
X133422008Y-104999097D01*
X133402076Y-105022695D01*
X133399673Y-105024422D01*
X133371285Y-105040545D01*
X133335113Y-105056758D01*
X133298774Y-105070072D01*
X133269886Y-105077501D01*
X133262601Y-105078161D01*
X133245390Y-105072452D01*
X133219545Y-105057921D01*
X133204585Y-105047756D01*
X133168438Y-105016922D01*
X133148054Y-104986072D01*
X133143126Y-104951783D01*
X133153346Y-104910633D01*
X133178404Y-104859196D01*
X133186364Y-104845329D01*
X133207053Y-104805116D01*
X133223978Y-104763443D01*
X133232564Y-104733263D01*
X133242639Y-104700977D01*
X133258050Y-104673964D01*
X133275363Y-104656413D01*
X133291146Y-104652513D01*
X133296180Y-104655632D01*
G37*
G36*
X131224349Y-103121951D02*
G01*
X131238677Y-103157437D01*
X131257225Y-103194259D01*
X131276204Y-103225535D01*
X131291646Y-103244233D01*
X131305215Y-103262117D01*
X131306008Y-103278222D01*
X131293871Y-103285787D01*
X131292590Y-103285822D01*
X131279007Y-103277083D01*
X131270996Y-103260217D01*
X131263517Y-103241057D01*
X131256680Y-103234613D01*
X131246822Y-103225368D01*
X131236157Y-103201245D01*
X131226659Y-103167659D01*
X131221189Y-103137314D01*
X131218747Y-103114743D01*
X131220215Y-103111385D01*
X131224349Y-103121951D01*
G37*
G36*
X130342719Y-107985121D02*
G01*
X130350758Y-108006411D01*
X130358995Y-108045223D01*
X130367252Y-108100077D01*
X130375351Y-108169497D01*
X130383115Y-108252005D01*
X130390367Y-108346122D01*
X130396929Y-108450371D01*
X130401314Y-108534814D01*
X130407167Y-108648450D01*
X130413840Y-108761154D01*
X130421109Y-108870104D01*
X130428753Y-108972478D01*
X130436550Y-109065455D01*
X130444278Y-109146214D01*
X130451715Y-109211932D01*
X130458140Y-109256871D01*
X130460913Y-109278435D01*
X130465143Y-109318119D01*
X130470616Y-109373624D01*
X130477120Y-109442654D01*
X130484441Y-109522912D01*
X130492367Y-109612102D01*
X130500685Y-109707925D01*
X130508476Y-109799693D01*
X130521816Y-109957401D01*
X130533729Y-110095797D01*
X130544324Y-110215994D01*
X130553709Y-110319107D01*
X130561992Y-110406248D01*
X130569283Y-110478533D01*
X130575690Y-110537074D01*
X130581320Y-110582986D01*
X130586284Y-110617382D01*
X130590295Y-110639532D01*
X130596327Y-110674660D01*
X130602265Y-110719534D01*
X130606160Y-110757314D01*
X130610349Y-110799858D01*
X130616386Y-110853847D01*
X130623261Y-110910441D01*
X130626643Y-110936548D01*
X130632739Y-110990085D01*
X130638685Y-111055673D01*
X130643789Y-111124886D01*
X130647279Y-111187475D01*
X130650795Y-111248629D01*
X130655754Y-111310918D01*
X130661516Y-111367284D01*
X130667437Y-111410672D01*
X130667799Y-111412798D01*
X130677767Y-111471337D01*
X130684687Y-111515580D01*
X130689172Y-111551384D01*
X130691838Y-111584608D01*
X130693298Y-111621109D01*
X130694122Y-111663725D01*
X130696626Y-111716723D01*
X130701974Y-111763764D01*
X130709361Y-111798135D01*
X130710672Y-111801992D01*
X130718155Y-111834226D01*
X130724283Y-111886248D01*
X130728991Y-111957403D01*
X130731281Y-112014270D01*
X130736817Y-112185580D01*
X130709241Y-112196064D01*
X130688324Y-112203354D01*
X130672866Y-112204657D01*
X130652078Y-112200192D01*
X130642032Y-112197442D01*
X130634164Y-112194768D01*
X130627587Y-112190216D01*
X130622041Y-112181877D01*
X130617268Y-112167841D01*
X130613010Y-112146196D01*
X130609008Y-112115034D01*
X130605003Y-112072444D01*
X130600738Y-112016516D01*
X130595954Y-111945339D01*
X130590391Y-111857004D01*
X130585747Y-111781508D01*
X130580389Y-111696244D01*
X130574451Y-111605452D01*
X130568333Y-111514963D01*
X130562430Y-111430609D01*
X130557141Y-111358223D01*
X130555048Y-111330863D01*
X130549310Y-111256911D01*
X130543103Y-111176259D01*
X130537025Y-111096713D01*
X130531674Y-111026084D01*
X130529565Y-110998000D01*
X130523953Y-110930624D01*
X130516501Y-110851981D01*
X130508113Y-110771105D01*
X130499693Y-110697027D01*
X130498307Y-110685621D01*
X130478232Y-110514080D01*
X130459303Y-110336029D01*
X130441867Y-110155584D01*
X130426275Y-109976860D01*
X130412876Y-109803974D01*
X130402021Y-109641044D01*
X130394057Y-109492185D01*
X130391326Y-109425863D01*
X130388591Y-109364295D01*
X130385065Y-109304683D01*
X130381126Y-109252395D01*
X130377154Y-109212797D01*
X130375454Y-109200540D01*
X130368858Y-109154814D01*
X130361121Y-109093552D01*
X130352757Y-109021634D01*
X130344282Y-108943941D01*
X130336210Y-108865352D01*
X130329056Y-108790748D01*
X130323335Y-108725009D01*
X130319562Y-108673017D01*
X130319266Y-108667959D01*
X130314734Y-108572759D01*
X130311745Y-108477113D01*
X130310243Y-108383403D01*
X130310173Y-108294009D01*
X130311481Y-108211310D01*
X130314111Y-108137688D01*
X130318010Y-108075524D01*
X130323121Y-108027196D01*
X130329391Y-107995087D01*
X130335054Y-107982829D01*
X130342719Y-107985121D01*
G37*
G36*
X132578904Y-108771415D02*
G01*
X132612879Y-108790632D01*
X132654137Y-108822208D01*
X132656707Y-108824311D01*
X132692999Y-108853570D01*
X132729674Y-108882343D01*
X132756992Y-108903055D01*
X132802264Y-108938615D01*
X132854943Y-108983663D01*
X132911528Y-109034837D01*
X132968517Y-109088777D01*
X133022409Y-109142120D01*
X133069705Y-109191506D01*
X133106904Y-109233571D01*
X133124234Y-109255706D01*
X133149044Y-109290914D01*
X133168523Y-109319984D01*
X133180039Y-109338909D01*
X133182032Y-109343677D01*
X133179065Y-109347223D01*
X133168529Y-109347484D01*
X133147965Y-109343944D01*
X133114919Y-109336090D01*
X133066933Y-109323404D01*
X133007919Y-109307145D01*
X132942192Y-109290433D01*
X132882863Y-109279511D01*
X132825543Y-109274416D01*
X132765845Y-109275190D01*
X132699380Y-109281871D01*
X132621759Y-109294498D01*
X132536790Y-109311388D01*
X132469935Y-109325404D01*
X132401709Y-109339707D01*
X132338049Y-109353051D01*
X132284892Y-109364193D01*
X132260258Y-109369356D01*
X132207693Y-109380144D01*
X132170833Y-109386365D01*
X132145343Y-109387694D01*
X132126888Y-109383808D01*
X132111133Y-109374383D01*
X132093744Y-109359095D01*
X132091211Y-109356729D01*
X132055611Y-109323443D01*
X132088801Y-109271040D01*
X132108321Y-109243871D01*
X132138306Y-109206518D01*
X132174975Y-109163512D01*
X132214545Y-109119388D01*
X132222641Y-109110649D01*
X132269790Y-109058433D01*
X132321847Y-108998157D01*
X132372192Y-108937619D01*
X132410884Y-108888942D01*
X132454468Y-108834266D01*
X132489994Y-108795982D01*
X132520530Y-108773283D01*
X132549144Y-108765363D01*
X132578904Y-108771415D01*
G37*
G36*
X130416709Y-111259169D02*
G01*
X130411588Y-111264290D01*
X130406467Y-111259169D01*
X130411588Y-111254048D01*
X130416709Y-111259169D01*
G37*
G36*
X130356034Y-106318340D02*
G01*
X130363998Y-106345061D01*
X130364812Y-106382963D01*
X130359057Y-106424257D01*
X130347315Y-106461156D01*
X130345016Y-106465943D01*
X130330007Y-106500351D01*
X130324607Y-106530059D01*
X130330062Y-106558938D01*
X130347616Y-106590859D01*
X130378514Y-106629696D01*
X130408208Y-106662487D01*
X130434167Y-106691365D01*
X130448967Y-106712809D01*
X130455736Y-106734067D01*
X130457603Y-106762384D01*
X130457677Y-106777105D01*
X130459262Y-106810823D01*
X130463373Y-106835658D01*
X130467919Y-106844895D01*
X130475847Y-106859013D01*
X130478161Y-106876225D01*
X130475193Y-106893515D01*
X130462218Y-106900006D01*
X130444875Y-106900534D01*
X130414843Y-106897227D01*
X130377192Y-106889657D01*
X130360379Y-106885277D01*
X130324342Y-106875935D01*
X130277850Y-106865102D01*
X130230589Y-106855028D01*
X130227785Y-106854466D01*
X130170804Y-106841520D01*
X130129621Y-106827621D01*
X130099599Y-106810403D01*
X130076100Y-106787499D01*
X130063656Y-106770713D01*
X130049513Y-106749241D01*
X130040732Y-106731298D01*
X130038471Y-106714027D01*
X130043889Y-106694571D01*
X130058145Y-106670069D01*
X130082399Y-106637666D01*
X130117809Y-106594502D01*
X130151257Y-106554688D01*
X130185249Y-106513158D01*
X130218985Y-106470012D01*
X130247057Y-106432234D01*
X130256254Y-106419064D01*
X130292273Y-106367979D01*
X130319702Y-106334152D01*
X130339429Y-106316682D01*
X130352347Y-106314670D01*
X130356034Y-106318340D01*
G37*
G36*
X131129126Y-103474889D02*
G01*
X131129287Y-103474957D01*
X131173804Y-103496234D01*
X131213618Y-103520100D01*
X131244780Y-103543710D01*
X131263341Y-103564217D01*
X131266790Y-103574072D01*
X131262271Y-103594967D01*
X131250889Y-103624313D01*
X131244940Y-103636725D01*
X131222552Y-103686216D01*
X131212611Y-103720281D01*
X131213815Y-103738126D01*
X131224859Y-103738955D01*
X131244439Y-103721974D01*
X131271251Y-103686386D01*
X131286532Y-103662084D01*
X131312181Y-103626736D01*
X131333706Y-103609623D01*
X131348522Y-103609504D01*
X131354045Y-103625142D01*
X131347691Y-103655299D01*
X131334449Y-103685044D01*
X131315582Y-103725102D01*
X131308947Y-103750812D01*
X131314377Y-103764136D01*
X131327455Y-103767193D01*
X131345323Y-103757749D01*
X131370571Y-103729625D01*
X131395072Y-103695112D01*
X131423051Y-103655903D01*
X131442794Y-103634939D01*
X131454639Y-103631862D01*
X131454749Y-103631944D01*
X131501162Y-103668073D01*
X131532024Y-103694487D01*
X131548939Y-103712667D01*
X131553564Y-103723227D01*
X131549151Y-103740569D01*
X131538087Y-103767194D01*
X131533080Y-103777435D01*
X131518411Y-103812222D01*
X131513409Y-103836891D01*
X131516738Y-103849220D01*
X131527059Y-103846987D01*
X131543033Y-103827970D01*
X131553124Y-103810721D01*
X131583828Y-103761183D01*
X131612402Y-103731932D01*
X131638959Y-103722896D01*
X131663608Y-103734003D01*
X131666398Y-103736640D01*
X131678293Y-103750324D01*
X131681308Y-103763546D01*
X131675819Y-103783943D01*
X131669532Y-103800420D01*
X131652295Y-103837677D01*
X131630625Y-103876172D01*
X131624943Y-103884975D01*
X131600542Y-103923527D01*
X131580501Y-103959349D01*
X131567450Y-103987446D01*
X131563806Y-104001139D01*
X131572642Y-104010706D01*
X131593531Y-104017904D01*
X131618042Y-104020644D01*
X131633810Y-104018490D01*
X131650419Y-104006734D01*
X131669651Y-103984836D01*
X131673295Y-103979669D01*
X131688863Y-103956854D01*
X131712337Y-103922748D01*
X131739914Y-103882871D01*
X131756221Y-103859371D01*
X131816713Y-103772314D01*
X131916135Y-103775908D01*
X131981409Y-103779224D01*
X132027901Y-103784551D01*
X132057296Y-103793114D01*
X132071282Y-103806140D01*
X132071544Y-103824854D01*
X132059769Y-103850483D01*
X132046811Y-103870908D01*
X132028534Y-103901338D01*
X132006270Y-103943084D01*
X131983990Y-103988586D01*
X131977483Y-104002758D01*
X131943374Y-104076625D01*
X131910913Y-104143438D01*
X131881292Y-104200991D01*
X131855702Y-104247076D01*
X131835335Y-104279487D01*
X131821382Y-104296017D01*
X131818268Y-104297636D01*
X131804536Y-104292718D01*
X131778635Y-104277049D01*
X131744132Y-104252996D01*
X131704594Y-104222921D01*
X131699871Y-104219172D01*
X131618889Y-104160087D01*
X131532092Y-104106179D01*
X131485957Y-104081376D01*
X131400089Y-104034162D01*
X131333881Y-103988818D01*
X131286646Y-103944829D01*
X131265705Y-103916576D01*
X131245646Y-103891023D01*
X131217637Y-103863642D01*
X131206484Y-103854497D01*
X131166927Y-103823561D01*
X131122876Y-103788242D01*
X131077776Y-103751401D01*
X131035071Y-103715901D01*
X130998202Y-103684602D01*
X130970614Y-103660368D01*
X130955970Y-103646306D01*
X130943859Y-103630696D01*
X130944702Y-103618916D01*
X130959258Y-103601912D01*
X130959740Y-103601409D01*
X130978638Y-103578574D01*
X131001009Y-103547328D01*
X131011673Y-103530948D01*
X131039986Y-103491797D01*
X131066507Y-103470590D01*
X131094974Y-103465547D01*
X131129126Y-103474889D01*
G37*
G36*
X130708623Y-105591984D02*
G01*
X130703801Y-105600693D01*
X130688555Y-105622670D01*
X130665062Y-105655032D01*
X130635501Y-105694897D01*
X130602049Y-105739383D01*
X130566883Y-105785608D01*
X130532182Y-105830690D01*
X130500122Y-105871747D01*
X130472883Y-105905898D01*
X130455778Y-105926600D01*
X130434388Y-105950024D01*
X130422434Y-105957330D01*
X130417490Y-105949101D01*
X130416885Y-105935923D01*
X130421142Y-105901107D01*
X130432039Y-105854980D01*
X130447378Y-105804710D01*
X130464960Y-105757464D01*
X130482587Y-105720410D01*
X130483449Y-105718921D01*
X130505909Y-105687016D01*
X130531216Y-105660199D01*
X130543822Y-105650587D01*
X130566709Y-105638920D01*
X130598616Y-105625419D01*
X130634122Y-105612012D01*
X130667806Y-105600626D01*
X130694247Y-105593191D01*
X130708023Y-105591633D01*
X130708623Y-105591984D01*
G37*
G36*
X130525891Y-112219398D02*
G01*
X130577872Y-112226273D01*
X130628550Y-112235994D01*
X130633702Y-112237202D01*
X130735445Y-112253651D01*
X130823159Y-112257686D01*
X130870395Y-112258713D01*
X130912533Y-112261417D01*
X130943657Y-112265331D01*
X130954582Y-112268065D01*
X130968901Y-112274650D01*
X130976646Y-112284127D01*
X130979344Y-112301741D01*
X130978524Y-112332738D01*
X130977704Y-112347440D01*
X130973581Y-112391075D01*
X130966240Y-112444560D01*
X130957108Y-112497797D01*
X130954957Y-112508685D01*
X130944536Y-112556816D01*
X130930313Y-112618181D01*
X130913361Y-112688540D01*
X130894754Y-112763651D01*
X130875565Y-112839276D01*
X130856869Y-112911172D01*
X130839739Y-112975101D01*
X130825249Y-113026821D01*
X130816014Y-113057384D01*
X130786125Y-113156845D01*
X130759609Y-113257915D01*
X130737282Y-113356602D01*
X130719961Y-113448915D01*
X130708459Y-113530863D01*
X130703592Y-113598454D01*
X130703483Y-113608218D01*
X130709604Y-113696677D01*
X130726618Y-113790604D01*
X130752503Y-113879567D01*
X130759895Y-113899235D01*
X130771928Y-113947996D01*
X130774210Y-114002500D01*
X130766827Y-114053473D01*
X130758260Y-114077530D01*
X130739547Y-114104777D01*
X130709541Y-114126337D01*
X130688627Y-114136495D01*
X130645654Y-114160965D01*
X130607085Y-114195621D01*
X130570501Y-114243339D01*
X130533480Y-114306994D01*
X130516114Y-114341440D01*
X130494154Y-114383437D01*
X130472553Y-114419402D01*
X130454312Y-114444592D01*
X130445462Y-114453081D01*
X130418062Y-114464854D01*
X130374586Y-114476821D01*
X130319413Y-114488121D01*
X130256923Y-114497890D01*
X130191496Y-114505267D01*
X130172216Y-114506865D01*
X130127644Y-114509805D01*
X130099333Y-114510175D01*
X130083174Y-114507541D01*
X130075056Y-114501472D01*
X130072479Y-114496380D01*
X130069746Y-114476790D01*
X130069913Y-114445188D01*
X130071685Y-114421468D01*
X130075682Y-114397843D01*
X130083810Y-114369622D01*
X130097152Y-114334178D01*
X130116790Y-114288881D01*
X130143806Y-114231105D01*
X130179283Y-114158221D01*
X130184232Y-114148188D01*
X130215664Y-114084110D01*
X130244993Y-114023498D01*
X130270654Y-113969652D01*
X130291081Y-113925870D01*
X130304710Y-113895452D01*
X130308509Y-113886225D01*
X130322981Y-113850851D01*
X130337902Y-113817929D01*
X130342158Y-113809411D01*
X130348250Y-113792348D01*
X130353383Y-113765143D01*
X130357794Y-113725457D01*
X130361717Y-113670947D01*
X130365390Y-113599275D01*
X130366909Y-113563604D01*
X130370060Y-113495199D01*
X130373732Y-113430059D01*
X130377642Y-113372313D01*
X130381506Y-113326088D01*
X130385040Y-113295512D01*
X130385583Y-113292193D01*
X130387748Y-113270454D01*
X130390011Y-113230571D01*
X130392301Y-113174885D01*
X130394549Y-113105738D01*
X130396685Y-113025467D01*
X130398639Y-112936415D01*
X130400341Y-112840920D01*
X130401498Y-112759613D01*
X130402830Y-112661607D01*
X130404278Y-112568974D01*
X130405793Y-112483914D01*
X130407329Y-112408631D01*
X130408836Y-112345326D01*
X130410268Y-112296202D01*
X130411575Y-112263461D01*
X130412566Y-112250076D01*
X130417637Y-112216790D01*
X130483097Y-112216790D01*
X130525891Y-112219398D01*
G37*
G36*
X130634623Y-102095901D02*
G01*
X130661492Y-102105900D01*
X130679461Y-102118052D01*
X130683000Y-102125510D01*
X130678520Y-102143736D01*
X130667576Y-102169387D01*
X130665981Y-102172520D01*
X130658399Y-102197038D01*
X130651610Y-102236858D01*
X130645964Y-102286804D01*
X130641813Y-102341699D01*
X130639509Y-102396367D01*
X130639403Y-102445631D01*
X130641846Y-102484314D01*
X130643937Y-102497193D01*
X130646993Y-102521266D01*
X130649534Y-102560432D01*
X130651300Y-102609305D01*
X130652028Y-102662496D01*
X130652029Y-102663334D01*
X130654528Y-102749436D01*
X130661398Y-102824509D01*
X130669414Y-102871631D01*
X130686554Y-102949635D01*
X130788245Y-103048596D01*
X130826215Y-103086554D01*
X130859111Y-103121327D01*
X130883903Y-103149575D01*
X130897562Y-103167955D01*
X130898875Y-103170600D01*
X130910964Y-103188422D01*
X130921886Y-103193645D01*
X130936126Y-103197986D01*
X130964519Y-103209809D01*
X131002957Y-103227310D01*
X131047334Y-103248687D01*
X131047603Y-103248820D01*
X131096076Y-103271981D01*
X131142689Y-103292861D01*
X131181759Y-103308995D01*
X131205338Y-103317292D01*
X131239902Y-103331512D01*
X131278720Y-103353604D01*
X131300766Y-103369142D01*
X131331028Y-103390990D01*
X131351977Y-103400660D01*
X131368915Y-103400326D01*
X131373239Y-103398898D01*
X131402542Y-103395747D01*
X131444194Y-103401664D01*
X131492881Y-103415346D01*
X131543289Y-103435490D01*
X131563806Y-103445622D01*
X131585420Y-103456538D01*
X131605040Y-103464514D01*
X131626546Y-103470137D01*
X131653816Y-103473997D01*
X131690728Y-103476680D01*
X131741161Y-103478773D01*
X131793401Y-103480405D01*
X131862857Y-103482947D01*
X131913590Y-103485984D01*
X131947359Y-103489694D01*
X131965924Y-103494254D01*
X131970928Y-103498342D01*
X131983207Y-103506836D01*
X132008571Y-103511015D01*
X132014456Y-103511145D01*
X132048451Y-103515398D01*
X132087243Y-103526083D01*
X132100659Y-103531265D01*
X132128894Y-103542672D01*
X132148387Y-103546193D01*
X132168507Y-103541723D01*
X132196246Y-103530192D01*
X132224892Y-103518902D01*
X132248500Y-103514237D01*
X132275578Y-103515564D01*
X132311467Y-103521649D01*
X132356812Y-103531443D01*
X132384122Y-103540983D01*
X132395757Y-103551941D01*
X132394075Y-103565988D01*
X132388094Y-103575973D01*
X132372958Y-103613261D01*
X132376983Y-103650711D01*
X132399435Y-103683614D01*
X132405732Y-103688969D01*
X132426149Y-103706422D01*
X132432500Y-103719402D01*
X132427393Y-103735333D01*
X132424187Y-103741479D01*
X132416043Y-103761235D01*
X132417542Y-103779280D01*
X132429501Y-103804942D01*
X132429781Y-103805464D01*
X132443055Y-103840205D01*
X132447658Y-103882549D01*
X132447352Y-103904765D01*
X132448553Y-103942973D01*
X132453779Y-103992713D01*
X132462053Y-104045654D01*
X132466578Y-104068628D01*
X132476315Y-104117064D01*
X132481232Y-104149962D01*
X132481625Y-104171620D01*
X132477789Y-104186335D01*
X132475020Y-104191428D01*
X132464770Y-104216844D01*
X132459161Y-104246439D01*
X132453684Y-104274630D01*
X132444261Y-104295075D01*
X132444166Y-104295191D01*
X132422650Y-104307259D01*
X132393406Y-104308894D01*
X132366278Y-104300197D01*
X132358690Y-104294324D01*
X132343142Y-104266985D01*
X132334414Y-104226424D01*
X132333659Y-104179102D01*
X132335312Y-104163419D01*
X132334503Y-104105756D01*
X132316074Y-104044555D01*
X132284545Y-103985583D01*
X132264782Y-103948346D01*
X132249785Y-103909620D01*
X132244656Y-103888493D01*
X132236838Y-103851205D01*
X132225997Y-103815801D01*
X132223847Y-103810353D01*
X132212946Y-103775144D01*
X132207188Y-103740293D01*
X132202733Y-103711015D01*
X132192249Y-103699759D01*
X132172210Y-103704873D01*
X132153882Y-103715264D01*
X132114855Y-103730252D01*
X132062890Y-103737513D01*
X132003975Y-103737154D01*
X131944098Y-103729279D01*
X131889248Y-103713998D01*
X131880173Y-103710385D01*
X131831778Y-103692573D01*
X131792043Y-103685118D01*
X131752651Y-103686921D01*
X131731592Y-103690715D01*
X131689922Y-103689683D01*
X131670141Y-103682276D01*
X131640290Y-103670942D01*
X131604158Y-103662240D01*
X131596943Y-103661109D01*
X131561497Y-103654254D01*
X131531954Y-103642572D01*
X131502136Y-103622663D01*
X131465865Y-103591132D01*
X131460350Y-103585999D01*
X131428971Y-103559170D01*
X131402609Y-103544277D01*
X131373443Y-103537295D01*
X131363527Y-103536192D01*
X131335800Y-103530821D01*
X131302173Y-103518561D01*
X131259228Y-103497905D01*
X131203545Y-103467348D01*
X131191084Y-103460207D01*
X131131764Y-103427225D01*
X131088067Y-103405716D01*
X131058967Y-103395215D01*
X131045584Y-103394410D01*
X131022521Y-103394216D01*
X130992466Y-103386622D01*
X130985442Y-103383908D01*
X130949134Y-103374158D01*
X130900392Y-103368614D01*
X130871254Y-103367758D01*
X130831473Y-103367146D01*
X130805249Y-103363862D01*
X130785662Y-103355731D01*
X130765793Y-103340581D01*
X130755462Y-103331387D01*
X130720494Y-103305934D01*
X130685660Y-103290622D01*
X130678505Y-103289061D01*
X130641168Y-103274311D01*
X130605709Y-103245816D01*
X130579020Y-103209691D01*
X130572540Y-103195037D01*
X130547944Y-103118446D01*
X130533790Y-103057343D01*
X130530222Y-103014411D01*
X130530943Y-102970092D01*
X130530385Y-102914597D01*
X130528735Y-102851568D01*
X130526184Y-102784648D01*
X130522923Y-102717477D01*
X130519140Y-102653697D01*
X130515027Y-102596950D01*
X130510772Y-102550878D01*
X130506566Y-102519122D01*
X130503781Y-102507435D01*
X130496475Y-102480166D01*
X130489604Y-102440089D01*
X130484425Y-102394861D01*
X130483605Y-102384532D01*
X130479687Y-102344678D01*
X130474648Y-102313546D01*
X130469368Y-102296079D01*
X130467507Y-102294061D01*
X130458470Y-102282311D01*
X130457677Y-102276477D01*
X130463482Y-102258609D01*
X130478732Y-102229919D01*
X130500176Y-102195199D01*
X130524566Y-102159244D01*
X130548651Y-102126847D01*
X130569182Y-102102801D01*
X130582781Y-102091938D01*
X130606004Y-102090449D01*
X130634623Y-102095901D01*
G37*
G36*
X132550788Y-112707121D02*
G01*
X132570417Y-112717733D01*
X132581417Y-112727347D01*
X132595937Y-112749510D01*
X132604138Y-112773411D01*
X132604718Y-112792588D01*
X132596372Y-112800579D01*
X132596188Y-112800580D01*
X132576305Y-112794727D01*
X132564813Y-112787778D01*
X132549272Y-112768649D01*
X132534887Y-112740329D01*
X132526920Y-112713696D01*
X132526548Y-112708695D01*
X132533793Y-112703302D01*
X132550788Y-112707121D01*
G37*
G36*
X130658691Y-105937636D02*
G01*
X130660190Y-105962897D01*
X130659251Y-105999645D01*
X130656204Y-106043497D01*
X130651376Y-106090073D01*
X130645096Y-106134991D01*
X130637692Y-106173869D01*
X130635271Y-106183812D01*
X130619199Y-106234091D01*
X130600698Y-106273353D01*
X130581657Y-106298131D01*
X130569333Y-106304944D01*
X130552208Y-106300046D01*
X130533079Y-106284494D01*
X130497906Y-106238890D01*
X130480699Y-106198459D01*
X130480916Y-106159586D01*
X130498019Y-106118660D01*
X130506326Y-106105495D01*
X130531327Y-106070136D01*
X130560083Y-106032347D01*
X130589586Y-105995725D01*
X130616831Y-105963868D01*
X130638813Y-105940373D01*
X130652525Y-105928839D01*
X130654427Y-105928242D01*
X130658691Y-105937636D01*
G37*
G36*
X130519129Y-111791750D02*
G01*
X130514008Y-111796871D01*
X130508887Y-111791750D01*
X130514008Y-111786629D01*
X130519129Y-111791750D01*
G37*
G36*
X130492654Y-103089831D02*
G01*
X130503765Y-103112086D01*
X130515184Y-103141362D01*
X130524470Y-103171259D01*
X130529188Y-103195381D01*
X130529371Y-103199319D01*
X130535684Y-103213825D01*
X130552067Y-103237673D01*
X130570338Y-103260217D01*
X130596335Y-103292419D01*
X130608433Y-103314960D01*
X130607697Y-103332172D01*
X130595189Y-103348386D01*
X130592576Y-103350807D01*
X130563075Y-103365807D01*
X130529729Y-103360757D01*
X130509607Y-103349386D01*
X130490868Y-103332366D01*
X130467079Y-103305437D01*
X130441980Y-103273590D01*
X130419312Y-103241813D01*
X130402815Y-103215096D01*
X130396231Y-103198428D01*
X130396225Y-103198155D01*
X130402118Y-103182341D01*
X130417064Y-103157796D01*
X130436968Y-103129970D01*
X130457732Y-103104314D01*
X130475261Y-103086277D01*
X130484287Y-103080995D01*
X130492654Y-103089831D01*
G37*
G36*
X132811253Y-105084605D02*
G01*
X132838166Y-105109232D01*
X132858821Y-105142682D01*
X132871311Y-105179174D01*
X132873730Y-105212924D01*
X132864171Y-105238153D01*
X132862483Y-105239983D01*
X132850881Y-105249616D01*
X132839697Y-105249743D01*
X132822645Y-105238924D01*
X132808201Y-105227557D01*
X132790464Y-105211284D01*
X132781501Y-105194364D01*
X132778654Y-105169340D01*
X132778823Y-105145178D01*
X132781021Y-105105962D01*
X132786261Y-105084554D01*
X132795939Y-105078346D01*
X132811253Y-105084605D01*
G37*
G36*
X133904063Y-109141409D02*
G01*
X133925159Y-109156876D01*
X133932618Y-109184315D01*
X133928354Y-109225496D01*
X133924696Y-109242417D01*
X133912226Y-109286140D01*
X133893874Y-109338778D01*
X133871849Y-109395047D01*
X133848361Y-109449661D01*
X133825618Y-109497335D01*
X133805832Y-109532784D01*
X133799380Y-109542171D01*
X133773274Y-109568605D01*
X133742738Y-109589134D01*
X133737809Y-109591400D01*
X133710573Y-109606671D01*
X133677542Y-109630513D01*
X133654663Y-109649894D01*
X133571272Y-109720979D01*
X133471427Y-109796204D01*
X133402289Y-109844303D01*
X133342105Y-109888992D01*
X133295297Y-109934134D01*
X133256871Y-109985695D01*
X133221834Y-110049645D01*
X133210699Y-110073314D01*
X133194115Y-110107934D01*
X133180208Y-110133966D01*
X133171428Y-110146904D01*
X133170290Y-110147568D01*
X133160159Y-110140761D01*
X133142228Y-110123155D01*
X133133024Y-110113015D01*
X133108932Y-110083595D01*
X133081834Y-110047687D01*
X133068700Y-110029162D01*
X133050285Y-110001360D01*
X133042726Y-109985208D01*
X133044785Y-109975827D01*
X133053513Y-109969329D01*
X133070142Y-109958207D01*
X133097760Y-109938412D01*
X133131103Y-109913737D01*
X133139820Y-109907171D01*
X133175051Y-109880875D01*
X133207117Y-109857530D01*
X133230099Y-109841436D01*
X133233242Y-109839363D01*
X133282877Y-109798254D01*
X133324466Y-109746846D01*
X133337400Y-109724590D01*
X133350834Y-109677255D01*
X133350524Y-109615178D01*
X133336507Y-109538774D01*
X133313445Y-109461709D01*
X133294123Y-109404310D01*
X133282103Y-109363415D01*
X133277885Y-109336208D01*
X133281970Y-109319872D01*
X133294860Y-109311589D01*
X133317056Y-109308543D01*
X133340782Y-109307993D01*
X133378501Y-109305119D01*
X133415053Y-109298669D01*
X133417596Y-109298014D01*
X133478793Y-109281187D01*
X133524387Y-109267305D01*
X133558754Y-109254791D01*
X133586268Y-109242065D01*
X133609042Y-109228971D01*
X133663008Y-109195986D01*
X133704371Y-109172639D01*
X133737456Y-109157032D01*
X133766588Y-109147267D01*
X133796092Y-109141446D01*
X133813321Y-109139315D01*
X133867421Y-109136146D01*
X133904063Y-109141409D01*
G37*
G36*
X131500930Y-104513030D02*
G01*
X131504614Y-104522536D01*
X131506254Y-104545963D01*
X131500135Y-104561577D01*
X131489949Y-104565444D01*
X131479390Y-104553633D01*
X131478167Y-104550701D01*
X131476199Y-104530328D01*
X131482181Y-104511751D01*
X131492014Y-104504613D01*
X131500930Y-104513030D01*
G37*
G36*
X132411696Y-112249809D02*
G01*
X132417880Y-112270560D01*
X132419995Y-112292728D01*
X132411273Y-112297792D01*
X132397344Y-112290887D01*
X132384183Y-112274644D01*
X132377756Y-112253000D01*
X132380246Y-112235355D01*
X132383637Y-112231859D01*
X132399167Y-112230981D01*
X132411696Y-112249809D01*
G37*
G36*
X130324454Y-109518160D02*
G01*
X130328811Y-109541767D01*
X130329456Y-109573467D01*
X130329074Y-109579527D01*
X130331887Y-109618742D01*
X130342232Y-109638405D01*
X130348464Y-109648479D01*
X130352995Y-109664865D01*
X130356101Y-109690590D01*
X130358054Y-109728682D01*
X130359131Y-109782168D01*
X130359502Y-109828865D01*
X130359140Y-109905788D01*
X130357176Y-109962714D01*
X130353619Y-109999500D01*
X130348759Y-110015674D01*
X130338579Y-110038517D01*
X130328755Y-110080437D01*
X130319426Y-110140025D01*
X130310728Y-110215876D01*
X130302797Y-110306582D01*
X130295772Y-110410736D01*
X130289788Y-110526933D01*
X130284983Y-110653764D01*
X130284222Y-110678684D01*
X130280796Y-110780748D01*
X130277045Y-110865447D01*
X130273014Y-110932066D01*
X130268750Y-110979886D01*
X130264299Y-111008192D01*
X130262703Y-111013363D01*
X130259755Y-111026199D01*
X130257225Y-111050052D01*
X130255085Y-111086121D01*
X130253307Y-111135606D01*
X130251864Y-111199709D01*
X130250728Y-111279630D01*
X130249871Y-111376568D01*
X130249266Y-111491726D01*
X130248917Y-111609955D01*
X130247717Y-112175821D01*
X130222113Y-112174633D01*
X130194982Y-112171901D01*
X130179559Y-112168950D01*
X130171830Y-112163584D01*
X130166079Y-112150008D01*
X130161641Y-112124888D01*
X130157851Y-112084890D01*
X130155303Y-112047487D01*
X130153140Y-111997341D01*
X130151672Y-111929553D01*
X130150855Y-111846953D01*
X130150649Y-111752371D01*
X130151011Y-111648635D01*
X130151900Y-111538575D01*
X130153274Y-111425020D01*
X130155092Y-111310800D01*
X130157311Y-111198743D01*
X130159890Y-111091680D01*
X130162787Y-110992439D01*
X130165961Y-110903849D01*
X130169370Y-110828741D01*
X130172971Y-110769943D01*
X130174406Y-110752193D01*
X130180670Y-110680622D01*
X130187236Y-110603773D01*
X130193480Y-110529087D01*
X130198774Y-110464006D01*
X130200682Y-110439814D01*
X130205599Y-110380511D01*
X130211607Y-110314232D01*
X130218376Y-110244036D01*
X130225573Y-110172986D01*
X130232868Y-110104140D01*
X130239929Y-110040561D01*
X130246425Y-109985309D01*
X130252025Y-109941444D01*
X130256396Y-109912027D01*
X130259098Y-109900271D01*
X130262425Y-109886765D01*
X130267572Y-109855357D01*
X130274205Y-109808511D01*
X130281990Y-109748696D01*
X130290591Y-109678378D01*
X130299101Y-109605096D01*
X130304133Y-109567993D01*
X130309882Y-109533403D01*
X130314889Y-109511538D01*
X130319366Y-109507912D01*
X130324454Y-109518160D01*
G37*
G36*
X133670669Y-105230445D02*
G01*
X133675518Y-105232952D01*
X133700661Y-105241167D01*
X133734534Y-105246014D01*
X133745338Y-105246483D01*
X133791427Y-105247153D01*
X133794087Y-105375177D01*
X133793912Y-105456598D01*
X133790031Y-105527399D01*
X133782766Y-105585458D01*
X133772441Y-105628654D01*
X133759377Y-105654868D01*
X133750459Y-105661529D01*
X133723161Y-105665555D01*
X133709492Y-105664541D01*
X133659779Y-105651661D01*
X133614632Y-105633860D01*
X133580603Y-105613931D01*
X133571276Y-105605674D01*
X133547900Y-105580791D01*
X133570356Y-105485666D01*
X133581464Y-105433571D01*
X133591175Y-105379035D01*
X133597810Y-105331752D01*
X133598933Y-105320627D01*
X133603558Y-105281057D01*
X133610137Y-105256494D01*
X133620564Y-105241460D01*
X133628420Y-105235403D01*
X133650053Y-105225635D01*
X133670669Y-105230445D01*
G37*
G36*
X133708079Y-101949660D02*
G01*
X133707179Y-101964360D01*
X133704933Y-101972892D01*
X133694804Y-101999501D01*
X133677822Y-102035279D01*
X133656289Y-102076264D01*
X133632503Y-102118495D01*
X133608764Y-102158009D01*
X133587370Y-102190845D01*
X133570622Y-102213040D01*
X133561143Y-102220661D01*
X133550633Y-102213591D01*
X133531288Y-102195198D01*
X133510993Y-102173525D01*
X133488813Y-102147527D01*
X133473533Y-102127289D01*
X133468806Y-102118298D01*
X133476451Y-102105493D01*
X133496732Y-102084105D01*
X133525666Y-102057526D01*
X133559273Y-102029150D01*
X133593569Y-102002371D01*
X133624574Y-101980581D01*
X133643456Y-101969461D01*
X133679000Y-101952366D01*
X133699614Y-101945714D01*
X133708079Y-101949660D01*
G37*
G36*
X130704418Y-102259679D02*
G01*
X130718957Y-102277562D01*
X130729975Y-102293975D01*
X130752371Y-102329493D01*
X130777954Y-102370045D01*
X130790330Y-102389653D01*
X130810637Y-102423426D01*
X130825912Y-102451870D01*
X130834078Y-102470833D01*
X130833747Y-102476384D01*
X130825034Y-102470639D01*
X130815872Y-102463581D01*
X130799042Y-102445618D01*
X130778002Y-102416779D01*
X130755202Y-102381342D01*
X130733093Y-102343585D01*
X130714126Y-102307786D01*
X130700750Y-102278224D01*
X130695416Y-102259177D01*
X130696423Y-102255033D01*
X130704418Y-102259679D01*
G37*
G36*
X131763419Y-103766768D02*
G01*
X131761640Y-103776405D01*
X131753818Y-103791175D01*
X131739056Y-103810398D01*
X131721811Y-103829318D01*
X131706540Y-103843180D01*
X131697701Y-103847230D01*
X131696951Y-103845415D01*
X131702123Y-103828751D01*
X131714429Y-103804088D01*
X131729050Y-103780066D01*
X131741171Y-103765323D01*
X131741909Y-103764789D01*
X131758762Y-103757592D01*
X131763419Y-103766768D01*
G37*
G36*
X132156764Y-111926290D02*
G01*
X132181190Y-111943587D01*
X132212509Y-111968287D01*
X132246767Y-111997012D01*
X132280011Y-112026384D01*
X132308284Y-112053025D01*
X132327633Y-112073558D01*
X132333784Y-112082575D01*
X132337958Y-112104786D01*
X132339415Y-112138326D01*
X132338483Y-112176820D01*
X132335491Y-112213893D01*
X132330767Y-112243171D01*
X132324733Y-112258198D01*
X132312751Y-112257058D01*
X132286735Y-112248095D01*
X132250844Y-112232893D01*
X132219656Y-112218205D01*
X132172590Y-112193310D01*
X132134043Y-112169381D01*
X132108353Y-112149214D01*
X132102537Y-112142674D01*
X132089986Y-112115149D01*
X132081075Y-112076816D01*
X132076665Y-112035369D01*
X132077617Y-111998501D01*
X132083838Y-111975469D01*
X132091768Y-111965082D01*
X132101257Y-111966972D01*
X132117717Y-111982721D01*
X132121099Y-111986351D01*
X132141229Y-112004668D01*
X132154740Y-112007326D01*
X132159911Y-112003734D01*
X132165379Y-111990266D01*
X132154524Y-111972979D01*
X132142818Y-111954215D01*
X132137212Y-111934457D01*
X132139346Y-111921407D01*
X132143187Y-111919774D01*
X132156764Y-111926290D01*
G37*
G36*
X133548836Y-105308280D02*
G01*
X133555048Y-105312407D01*
X133555388Y-105326506D01*
X133550882Y-105355518D01*
X133542667Y-105394765D01*
X133531881Y-105439568D01*
X133519660Y-105485250D01*
X133507143Y-105527133D01*
X133495466Y-105560538D01*
X133493612Y-105565120D01*
X133480522Y-105592052D01*
X133468221Y-105610333D01*
X133465094Y-105613145D01*
X133441893Y-105620519D01*
X133415520Y-105619384D01*
X133395112Y-105610834D01*
X133390008Y-105604145D01*
X133389690Y-105585136D01*
X133396215Y-105555993D01*
X133401620Y-105540133D01*
X133413841Y-105506376D01*
X133428867Y-105462270D01*
X133443550Y-105417065D01*
X133444253Y-105414836D01*
X133457397Y-105376637D01*
X133470117Y-105345748D01*
X133480066Y-105327738D01*
X133481669Y-105326042D01*
X133503289Y-105314132D01*
X133528491Y-105307688D01*
X133548836Y-105308280D01*
G37*
G36*
X132772908Y-107765029D02*
G01*
X132777843Y-107788518D01*
X132780374Y-107827475D01*
X132780928Y-107883691D01*
X132780260Y-107940782D01*
X132778961Y-108003600D01*
X132777173Y-108049992D01*
X132774363Y-108084014D01*
X132770003Y-108109726D01*
X132763561Y-108131183D01*
X132754508Y-108152443D01*
X132751871Y-108158003D01*
X132736974Y-108186834D01*
X132724852Y-108206376D01*
X132719393Y-108211773D01*
X132715727Y-108202572D01*
X132712229Y-108177822D01*
X132709549Y-108142454D01*
X132709151Y-108134161D01*
X132708235Y-108092041D01*
X132708306Y-108036977D01*
X132709301Y-107976479D01*
X132710903Y-107924442D01*
X132713330Y-107869482D01*
X132716075Y-107831074D01*
X132719859Y-107805289D01*
X132725405Y-107788198D01*
X132733436Y-107775872D01*
X132739405Y-107769470D01*
X132754116Y-107757296D01*
X132765141Y-107755219D01*
X132772908Y-107765029D01*
G37*
G36*
X132544451Y-110194816D02*
G01*
X132561845Y-110205512D01*
X132577326Y-110220791D01*
X132596437Y-110246600D01*
X132621293Y-110287219D01*
X132649842Y-110338514D01*
X132680030Y-110396354D01*
X132709802Y-110456608D01*
X132737105Y-110515143D01*
X132759884Y-110567828D01*
X132776086Y-110610530D01*
X132782825Y-110634191D01*
X132791010Y-110667500D01*
X132804356Y-110714135D01*
X132821079Y-110768149D01*
X132839398Y-110823597D01*
X132841179Y-110828788D01*
X132870457Y-110914313D01*
X132893384Y-110982541D01*
X132910548Y-111035449D01*
X132922535Y-111075013D01*
X132929936Y-111103208D01*
X132933336Y-111122012D01*
X132933325Y-111133399D01*
X132932600Y-111136061D01*
X132917974Y-111148700D01*
X132892274Y-111149315D01*
X132877032Y-111144745D01*
X132865547Y-111134596D01*
X132845582Y-111111725D01*
X132820507Y-111080116D01*
X132806206Y-111061057D01*
X132764771Y-111008065D01*
X132718086Y-110953786D01*
X132669641Y-110901820D01*
X132622920Y-110855763D01*
X132581413Y-110819214D01*
X132549676Y-110796393D01*
X132504299Y-110777523D01*
X132456043Y-110770161D01*
X132412401Y-110775024D01*
X132395729Y-110781674D01*
X132370244Y-110805121D01*
X132349226Y-110842510D01*
X132335590Y-110887361D01*
X132331951Y-110923564D01*
X132335079Y-110960146D01*
X132347281Y-110989121D01*
X132364011Y-111011743D01*
X132384166Y-111040631D01*
X132387470Y-111058295D01*
X132373694Y-111064975D01*
X132342608Y-111060907D01*
X132321886Y-111055332D01*
X132283819Y-111046751D01*
X132257114Y-111046307D01*
X132251480Y-111048148D01*
X132231936Y-111051768D01*
X132201176Y-111051153D01*
X132183443Y-111049082D01*
X132139582Y-111042423D01*
X132093045Y-111035381D01*
X132081024Y-111033567D01*
X132046277Y-111025212D01*
X132002300Y-111010368D01*
X131957993Y-110992077D01*
X131953460Y-110989975D01*
X131880582Y-110962830D01*
X131813723Y-110953496D01*
X131749504Y-110961581D01*
X131737385Y-110965035D01*
X131710398Y-110970899D01*
X131670553Y-110976634D01*
X131625457Y-110981187D01*
X131615016Y-110981966D01*
X131561165Y-110986966D01*
X131499518Y-110994614D01*
X131442331Y-111003368D01*
X131435782Y-111004521D01*
X131392067Y-111012138D01*
X131363028Y-111015820D01*
X131343187Y-111015307D01*
X131327067Y-111010337D01*
X131309191Y-111000648D01*
X131305197Y-110998284D01*
X131281672Y-110981635D01*
X131268104Y-110966828D01*
X131266790Y-110962747D01*
X131273763Y-110942858D01*
X131292989Y-110911932D01*
X131321925Y-110873099D01*
X131358030Y-110829491D01*
X131398762Y-110784238D01*
X131441579Y-110740471D01*
X131466100Y-110717245D01*
X131506286Y-110679003D01*
X131543133Y-110641414D01*
X131572682Y-110608680D01*
X131590973Y-110585006D01*
X131591543Y-110584100D01*
X131626135Y-110535226D01*
X131666158Y-110493634D01*
X131714648Y-110457363D01*
X131774643Y-110424450D01*
X131849176Y-110392932D01*
X131932516Y-110363706D01*
X131985327Y-110346323D01*
X132035514Y-110329667D01*
X132077534Y-110315585D01*
X132105845Y-110305924D01*
X132106629Y-110305650D01*
X132141032Y-110294269D01*
X132185025Y-110280569D01*
X132224411Y-110268879D01*
X132267259Y-110256482D01*
X132320725Y-110240947D01*
X132375772Y-110224900D01*
X132397493Y-110218551D01*
X132453630Y-110202736D01*
X132494239Y-110193477D01*
X132523214Y-110190820D01*
X132544451Y-110194816D01*
G37*
G36*
X131015421Y-112146531D02*
G01*
X131020430Y-112154329D01*
X131020983Y-112161133D01*
X131014001Y-112190306D01*
X130996337Y-112210176D01*
X130977095Y-112215252D01*
X130952850Y-112212848D01*
X130919635Y-112208695D01*
X130908322Y-112207124D01*
X130862233Y-112200535D01*
X130892959Y-112187097D01*
X130944427Y-112165078D01*
X130980163Y-112151348D01*
X131002913Y-112145351D01*
X131015421Y-112146531D01*
G37*
G36*
X130704494Y-102425487D02*
G01*
X130728220Y-102450195D01*
X130762055Y-102491628D01*
X130770156Y-102502039D01*
X130808796Y-102549113D01*
X130838958Y-102578940D01*
X130861864Y-102592315D01*
X130878735Y-102590032D01*
X130888045Y-102578742D01*
X130904472Y-102564228D01*
X130928042Y-102559146D01*
X130951369Y-102562929D01*
X130967067Y-102575007D01*
X130969774Y-102585030D01*
X130965255Y-102603076D01*
X130954118Y-102628480D01*
X130939991Y-102654507D01*
X130926501Y-102674419D01*
X130917793Y-102681548D01*
X130906551Y-102675233D01*
X130884038Y-102658338D01*
X130854252Y-102633939D01*
X130839452Y-102621255D01*
X130782822Y-102570674D01*
X130741040Y-102529904D01*
X130712280Y-102496859D01*
X130694716Y-102469453D01*
X130686779Y-102446959D01*
X130684494Y-102424345D01*
X130690159Y-102417029D01*
X130704494Y-102425487D01*
G37*
G36*
X133140976Y-108163861D02*
G01*
X133155192Y-108174629D01*
X133159171Y-108196487D01*
X133154018Y-108232636D01*
X133148464Y-108256656D01*
X133138355Y-108291855D01*
X133123076Y-108338333D01*
X133104754Y-108390281D01*
X133085512Y-108441892D01*
X133067477Y-108487356D01*
X133052772Y-108520864D01*
X133049245Y-108527873D01*
X133039998Y-108546771D01*
X133026306Y-108576369D01*
X133017362Y-108596266D01*
X132997655Y-108634564D01*
X132972116Y-108676547D01*
X132956809Y-108698685D01*
X132933877Y-108734011D01*
X132908772Y-108779249D01*
X132886588Y-108825159D01*
X132884796Y-108829270D01*
X132868610Y-108865301D01*
X132855049Y-108892699D01*
X132846315Y-108907116D01*
X132844758Y-108908290D01*
X132834384Y-108902414D01*
X132811976Y-108887114D01*
X132781815Y-108865346D01*
X132772354Y-108858337D01*
X132736070Y-108830088D01*
X132702290Y-108801712D01*
X132677738Y-108778884D01*
X132675856Y-108776919D01*
X132645930Y-108745098D01*
X132723442Y-108670682D01*
X132763872Y-108630852D01*
X132798415Y-108593932D01*
X132829428Y-108556598D01*
X132859266Y-108515523D01*
X132890286Y-108467383D01*
X132924843Y-108408854D01*
X132965293Y-108336609D01*
X132982971Y-108304371D01*
X133013860Y-108249315D01*
X133038338Y-108210172D01*
X133058793Y-108184358D01*
X133077612Y-108169288D01*
X133097184Y-108162376D01*
X133115415Y-108160983D01*
X133140976Y-108163861D01*
G37*
G36*
X130287759Y-113832457D02*
G01*
X130282535Y-113851689D01*
X130271425Y-113876738D01*
X130256987Y-113901877D01*
X130241781Y-113921377D01*
X130241076Y-113922072D01*
X130219972Y-113942556D01*
X130227331Y-113916951D01*
X130237988Y-113889644D01*
X130253227Y-113861174D01*
X130269225Y-113837702D01*
X130282160Y-113825388D01*
X130284537Y-113824774D01*
X130287759Y-113832457D01*
G37*
G36*
X132561058Y-104267054D02*
G01*
X132573405Y-104284830D01*
X132575708Y-104300801D01*
X132567116Y-104305055D01*
X132554256Y-104295293D01*
X132539693Y-104275929D01*
X132538045Y-104262333D01*
X132545778Y-104258806D01*
X132561058Y-104267054D01*
G37*
G36*
X132233839Y-107379158D02*
G01*
X132257197Y-107397773D01*
X132282465Y-107426691D01*
X132306594Y-107461634D01*
X132326535Y-107498327D01*
X132339239Y-107532494D01*
X132342193Y-107552868D01*
X132335631Y-107582790D01*
X132315308Y-107599812D01*
X132280264Y-107604279D01*
X132229541Y-107596537D01*
X132224411Y-107595311D01*
X132182560Y-107584367D01*
X132156838Y-107574403D01*
X132143336Y-107562138D01*
X132138147Y-107544293D01*
X132137354Y-107522240D01*
X132141744Y-107485394D01*
X132157062Y-107449533D01*
X132170641Y-107427910D01*
X132190604Y-107400584D01*
X132207507Y-107381213D01*
X132215440Y-107375119D01*
X132233839Y-107379158D01*
G37*
G36*
X133398947Y-105385419D02*
G01*
X133390656Y-105447540D01*
X133376096Y-105496403D01*
X133356274Y-105528666D01*
X133355605Y-105529346D01*
X133338233Y-105544447D01*
X133323255Y-105547237D01*
X133301910Y-105538408D01*
X133294096Y-105534219D01*
X133263632Y-105508230D01*
X133251113Y-105472845D01*
X133256339Y-105427486D01*
X133256935Y-105425385D01*
X133278766Y-105381255D01*
X133313371Y-105352600D01*
X133359081Y-105340754D01*
X133362903Y-105340580D01*
X133402233Y-105339330D01*
X133398947Y-105385419D01*
G37*
G36*
X130437193Y-110777798D02*
G01*
X130432072Y-110782919D01*
X130426951Y-110777798D01*
X130432072Y-110772677D01*
X130437193Y-110777798D01*
G37*
G36*
X130869338Y-103411319D02*
G01*
X130923723Y-103415976D01*
X130959156Y-103426578D01*
X130976735Y-103444882D01*
X130977558Y-103472647D01*
X130962726Y-103511632D01*
X130948538Y-103538063D01*
X130931635Y-103566767D01*
X130918992Y-103586672D01*
X130913807Y-103593080D01*
X130904907Y-103587041D01*
X130884901Y-103571286D01*
X130860788Y-103551441D01*
X130829353Y-103526517D01*
X130799622Y-103505205D01*
X130782858Y-103494847D01*
X130759993Y-103474666D01*
X130756692Y-103450634D01*
X130773361Y-103425732D01*
X130773495Y-103425611D01*
X130788897Y-103416404D01*
X130812558Y-103411713D01*
X130849485Y-103410791D01*
X130869338Y-103411319D01*
G37*
G36*
X130732999Y-114176149D02*
G01*
X130737760Y-114180701D01*
X130736292Y-114193130D01*
X130728140Y-114219216D01*
X130714940Y-114253897D01*
X130711095Y-114263194D01*
X130690465Y-114307156D01*
X130669590Y-114335887D01*
X130643060Y-114353978D01*
X130605460Y-114366021D01*
X130584617Y-114370468D01*
X130552806Y-114376736D01*
X130559970Y-114337560D01*
X130579795Y-114280629D01*
X130615022Y-114229552D01*
X130650577Y-114198262D01*
X130682880Y-114180967D01*
X130712213Y-114173222D01*
X130732999Y-114176149D01*
G37*
G36*
X130784801Y-104118852D02*
G01*
X130795450Y-104125511D01*
X130824006Y-104145844D01*
X130852046Y-104123788D01*
X130873561Y-104110764D01*
X130891365Y-104110708D01*
X130907470Y-104125407D01*
X130923888Y-104156652D01*
X130941676Y-104203484D01*
X130955344Y-104243898D01*
X130962581Y-104271273D01*
X130964014Y-104291801D01*
X130960270Y-104311672D01*
X130954478Y-104329764D01*
X130942014Y-104371104D01*
X130939017Y-104396580D01*
X130945925Y-104408715D01*
X130963179Y-104410035D01*
X130968318Y-104409142D01*
X130997588Y-104403288D01*
X130992639Y-104502599D01*
X130989568Y-104546578D01*
X130985376Y-104583286D01*
X130980734Y-104607585D01*
X130978142Y-104613913D01*
X130962642Y-104622959D01*
X130935529Y-104630965D01*
X130925656Y-104632820D01*
X130892540Y-104640698D01*
X130864609Y-104651511D01*
X130860033Y-104654105D01*
X130835206Y-104665989D01*
X130814266Y-104664476D01*
X130792197Y-104647902D01*
X130772186Y-104624955D01*
X130752804Y-104599363D01*
X130725791Y-104561633D01*
X130694689Y-104516799D01*
X130663038Y-104469892D01*
X130662290Y-104468766D01*
X130633843Y-104426441D01*
X130609021Y-104390472D01*
X130590205Y-104364240D01*
X130579776Y-104351126D01*
X130578942Y-104350398D01*
X130579530Y-104339743D01*
X130590375Y-104318723D01*
X130600861Y-104303272D01*
X130621792Y-104269660D01*
X130642802Y-104227863D01*
X130653795Y-104201438D01*
X130668182Y-104166338D01*
X130682482Y-104137168D01*
X130691463Y-104123100D01*
X130716256Y-104108333D01*
X130749627Y-104106969D01*
X130784801Y-104118852D01*
G37*
G36*
X132515780Y-103785945D02*
G01*
X132541548Y-103817707D01*
X132562395Y-103846570D01*
X132633281Y-103944408D01*
X132697082Y-104025607D01*
X132755528Y-104092020D01*
X132810351Y-104145497D01*
X132863282Y-104187890D01*
X132908820Y-104217013D01*
X132944561Y-104240894D01*
X132971279Y-104265605D01*
X132986112Y-104287799D01*
X132986196Y-104304128D01*
X132984783Y-104305840D01*
X132973617Y-104304247D01*
X132953364Y-104292829D01*
X132947398Y-104288601D01*
X132922722Y-104272936D01*
X132911180Y-104270901D01*
X132912624Y-104280534D01*
X132926905Y-104299871D01*
X132950019Y-104323396D01*
X132980150Y-104354228D01*
X132994457Y-104377804D01*
X132994187Y-104398193D01*
X132980586Y-104419463D01*
X132979754Y-104420422D01*
X132970999Y-104429505D01*
X132961551Y-104434024D01*
X132947218Y-104433532D01*
X132923804Y-104427582D01*
X132887115Y-104415727D01*
X132864532Y-104408135D01*
X132806346Y-104387863D01*
X132763007Y-104370509D01*
X132729680Y-104353315D01*
X132701529Y-104333523D01*
X132673720Y-104308378D01*
X132653445Y-104287760D01*
X132622612Y-104253207D01*
X132592514Y-104215336D01*
X132565721Y-104177938D01*
X132544805Y-104144803D01*
X132532339Y-104119720D01*
X132530661Y-104106808D01*
X132531327Y-104092600D01*
X132527170Y-104065346D01*
X132521212Y-104039431D01*
X132510024Y-103992433D01*
X132506059Y-103964424D01*
X132509507Y-103955154D01*
X132520560Y-103964370D01*
X132539408Y-103991824D01*
X132547446Y-104004969D01*
X132584089Y-104061012D01*
X132618792Y-104104501D01*
X132649697Y-104133439D01*
X132674944Y-104145827D01*
X132678826Y-104146145D01*
X132693714Y-104143729D01*
X132698608Y-104135032D01*
X132692667Y-104117877D01*
X132675047Y-104090090D01*
X132644907Y-104049495D01*
X132637851Y-104040356D01*
X132594547Y-103982275D01*
X132556102Y-103926458D01*
X132524306Y-103875848D01*
X132500947Y-103833385D01*
X132487811Y-103802010D01*
X132485580Y-103789855D01*
X132488651Y-103772650D01*
X132498432Y-103771137D01*
X132515780Y-103785945D01*
G37*
G36*
X132684674Y-104396327D02*
G01*
X132706168Y-104404908D01*
X132709442Y-104406559D01*
X132733713Y-104417582D01*
X132750684Y-104422642D01*
X132751474Y-104422677D01*
X132766713Y-104426671D01*
X132792641Y-104436763D01*
X132805752Y-104442548D01*
X132844487Y-104458164D01*
X132885435Y-104471677D01*
X132893472Y-104473877D01*
X132924722Y-104485151D01*
X132943131Y-104502107D01*
X132951842Y-104519002D01*
X132963186Y-104541463D01*
X132979363Y-104562771D01*
X133004276Y-104587262D01*
X133041830Y-104619275D01*
X133042846Y-104620113D01*
X133062419Y-104641314D01*
X133064035Y-104656563D01*
X133049498Y-104665303D01*
X133020610Y-104666980D01*
X132979174Y-104661038D01*
X132941346Y-104651365D01*
X132863219Y-104623293D01*
X132804897Y-104591227D01*
X132766515Y-104555246D01*
X132756975Y-104540159D01*
X132738212Y-104507073D01*
X132714411Y-104468861D01*
X132701721Y-104449822D01*
X132684439Y-104422722D01*
X132674281Y-104402820D01*
X132673117Y-104395597D01*
X132684674Y-104396327D01*
G37*
G36*
X132330162Y-111609728D02*
G01*
X132330888Y-111627402D01*
X132323058Y-111648263D01*
X132308585Y-111664803D01*
X132279715Y-111682128D01*
X132255950Y-111690067D01*
X132241817Y-111687502D01*
X132239774Y-111681788D01*
X132247070Y-111666015D01*
X132264947Y-111644233D01*
X132287385Y-111622435D01*
X132308365Y-111606614D01*
X132319636Y-111602274D01*
X132330162Y-111609728D01*
G37*
G36*
X133590004Y-104751127D02*
G01*
X133613475Y-104764854D01*
X133629464Y-104775986D01*
X133662619Y-104798088D01*
X133705591Y-104824642D01*
X133750078Y-104850549D01*
X133758131Y-104855041D01*
X133793559Y-104875852D01*
X133820836Y-104894199D01*
X133835847Y-104907208D01*
X133837506Y-104910468D01*
X133829165Y-104918943D01*
X133808442Y-104932042D01*
X133781803Y-104946360D01*
X133755710Y-104958492D01*
X133736628Y-104965036D01*
X133733198Y-104965400D01*
X133722954Y-104961339D01*
X133699938Y-104950975D01*
X133678766Y-104941090D01*
X133643862Y-104921396D01*
X133612620Y-104898504D01*
X133600961Y-104887420D01*
X133563789Y-104841317D01*
X133544207Y-104804500D01*
X133541977Y-104776175D01*
X133556856Y-104755547D01*
X133560331Y-104753203D01*
X133574110Y-104747844D01*
X133590004Y-104751127D01*
G37*
G36*
X132505755Y-112534004D02*
G01*
X132523411Y-112562832D01*
X132537916Y-112608977D01*
X132542112Y-112629028D01*
X132543968Y-112656951D01*
X132534971Y-112667680D01*
X132513971Y-112662063D01*
X132504334Y-112656837D01*
X132489564Y-112640377D01*
X132474744Y-112612239D01*
X132462954Y-112580274D01*
X132457274Y-112552333D01*
X132458410Y-112539797D01*
X132472406Y-112526934D01*
X132485781Y-112524048D01*
X132505755Y-112534004D01*
G37*
G36*
X132231794Y-111769290D02*
G01*
X132253816Y-111777489D01*
X132260258Y-111786751D01*
X132251993Y-111796586D01*
X132231434Y-111811213D01*
X132204931Y-111826945D01*
X132178836Y-111840096D01*
X132159499Y-111846978D01*
X132156015Y-111847272D01*
X132133614Y-111842716D01*
X132129673Y-111841297D01*
X132118326Y-111829358D01*
X132121798Y-111812184D01*
X132136540Y-111793607D01*
X132159002Y-111777453D01*
X132185633Y-111767553D01*
X132199350Y-111766145D01*
X132231794Y-111769290D01*
G37*
G36*
X132681844Y-113442903D02*
G01*
X132693847Y-113457060D01*
X132699430Y-113476529D01*
X132698946Y-113482889D01*
X132689277Y-113500584D01*
X132674185Y-113504968D01*
X132666734Y-113500659D01*
X132660642Y-113484389D01*
X132660573Y-113461683D01*
X132666132Y-113443995D01*
X132668775Y-113441418D01*
X132681844Y-113442903D01*
G37*
G36*
X131204221Y-103017590D02*
G01*
X131205338Y-103024653D01*
X131203147Y-103038318D01*
X131201313Y-103040016D01*
X131194709Y-103032007D01*
X131191393Y-103024653D01*
X131191180Y-103011465D01*
X131195418Y-103009290D01*
X131204221Y-103017590D01*
G37*
G36*
X130708471Y-103361688D02*
G01*
X130728379Y-103371828D01*
X130733146Y-103390507D01*
X130723501Y-103420988D01*
X130722323Y-103423606D01*
X130711207Y-103443807D01*
X130699434Y-103447840D01*
X130680020Y-103437203D01*
X130675037Y-103433749D01*
X130656249Y-103411621D01*
X130654135Y-103388196D01*
X130666086Y-103369096D01*
X130689495Y-103359942D01*
X130708471Y-103361688D01*
G37*
G36*
X133138896Y-104236240D02*
G01*
X133170821Y-104253074D01*
X133210288Y-104288167D01*
X133244646Y-104340915D01*
X133271083Y-104402193D01*
X133281413Y-104433524D01*
X133282603Y-104447629D01*
X133274108Y-104445875D01*
X133258846Y-104432919D01*
X133241099Y-104409784D01*
X133233261Y-104386780D01*
X133233242Y-104385859D01*
X133224808Y-104366254D01*
X133204556Y-104355014D01*
X133180053Y-104353894D01*
X133158870Y-104364652D01*
X133156032Y-104367935D01*
X133144569Y-104386126D01*
X133141390Y-104395089D01*
X133149212Y-104410178D01*
X133169611Y-104429549D01*
X133196623Y-104448769D01*
X133224289Y-104463404D01*
X133239949Y-104468388D01*
X133274778Y-104474921D01*
X133267863Y-104528174D01*
X133261922Y-104559765D01*
X133254267Y-104582491D01*
X133249655Y-104588952D01*
X133230040Y-104594336D01*
X133196956Y-104596501D01*
X133157116Y-104595748D01*
X133117232Y-104592374D01*
X133084015Y-104586678D01*
X133067068Y-104580825D01*
X133043105Y-104563149D01*
X133028178Y-104545159D01*
X133022805Y-104521339D01*
X133022334Y-104483628D01*
X133026289Y-104437901D01*
X133034190Y-104390031D01*
X133043973Y-104350983D01*
X133054769Y-104313670D01*
X133064463Y-104277460D01*
X133066544Y-104269048D01*
X133080657Y-104240347D01*
X133104841Y-104229401D01*
X133138896Y-104236240D01*
G37*
%TD*%
D10*
%TO.C,MX4*%
X203249801Y-107999801D03*
X213409801Y-107999801D03*
D11*
X208329801Y-107999801D03*
%TD*%
D10*
%TO.C,MX2*%
X213409801Y-88949801D03*
D11*
X208329801Y-88949801D03*
D10*
X203249801Y-88949801D03*
%TD*%
%TO.C,MX1*%
X194359801Y-88949801D03*
X184199801Y-88949801D03*
D11*
X189279801Y-88949801D03*
%TD*%
%TO.C,MX3*%
X189279801Y-107999801D03*
D10*
X194359801Y-107999801D03*
X184199801Y-107999801D03*
%TD*%
D12*
%TO.C,USB1*%
X140812000Y-84041000D03*
X135032000Y-84041000D03*
D13*
X142242000Y-80391000D03*
D14*
X142242000Y-84571000D03*
X133602000Y-84571000D03*
D13*
X133602000Y-80391000D03*
%TD*%
M02*
