%TF.GenerationSoftware,KiCad,Pcbnew,(6.0.0)*%
%TF.CreationDate,2023-04-29T04:55:56-07:00*%
%TF.ProjectId,coolpcbproject,636f6f6c-7063-4627-9072-6f6a6563742e,rev?*%
%TF.SameCoordinates,Original*%
%TF.FileFunction,Soldermask,Bot*%
%TF.FilePolarity,Negative*%
%FSLAX46Y46*%
G04 Gerber Fmt 4.6, Leading zero omitted, Abs format (unit mm)*
G04 Created by KiCad (PCBNEW (6.0.0)) date 2023-04-29 04:55:56*
%MOMM*%
%LPD*%
G01*
G04 APERTURE LIST*
G04 Aperture macros list*
%AMRoundRect*
0 Rectangle with rounded corners*
0 $1 Rounding radius*
0 $2 $3 $4 $5 $6 $7 $8 $9 X,Y pos of 4 corners*
0 Add a 4 corners polygon primitive as box body*
4,1,4,$2,$3,$4,$5,$6,$7,$8,$9,$2,$3,0*
0 Add four circle primitives for the rounded corners*
1,1,$1+$1,$2,$3*
1,1,$1+$1,$4,$5*
1,1,$1+$1,$6,$7*
1,1,$1+$1,$8,$9*
0 Add four rect primitives between the rounded corners*
20,1,$1+$1,$2,$3,$4,$5,0*
20,1,$1+$1,$4,$5,$6,$7,0*
20,1,$1+$1,$6,$7,$8,$9,0*
20,1,$1+$1,$8,$9,$2,$3,0*%
%AMHorizOval*
0 Thick line with rounded ends*
0 $1 width*
0 $2 $3 position (X,Y) of the first rounded end (center of the circle)*
0 $4 $5 position (X,Y) of the second rounded end (center of the circle)*
0 Add line between two ends*
20,1,$1,$2,$3,$4,$5,0*
0 Add two circle primitives to create the rounded ends*
1,1,$1,$2,$3*
1,1,$1,$4,$5*%
G04 Aperture macros list end*
%ADD10C,1.750000*%
%ADD11C,3.987800*%
%ADD12HorizOval,2.250000X0.655008X0.729993X-0.655008X-0.729993X0*%
%ADD13C,2.250000*%
%ADD14HorizOval,2.250000X0.020000X0.290000X-0.020000X-0.290000X0*%
%ADD15HorizOval,2.250000X0.655001X0.730000X-0.655001X-0.730000X0*%
%ADD16R,1.200000X0.900000*%
%ADD17C,0.650000*%
%ADD18R,0.600000X1.450000*%
%ADD19R,0.300000X1.450000*%
%ADD20O,1.000000X1.600000*%
%ADD21O,1.000000X2.100000*%
%ADD22RoundRect,0.250000X0.375000X0.625000X-0.375000X0.625000X-0.375000X-0.625000X0.375000X-0.625000X0*%
%ADD23RoundRect,0.250000X-0.475000X0.250000X-0.475000X-0.250000X0.475000X-0.250000X0.475000X0.250000X0*%
%ADD24RoundRect,0.250000X0.475000X-0.250000X0.475000X0.250000X-0.475000X0.250000X-0.475000X-0.250000X0*%
%ADD25R,1.400000X1.200000*%
%ADD26RoundRect,0.250000X-0.450000X0.262500X-0.450000X-0.262500X0.450000X-0.262500X0.450000X0.262500X0*%
%ADD27R,1.500000X0.550000*%
%ADD28R,0.550000X1.500000*%
%ADD29RoundRect,0.250000X-0.250000X-0.475000X0.250000X-0.475000X0.250000X0.475000X-0.250000X0.475000X0*%
%ADD30R,1.800000X1.100000*%
%ADD31RoundRect,0.250000X0.450000X-0.262500X0.450000X0.262500X-0.450000X0.262500X-0.450000X-0.262500X0*%
%ADD32RoundRect,0.250000X-0.262500X-0.450000X0.262500X-0.450000X0.262500X0.450000X-0.262500X0.450000X0*%
%ADD33RoundRect,0.250000X0.262500X0.450000X-0.262500X0.450000X-0.262500X-0.450000X0.262500X-0.450000X0*%
%ADD34RoundRect,0.150000X0.150000X-0.512500X0.150000X0.512500X-0.150000X0.512500X-0.150000X-0.512500X0*%
G04 APERTURE END LIST*
D10*
%TO.C,MX4*%
X203249801Y-107999801D03*
X213409801Y-107999801D03*
D11*
X208329801Y-107999801D03*
D12*
X205174809Y-104729808D03*
D13*
X205829801Y-103999801D03*
X210869801Y-102919801D03*
D14*
X210849801Y-103209801D03*
%TD*%
D10*
%TO.C,MX2*%
X213409801Y-88949801D03*
D11*
X208329801Y-88949801D03*
D10*
X203249801Y-88949801D03*
D13*
X205829801Y-84949801D03*
D12*
X205174809Y-85679808D03*
D13*
X210869801Y-83869801D03*
D14*
X210849801Y-84159801D03*
%TD*%
D10*
%TO.C,MX1*%
X194359801Y-88949801D03*
X184199801Y-88949801D03*
D11*
X189279801Y-88949801D03*
D13*
X186779801Y-84949801D03*
D15*
X186124802Y-85679801D03*
D14*
X191799801Y-84159801D03*
D13*
X191819801Y-83869801D03*
%TD*%
D11*
%TO.C,MX3*%
X189279801Y-107999801D03*
D10*
X194359801Y-107999801D03*
X184199801Y-107999801D03*
D15*
X186124802Y-104729801D03*
D13*
X186779801Y-103999801D03*
X191819801Y-102919801D03*
D14*
X191799801Y-103209801D03*
%TD*%
D16*
%TO.C,D1*%
X197534801Y-91107801D03*
X197534801Y-87807801D03*
%TD*%
D17*
%TO.C,USB1*%
X140812000Y-84041000D03*
X135032000Y-84041000D03*
D18*
X134697000Y-85486000D03*
X135472000Y-85486000D03*
D19*
X136172000Y-85486000D03*
X136672000Y-85486000D03*
X137172000Y-85486000D03*
X137672000Y-85486000D03*
X138172000Y-85486000D03*
X138672000Y-85486000D03*
X139172000Y-85486000D03*
X139672000Y-85486000D03*
D18*
X140372000Y-85486000D03*
X141147000Y-85486000D03*
D20*
X142242000Y-80391000D03*
D21*
X142242000Y-84571000D03*
X133602000Y-84571000D03*
D20*
X133602000Y-80391000D03*
%TD*%
D16*
%TO.C,D2*%
X216584801Y-91107801D03*
X216584801Y-87807801D03*
%TD*%
%TO.C,D4*%
X216584801Y-110157801D03*
X216584801Y-106857801D03*
%TD*%
D22*
%TO.C,F1*%
X139322000Y-91821000D03*
X136522000Y-91821000D03*
%TD*%
D23*
%TO.C,C1*%
X169703750Y-84902000D03*
X169703750Y-86802000D03*
%TD*%
D24*
%TO.C,C7*%
X155956000Y-102296000D03*
X155956000Y-100396000D03*
%TD*%
D23*
%TO.C,C3*%
X155956000Y-95443000D03*
X155956000Y-97343000D03*
%TD*%
%TO.C,C5*%
X173609000Y-92903000D03*
X173609000Y-94803000D03*
%TD*%
%TO.C,C4*%
X155702000Y-86172000D03*
X155702000Y-88072000D03*
%TD*%
D25*
%TO.C,Y1*%
X164328750Y-85058250D03*
X166528750Y-85058250D03*
X166528750Y-86758250D03*
X164328750Y-86758250D03*
%TD*%
D26*
%TO.C,R3*%
X151130000Y-100941500D03*
X151130000Y-102766500D03*
%TD*%
D27*
%TO.C,U1*%
X158941801Y-100964500D03*
X158941801Y-100164500D03*
X158941801Y-99364500D03*
X158941801Y-98564500D03*
X158941801Y-97764500D03*
X158941801Y-96964500D03*
X158941801Y-96164500D03*
X158941801Y-95364500D03*
X158941801Y-94564500D03*
X158941801Y-93764500D03*
X158941801Y-92964500D03*
D28*
X160641801Y-91264500D03*
X161441801Y-91264500D03*
X162241801Y-91264500D03*
X163041801Y-91264500D03*
X163841801Y-91264500D03*
X164641801Y-91264500D03*
X165441801Y-91264500D03*
X166241801Y-91264500D03*
X167041801Y-91264500D03*
X167841801Y-91264500D03*
X168641801Y-91264500D03*
D27*
X170341801Y-92964500D03*
X170341801Y-93764500D03*
X170341801Y-94564500D03*
X170341801Y-95364500D03*
X170341801Y-96164500D03*
X170341801Y-96964500D03*
X170341801Y-97764500D03*
X170341801Y-98564500D03*
X170341801Y-99364500D03*
X170341801Y-100164500D03*
X170341801Y-100964500D03*
D28*
X168641801Y-102664500D03*
X167841801Y-102664500D03*
X167041801Y-102664500D03*
X166241801Y-102664500D03*
X165441801Y-102664500D03*
X164641801Y-102664500D03*
X163841801Y-102664500D03*
X163041801Y-102664500D03*
X162241801Y-102664500D03*
X161441801Y-102664500D03*
X160641801Y-102664500D03*
%TD*%
D16*
%TO.C,D3*%
X197407801Y-110157801D03*
X197407801Y-106857801D03*
%TD*%
D29*
%TO.C,C6*%
X167071000Y-105410000D03*
X168971000Y-105410000D03*
%TD*%
D30*
%TO.C,SW1*%
X137743000Y-108911000D03*
X143943000Y-108911000D03*
X143943000Y-105211000D03*
X137743000Y-105211000D03*
%TD*%
D26*
%TO.C,R4*%
X173609000Y-101449500D03*
X173609000Y-103274500D03*
%TD*%
D31*
%TO.C,R1*%
X151384000Y-88034500D03*
X151384000Y-86209500D03*
%TD*%
D26*
%TO.C,R2*%
X151193500Y-97322000D03*
X151193500Y-99147000D03*
%TD*%
D32*
%TO.C,R5*%
X134469500Y-89027000D03*
X136294500Y-89027000D03*
%TD*%
D33*
%TO.C,R6*%
X141628500Y-89027000D03*
X139803500Y-89027000D03*
%TD*%
D24*
%TO.C,C2*%
X160972500Y-86802000D03*
X160972500Y-84902000D03*
%TD*%
D34*
%TO.C,U2*%
X138872000Y-97403500D03*
X137922000Y-97403500D03*
X136972000Y-97403500D03*
X136972000Y-95128500D03*
X137922000Y-95128500D03*
X138872000Y-95128500D03*
%TD*%
M02*
