%TF.GenerationSoftware,KiCad,Pcbnew,(6.0.0)*%
%TF.CreationDate,2023-04-29T04:55:56-07:00*%
%TF.ProjectId,coolpcbproject,636f6f6c-7063-4627-9072-6f6a6563742e,rev?*%
%TF.SameCoordinates,Original*%
%TF.FileFunction,Legend,Bot*%
%TF.FilePolarity,Positive*%
%FSLAX46Y46*%
G04 Gerber Fmt 4.6, Leading zero omitted, Abs format (unit mm)*
G04 Created by KiCad (PCBNEW (6.0.0)) date 2023-04-29 04:55:56*
%MOMM*%
%LPD*%
G01*
G04 APERTURE LIST*
%ADD10C,0.150000*%
%ADD11C,0.120000*%
G04 APERTURE END LIST*
D10*
%TO.C,D1*%
X199987181Y-88719705D02*
X198987181Y-88719705D01*
X198987181Y-88957801D01*
X199034801Y-89100658D01*
X199130039Y-89195896D01*
X199225277Y-89243515D01*
X199415753Y-89291134D01*
X199558610Y-89291134D01*
X199749086Y-89243515D01*
X199844324Y-89195896D01*
X199939562Y-89100658D01*
X199987181Y-88957801D01*
X199987181Y-88719705D01*
X199987181Y-90243515D02*
X199987181Y-89672086D01*
X199987181Y-89957801D02*
X198987181Y-89957801D01*
X199130039Y-89862562D01*
X199225277Y-89767324D01*
X199272896Y-89672086D01*
%TO.C,USB1*%
X132548095Y-81875380D02*
X132548095Y-82684904D01*
X132500476Y-82780142D01*
X132452857Y-82827761D01*
X132357619Y-82875380D01*
X132167142Y-82875380D01*
X132071904Y-82827761D01*
X132024285Y-82780142D01*
X131976666Y-82684904D01*
X131976666Y-81875380D01*
X131548095Y-82827761D02*
X131405238Y-82875380D01*
X131167142Y-82875380D01*
X131071904Y-82827761D01*
X131024285Y-82780142D01*
X130976666Y-82684904D01*
X130976666Y-82589666D01*
X131024285Y-82494428D01*
X131071904Y-82446809D01*
X131167142Y-82399190D01*
X131357619Y-82351571D01*
X131452857Y-82303952D01*
X131500476Y-82256333D01*
X131548095Y-82161095D01*
X131548095Y-82065857D01*
X131500476Y-81970619D01*
X131452857Y-81923000D01*
X131357619Y-81875380D01*
X131119523Y-81875380D01*
X130976666Y-81923000D01*
X130214761Y-82351571D02*
X130071904Y-82399190D01*
X130024285Y-82446809D01*
X129976666Y-82542047D01*
X129976666Y-82684904D01*
X130024285Y-82780142D01*
X130071904Y-82827761D01*
X130167142Y-82875380D01*
X130548095Y-82875380D01*
X130548095Y-81875380D01*
X130214761Y-81875380D01*
X130119523Y-81923000D01*
X130071904Y-81970619D01*
X130024285Y-82065857D01*
X130024285Y-82161095D01*
X130071904Y-82256333D01*
X130119523Y-82303952D01*
X130214761Y-82351571D01*
X130548095Y-82351571D01*
X129024285Y-82875380D02*
X129595714Y-82875380D01*
X129310000Y-82875380D02*
X129310000Y-81875380D01*
X129405238Y-82018238D01*
X129500476Y-82113476D01*
X129595714Y-82161095D01*
%TO.C,D2*%
X219037181Y-88719705D02*
X218037181Y-88719705D01*
X218037181Y-88957801D01*
X218084801Y-89100658D01*
X218180039Y-89195896D01*
X218275277Y-89243515D01*
X218465753Y-89291134D01*
X218608610Y-89291134D01*
X218799086Y-89243515D01*
X218894324Y-89195896D01*
X218989562Y-89100658D01*
X219037181Y-88957801D01*
X219037181Y-88719705D01*
X218132420Y-89672086D02*
X218084801Y-89719705D01*
X218037181Y-89814943D01*
X218037181Y-90053039D01*
X218084801Y-90148277D01*
X218132420Y-90195896D01*
X218227658Y-90243515D01*
X218322896Y-90243515D01*
X218465753Y-90195896D01*
X219037181Y-89624467D01*
X219037181Y-90243515D01*
%TO.C,D4*%
X219037181Y-107769705D02*
X218037181Y-107769705D01*
X218037181Y-108007801D01*
X218084801Y-108150658D01*
X218180039Y-108245896D01*
X218275277Y-108293515D01*
X218465753Y-108341134D01*
X218608610Y-108341134D01*
X218799086Y-108293515D01*
X218894324Y-108245896D01*
X218989562Y-108150658D01*
X219037181Y-108007801D01*
X219037181Y-107769705D01*
X218370515Y-109198277D02*
X219037181Y-109198277D01*
X217989562Y-108960181D02*
X218703848Y-108722086D01*
X218703848Y-109341134D01*
%TO.C,F1*%
X138255333Y-89929571D02*
X138588666Y-89929571D01*
X138588666Y-90453380D02*
X138588666Y-89453380D01*
X138112476Y-89453380D01*
X137207714Y-90453380D02*
X137779142Y-90453380D01*
X137493428Y-90453380D02*
X137493428Y-89453380D01*
X137588666Y-89596238D01*
X137683904Y-89691476D01*
X137779142Y-89739095D01*
%TO.C,C1*%
X168380892Y-85685333D02*
X168428511Y-85637714D01*
X168476130Y-85494857D01*
X168476130Y-85399619D01*
X168428511Y-85256761D01*
X168333273Y-85161523D01*
X168238035Y-85113904D01*
X168047559Y-85066285D01*
X167904702Y-85066285D01*
X167714226Y-85113904D01*
X167618988Y-85161523D01*
X167523750Y-85256761D01*
X167476130Y-85399619D01*
X167476130Y-85494857D01*
X167523750Y-85637714D01*
X167571369Y-85685333D01*
X168476130Y-86637714D02*
X168476130Y-86066285D01*
X168476130Y-86352000D02*
X167476130Y-86352000D01*
X167618988Y-86256761D01*
X167714226Y-86161523D01*
X167761845Y-86066285D01*
%TO.C,C7*%
X157993142Y-101179333D02*
X158040761Y-101131714D01*
X158088380Y-100988857D01*
X158088380Y-100893619D01*
X158040761Y-100750761D01*
X157945523Y-100655523D01*
X157850285Y-100607904D01*
X157659809Y-100560285D01*
X157516952Y-100560285D01*
X157326476Y-100607904D01*
X157231238Y-100655523D01*
X157136000Y-100750761D01*
X157088380Y-100893619D01*
X157088380Y-100988857D01*
X157136000Y-101131714D01*
X157183619Y-101179333D01*
X157088380Y-101512666D02*
X157088380Y-102179333D01*
X158088380Y-101750761D01*
%TO.C,C3*%
X154633142Y-96226333D02*
X154680761Y-96178714D01*
X154728380Y-96035857D01*
X154728380Y-95940619D01*
X154680761Y-95797761D01*
X154585523Y-95702523D01*
X154490285Y-95654904D01*
X154299809Y-95607285D01*
X154156952Y-95607285D01*
X153966476Y-95654904D01*
X153871238Y-95702523D01*
X153776000Y-95797761D01*
X153728380Y-95940619D01*
X153728380Y-96035857D01*
X153776000Y-96178714D01*
X153823619Y-96226333D01*
X153728380Y-96559666D02*
X153728380Y-97178714D01*
X154109333Y-96845380D01*
X154109333Y-96988238D01*
X154156952Y-97083476D01*
X154204571Y-97131095D01*
X154299809Y-97178714D01*
X154537904Y-97178714D01*
X154633142Y-97131095D01*
X154680761Y-97083476D01*
X154728380Y-96988238D01*
X154728380Y-96702523D01*
X154680761Y-96607285D01*
X154633142Y-96559666D01*
%TO.C,C5*%
X172286142Y-93686333D02*
X172333761Y-93638714D01*
X172381380Y-93495857D01*
X172381380Y-93400619D01*
X172333761Y-93257761D01*
X172238523Y-93162523D01*
X172143285Y-93114904D01*
X171952809Y-93067285D01*
X171809952Y-93067285D01*
X171619476Y-93114904D01*
X171524238Y-93162523D01*
X171429000Y-93257761D01*
X171381380Y-93400619D01*
X171381380Y-93495857D01*
X171429000Y-93638714D01*
X171476619Y-93686333D01*
X171381380Y-94591095D02*
X171381380Y-94114904D01*
X171857571Y-94067285D01*
X171809952Y-94114904D01*
X171762333Y-94210142D01*
X171762333Y-94448238D01*
X171809952Y-94543476D01*
X171857571Y-94591095D01*
X171952809Y-94638714D01*
X172190904Y-94638714D01*
X172286142Y-94591095D01*
X172333761Y-94543476D01*
X172381380Y-94448238D01*
X172381380Y-94210142D01*
X172333761Y-94114904D01*
X172286142Y-94067285D01*
%TO.C,C4*%
X155868666Y-85066142D02*
X155916285Y-85113761D01*
X156059142Y-85161380D01*
X156154380Y-85161380D01*
X156297238Y-85113761D01*
X156392476Y-85018523D01*
X156440095Y-84923285D01*
X156487714Y-84732809D01*
X156487714Y-84589952D01*
X156440095Y-84399476D01*
X156392476Y-84304238D01*
X156297238Y-84209000D01*
X156154380Y-84161380D01*
X156059142Y-84161380D01*
X155916285Y-84209000D01*
X155868666Y-84256619D01*
X155011523Y-84494714D02*
X155011523Y-85161380D01*
X155249619Y-84113761D02*
X155487714Y-84828047D01*
X154868666Y-84828047D01*
%TO.C,Y1*%
X165904940Y-88334440D02*
X165904940Y-88810630D01*
X166238273Y-87810630D02*
X165904940Y-88334440D01*
X165571607Y-87810630D01*
X164714464Y-88810630D02*
X165285892Y-88810630D01*
X165000178Y-88810630D02*
X165000178Y-87810630D01*
X165095416Y-87953488D01*
X165190654Y-88048726D01*
X165285892Y-88096345D01*
%TO.C,R3*%
X149932380Y-101687333D02*
X149456190Y-101354000D01*
X149932380Y-101115904D02*
X148932380Y-101115904D01*
X148932380Y-101496857D01*
X148980000Y-101592095D01*
X149027619Y-101639714D01*
X149122857Y-101687333D01*
X149265714Y-101687333D01*
X149360952Y-101639714D01*
X149408571Y-101592095D01*
X149456190Y-101496857D01*
X149456190Y-101115904D01*
X148932380Y-102020666D02*
X148932380Y-102639714D01*
X149313333Y-102306380D01*
X149313333Y-102449238D01*
X149360952Y-102544476D01*
X149408571Y-102592095D01*
X149503809Y-102639714D01*
X149741904Y-102639714D01*
X149837142Y-102592095D01*
X149884761Y-102544476D01*
X149932380Y-102449238D01*
X149932380Y-102163523D01*
X149884761Y-102068285D01*
X149837142Y-102020666D01*
%TO.C,U1*%
X165709955Y-77811380D02*
X165709955Y-78620904D01*
X165662336Y-78716142D01*
X165614717Y-78763761D01*
X165519479Y-78811380D01*
X165329003Y-78811380D01*
X165233765Y-78763761D01*
X165186146Y-78716142D01*
X165138527Y-78620904D01*
X165138527Y-77811380D01*
X164138527Y-78811380D02*
X164709955Y-78811380D01*
X164424241Y-78811380D02*
X164424241Y-77811380D01*
X164519479Y-77954238D01*
X164614717Y-78049476D01*
X164709955Y-78097095D01*
%TO.C,D3*%
X199860181Y-107769705D02*
X198860181Y-107769705D01*
X198860181Y-108007801D01*
X198907801Y-108150658D01*
X199003039Y-108245896D01*
X199098277Y-108293515D01*
X199288753Y-108341134D01*
X199431610Y-108341134D01*
X199622086Y-108293515D01*
X199717324Y-108245896D01*
X199812562Y-108150658D01*
X199860181Y-108007801D01*
X199860181Y-107769705D01*
X198860181Y-108674467D02*
X198860181Y-109293515D01*
X199241134Y-108960181D01*
X199241134Y-109103039D01*
X199288753Y-109198277D01*
X199336372Y-109245896D01*
X199431610Y-109293515D01*
X199669705Y-109293515D01*
X199764943Y-109245896D01*
X199812562Y-109198277D01*
X199860181Y-109103039D01*
X199860181Y-108817324D01*
X199812562Y-108722086D01*
X199764943Y-108674467D01*
%TO.C,C6*%
X168187666Y-107447142D02*
X168235285Y-107494761D01*
X168378142Y-107542380D01*
X168473380Y-107542380D01*
X168616238Y-107494761D01*
X168711476Y-107399523D01*
X168759095Y-107304285D01*
X168806714Y-107113809D01*
X168806714Y-106970952D01*
X168759095Y-106780476D01*
X168711476Y-106685238D01*
X168616238Y-106590000D01*
X168473380Y-106542380D01*
X168378142Y-106542380D01*
X168235285Y-106590000D01*
X168187666Y-106637619D01*
X167330523Y-106542380D02*
X167521000Y-106542380D01*
X167616238Y-106590000D01*
X167663857Y-106637619D01*
X167759095Y-106780476D01*
X167806714Y-106970952D01*
X167806714Y-107351904D01*
X167759095Y-107447142D01*
X167711476Y-107494761D01*
X167616238Y-107542380D01*
X167425761Y-107542380D01*
X167330523Y-107494761D01*
X167282904Y-107447142D01*
X167235285Y-107351904D01*
X167235285Y-107113809D01*
X167282904Y-107018571D01*
X167330523Y-106970952D01*
X167425761Y-106923333D01*
X167616238Y-106923333D01*
X167711476Y-106970952D01*
X167759095Y-107018571D01*
X167806714Y-107113809D01*
%TO.C,SW1*%
X142176333Y-111065761D02*
X142033476Y-111113380D01*
X141795380Y-111113380D01*
X141700142Y-111065761D01*
X141652523Y-111018142D01*
X141604904Y-110922904D01*
X141604904Y-110827666D01*
X141652523Y-110732428D01*
X141700142Y-110684809D01*
X141795380Y-110637190D01*
X141985857Y-110589571D01*
X142081095Y-110541952D01*
X142128714Y-110494333D01*
X142176333Y-110399095D01*
X142176333Y-110303857D01*
X142128714Y-110208619D01*
X142081095Y-110161000D01*
X141985857Y-110113380D01*
X141747761Y-110113380D01*
X141604904Y-110161000D01*
X141271571Y-110113380D02*
X141033476Y-111113380D01*
X140843000Y-110399095D01*
X140652523Y-111113380D01*
X140414428Y-110113380D01*
X139509666Y-111113380D02*
X140081095Y-111113380D01*
X139795380Y-111113380D02*
X139795380Y-110113380D01*
X139890619Y-110256238D01*
X139985857Y-110351476D01*
X140081095Y-110399095D01*
%TO.C,R4*%
X172411380Y-102195333D02*
X171935190Y-101862000D01*
X172411380Y-101623904D02*
X171411380Y-101623904D01*
X171411380Y-102004857D01*
X171459000Y-102100095D01*
X171506619Y-102147714D01*
X171601857Y-102195333D01*
X171744714Y-102195333D01*
X171839952Y-102147714D01*
X171887571Y-102100095D01*
X171935190Y-102004857D01*
X171935190Y-101623904D01*
X171744714Y-103052476D02*
X172411380Y-103052476D01*
X171363761Y-102814380D02*
X172078047Y-102576285D01*
X172078047Y-103195333D01*
%TO.C,R1*%
X151550666Y-85161380D02*
X151884000Y-84685190D01*
X152122095Y-85161380D02*
X152122095Y-84161380D01*
X151741142Y-84161380D01*
X151645904Y-84209000D01*
X151598285Y-84256619D01*
X151550666Y-84351857D01*
X151550666Y-84494714D01*
X151598285Y-84589952D01*
X151645904Y-84637571D01*
X151741142Y-84685190D01*
X152122095Y-84685190D01*
X150598285Y-85161380D02*
X151169714Y-85161380D01*
X150884000Y-85161380D02*
X150884000Y-84161380D01*
X150979238Y-84304238D01*
X151074476Y-84399476D01*
X151169714Y-84447095D01*
%TO.C,R2*%
X149995880Y-98067833D02*
X149519690Y-97734500D01*
X149995880Y-97496404D02*
X148995880Y-97496404D01*
X148995880Y-97877357D01*
X149043500Y-97972595D01*
X149091119Y-98020214D01*
X149186357Y-98067833D01*
X149329214Y-98067833D01*
X149424452Y-98020214D01*
X149472071Y-97972595D01*
X149519690Y-97877357D01*
X149519690Y-97496404D01*
X149091119Y-98448785D02*
X149043500Y-98496404D01*
X148995880Y-98591642D01*
X148995880Y-98829738D01*
X149043500Y-98924976D01*
X149091119Y-98972595D01*
X149186357Y-99020214D01*
X149281595Y-99020214D01*
X149424452Y-98972595D01*
X149995880Y-98401166D01*
X149995880Y-99020214D01*
%TO.C,R5*%
X142279666Y-92146380D02*
X142613000Y-91670190D01*
X142851095Y-92146380D02*
X142851095Y-91146380D01*
X142470142Y-91146380D01*
X142374904Y-91194000D01*
X142327285Y-91241619D01*
X142279666Y-91336857D01*
X142279666Y-91479714D01*
X142327285Y-91574952D01*
X142374904Y-91622571D01*
X142470142Y-91670190D01*
X142851095Y-91670190D01*
X141374904Y-91146380D02*
X141851095Y-91146380D01*
X141898714Y-91622571D01*
X141851095Y-91574952D01*
X141755857Y-91527333D01*
X141517761Y-91527333D01*
X141422523Y-91574952D01*
X141374904Y-91622571D01*
X141327285Y-91717809D01*
X141327285Y-91955904D01*
X141374904Y-92051142D01*
X141422523Y-92098761D01*
X141517761Y-92146380D01*
X141755857Y-92146380D01*
X141851095Y-92098761D01*
X141898714Y-92051142D01*
%TO.C,R6*%
X140882666Y-87829380D02*
X141216000Y-87353190D01*
X141454095Y-87829380D02*
X141454095Y-86829380D01*
X141073142Y-86829380D01*
X140977904Y-86877000D01*
X140930285Y-86924619D01*
X140882666Y-87019857D01*
X140882666Y-87162714D01*
X140930285Y-87257952D01*
X140977904Y-87305571D01*
X141073142Y-87353190D01*
X141454095Y-87353190D01*
X140025523Y-86829380D02*
X140216000Y-86829380D01*
X140311238Y-86877000D01*
X140358857Y-86924619D01*
X140454095Y-87067476D01*
X140501714Y-87257952D01*
X140501714Y-87638904D01*
X140454095Y-87734142D01*
X140406476Y-87781761D01*
X140311238Y-87829380D01*
X140120761Y-87829380D01*
X140025523Y-87781761D01*
X139977904Y-87734142D01*
X139930285Y-87638904D01*
X139930285Y-87400809D01*
X139977904Y-87305571D01*
X140025523Y-87257952D01*
X140120761Y-87210333D01*
X140311238Y-87210333D01*
X140406476Y-87257952D01*
X140454095Y-87305571D01*
X140501714Y-87400809D01*
%TO.C,C2*%
X163009642Y-85685333D02*
X163057261Y-85637714D01*
X163104880Y-85494857D01*
X163104880Y-85399619D01*
X163057261Y-85256761D01*
X162962023Y-85161523D01*
X162866785Y-85113904D01*
X162676309Y-85066285D01*
X162533452Y-85066285D01*
X162342976Y-85113904D01*
X162247738Y-85161523D01*
X162152500Y-85256761D01*
X162104880Y-85399619D01*
X162104880Y-85494857D01*
X162152500Y-85637714D01*
X162200119Y-85685333D01*
X162200119Y-86066285D02*
X162152500Y-86113904D01*
X162104880Y-86209142D01*
X162104880Y-86447238D01*
X162152500Y-86542476D01*
X162200119Y-86590095D01*
X162295357Y-86637714D01*
X162390595Y-86637714D01*
X162533452Y-86590095D01*
X163104880Y-86018666D01*
X163104880Y-86637714D01*
%TO.C,U2*%
X139774380Y-94710345D02*
X140583904Y-94710345D01*
X140679142Y-94757964D01*
X140726761Y-94805583D01*
X140774380Y-94900821D01*
X140774380Y-95091297D01*
X140726761Y-95186535D01*
X140679142Y-95234154D01*
X140583904Y-95281773D01*
X139774380Y-95281773D01*
X139869619Y-95710345D02*
X139822000Y-95757964D01*
X139774380Y-95853202D01*
X139774380Y-96091297D01*
X139822000Y-96186535D01*
X139869619Y-96234154D01*
X139964857Y-96281773D01*
X140060095Y-96281773D01*
X140202952Y-96234154D01*
X140774380Y-95662726D01*
X140774380Y-96281773D01*
D11*
%TO.C,D1*%
X196534801Y-91707801D02*
X196534801Y-87807801D01*
X198534801Y-91707801D02*
X198534801Y-87807801D01*
X198534801Y-91707801D02*
X196534801Y-91707801D01*
%TO.C,D2*%
X215584801Y-91707801D02*
X215584801Y-87807801D01*
X217584801Y-91707801D02*
X217584801Y-87807801D01*
X217584801Y-91707801D02*
X215584801Y-91707801D01*
%TO.C,D4*%
X215584801Y-110757801D02*
X215584801Y-106857801D01*
X217584801Y-110757801D02*
X215584801Y-110757801D01*
X217584801Y-110757801D02*
X217584801Y-106857801D01*
%TO.C,F1*%
X138524064Y-90911000D02*
X137319936Y-90911000D01*
X138524064Y-92731000D02*
X137319936Y-92731000D01*
%TO.C,C1*%
X170438750Y-85590748D02*
X170438750Y-86113252D01*
X168968750Y-85590748D02*
X168968750Y-86113252D01*
%TO.C,C7*%
X156691000Y-101607252D02*
X156691000Y-101084748D01*
X155221000Y-101607252D02*
X155221000Y-101084748D01*
%TO.C,C3*%
X156691000Y-96131748D02*
X156691000Y-96654252D01*
X155221000Y-96131748D02*
X155221000Y-96654252D01*
%TO.C,C5*%
X172874000Y-93591748D02*
X172874000Y-94114252D01*
X174344000Y-93591748D02*
X174344000Y-94114252D01*
%TO.C,C4*%
X154967000Y-86860748D02*
X154967000Y-87383252D01*
X156437000Y-86860748D02*
X156437000Y-87383252D01*
%TO.C,Y1*%
X163428750Y-84258250D02*
X167428750Y-84258250D01*
X163428750Y-87558250D02*
X163428750Y-84258250D01*
%TO.C,R3*%
X150395000Y-101626936D02*
X150395000Y-102081064D01*
X151865000Y-101626936D02*
X151865000Y-102081064D01*
D10*
%TO.C,U1*%
X169816801Y-102139500D02*
X169816801Y-101464500D01*
X169816801Y-91789500D02*
X169141801Y-91789500D01*
X159466801Y-101564500D02*
X158191801Y-101564500D01*
X169816801Y-102139500D02*
X169141801Y-102139500D01*
X159466801Y-102139500D02*
X160141801Y-102139500D01*
X159466801Y-91789500D02*
X159466801Y-92464500D01*
X169816801Y-91789500D02*
X169816801Y-92464500D01*
X159466801Y-102139500D02*
X159466801Y-101564500D01*
X159466801Y-91789500D02*
X160141801Y-91789500D01*
D11*
%TO.C,D3*%
X198407801Y-110757801D02*
X196407801Y-110757801D01*
X198407801Y-110757801D02*
X198407801Y-106857801D01*
X196407801Y-110757801D02*
X196407801Y-106857801D01*
%TO.C,C6*%
X167759748Y-106145000D02*
X168282252Y-106145000D01*
X167759748Y-104675000D02*
X168282252Y-104675000D01*
%TO.C,SW1*%
X139393000Y-104341000D02*
X142293000Y-104341000D01*
X139393000Y-104341000D02*
X138903000Y-104831000D01*
X143563000Y-106021000D02*
X143563000Y-108101000D01*
X142293000Y-109781000D02*
X142783000Y-109291000D01*
X139393000Y-109781000D02*
X138903000Y-109291000D01*
X142293000Y-104341000D02*
X142783000Y-104831000D01*
X139393000Y-109781000D02*
X142293000Y-109781000D01*
X138123000Y-106021000D02*
X138123000Y-108101000D01*
%TO.C,R4*%
X174344000Y-102134936D02*
X174344000Y-102589064D01*
X172874000Y-102134936D02*
X172874000Y-102589064D01*
%TO.C,R1*%
X152119000Y-87349064D02*
X152119000Y-86894936D01*
X150649000Y-87349064D02*
X150649000Y-86894936D01*
%TO.C,R2*%
X150458500Y-98007436D02*
X150458500Y-98461564D01*
X151928500Y-98007436D02*
X151928500Y-98461564D01*
%TO.C,R5*%
X135154936Y-89762000D02*
X135609064Y-89762000D01*
X135154936Y-88292000D02*
X135609064Y-88292000D01*
%TO.C,R6*%
X140943064Y-88292000D02*
X140488936Y-88292000D01*
X140943064Y-89762000D02*
X140488936Y-89762000D01*
%TO.C,C2*%
X160237500Y-86113252D02*
X160237500Y-85590748D01*
X161707500Y-86113252D02*
X161707500Y-85590748D01*
%TO.C,U2*%
X136362000Y-96266000D02*
X136362000Y-97066000D01*
X136362000Y-96266000D02*
X136362000Y-95466000D01*
X139482000Y-96266000D02*
X139482000Y-98066000D01*
X139482000Y-96266000D02*
X139482000Y-95466000D01*
%TD*%
M02*
